G04*
G04 #@! TF.GenerationSoftware,Altium Limited,Altium Designer,22.1.2 (22)*
G04*
G04 Layer_Physical_Order=1*
G04 Layer_Color=255*
%FSLAX25Y25*%
%MOIN*%
G70*
G04*
G04 #@! TF.SameCoordinates,CA9A308F-EC6D-4BF3-840D-A7C0D9005CE4*
G04*
G04*
G04 #@! TF.FilePolarity,Positive*
G04*
G01*
G75*
%ADD12C,0.00787*%
%ADD15R,0.05315X0.04528*%
%ADD16R,0.04528X0.05315*%
%ADD17R,0.04724X0.06496*%
%ADD18R,0.06102X0.05315*%
%ADD19R,0.06496X0.04724*%
G04:AMPARAMS|DCode=20|XSize=47.64mil|YSize=71.65mil|CornerRadius=7.86mil|HoleSize=0mil|Usage=FLASHONLY|Rotation=90.000|XOffset=0mil|YOffset=0mil|HoleType=Round|Shape=RoundedRectangle|*
%AMROUNDEDRECTD20*
21,1,0.04764,0.05593,0,0,90.0*
21,1,0.03192,0.07165,0,0,90.0*
1,1,0.01572,0.02797,0.01596*
1,1,0.01572,0.02797,-0.01596*
1,1,0.01572,-0.02797,-0.01596*
1,1,0.01572,-0.02797,0.01596*
%
%ADD20ROUNDEDRECTD20*%
%ADD21R,0.05315X0.06102*%
%ADD36C,0.05941*%
%ADD37C,0.12165*%
%ADD38R,0.05512X0.05512*%
%ADD39C,0.05512*%
%ADD40C,0.12795*%
%ADD41C,0.09449*%
%ADD42C,0.06000*%
%ADD43C,0.05000*%
%ADD44C,0.01968*%
G36*
X431496Y337795D02*
Y11417D01*
X428518Y8439D01*
X428094Y8723D01*
X428468Y9624D01*
X428756Y11073D01*
Y12549D01*
X428468Y13997D01*
X427903Y15362D01*
X427082Y16590D01*
X426038Y17634D01*
X424811Y18454D01*
X423446Y19019D01*
X421998Y19307D01*
X420521D01*
X419073Y19019D01*
X417709Y18454D01*
X416481Y17634D01*
X415437Y16590D01*
X414617Y15362D01*
X414052Y13997D01*
X413764Y12549D01*
Y11073D01*
X414052Y9624D01*
X414617Y8260D01*
X415437Y7033D01*
X416481Y5988D01*
X417709Y5168D01*
X419073Y4603D01*
X420521Y4315D01*
X421998D01*
X423446Y4603D01*
X424348Y4977D01*
X424632Y4553D01*
X423622Y3543D01*
X8268D01*
X1575Y9449D01*
Y336614D01*
X11024Y345276D01*
X424016D01*
X431496Y337795D01*
D02*
G37*
%LPC*%
G36*
X421998Y342142D02*
X420521D01*
X419073Y341854D01*
X417709Y341289D01*
X416481Y340468D01*
X415437Y339424D01*
X414617Y338196D01*
X414052Y336832D01*
X413764Y335384D01*
Y333907D01*
X414052Y332459D01*
X414617Y331095D01*
X415437Y329867D01*
X416481Y328823D01*
X417709Y328003D01*
X419073Y327438D01*
X420521Y327150D01*
X421998D01*
X423446Y327438D01*
X424811Y328003D01*
X426038Y328823D01*
X427082Y329867D01*
X427903Y331095D01*
X428468Y332459D01*
X428756Y333907D01*
Y335384D01*
X428468Y336832D01*
X427903Y338196D01*
X427082Y339424D01*
X426038Y340468D01*
X424811Y341289D01*
X423446Y341854D01*
X421998Y342142D01*
D02*
G37*
G36*
X12549D02*
X11073D01*
X9624Y341854D01*
X8260Y341289D01*
X7033Y340468D01*
X5988Y339424D01*
X5168Y338196D01*
X4603Y336832D01*
X4315Y335384D01*
Y333907D01*
X4603Y332459D01*
X5168Y331095D01*
X5988Y329867D01*
X7033Y328823D01*
X8260Y328003D01*
X9624Y327438D01*
X11073Y327150D01*
X12549D01*
X13997Y327438D01*
X15362Y328003D01*
X16590Y328823D01*
X17634Y329867D01*
X18454Y331095D01*
X19019Y332459D01*
X19307Y333907D01*
Y335384D01*
X19019Y336832D01*
X18454Y338196D01*
X17634Y339424D01*
X16590Y340468D01*
X15362Y341289D01*
X13997Y341854D01*
X12549Y342142D01*
D02*
G37*
G36*
X398925Y327505D02*
Y324516D01*
X401915D01*
X401687Y325367D01*
X401226Y326165D01*
X400574Y326816D01*
X399776Y327277D01*
X398925Y327505D01*
D02*
G37*
G36*
X397925D02*
X397074Y327277D01*
X396276Y326816D01*
X395624Y326165D01*
X395164Y325367D01*
X394936Y324516D01*
X397925D01*
Y327505D01*
D02*
G37*
G36*
X401915Y323516D02*
X398925D01*
Y320526D01*
X399776Y320754D01*
X400574Y321215D01*
X401226Y321867D01*
X401687Y322665D01*
X401915Y323516D01*
D02*
G37*
G36*
X397925D02*
X394936D01*
X395164Y322665D01*
X395624Y321867D01*
X396276Y321215D01*
X397074Y320754D01*
X397925Y320526D01*
Y323516D01*
D02*
G37*
G36*
X236244Y320732D02*
X234890D01*
X233563Y320468D01*
X232313Y319950D01*
X231188Y319198D01*
X230231Y318242D01*
X229479Y317116D01*
X228961Y315866D01*
X228802Y315066D01*
X202332D01*
X202173Y315866D01*
X201655Y317116D01*
X200903Y318242D01*
X199946Y319198D01*
X198821Y319950D01*
X197571Y320468D01*
X196244Y320732D01*
X194890D01*
X193563Y320468D01*
X192313Y319950D01*
X191188Y319198D01*
X190231Y318242D01*
X189479Y317116D01*
X188961Y315866D01*
X188697Y314539D01*
Y313186D01*
X188961Y311858D01*
X189479Y310608D01*
X190231Y309483D01*
X191188Y308526D01*
X192313Y307774D01*
X193563Y307256D01*
X194363Y307097D01*
Y303862D01*
X194363Y303862D01*
X194454Y303401D01*
X194715Y303011D01*
X202193Y295533D01*
X202065Y295313D01*
X201809Y294357D01*
Y293368D01*
X202065Y292412D01*
X202560Y291555D01*
X203259Y290855D01*
X204116Y290360D01*
X204363Y290294D01*
Y279807D01*
X202461D01*
Y272917D01*
X204308D01*
Y268406D01*
X202067D01*
Y262303D01*
X208957D01*
Y268406D01*
X206716D01*
Y272917D01*
X208563D01*
Y279807D01*
X206771D01*
Y290294D01*
X207017Y290360D01*
X207874Y290855D01*
X208574Y291555D01*
X209069Y292412D01*
X209325Y293368D01*
Y294357D01*
X209069Y295313D01*
X208574Y296170D01*
X207874Y296869D01*
X207017Y297364D01*
X206062Y297620D01*
X205072D01*
X204116Y297364D01*
X203896Y297236D01*
X196771Y304361D01*
Y307097D01*
X197571Y307256D01*
X198821Y307774D01*
X199946Y308526D01*
X200903Y309483D01*
X201655Y310608D01*
X202173Y311858D01*
X202332Y312658D01*
X228802D01*
X228961Y311858D01*
X229479Y310608D01*
X230231Y309483D01*
X231188Y308526D01*
X232313Y307774D01*
X233563Y307256D01*
X234890Y306992D01*
X236244D01*
X237571Y307256D01*
X238821Y307774D01*
X239946Y308526D01*
X240903Y309483D01*
X241655Y310608D01*
X242173Y311858D01*
X242437Y313186D01*
Y314539D01*
X242173Y315866D01*
X241655Y317116D01*
X240903Y318242D01*
X239946Y319198D01*
X238821Y319950D01*
X237571Y320468D01*
X236244Y320732D01*
D02*
G37*
G36*
X310259D02*
X308906D01*
X307579Y320468D01*
X306329Y319950D01*
X305203Y319198D01*
X304246Y318242D01*
X303495Y317116D01*
X302977Y315866D01*
X302739Y314673D01*
X276426D01*
X276189Y315866D01*
X275671Y317116D01*
X274919Y318242D01*
X273962Y319198D01*
X272837Y319950D01*
X271587Y320468D01*
X270259Y320732D01*
X268906D01*
X267579Y320468D01*
X266329Y319950D01*
X265203Y319198D01*
X264246Y318242D01*
X263494Y317116D01*
X262977Y315866D01*
X262713Y314539D01*
Y313186D01*
X262977Y311858D01*
X263494Y310608D01*
X264246Y309483D01*
X265203Y308526D01*
X266329Y307774D01*
X267579Y307256D01*
X268378Y307097D01*
Y303469D01*
X268378Y303468D01*
X268470Y303008D01*
X268731Y302617D01*
X276071Y295277D01*
X275825Y294357D01*
Y293368D01*
X276081Y292412D01*
X276576Y291555D01*
X277275Y290855D01*
X278132Y290360D01*
X278378Y290294D01*
Y279413D01*
X276476D01*
Y272524D01*
X278323D01*
Y268012D01*
X276083D01*
Y261910D01*
X282972D01*
Y268012D01*
X280732D01*
Y272524D01*
X282579D01*
Y279413D01*
X280787D01*
Y290294D01*
X281033Y290360D01*
X281890Y290855D01*
X282590Y291555D01*
X283085Y292412D01*
X283341Y293368D01*
Y294357D01*
X283085Y295313D01*
X282590Y296170D01*
X281890Y296869D01*
X281033Y297364D01*
X280077Y297620D01*
X279088D01*
X278132Y297364D01*
X277662Y297092D01*
X270787Y303967D01*
Y307097D01*
X271587Y307256D01*
X272837Y307774D01*
X273962Y308526D01*
X274919Y309483D01*
X275671Y310608D01*
X276189Y311858D01*
X276270Y312264D01*
X302896D01*
X302977Y311858D01*
X303495Y310608D01*
X304246Y309483D01*
X305203Y308526D01*
X306329Y307774D01*
X307579Y307256D01*
X308906Y306992D01*
X310259D01*
X311587Y307256D01*
X312837Y307774D01*
X313962Y308526D01*
X314919Y309483D01*
X315671Y310608D01*
X316189Y311858D01*
X316453Y313186D01*
Y314539D01*
X316189Y315866D01*
X315671Y317116D01*
X314919Y318242D01*
X313962Y319198D01*
X312837Y319950D01*
X311587Y320468D01*
X310259Y320732D01*
D02*
G37*
G36*
X161440D02*
X160087D01*
X158760Y320468D01*
X157510Y319950D01*
X156384Y319198D01*
X155427Y318242D01*
X154676Y317116D01*
X154158Y315866D01*
X153894Y314539D01*
Y314129D01*
X127634D01*
Y314539D01*
X127370Y315866D01*
X126852Y317116D01*
X126100Y318242D01*
X125143Y319198D01*
X124018Y319950D01*
X122768Y320468D01*
X121440Y320732D01*
X120087D01*
X118760Y320468D01*
X117510Y319950D01*
X116384Y319198D01*
X115427Y318242D01*
X114676Y317116D01*
X114158Y315866D01*
X113894Y314539D01*
Y313186D01*
X114158Y311858D01*
X114676Y310608D01*
X115427Y309483D01*
X116384Y308526D01*
X117510Y307774D01*
X118760Y307256D01*
X119560Y307097D01*
Y302925D01*
X119560Y302925D01*
X119651Y302464D01*
X119912Y302074D01*
X127138Y294848D01*
X127006Y294357D01*
Y293368D01*
X127262Y292412D01*
X127757Y291555D01*
X128456Y290855D01*
X129313Y290360D01*
X129560Y290294D01*
Y278870D01*
X127657D01*
Y271980D01*
X129504D01*
Y267469D01*
X127264D01*
Y261366D01*
X134153D01*
Y267469D01*
X131913D01*
Y271980D01*
X133760D01*
Y278870D01*
X131968D01*
Y290294D01*
X132214Y290360D01*
X133071Y290855D01*
X133771Y291555D01*
X134266Y292412D01*
X134522Y293368D01*
Y294357D01*
X134266Y295313D01*
X133771Y296170D01*
X133071Y296869D01*
X132214Y297364D01*
X131258Y297620D01*
X130269D01*
X129313Y297364D01*
X128498Y296894D01*
X121968Y303424D01*
Y307097D01*
X122768Y307256D01*
X124018Y307774D01*
X125143Y308526D01*
X126100Y309483D01*
X126852Y310608D01*
X127313Y311721D01*
X154215D01*
X154676Y310608D01*
X155427Y309483D01*
X156384Y308526D01*
X157510Y307774D01*
X158760Y307256D01*
X160087Y306992D01*
X161440D01*
X162768Y307256D01*
X164018Y307774D01*
X165143Y308526D01*
X166100Y309483D01*
X166852Y310608D01*
X167370Y311858D01*
X167634Y313186D01*
Y314539D01*
X167370Y315866D01*
X166852Y317116D01*
X166100Y318242D01*
X165143Y319198D01*
X164018Y319950D01*
X162768Y320468D01*
X161440Y320732D01*
D02*
G37*
G36*
X201886Y280020D02*
X199122D01*
Y276862D01*
X201886D01*
Y280020D01*
D02*
G37*
G36*
X198122D02*
X195358D01*
Y276862D01*
X198122D01*
Y280020D01*
D02*
G37*
G36*
X275902Y279626D02*
X273138D01*
Y276468D01*
X275902D01*
Y279626D01*
D02*
G37*
G36*
X272138D02*
X269374D01*
Y276468D01*
X272138D01*
Y279626D01*
D02*
G37*
G36*
X216062Y297620D02*
X215072D01*
X214116Y297364D01*
X213260Y296869D01*
X212560Y296170D01*
X212065Y295313D01*
X211809Y294357D01*
Y293368D01*
X212065Y292412D01*
X212560Y291555D01*
X213260Y290855D01*
X214116Y290360D01*
X214363Y290294D01*
Y282677D01*
X211713D01*
Y276378D01*
X219783D01*
Y282677D01*
X216771D01*
Y290294D01*
X217017Y290360D01*
X217874Y290855D01*
X218574Y291555D01*
X219069Y292412D01*
X219325Y293368D01*
Y294357D01*
X219069Y295313D01*
X218574Y296170D01*
X217874Y296869D01*
X217017Y297364D01*
X216062Y297620D01*
D02*
G37*
G36*
X290077D02*
X289088D01*
X288132Y297364D01*
X287275Y296869D01*
X286576Y296170D01*
X286081Y295313D01*
X285825Y294357D01*
Y293368D01*
X286081Y292412D01*
X286576Y291555D01*
X287275Y290855D01*
X288132Y290360D01*
X288378Y290294D01*
Y282283D01*
X285728D01*
Y275984D01*
X293799D01*
Y282283D01*
X290787D01*
Y290294D01*
X291033Y290360D01*
X291890Y290855D01*
X292590Y291555D01*
X293085Y292412D01*
X293340Y293368D01*
Y294357D01*
X293085Y295313D01*
X292590Y296170D01*
X291890Y296869D01*
X291033Y297364D01*
X290077Y297620D01*
D02*
G37*
G36*
X127083Y279083D02*
X124319D01*
Y275925D01*
X127083D01*
Y279083D01*
D02*
G37*
G36*
X123319D02*
X120555D01*
Y275925D01*
X123319D01*
Y279083D01*
D02*
G37*
G36*
X141259Y297620D02*
X140269D01*
X139313Y297364D01*
X138456Y296869D01*
X137757Y296170D01*
X137262Y295313D01*
X137006Y294357D01*
Y293368D01*
X137262Y292412D01*
X137757Y291555D01*
X138456Y290855D01*
X139313Y290360D01*
X139559Y290294D01*
Y281890D01*
X136909D01*
Y275591D01*
X144980D01*
Y281890D01*
X141968D01*
Y290294D01*
X142214Y290360D01*
X143071Y290855D01*
X143771Y291555D01*
X144266Y292412D01*
X144522Y293368D01*
Y294357D01*
X144266Y295313D01*
X143771Y296170D01*
X143071Y296869D01*
X142214Y297364D01*
X141259Y297620D01*
D02*
G37*
G36*
X201886Y275862D02*
X199122D01*
Y272705D01*
X201886D01*
Y275862D01*
D02*
G37*
G36*
X198122D02*
X195358D01*
Y272705D01*
X198122D01*
Y275862D01*
D02*
G37*
G36*
X275902Y275468D02*
X273138D01*
Y272311D01*
X275902D01*
Y275468D01*
D02*
G37*
G36*
X272138D02*
X269374D01*
Y272311D01*
X272138D01*
Y275468D01*
D02*
G37*
G36*
X127083Y274925D02*
X124319D01*
Y271768D01*
X127083D01*
Y274925D01*
D02*
G37*
G36*
X123319D02*
X120555D01*
Y271768D01*
X123319D01*
Y274925D01*
D02*
G37*
G36*
X56799Y266482D02*
Y263492D01*
X59789D01*
X59561Y264343D01*
X59100Y265141D01*
X58448Y265793D01*
X57650Y266254D01*
X56799Y266482D01*
D02*
G37*
G36*
X55799D02*
X54948Y266254D01*
X54150Y265793D01*
X53499Y265141D01*
X53038Y264343D01*
X52810Y263492D01*
X55799D01*
Y266482D01*
D02*
G37*
G36*
X301689Y263106D02*
X298532D01*
Y259555D01*
X301689D01*
Y263106D01*
D02*
G37*
G36*
X297532D02*
X294374D01*
Y259555D01*
X297532D01*
Y263106D01*
D02*
G37*
G36*
X59789Y262492D02*
X56799D01*
Y259503D01*
X57650Y259731D01*
X58448Y260191D01*
X59100Y260843D01*
X59561Y261641D01*
X59789Y262492D01*
D02*
G37*
G36*
X55799D02*
X52810D01*
X53038Y261641D01*
X53499Y260843D01*
X54150Y260191D01*
X54948Y259731D01*
X55799Y259503D01*
Y262492D01*
D02*
G37*
G36*
X227673Y262713D02*
X224516D01*
Y259161D01*
X227673D01*
Y262713D01*
D02*
G37*
G36*
X223516D02*
X220358D01*
Y259161D01*
X223516D01*
Y262713D01*
D02*
G37*
G36*
X152476Y261925D02*
X149319D01*
Y258374D01*
X152476D01*
Y261925D01*
D02*
G37*
G36*
X148319D02*
X145161D01*
Y258374D01*
X148319D01*
Y261925D01*
D02*
G37*
G36*
X301689Y258555D02*
X298532D01*
Y255004D01*
X301689D01*
Y258555D01*
D02*
G37*
G36*
X297532D02*
X294374D01*
Y255004D01*
X297532D01*
Y258555D01*
D02*
G37*
G36*
X227673Y258161D02*
X224516D01*
Y254610D01*
X227673D01*
Y258161D01*
D02*
G37*
G36*
X223516D02*
X220358D01*
Y254610D01*
X223516D01*
Y258161D01*
D02*
G37*
G36*
X152476Y257374D02*
X149319D01*
Y253823D01*
X152476D01*
Y257374D01*
D02*
G37*
G36*
X148319D02*
X145161D01*
Y253823D01*
X148319D01*
Y257374D01*
D02*
G37*
G36*
X293799Y271260D02*
X285728D01*
Y264961D01*
X288560D01*
Y262894D01*
X286713D01*
Y255217D01*
X288953D01*
Y253740D01*
X286713D01*
Y247638D01*
X293602D01*
Y253740D01*
X291362D01*
Y255217D01*
X293602D01*
Y262894D01*
X290968D01*
Y264961D01*
X293799D01*
Y271260D01*
D02*
G37*
G36*
X219783Y271654D02*
X211713D01*
Y265354D01*
X214937D01*
Y262500D01*
X212697D01*
Y254823D01*
X214937D01*
Y253346D01*
X212697D01*
Y247244D01*
X219587D01*
Y253346D01*
X217346D01*
Y254823D01*
X219587D01*
Y262500D01*
X217346D01*
Y265354D01*
X219783D01*
Y271654D01*
D02*
G37*
G36*
X144980Y270866D02*
X136909D01*
Y264567D01*
X139741D01*
Y261713D01*
X137500D01*
Y254035D01*
X139741D01*
Y250984D01*
X137500D01*
Y244882D01*
X144390D01*
Y250984D01*
X142149D01*
Y254035D01*
X144390D01*
Y261713D01*
X142149D01*
Y264567D01*
X144980D01*
Y270866D01*
D02*
G37*
G36*
X40777Y243776D02*
X39325D01*
X37924Y243400D01*
X37096Y242922D01*
X37040Y242977D01*
X36650Y243238D01*
X36189Y243330D01*
X36189Y243330D01*
X20866D01*
X20866Y243330D01*
X20405Y243238D01*
X20015Y242977D01*
X10960Y233922D01*
X10698Y233532D01*
X10607Y233071D01*
X10607Y233071D01*
Y117323D01*
X10607Y117323D01*
X10698Y116862D01*
X10960Y116471D01*
X19227Y108204D01*
X19227Y108204D01*
X19618Y107943D01*
X20079Y107851D01*
X20079Y107851D01*
X35560D01*
X35561Y107851D01*
X36021Y107943D01*
X36355Y108165D01*
X36667Y107853D01*
X37924Y107128D01*
X39325Y106752D01*
X40777D01*
X42179Y107128D01*
X43435Y107853D01*
X44462Y108879D01*
X45187Y110136D01*
X45435Y111059D01*
X63476D01*
X63476Y111059D01*
X63937Y111151D01*
X64328Y111412D01*
X71609Y118693D01*
X84079D01*
Y112024D01*
X81248D01*
Y105724D01*
X89319D01*
Y112024D01*
X86488D01*
Y118693D01*
X93687D01*
X93772Y118263D01*
X94120Y117742D01*
X94641Y117394D01*
X95254Y117272D01*
X100848D01*
X101462Y117394D01*
X101982Y117742D01*
X102330Y118263D01*
X102452Y118877D01*
Y122068D01*
X102330Y122682D01*
X101982Y123203D01*
X101462Y123550D01*
X100848Y123673D01*
X95254D01*
X94641Y123550D01*
X94120Y123203D01*
X93772Y122682D01*
X93650Y122068D01*
Y121102D01*
X85677D01*
X85677Y121102D01*
X85677Y121102D01*
X71110D01*
X71110Y121102D01*
X70649Y121010D01*
X70259Y120749D01*
X62978Y113468D01*
X45435D01*
X45187Y114391D01*
X44462Y115648D01*
X43435Y116674D01*
X42179Y117400D01*
X40777Y117776D01*
X39325D01*
X37924Y117400D01*
X36667Y116674D01*
X35641Y115648D01*
X34915Y114391D01*
X34539Y112989D01*
Y111538D01*
X34776Y110656D01*
X34471Y110259D01*
X20578D01*
X13015Y117822D01*
Y232572D01*
X21365Y240922D01*
X34721D01*
X34971Y240489D01*
X34915Y240391D01*
X34539Y238989D01*
Y237538D01*
X34915Y236136D01*
X35641Y234879D01*
X36667Y233853D01*
X37924Y233128D01*
X39325Y232752D01*
X40777D01*
X42179Y233128D01*
X43435Y233853D01*
X44462Y234879D01*
X45187Y236136D01*
X45563Y237538D01*
Y238989D01*
X45187Y240391D01*
X44462Y241648D01*
X43435Y242674D01*
X42179Y243400D01*
X40777Y243776D01*
D02*
G37*
G36*
X403712Y230201D02*
X402359D01*
X401031Y229937D01*
X399781Y229419D01*
X398656Y228667D01*
X397699Y227710D01*
X396947Y226585D01*
X396429Y225335D01*
X396270Y224535D01*
X393036D01*
X393035Y224535D01*
X392575Y224443D01*
X392184Y224182D01*
X392184Y224182D01*
X384707Y216705D01*
X384486Y216832D01*
X383530Y217089D01*
X382541D01*
X381585Y216832D01*
X380728Y216338D01*
X380028Y215638D01*
X379534Y214781D01*
X379468Y214535D01*
X368980D01*
Y216437D01*
X362090D01*
Y214590D01*
X357579D01*
Y216831D01*
X351476D01*
Y209941D01*
X357579D01*
Y212182D01*
X362090D01*
Y210335D01*
X368980D01*
Y212126D01*
X379468D01*
X379534Y211880D01*
X380028Y211023D01*
X380728Y210324D01*
X381585Y209829D01*
X382541Y209573D01*
X383530D01*
X384486Y209829D01*
X385343Y210324D01*
X386042Y211023D01*
X386537Y211880D01*
X386793Y212836D01*
Y213825D01*
X386537Y214781D01*
X386410Y215002D01*
X393534Y222127D01*
X396270D01*
X396429Y221327D01*
X396947Y220076D01*
X397699Y218951D01*
X398656Y217994D01*
X399781Y217243D01*
X401031Y216725D01*
X401831Y216566D01*
Y190096D01*
X401031Y189937D01*
X399781Y189419D01*
X398656Y188667D01*
X397699Y187710D01*
X396947Y186585D01*
X396429Y185335D01*
X396165Y184007D01*
Y182654D01*
X396429Y181327D01*
X396947Y180077D01*
X397699Y178951D01*
X398656Y177994D01*
X399781Y177243D01*
X401031Y176725D01*
X402359Y176461D01*
X403712D01*
X405039Y176725D01*
X406290Y177243D01*
X407415Y177994D01*
X408372Y178951D01*
X409124Y180077D01*
X409642Y181327D01*
X409905Y182654D01*
Y184007D01*
X409642Y185335D01*
X409124Y186585D01*
X408372Y187710D01*
X407415Y188667D01*
X406290Y189419D01*
X405039Y189937D01*
X404240Y190096D01*
Y216566D01*
X405039Y216725D01*
X406290Y217243D01*
X407415Y217994D01*
X408372Y218951D01*
X409124Y220076D01*
X409642Y221327D01*
X409905Y222654D01*
Y224007D01*
X409642Y225335D01*
X409124Y226585D01*
X408372Y227710D01*
X407415Y228667D01*
X406290Y229419D01*
X405039Y229937D01*
X403712Y230201D01*
D02*
G37*
G36*
X27280Y238661D02*
X25823D01*
X24393Y238377D01*
X23047Y237820D01*
X21836Y237010D01*
X20805Y235980D01*
X19996Y234768D01*
X19438Y233422D01*
X19153Y231992D01*
Y230535D01*
X19438Y229106D01*
X19996Y227760D01*
X20805Y226548D01*
X21836Y225518D01*
X23047Y224708D01*
X24393Y224150D01*
X25823Y223866D01*
X27280D01*
X28709Y224150D01*
X30055Y224708D01*
X31267Y225518D01*
X32297Y226548D01*
X33107Y227760D01*
X33665Y229106D01*
X33949Y230535D01*
Y231992D01*
X33665Y233422D01*
X33107Y234768D01*
X32297Y235980D01*
X31267Y237010D01*
X30055Y237820D01*
X28709Y238377D01*
X27280Y238661D01*
D02*
G37*
G36*
X369193Y223539D02*
X366035D01*
Y220776D01*
X369193D01*
Y223539D01*
D02*
G37*
G36*
X365035D02*
X361878D01*
Y220776D01*
X365035D01*
Y223539D01*
D02*
G37*
G36*
X369193Y219776D02*
X366035D01*
Y217012D01*
X369193D01*
Y219776D01*
D02*
G37*
G36*
X365035D02*
X361878D01*
Y217012D01*
X365035D01*
Y219776D01*
D02*
G37*
G36*
X208957Y261516D02*
X202067D01*
Y257116D01*
X154419Y209468D01*
X46420D01*
X46228Y209930D01*
X46387Y210088D01*
X46853Y210896D01*
X47092Y211788D01*
X93187D01*
X93485Y211490D01*
X94136Y211221D01*
X94841D01*
X95492Y211490D01*
X95990Y211989D01*
X96260Y212640D01*
Y213345D01*
X95990Y213996D01*
X95492Y214494D01*
X95334Y214560D01*
X95433Y215059D01*
X119807D01*
X119807Y215059D01*
X120268Y215151D01*
X120659Y215412D01*
X141277Y236030D01*
X141538Y236421D01*
X141629Y236882D01*
Y237992D01*
X144390D01*
Y244094D01*
X137500D01*
Y237992D01*
X139221D01*
Y237381D01*
X119308Y217468D01*
X46420D01*
X46228Y217930D01*
X46387Y218088D01*
X46853Y218896D01*
X46897Y219059D01*
X116720D01*
X116720Y219059D01*
X117181Y219151D01*
X117572Y219412D01*
X131560Y233400D01*
X131560Y233401D01*
X131821Y233791D01*
X131913Y234252D01*
Y254476D01*
X134153D01*
Y260579D01*
X127264D01*
Y254476D01*
X129504D01*
Y234751D01*
X116222Y221468D01*
X46897D01*
X46853Y221631D01*
X46387Y222439D01*
X45727Y223099D01*
X44919Y223566D01*
X44018Y223807D01*
X43085D01*
X42184Y223566D01*
X41375Y223099D01*
X40716Y222439D01*
X40249Y221631D01*
X40008Y220730D01*
Y219797D01*
X40249Y218896D01*
X40716Y218088D01*
X40874Y217930D01*
X40683Y217468D01*
X39897D01*
X39853Y217631D01*
X39386Y218439D01*
X38727Y219099D01*
X37919Y219566D01*
X37018Y219807D01*
X36085D01*
X35184Y219566D01*
X34376Y219099D01*
X33716Y218439D01*
X33249Y217631D01*
X33008Y216730D01*
Y215797D01*
X33249Y214896D01*
X33716Y214088D01*
X34376Y213428D01*
X35184Y212962D01*
X36085Y212720D01*
X37018D01*
X37919Y212962D01*
X38727Y213428D01*
X39386Y214088D01*
X39853Y214896D01*
X39897Y215059D01*
X40683D01*
X40874Y214598D01*
X40716Y214439D01*
X40249Y213631D01*
X40008Y212730D01*
Y211797D01*
X40249Y210896D01*
X40716Y210088D01*
X40874Y209930D01*
X40683Y209468D01*
X39897D01*
X39853Y209631D01*
X39386Y210439D01*
X38727Y211099D01*
X37919Y211566D01*
X37018Y211807D01*
X36085D01*
X35184Y211566D01*
X34376Y211099D01*
X33716Y210439D01*
X33249Y209631D01*
X33008Y208730D01*
Y207797D01*
X33249Y206896D01*
X33716Y206088D01*
X34376Y205428D01*
X35184Y204962D01*
X36085Y204720D01*
X37018D01*
X37919Y204962D01*
X38727Y205428D01*
X39386Y206088D01*
X39853Y206896D01*
X39897Y207060D01*
X40683D01*
X40874Y206598D01*
X40716Y206439D01*
X40249Y205631D01*
X40008Y204730D01*
Y203797D01*
X40249Y202896D01*
X40716Y202088D01*
X40874Y201930D01*
X40683Y201468D01*
X39897D01*
X39853Y201631D01*
X39386Y202439D01*
X38727Y203099D01*
X37919Y203566D01*
X37018Y203807D01*
X36085D01*
X35184Y203566D01*
X34376Y203099D01*
X33716Y202439D01*
X33249Y201631D01*
X33008Y200730D01*
Y199797D01*
X33249Y198896D01*
X33716Y198088D01*
X34376Y197428D01*
X35184Y196962D01*
X36085Y196721D01*
X37018D01*
X37919Y196962D01*
X38727Y197428D01*
X39386Y198088D01*
X39853Y198896D01*
X39897Y199059D01*
X40683D01*
X40874Y198598D01*
X40716Y198439D01*
X40249Y197631D01*
X40008Y196730D01*
Y195807D01*
X33008D01*
Y188721D01*
X40095D01*
Y191060D01*
X277697D01*
X277697Y191060D01*
X278158Y191151D01*
X278548Y191412D01*
X289082Y201945D01*
X330217D01*
Y199705D01*
X336319D01*
Y206594D01*
X330217D01*
Y204354D01*
X288583D01*
X288583Y204354D01*
X288122Y204262D01*
X287731Y204001D01*
X277198Y193468D01*
X46420D01*
X46228Y193930D01*
X46387Y194088D01*
X46853Y194896D01*
X46897Y195060D01*
X262405D01*
X262405Y195060D01*
X262866Y195151D01*
X263257Y195412D01*
X280026Y212182D01*
X344587D01*
Y209941D01*
X350689D01*
Y216831D01*
X344587D01*
Y214590D01*
X279528D01*
X279528Y214590D01*
X279067Y214498D01*
X278676Y214237D01*
X278676Y214237D01*
X261907Y197468D01*
X46897D01*
X46853Y197631D01*
X46387Y198439D01*
X46228Y198598D01*
X46420Y199059D01*
X247902D01*
X247902Y199059D01*
X248362Y199151D01*
X248753Y199412D01*
X290089Y240748D01*
X293602D01*
Y246850D01*
X286713D01*
Y240778D01*
X247403Y201468D01*
X46420D01*
X46228Y201930D01*
X46387Y202088D01*
X46853Y202896D01*
X46897Y203060D01*
X177000D01*
X177000Y203060D01*
X177461Y203151D01*
X177851Y203412D01*
X214729Y240290D01*
X214729Y240290D01*
X214772Y240354D01*
X219587D01*
Y246457D01*
X212697D01*
Y241664D01*
X176501Y205468D01*
X46897D01*
X46853Y205631D01*
X46387Y206439D01*
X46228Y206598D01*
X46420Y207060D01*
X154917D01*
X154917Y207060D01*
X155378Y207151D01*
X155769Y207412D01*
X203770Y255413D01*
X208957D01*
Y261516D01*
D02*
G37*
G36*
X282972Y261122D02*
X276083D01*
Y256723D01*
X233556Y214196D01*
X196183D01*
X195885Y214494D01*
X195234Y214764D01*
X194529D01*
X193878Y214494D01*
X193380Y213996D01*
X193110Y213345D01*
Y212640D01*
X193380Y211989D01*
X193878Y211490D01*
X194529Y211221D01*
X195234D01*
X195885Y211490D01*
X196183Y211788D01*
X234055D01*
X234055Y211788D01*
X234516Y211880D01*
X234907Y212141D01*
X277786Y255020D01*
X282972D01*
Y261122D01*
D02*
G37*
G36*
X361024Y207579D02*
X354724D01*
Y204748D01*
X352658D01*
Y206988D01*
X344980D01*
Y204748D01*
X343209D01*
Y206594D01*
X337106D01*
Y199705D01*
X343209D01*
Y202339D01*
X344980D01*
Y200098D01*
X352658D01*
Y202339D01*
X354724D01*
Y199508D01*
X361024D01*
Y207579D01*
D02*
G37*
G36*
X372047D02*
X365748D01*
Y199508D01*
X372047D01*
Y202127D01*
X379468D01*
X379534Y201880D01*
X380028Y201023D01*
X380728Y200324D01*
X381585Y199829D01*
X382541Y199573D01*
X383530D01*
X384486Y199829D01*
X385343Y200324D01*
X386042Y201023D01*
X386537Y201880D01*
X386793Y202836D01*
Y203825D01*
X386537Y204781D01*
X386042Y205638D01*
X385343Y206338D01*
X384486Y206833D01*
X383530Y207089D01*
X382541D01*
X381585Y206833D01*
X380728Y206338D01*
X380028Y205638D01*
X379534Y204781D01*
X379468Y204535D01*
X372047D01*
Y207579D01*
D02*
G37*
G36*
X352870Y199327D02*
X349319D01*
Y196169D01*
X352870D01*
Y199327D01*
D02*
G37*
G36*
X348319D02*
X344768D01*
Y196169D01*
X348319D01*
Y199327D01*
D02*
G37*
G36*
X352870Y195169D02*
X349319D01*
Y192012D01*
X352870D01*
Y195169D01*
D02*
G37*
G36*
X348319D02*
X344768D01*
Y192012D01*
X348319D01*
Y195169D01*
D02*
G37*
G36*
X146169Y183017D02*
Y180028D01*
X149159D01*
X148931Y180878D01*
X148470Y181677D01*
X147818Y182328D01*
X147020Y182789D01*
X146169Y183017D01*
D02*
G37*
G36*
X145169D02*
X144318Y182789D01*
X143520Y182328D01*
X142869Y181677D01*
X142408Y180878D01*
X142180Y180028D01*
X145169D01*
Y183017D01*
D02*
G37*
G36*
X149159Y179028D02*
X146169D01*
Y176038D01*
X147020Y176266D01*
X147818Y176727D01*
X148470Y177378D01*
X148931Y178177D01*
X149159Y179028D01*
D02*
G37*
G36*
X145169D02*
X142180D01*
X142408Y178177D01*
X142869Y177378D01*
X143520Y176727D01*
X144318Y176266D01*
X145169Y176038D01*
Y179028D01*
D02*
G37*
G36*
X320079Y169315D02*
X320079Y169315D01*
X53398D01*
X53398Y169315D01*
X52937Y169223D01*
X52546Y168962D01*
X52546Y168962D01*
X45065Y161481D01*
X44919Y161566D01*
X44018Y161807D01*
X43085D01*
X42184Y161566D01*
X41375Y161099D01*
X40716Y160439D01*
X40249Y159631D01*
X40008Y158730D01*
Y157797D01*
X40249Y156896D01*
X40716Y156088D01*
X40874Y155930D01*
X40683Y155468D01*
X39897D01*
X39853Y155631D01*
X39386Y156439D01*
X38727Y157099D01*
X37919Y157566D01*
X37018Y157807D01*
X36085D01*
X35184Y157566D01*
X34376Y157099D01*
X33716Y156439D01*
X33249Y155631D01*
X33008Y154730D01*
Y153797D01*
X33249Y152896D01*
X33716Y152088D01*
X34376Y151428D01*
X35184Y150962D01*
X36085Y150721D01*
X37018D01*
X37919Y150962D01*
X38727Y151428D01*
X39386Y152088D01*
X39853Y152896D01*
X39897Y153059D01*
X40683D01*
X40874Y152598D01*
X40716Y152439D01*
X40249Y151631D01*
X40008Y150730D01*
Y149797D01*
X40249Y148896D01*
X40716Y148088D01*
X40874Y147930D01*
X40683Y147468D01*
X39897D01*
X39853Y147631D01*
X39386Y148439D01*
X38727Y149099D01*
X37919Y149566D01*
X37018Y149807D01*
X36085D01*
X35184Y149566D01*
X34376Y149099D01*
X33716Y148439D01*
X33249Y147631D01*
X33008Y146730D01*
Y145797D01*
X33249Y144896D01*
X33716Y144088D01*
X34376Y143428D01*
X35184Y142962D01*
X36085Y142720D01*
X37018D01*
X37919Y142962D01*
X38727Y143428D01*
X39386Y144088D01*
X39853Y144896D01*
X39897Y145060D01*
X40683D01*
X40874Y144598D01*
X40716Y144439D01*
X40249Y143631D01*
X40008Y142730D01*
Y141797D01*
X40249Y140896D01*
X40716Y140088D01*
X40874Y139930D01*
X40683Y139468D01*
X39897D01*
X39853Y139631D01*
X39386Y140439D01*
X38727Y141099D01*
X37919Y141566D01*
X37018Y141807D01*
X36085D01*
X35184Y141566D01*
X34376Y141099D01*
X33716Y140439D01*
X33249Y139631D01*
X33008Y138730D01*
Y137797D01*
X33249Y136896D01*
X33716Y136088D01*
X34376Y135428D01*
X35184Y134962D01*
X36085Y134721D01*
X37018D01*
X37919Y134962D01*
X38727Y135428D01*
X39386Y136088D01*
X39853Y136896D01*
X39897Y137059D01*
X40683D01*
X40874Y136598D01*
X40716Y136439D01*
X40249Y135631D01*
X40008Y134730D01*
Y133807D01*
X33008D01*
Y126720D01*
X40095D01*
Y129060D01*
X130261D01*
X140134Y119186D01*
Y104921D01*
X138287D01*
Y98819D01*
X145177D01*
Y104921D01*
X142543D01*
Y119685D01*
X142543Y119685D01*
X142451Y120146D01*
X142190Y120537D01*
X142190Y120537D01*
X131611Y131115D01*
X131221Y131376D01*
X130760Y131468D01*
X130760Y131468D01*
X46420D01*
X46228Y131930D01*
X46387Y132088D01*
X46853Y132896D01*
X46897Y133060D01*
X137285D01*
X150371Y119974D01*
Y89862D01*
X148130D01*
Y83760D01*
X155020D01*
Y89862D01*
X152779D01*
Y120473D01*
X152687Y120933D01*
X152426Y121324D01*
X138635Y135115D01*
X138244Y135376D01*
X137784Y135468D01*
X137783Y135468D01*
X46897D01*
X46853Y135631D01*
X46387Y136439D01*
X46228Y136598D01*
X46420Y137059D01*
X196277D01*
X213363Y119974D01*
Y104823D01*
X211122D01*
Y98721D01*
X218012D01*
Y104823D01*
X215771D01*
Y120472D01*
X215771Y120473D01*
X215680Y120933D01*
X215419Y121324D01*
X197627Y139115D01*
X197236Y139376D01*
X196776Y139468D01*
X196775Y139468D01*
X46420D01*
X46228Y139930D01*
X46387Y140088D01*
X46853Y140896D01*
X46897Y141060D01*
X223280D01*
X223487Y140559D01*
X223301Y140374D01*
X223031Y139723D01*
Y139018D01*
X223301Y138366D01*
X223599Y138069D01*
Y89468D01*
X221358D01*
Y83366D01*
X228248D01*
Y89468D01*
X226007D01*
Y138069D01*
X226305Y138366D01*
X226575Y139018D01*
Y139723D01*
X226305Y140374D01*
X226119Y140559D01*
X226326Y141060D01*
X247198D01*
X283957Y104301D01*
Y99508D01*
X290846D01*
Y105610D01*
X286032D01*
X285989Y105674D01*
X248548Y143115D01*
X248158Y143376D01*
X247697Y143468D01*
X247697Y143468D01*
X46897D01*
X46853Y143631D01*
X46387Y144439D01*
X46228Y144598D01*
X46420Y145060D01*
X280009D01*
X296434Y128635D01*
Y89862D01*
X294587D01*
Y83760D01*
X301476D01*
Y89862D01*
X298842D01*
Y129134D01*
X298842Y129134D01*
X298750Y129595D01*
X298489Y129985D01*
X298489Y129985D01*
X281359Y147115D01*
X280969Y147376D01*
X280508Y147468D01*
X280508Y147468D01*
X46420D01*
X46228Y147930D01*
X46387Y148088D01*
X46853Y148896D01*
X47095Y149797D01*
Y149826D01*
X223653D01*
X223800Y149679D01*
X224451Y149409D01*
X225155D01*
X225807Y149679D01*
X226305Y150178D01*
X226575Y150829D01*
Y151533D01*
X226305Y152185D01*
X225930Y152559D01*
X226105Y153059D01*
X307245D01*
X329823Y130482D01*
Y127264D01*
X335925D01*
Y134153D01*
X329823D01*
X329823Y134153D01*
Y134154D01*
X329386Y134325D01*
X308596Y155115D01*
X308205Y155376D01*
X307744Y155468D01*
X307744Y155468D01*
X46420D01*
X46228Y155930D01*
X46387Y156088D01*
X46853Y156896D01*
X47095Y157797D01*
Y158730D01*
X46853Y159631D01*
X46768Y159778D01*
X53896Y166906D01*
X319580D01*
X343799Y142687D01*
Y137894D01*
X349902D01*
Y144783D01*
X345109D01*
X320930Y168962D01*
X320540Y169223D01*
X320079Y169315D01*
D02*
G37*
G36*
X403712Y158153D02*
X402359D01*
X401031Y157889D01*
X399781Y157372D01*
X398656Y156620D01*
X397699Y155663D01*
X396947Y154538D01*
X396429Y153287D01*
X396270Y152488D01*
X392248D01*
X392248Y152488D01*
X391787Y152396D01*
X391396Y152135D01*
X391396Y152135D01*
X384140Y144878D01*
X383530Y145041D01*
X382541D01*
X381585Y144785D01*
X380728Y144290D01*
X380028Y143591D01*
X379534Y142734D01*
X379468Y142488D01*
X368193D01*
Y144390D01*
X361303D01*
Y142543D01*
X356791D01*
Y144783D01*
X350689D01*
Y137894D01*
X356791D01*
Y140134D01*
X361303D01*
Y138287D01*
X368193D01*
Y140079D01*
X379468D01*
X379534Y139833D01*
X380028Y138976D01*
X380728Y138276D01*
X381585Y137782D01*
X382541Y137526D01*
X383530D01*
X384486Y137782D01*
X385343Y138276D01*
X386042Y138976D01*
X386537Y139833D01*
X386793Y140789D01*
Y141778D01*
X386537Y142734D01*
X386122Y143454D01*
X392747Y150079D01*
X396270D01*
X396429Y149279D01*
X396947Y148029D01*
X397699Y146904D01*
X398656Y145947D01*
X399781Y145195D01*
X401031Y144677D01*
X401044Y144675D01*
Y117892D01*
X401031Y117889D01*
X399781Y117372D01*
X398656Y116620D01*
X397699Y115663D01*
X396947Y114538D01*
X396429Y113287D01*
X396165Y111960D01*
Y110607D01*
X396429Y109280D01*
X396947Y108029D01*
X397699Y106904D01*
X398656Y105947D01*
X399781Y105195D01*
X401031Y104677D01*
X402359Y104413D01*
X403712D01*
X405039Y104677D01*
X406290Y105195D01*
X407415Y105947D01*
X408372Y106904D01*
X409124Y108029D01*
X409642Y109280D01*
X409905Y110607D01*
Y111960D01*
X409642Y113287D01*
X409124Y114538D01*
X408372Y115663D01*
X407415Y116620D01*
X406290Y117372D01*
X405039Y117889D01*
X403712Y118154D01*
X403452D01*
Y144413D01*
X403712D01*
X405039Y144677D01*
X406290Y145195D01*
X407415Y145947D01*
X408372Y146904D01*
X409124Y148029D01*
X409642Y149279D01*
X409905Y150607D01*
Y151960D01*
X409642Y153287D01*
X409124Y154538D01*
X408372Y155663D01*
X407415Y156620D01*
X406290Y157372D01*
X405039Y157889D01*
X403712Y158153D01*
D02*
G37*
G36*
X368406Y151492D02*
X365248D01*
Y148728D01*
X368406D01*
Y151492D01*
D02*
G37*
G36*
X364248D02*
X361090D01*
Y148728D01*
X364248D01*
Y151492D01*
D02*
G37*
G36*
X368406Y147728D02*
X365248D01*
Y144965D01*
X368406D01*
Y147728D01*
D02*
G37*
G36*
X364248D02*
X361090D01*
Y144965D01*
X364248D01*
Y147728D01*
D02*
G37*
G36*
X360630Y135138D02*
X354331D01*
Y132307D01*
X351870D01*
Y134153D01*
X344193D01*
Y131913D01*
X342815D01*
Y134153D01*
X336713D01*
Y127264D01*
X342815D01*
Y129504D01*
X344193D01*
Y127264D01*
X351870D01*
Y129898D01*
X354331D01*
Y127067D01*
X360630D01*
Y135138D01*
D02*
G37*
G36*
X371654D02*
X365354D01*
Y127067D01*
X371654D01*
Y130079D01*
X379468D01*
X379534Y129833D01*
X380028Y128976D01*
X380728Y128276D01*
X381585Y127782D01*
X382541Y127526D01*
X383530D01*
X384486Y127782D01*
X385343Y128276D01*
X386042Y128976D01*
X386537Y129833D01*
X386793Y130789D01*
Y131778D01*
X386537Y132734D01*
X386042Y133591D01*
X385343Y134291D01*
X384486Y134785D01*
X383530Y135041D01*
X382541D01*
X381585Y134785D01*
X380728Y134291D01*
X380028Y133591D01*
X379534Y132734D01*
X379468Y132488D01*
X371654D01*
Y135138D01*
D02*
G37*
G36*
X352083Y126492D02*
X348532D01*
Y123335D01*
X352083D01*
Y126492D01*
D02*
G37*
G36*
X347532D02*
X343980D01*
Y123335D01*
X347532D01*
Y126492D01*
D02*
G37*
G36*
X352083Y122335D02*
X348532D01*
Y119177D01*
X352083D01*
Y122335D01*
D02*
G37*
G36*
X347532D02*
X343980D01*
Y119177D01*
X347532D01*
Y122335D01*
D02*
G37*
G36*
X27280Y126661D02*
X25823D01*
X24393Y126377D01*
X23047Y125820D01*
X21836Y125010D01*
X20805Y123979D01*
X19996Y122768D01*
X19438Y121422D01*
X19153Y119992D01*
Y118535D01*
X19438Y117106D01*
X19996Y115760D01*
X20805Y114548D01*
X21836Y113518D01*
X23047Y112708D01*
X24393Y112150D01*
X25823Y111866D01*
X27280D01*
X28709Y112150D01*
X30055Y112708D01*
X31267Y113518D01*
X32297Y114548D01*
X33107Y115760D01*
X33665Y117106D01*
X33949Y118535D01*
Y119992D01*
X33665Y121422D01*
X33107Y122768D01*
X32297Y123979D01*
X31267Y125010D01*
X30055Y125820D01*
X28709Y126377D01*
X27280Y126661D01*
D02*
G37*
G36*
X100848Y112472D02*
X98551D01*
Y109555D01*
X102669D01*
Y110651D01*
X102530Y111348D01*
X102136Y111939D01*
X101545Y112333D01*
X100848Y112472D01*
D02*
G37*
G36*
X97551D02*
X95254D01*
X94558Y112333D01*
X93967Y111939D01*
X93572Y111348D01*
X93433Y110651D01*
Y109555D01*
X97551D01*
Y112472D01*
D02*
G37*
G36*
X102669Y108555D02*
X98551D01*
Y105638D01*
X100848D01*
X101545Y105777D01*
X102136Y106172D01*
X102530Y106762D01*
X102669Y107459D01*
Y108555D01*
D02*
G37*
G36*
X97551D02*
X93433D01*
Y107459D01*
X93572Y106762D01*
X93967Y106172D01*
X94558Y105777D01*
X95254Y105638D01*
X97551D01*
Y108555D01*
D02*
G37*
G36*
X89531Y101213D02*
X85783D01*
Y98350D01*
X89531D01*
Y101213D01*
D02*
G37*
G36*
X84784D02*
X81035D01*
Y98350D01*
X84784D01*
Y101213D01*
D02*
G37*
G36*
X89531Y97350D02*
X85783D01*
Y94488D01*
X89531D01*
Y97350D01*
D02*
G37*
G36*
X84784D02*
X81035D01*
Y94488D01*
X84784D01*
Y97350D01*
D02*
G37*
G36*
X283185Y90272D02*
X280028D01*
Y86721D01*
X283185D01*
Y90272D01*
D02*
G37*
G36*
X279028D02*
X275870D01*
Y86721D01*
X279028D01*
Y90272D01*
D02*
G37*
G36*
X209957Y89484D02*
X206799D01*
Y85933D01*
X209957D01*
Y89484D01*
D02*
G37*
G36*
X205799D02*
X202642D01*
Y85933D01*
X205799D01*
Y89484D01*
D02*
G37*
G36*
X137516D02*
X134358D01*
Y85933D01*
X137516D01*
Y89484D01*
D02*
G37*
G36*
X133358D02*
X130201D01*
Y85933D01*
X133358D01*
Y89484D01*
D02*
G37*
G36*
X283185Y85720D02*
X280028D01*
Y82169D01*
X283185D01*
Y85720D01*
D02*
G37*
G36*
X279028D02*
X275870D01*
Y82169D01*
X279028D01*
Y85720D01*
D02*
G37*
G36*
X209957Y84933D02*
X206799D01*
Y81382D01*
X209957D01*
Y84933D01*
D02*
G37*
G36*
X205799D02*
X202642D01*
Y81382D01*
X205799D01*
Y84933D01*
D02*
G37*
G36*
X137516Y84933D02*
X134358D01*
Y81382D01*
X137516D01*
Y84933D01*
D02*
G37*
G36*
X133358D02*
X130201D01*
Y81382D01*
X133358D01*
Y84933D01*
D02*
G37*
G36*
X290846Y98721D02*
X283957D01*
Y92618D01*
X286197D01*
Y90059D01*
X283957D01*
Y82382D01*
X286591D01*
Y80709D01*
X283760D01*
Y74410D01*
X291831D01*
Y80709D01*
X289000D01*
Y82382D01*
X290846D01*
Y90059D01*
X288606D01*
Y92618D01*
X290846D01*
Y98721D01*
D02*
G37*
G36*
X218012Y97933D02*
X211122D01*
Y91831D01*
X213363D01*
Y89272D01*
X210728D01*
Y81595D01*
X213363D01*
Y79527D01*
X210531D01*
Y73228D01*
X218602D01*
Y79527D01*
X215771D01*
Y81595D01*
X217618D01*
Y89272D01*
X215771D01*
Y91831D01*
X218012D01*
Y97933D01*
D02*
G37*
G36*
X145177Y98032D02*
X138287D01*
Y91929D01*
X140528D01*
Y89272D01*
X138287D01*
Y81595D01*
X140528D01*
Y79527D01*
X137697D01*
Y73228D01*
X145768D01*
Y79527D01*
X142937D01*
Y81595D01*
X145177D01*
Y89272D01*
X142937D01*
Y91929D01*
X145177D01*
Y98032D01*
D02*
G37*
G36*
X161728Y72571D02*
X158965D01*
Y69413D01*
X161728D01*
Y72571D01*
D02*
G37*
G36*
X308185D02*
X305421D01*
Y69413D01*
X308185D01*
Y72571D01*
D02*
G37*
G36*
X157965D02*
X155201D01*
Y69413D01*
X157965D01*
Y72571D01*
D02*
G37*
G36*
X304421D02*
X301658D01*
Y69413D01*
X304421D01*
Y72571D01*
D02*
G37*
G36*
X234957Y72177D02*
X232193D01*
Y69020D01*
X234957D01*
Y72177D01*
D02*
G37*
G36*
X231193D02*
X228429D01*
Y69020D01*
X231193D01*
Y72177D01*
D02*
G37*
G36*
X308185Y68413D02*
X305421D01*
Y65256D01*
X308185D01*
Y68413D01*
D02*
G37*
G36*
X304421D02*
X301658D01*
Y65256D01*
X304421D01*
Y68413D01*
D02*
G37*
G36*
X161728D02*
X158965D01*
Y65256D01*
X161728D01*
Y68413D01*
D02*
G37*
G36*
X157965D02*
X155201D01*
Y65256D01*
X157965D01*
Y68413D01*
D02*
G37*
G36*
X234957Y68020D02*
X232193D01*
Y64862D01*
X234957D01*
Y68020D01*
D02*
G37*
G36*
X231193D02*
X228429D01*
Y64862D01*
X231193D01*
Y68020D01*
D02*
G37*
G36*
X291831Y69685D02*
X283760D01*
Y63386D01*
X286772D01*
Y54587D01*
X286526Y54522D01*
X285669Y54027D01*
X284969Y53327D01*
X284475Y52470D01*
X284219Y51514D01*
Y50525D01*
X284475Y49569D01*
X284969Y48712D01*
X285669Y48013D01*
X286526Y47518D01*
X287482Y47262D01*
X288471D01*
X289427Y47518D01*
X290284Y48013D01*
X290983Y48712D01*
X291478Y49569D01*
X291734Y50525D01*
Y51514D01*
X291478Y52470D01*
X290983Y53327D01*
X290284Y54027D01*
X289427Y54522D01*
X289181Y54587D01*
Y63386D01*
X291831D01*
Y69685D01*
D02*
G37*
G36*
X218602Y68504D02*
X210531D01*
Y62205D01*
X213544D01*
Y54587D01*
X213298Y54522D01*
X212441Y54027D01*
X211741Y53327D01*
X211246Y52470D01*
X210990Y51514D01*
Y50525D01*
X211246Y49569D01*
X211741Y48712D01*
X212441Y48013D01*
X213298Y47518D01*
X214253Y47262D01*
X215243D01*
X216198Y47518D01*
X217055Y48013D01*
X217755Y48712D01*
X218250Y49569D01*
X218506Y50525D01*
Y51514D01*
X218250Y52470D01*
X217755Y53327D01*
X217055Y54027D01*
X216198Y54522D01*
X215952Y54587D01*
Y62205D01*
X218602D01*
Y68504D01*
D02*
G37*
G36*
X145768D02*
X137697D01*
Y62205D01*
X140315D01*
Y54587D01*
X140069Y54522D01*
X139212Y54027D01*
X138513Y53327D01*
X138018Y52470D01*
X137762Y51514D01*
Y50525D01*
X138018Y49569D01*
X138513Y48712D01*
X139212Y48013D01*
X140069Y47518D01*
X141025Y47262D01*
X142014D01*
X142970Y47518D01*
X143827Y48013D01*
X144527Y48712D01*
X145021Y49569D01*
X145278Y50525D01*
Y51514D01*
X145021Y52470D01*
X144527Y53327D01*
X143827Y54027D01*
X142970Y54522D01*
X142724Y54587D01*
Y62205D01*
X145768D01*
Y68504D01*
D02*
G37*
G36*
X301476Y82972D02*
X294587D01*
Y76870D01*
X296827D01*
Y72358D01*
X294980D01*
Y65469D01*
X296772D01*
Y54587D01*
X296526Y54522D01*
X295669Y54027D01*
X294969Y53327D01*
X294475Y52470D01*
X294218Y51514D01*
Y50525D01*
X294475Y49569D01*
X294969Y48712D01*
X295669Y48013D01*
X296526Y47518D01*
X297482Y47262D01*
X298471D01*
X299427Y47518D01*
X299897Y47789D01*
X306772Y40915D01*
Y37785D01*
X305972Y37626D01*
X304722Y37108D01*
X303597Y36356D01*
X302640Y35399D01*
X301888Y34274D01*
X301370Y33024D01*
X301290Y32618D01*
X274663D01*
X274582Y33024D01*
X274065Y34274D01*
X273313Y35399D01*
X272356Y36356D01*
X271231Y37108D01*
X269980Y37626D01*
X268653Y37890D01*
X267300D01*
X265972Y37626D01*
X264722Y37108D01*
X263597Y36356D01*
X262640Y35399D01*
X261888Y34274D01*
X261370Y33024D01*
X261106Y31696D01*
Y30343D01*
X261370Y29016D01*
X261888Y27766D01*
X262640Y26640D01*
X263597Y25683D01*
X264722Y24931D01*
X265972Y24414D01*
X267300Y24150D01*
X268653D01*
X269980Y24414D01*
X271231Y24931D01*
X272356Y25683D01*
X273313Y26640D01*
X274065Y27766D01*
X274582Y29016D01*
X274820Y30209D01*
X301133D01*
X301370Y29016D01*
X301888Y27766D01*
X302640Y26640D01*
X303597Y25683D01*
X304722Y24931D01*
X305972Y24414D01*
X307300Y24150D01*
X308653D01*
X309980Y24414D01*
X311231Y24931D01*
X312356Y25683D01*
X313313Y26640D01*
X314065Y27766D01*
X314582Y29016D01*
X314846Y30343D01*
Y31696D01*
X314582Y33024D01*
X314065Y34274D01*
X313313Y35399D01*
X312356Y36356D01*
X311231Y37108D01*
X309980Y37626D01*
X309181Y37785D01*
Y41413D01*
X309181Y41413D01*
X309089Y41874D01*
X308828Y42265D01*
X308828Y42265D01*
X301488Y49605D01*
X301734Y50525D01*
Y51514D01*
X301478Y52470D01*
X300983Y53327D01*
X300284Y54027D01*
X299427Y54522D01*
X299181Y54587D01*
Y65469D01*
X301083D01*
Y72358D01*
X299236D01*
Y76870D01*
X301476D01*
Y82972D01*
D02*
G37*
G36*
X155020D02*
X148130D01*
Y76870D01*
X150371D01*
Y72358D01*
X148524D01*
Y65469D01*
X150315D01*
Y54587D01*
X150069Y54522D01*
X149212Y54027D01*
X148513Y53327D01*
X148018Y52470D01*
X147762Y51514D01*
Y50525D01*
X148018Y49569D01*
X148513Y48712D01*
X149212Y48013D01*
X150069Y47518D01*
X151025Y47262D01*
X152014D01*
X152970Y47518D01*
X153441Y47789D01*
X160316Y40915D01*
Y37785D01*
X159516Y37626D01*
X158265Y37108D01*
X157140Y36356D01*
X156183Y35399D01*
X155431Y34274D01*
X154914Y33024D01*
X154833Y32618D01*
X128207D01*
X128126Y33024D01*
X127608Y34274D01*
X126856Y35399D01*
X125899Y36356D01*
X124774Y37108D01*
X123524Y37626D01*
X122196Y37890D01*
X120843D01*
X119516Y37626D01*
X118265Y37108D01*
X117140Y36356D01*
X116183Y35399D01*
X115431Y34274D01*
X114914Y33024D01*
X114650Y31696D01*
Y30343D01*
X114914Y29016D01*
X115431Y27766D01*
X116183Y26640D01*
X117140Y25683D01*
X118265Y24931D01*
X119516Y24414D01*
X120843Y24150D01*
X122196D01*
X123524Y24414D01*
X124774Y24931D01*
X125899Y25683D01*
X126856Y26640D01*
X127608Y27766D01*
X128126Y29016D01*
X128363Y30209D01*
X154676D01*
X154914Y29016D01*
X155431Y27766D01*
X156183Y26640D01*
X157140Y25683D01*
X158265Y24931D01*
X159516Y24414D01*
X160843Y24150D01*
X162196D01*
X163524Y24414D01*
X164774Y24931D01*
X165899Y25683D01*
X166856Y26640D01*
X167608Y27766D01*
X168126Y29016D01*
X168390Y30343D01*
Y31696D01*
X168126Y33024D01*
X167608Y34274D01*
X166856Y35399D01*
X165899Y36356D01*
X164774Y37108D01*
X163524Y37626D01*
X162724Y37785D01*
Y41413D01*
X162724Y41413D01*
X162632Y41874D01*
X162371Y42265D01*
X162371Y42265D01*
X155031Y49605D01*
X155278Y50525D01*
Y51514D01*
X155022Y52470D01*
X154527Y53327D01*
X153827Y54027D01*
X152970Y54522D01*
X152724Y54587D01*
Y65469D01*
X154626D01*
Y72358D01*
X152779D01*
Y76870D01*
X155020D01*
Y82972D01*
D02*
G37*
G36*
X228248Y82579D02*
X221358D01*
Y76476D01*
X223599D01*
Y71965D01*
X221752D01*
Y65075D01*
X223544D01*
Y54587D01*
X223298Y54522D01*
X222441Y54027D01*
X221741Y53327D01*
X221246Y52470D01*
X220990Y51514D01*
Y50525D01*
X221246Y49569D01*
X221741Y48712D01*
X222441Y48013D01*
X223298Y47518D01*
X224253Y47262D01*
X225243D01*
X226199Y47518D01*
X226419Y47645D01*
X233544Y40521D01*
Y37785D01*
X232744Y37626D01*
X231494Y37108D01*
X230369Y36356D01*
X229412Y35399D01*
X228660Y34274D01*
X228142Y33024D01*
X227983Y32224D01*
X201513D01*
X201354Y33024D01*
X200836Y34274D01*
X200084Y35399D01*
X199127Y36356D01*
X198002Y37108D01*
X196752Y37626D01*
X195425Y37890D01*
X194071D01*
X192744Y37626D01*
X191494Y37108D01*
X190369Y36356D01*
X189412Y35399D01*
X188660Y34274D01*
X188142Y33024D01*
X187878Y31696D01*
Y30343D01*
X188142Y29016D01*
X188660Y27766D01*
X189412Y26640D01*
X190369Y25683D01*
X191494Y24931D01*
X192744Y24414D01*
X194071Y24150D01*
X195425D01*
X196752Y24414D01*
X198002Y24931D01*
X199127Y25683D01*
X200084Y26640D01*
X200836Y27766D01*
X201354Y29016D01*
X201513Y29815D01*
X227983D01*
X228142Y29016D01*
X228660Y27766D01*
X229412Y26640D01*
X230369Y25683D01*
X231494Y24931D01*
X232744Y24414D01*
X234071Y24150D01*
X235425D01*
X236752Y24414D01*
X238002Y24931D01*
X239127Y25683D01*
X240084Y26640D01*
X240836Y27766D01*
X241354Y29016D01*
X241618Y30343D01*
Y31696D01*
X241354Y33024D01*
X240836Y34274D01*
X240084Y35399D01*
X239127Y36356D01*
X238002Y37108D01*
X236752Y37626D01*
X235952Y37785D01*
Y41020D01*
X235952Y41020D01*
X235861Y41480D01*
X235600Y41871D01*
X235599Y41871D01*
X228122Y49348D01*
X228250Y49569D01*
X228506Y50525D01*
Y51514D01*
X228250Y52470D01*
X227755Y53327D01*
X227055Y54027D01*
X226199Y54522D01*
X225952Y54587D01*
Y65075D01*
X227854D01*
Y71965D01*
X226007D01*
Y76476D01*
X228248D01*
Y82579D01*
D02*
G37*
G36*
X38689Y34198D02*
Y31209D01*
X41679D01*
X41451Y32060D01*
X40990Y32858D01*
X40338Y33509D01*
X39540Y33970D01*
X38689Y34198D01*
D02*
G37*
G36*
X37689D02*
X36838Y33970D01*
X36040Y33509D01*
X35388Y32858D01*
X34927Y32060D01*
X34699Y31209D01*
X37689D01*
Y34198D01*
D02*
G37*
G36*
X402075Y31049D02*
Y28059D01*
X405064D01*
X404836Y28910D01*
X404376Y29708D01*
X403724Y30360D01*
X402926Y30821D01*
X402075Y31049D01*
D02*
G37*
G36*
X401075D02*
X400224Y30821D01*
X399426Y30360D01*
X398774Y29708D01*
X398313Y28910D01*
X398085Y28059D01*
X401075D01*
Y31049D01*
D02*
G37*
G36*
X41679Y30209D02*
X38689D01*
Y27219D01*
X39540Y27447D01*
X40338Y27908D01*
X40990Y28560D01*
X41451Y29358D01*
X41679Y30209D01*
D02*
G37*
G36*
X37689D02*
X34699D01*
X34927Y29358D01*
X35388Y28560D01*
X36040Y27908D01*
X36838Y27447D01*
X37689Y27219D01*
Y30209D01*
D02*
G37*
G36*
X405064Y27059D02*
X402075D01*
Y24070D01*
X402926Y24298D01*
X403724Y24758D01*
X404376Y25410D01*
X404836Y26208D01*
X405064Y27059D01*
D02*
G37*
G36*
X401075D02*
X398085D01*
X398313Y26208D01*
X398774Y25410D01*
X399426Y24758D01*
X400224Y24298D01*
X401075Y24070D01*
Y27059D01*
D02*
G37*
G36*
X12549Y19307D02*
X11073D01*
X9624Y19019D01*
X8260Y18454D01*
X7033Y17634D01*
X5988Y16590D01*
X5168Y15362D01*
X4603Y13997D01*
X4315Y12549D01*
Y11073D01*
X4603Y9624D01*
X5168Y8260D01*
X5988Y7033D01*
X7033Y5988D01*
X8260Y5168D01*
X9624Y4603D01*
X11073Y4315D01*
X12549D01*
X13997Y4603D01*
X15362Y5168D01*
X16590Y5988D01*
X17634Y7033D01*
X18454Y8260D01*
X19019Y9624D01*
X19307Y11073D01*
Y12549D01*
X19019Y13997D01*
X18454Y15362D01*
X17634Y16590D01*
X16590Y17634D01*
X15362Y18454D01*
X13997Y19019D01*
X12549Y19307D01*
D02*
G37*
%LPD*%
G36*
X93643Y214560D02*
X93485Y214494D01*
X93187Y214196D01*
X46527D01*
X46387Y214439D01*
X46228Y214598D01*
X46420Y215059D01*
X93543D01*
X93643Y214560D01*
D02*
G37*
G36*
X223659Y152607D02*
X223347Y152235D01*
X46519D01*
X46446Y152336D01*
X46387Y152439D01*
X46336Y152489D01*
X46240Y152625D01*
X46420Y153059D01*
X223501D01*
X223659Y152607D01*
D02*
G37*
D12*
X141732Y85433D02*
X141732Y85433D01*
X141732Y85433D02*
Y94980D01*
Y76378D02*
Y85433D01*
X141732Y85433D01*
X141520Y65142D02*
X141732Y65354D01*
X141520Y51413D02*
Y65142D01*
X214567Y85827D02*
Y94882D01*
X214173Y85433D02*
X214567Y85827D01*
Y76378D02*
Y85039D01*
X214173Y85433D02*
X214567Y85039D01*
X214748Y51020D02*
Y65173D01*
X214567Y65354D02*
X214748Y65173D01*
X287795Y66535D02*
X287976Y66354D01*
Y51413D02*
Y66354D01*
X287795Y77559D02*
Y85827D01*
X287402Y86221D02*
X287795Y85827D01*
X287402Y86221D02*
Y95669D01*
X43551Y142264D02*
X247697D01*
X287008Y102559D02*
X287402D01*
X285138Y104429D02*
X287008Y102559D01*
X247697Y142264D02*
X285138Y104823D01*
Y104429D02*
Y104823D01*
X339764Y130709D02*
X339764Y130709D01*
X348031D01*
X348425Y131102D02*
X357480D01*
X348031Y130709D02*
X348425Y131102D01*
X368504D02*
X368685Y131283D01*
X382248D01*
X307744Y154264D02*
X332087Y129921D01*
X340158Y203150D02*
X340551Y203543D01*
X348819D01*
X357874D01*
X369110Y203331D02*
X383035D01*
X368898Y203543D02*
X369110Y203331D01*
X290158Y250689D02*
Y259055D01*
X289764Y259449D02*
Y268110D01*
Y259449D02*
X290158Y259055D01*
X289583Y279315D02*
X289764Y279134D01*
X289583Y279315D02*
Y293468D01*
X215567Y279709D02*
Y293862D01*
Y279709D02*
X215748Y279528D01*
X216142Y258661D02*
Y268110D01*
X215748Y268504D02*
X216142Y268110D01*
Y250295D02*
Y258661D01*
X43551Y204264D02*
X177000D01*
X215748Y243406D02*
X216142D01*
X213878Y241535D02*
X215748Y243406D01*
X177000Y204264D02*
X213878Y241142D01*
Y241535D01*
X20866Y242126D02*
X36189D01*
X11811Y233071D02*
X20866Y242126D01*
X11811Y117323D02*
Y233071D01*
X38769Y112264D02*
X63476D01*
X36189Y242126D02*
X40051Y238264D01*
X11811Y117323D02*
X20079Y109055D01*
X35561D02*
X38769Y112264D01*
X20079Y109055D02*
X35561D01*
X140425Y236882D02*
Y240524D01*
X140945Y241043D01*
Y247933D02*
Y257874D01*
Y267717D01*
X140764Y278921D02*
Y292925D01*
Y278921D02*
X140945Y278740D01*
X36551Y216264D02*
X119807D01*
X140425Y236882D01*
X205512Y276362D02*
X205512Y276362D01*
Y265354D02*
Y276362D01*
X205567Y276417D02*
Y293862D01*
X205512Y276362D02*
X205567Y276417D01*
X195567Y303862D02*
Y313862D01*
Y303862D02*
X205567Y293862D01*
X195567Y313862D02*
X235567D01*
X402248Y111284D02*
Y151284D01*
X130760Y130264D02*
X141339Y119685D01*
Y102756D02*
Y119685D01*
X36551Y130264D02*
X130760D01*
X151575Y86811D02*
Y120473D01*
X43551Y134264D02*
X137784D01*
X151575Y120473D01*
X36551Y138264D02*
X196776D01*
X214567Y101772D02*
Y120473D01*
X196776Y138264D02*
X214567Y120473D01*
X44318Y151030D02*
X224653D01*
X224803Y151181D01*
Y86417D02*
Y139370D01*
X43551Y150264D02*
X44318Y151030D01*
X280508Y146264D02*
X297638Y129134D01*
X36551Y146264D02*
X280508D01*
X297638Y87205D02*
Y129134D01*
Y87205D02*
X298031Y86811D01*
X36551Y154264D02*
X307744D01*
X43551Y158264D02*
X53398Y168110D01*
X320079D02*
X346850Y141339D01*
X53398Y168110D02*
X320079D01*
X194882Y212992D02*
X234055D01*
X279134Y258071D01*
X43551Y212264D02*
X44280Y212992D01*
X94488D01*
X43551Y196264D02*
X262405D01*
X279528Y213386D01*
X347638D01*
X36551Y192264D02*
X277697D01*
X288583Y203150D02*
X331693D01*
X277697Y192264D02*
X288583Y203150D01*
X36551Y200264D02*
X247902D01*
X289764Y242126D01*
X154917Y208264D02*
X205118Y258465D01*
X36551Y208264D02*
X154917D01*
X279134Y258071D02*
X279528D01*
X205118Y258465D02*
X205512D01*
X43551Y220264D02*
X116720D01*
X130709Y234252D02*
Y257528D01*
X116720Y220264D02*
X130709Y234252D01*
X354528Y213386D02*
X365535D01*
X354528Y213386D02*
X354528Y213386D01*
X365591Y213331D02*
X383035D01*
X365535Y213386D02*
X365591Y213331D01*
X383035D02*
X393035Y223331D01*
X364748Y141339D02*
X364803Y141284D01*
X353740Y141339D02*
X353740Y141339D01*
X364748D01*
X382248Y141284D02*
X392248Y151284D01*
X364803Y141284D02*
X382248D01*
X392248Y151284D02*
X402248D01*
X121520Y31413D02*
X161520D01*
Y41413D01*
X151520Y51413D02*
X161520Y41413D01*
X151520Y68858D02*
X151575Y68913D01*
X151520Y51413D02*
Y68858D01*
X151575Y79921D02*
X151575Y79921D01*
Y68913D02*
Y79921D01*
X194748Y31020D02*
X234748D01*
Y41020D01*
X224748Y51020D02*
X234748Y41020D01*
X224748Y68465D02*
X224803Y68520D01*
X224748Y51020D02*
Y68465D01*
X224803Y79527D02*
X224803Y79527D01*
Y68520D02*
Y79527D01*
X267976Y31413D02*
X307976D01*
Y41413D01*
X297976Y51413D02*
X307976Y41413D01*
X297976Y68858D02*
X298031Y68913D01*
X297976Y51413D02*
Y68858D01*
X298031Y79921D02*
X298031Y79921D01*
Y68913D02*
Y79921D01*
X403035Y183331D02*
Y223331D01*
X393035D02*
X403035D01*
X269583Y313469D02*
X309583D01*
X269583Y303468D02*
Y313469D01*
Y303468D02*
X279583Y293468D01*
X279528Y275969D02*
X279583Y276024D01*
Y293468D01*
X279528Y264961D02*
X279528Y264961D01*
X279528Y264961D02*
Y275969D01*
X63476Y112264D02*
X71110Y119898D01*
X85677D01*
X85283Y108874D02*
Y119504D01*
X85677Y119898D01*
X96276D01*
X96850Y120472D01*
X98051D01*
X130764Y275480D02*
Y292925D01*
X130709Y264417D02*
Y275425D01*
X130764Y275480D01*
X130709Y264417D02*
X130709Y264417D01*
X120764Y302925D02*
X130764Y292925D01*
X120764Y302925D02*
Y312925D01*
X160764D01*
D15*
X205512Y265354D02*
D03*
Y258465D02*
D03*
X364748Y148228D02*
D03*
Y141339D02*
D03*
X130709Y257528D02*
D03*
Y264417D02*
D03*
X141732Y101870D02*
D03*
Y94980D02*
D03*
X214567Y101772D02*
D03*
Y94882D02*
D03*
X287402Y102559D02*
D03*
Y95669D02*
D03*
X365535Y220276D02*
D03*
Y213386D02*
D03*
X290158Y243799D02*
D03*
Y250689D02*
D03*
X216142Y243406D02*
D03*
Y250295D02*
D03*
X140945Y241043D02*
D03*
Y247933D02*
D03*
X279528Y258071D02*
D03*
Y264961D02*
D03*
X151575Y86811D02*
D03*
Y79921D02*
D03*
X224803Y86417D02*
D03*
Y79527D02*
D03*
X298031Y86811D02*
D03*
Y79921D02*
D03*
D16*
X353740Y141339D02*
D03*
X346850D02*
D03*
X339764Y130709D02*
D03*
X332874D02*
D03*
X158465Y68913D02*
D03*
X151575D02*
D03*
X231693Y68520D02*
D03*
X224803D02*
D03*
X304921Y68913D02*
D03*
X298031D02*
D03*
X333268Y203150D02*
D03*
X340158D02*
D03*
X272638Y275969D02*
D03*
X279528D02*
D03*
X198622Y276362D02*
D03*
X205512D02*
D03*
X123819Y275425D02*
D03*
X130709D02*
D03*
X347638Y213386D02*
D03*
X354528D02*
D03*
D17*
X357480Y131102D02*
D03*
X368504D02*
D03*
X357874Y203543D02*
D03*
X368898D02*
D03*
D18*
X348031Y130709D02*
D03*
Y122835D02*
D03*
X348819Y203543D02*
D03*
Y195669D02*
D03*
D19*
X85283Y97850D02*
D03*
Y108874D02*
D03*
X141732Y76378D02*
D03*
Y65354D02*
D03*
X214567Y76378D02*
D03*
Y65354D02*
D03*
X287795Y77559D02*
D03*
Y66535D02*
D03*
X289764Y268110D02*
D03*
Y279134D02*
D03*
X215748Y268504D02*
D03*
Y279528D02*
D03*
X140945Y267717D02*
D03*
Y278740D02*
D03*
D20*
X98051Y120472D02*
D03*
Y109055D02*
D03*
D21*
X141732Y85433D02*
D03*
X133858D02*
D03*
X214173D02*
D03*
X206299D02*
D03*
X287402Y86221D02*
D03*
X279528D02*
D03*
X290158Y259055D02*
D03*
X298031D02*
D03*
X216142Y258661D02*
D03*
X224016D02*
D03*
X140945Y257874D02*
D03*
X148819D02*
D03*
D36*
X215567Y293862D02*
D03*
X205567D02*
D03*
X383035Y141284D02*
D03*
Y131283D02*
D03*
X140764Y293862D02*
D03*
X130764D02*
D03*
X383035Y203331D02*
D03*
Y213331D02*
D03*
X151520Y51020D02*
D03*
X141520D02*
D03*
X224748D02*
D03*
X214748D02*
D03*
X297976D02*
D03*
X287976D02*
D03*
X279583Y293862D02*
D03*
X289583D02*
D03*
D37*
X195567Y313862D02*
D03*
X235567D02*
D03*
X403035Y111284D02*
D03*
Y151284D02*
D03*
X120764Y313862D02*
D03*
X160764D02*
D03*
X403035Y223331D02*
D03*
Y183331D02*
D03*
X121520Y31020D02*
D03*
X161520D02*
D03*
X194748D02*
D03*
X234748D02*
D03*
X267976D02*
D03*
X307976D02*
D03*
X309583Y313862D02*
D03*
X269583D02*
D03*
D38*
X36551Y192264D02*
D03*
Y130264D02*
D03*
D39*
X43551Y196264D02*
D03*
X36551Y200264D02*
D03*
X43551Y204264D02*
D03*
X36551Y208264D02*
D03*
X43551Y212264D02*
D03*
X36551Y216264D02*
D03*
X43551Y220264D02*
D03*
Y158264D02*
D03*
X36551Y154264D02*
D03*
X43551Y150264D02*
D03*
X36551Y146264D02*
D03*
X43551Y142264D02*
D03*
X36551Y138264D02*
D03*
X43551Y134264D02*
D03*
D40*
X26551Y231264D02*
D03*
Y119264D02*
D03*
D41*
X40051Y238264D02*
D03*
Y112264D02*
D03*
D42*
X421260Y334646D02*
D03*
Y11811D02*
D03*
X11811D02*
D03*
Y334646D02*
D03*
D43*
X145669Y179528D02*
D03*
X56299Y262992D02*
D03*
X398425Y324016D02*
D03*
X401575Y27559D02*
D03*
X38189Y30709D02*
D03*
D44*
X224803Y151181D02*
D03*
Y139370D02*
D03*
X194882Y212992D02*
D03*
X94488D02*
D03*
M02*
