G04*
G04 #@! TF.GenerationSoftware,Altium Limited,Altium Designer,22.1.2 (22)*
G04*
G04 Layer_Physical_Order=2*
G04 Layer_Color=16711680*
%FSLAX25Y25*%
%MOIN*%
G70*
G04*
G04 #@! TF.SameCoordinates,CA9A308F-EC6D-4BF3-840D-A7C0D9005CE4*
G04*
G04*
G04 #@! TF.FilePolarity,Positive*
G04*
G01*
G75*
%ADD12C,0.00787*%
%ADD36C,0.05941*%
%ADD37C,0.12165*%
%ADD38R,0.05512X0.05512*%
%ADD39C,0.05512*%
%ADD40C,0.12795*%
%ADD41C,0.09449*%
%ADD42C,0.06000*%
%ADD43C,0.05000*%
%ADD44C,0.01968*%
G36*
X431496Y337402D02*
Y11024D01*
X428044Y7571D01*
X427655Y7890D01*
X427903Y8260D01*
X428468Y9624D01*
X428756Y11073D01*
Y12549D01*
X428468Y13997D01*
X427903Y15362D01*
X427082Y16590D01*
X426038Y17634D01*
X424811Y18454D01*
X423446Y19019D01*
X421998Y19307D01*
X420521D01*
X419073Y19019D01*
X417709Y18454D01*
X416481Y17634D01*
X415437Y16590D01*
X414617Y15362D01*
X414052Y13997D01*
X413764Y12549D01*
Y11073D01*
X414052Y9624D01*
X414617Y8260D01*
X415437Y7033D01*
X416481Y5988D01*
X417709Y5168D01*
X419073Y4603D01*
X420521Y4315D01*
X421998D01*
X423446Y4603D01*
X424811Y5168D01*
X425181Y5415D01*
X425500Y5027D01*
X423622Y3150D01*
X9843D01*
X8661Y1969D01*
X1575Y9055D01*
Y336221D01*
X11024Y344882D01*
X424016D01*
X431496Y337402D01*
D02*
G37*
%LPC*%
G36*
X421998Y342142D02*
X420521D01*
X419073Y341854D01*
X417709Y341289D01*
X416481Y340468D01*
X415437Y339424D01*
X414617Y338196D01*
X414052Y336832D01*
X413764Y335384D01*
Y333907D01*
X414052Y332459D01*
X414617Y331095D01*
X415437Y329867D01*
X416481Y328823D01*
X417709Y328003D01*
X419073Y327438D01*
X420521Y327150D01*
X421998D01*
X423446Y327438D01*
X424811Y328003D01*
X426038Y328823D01*
X427082Y329867D01*
X427903Y331095D01*
X428468Y332459D01*
X428756Y333907D01*
Y335384D01*
X428468Y336832D01*
X427903Y338196D01*
X427082Y339424D01*
X426038Y340468D01*
X424811Y341289D01*
X423446Y341854D01*
X421998Y342142D01*
D02*
G37*
G36*
X12549D02*
X11073D01*
X9624Y341854D01*
X8260Y341289D01*
X7033Y340468D01*
X5988Y339424D01*
X5168Y338196D01*
X4603Y336832D01*
X4315Y335384D01*
Y333907D01*
X4603Y332459D01*
X5168Y331095D01*
X5988Y329867D01*
X7033Y328823D01*
X8260Y328003D01*
X9624Y327438D01*
X11073Y327150D01*
X12549D01*
X13997Y327438D01*
X15362Y328003D01*
X16590Y328823D01*
X17634Y329867D01*
X18454Y331095D01*
X19019Y332459D01*
X19307Y333907D01*
Y335384D01*
X19019Y336832D01*
X18454Y338196D01*
X17634Y339424D01*
X16590Y340468D01*
X15362Y341289D01*
X13997Y341854D01*
X12549Y342142D01*
D02*
G37*
G36*
X398925Y327505D02*
Y324516D01*
X401915D01*
X401687Y325367D01*
X401226Y326165D01*
X400574Y326816D01*
X399776Y327277D01*
X398925Y327505D01*
D02*
G37*
G36*
X397925D02*
X397074Y327277D01*
X396276Y326816D01*
X395624Y326165D01*
X395164Y325367D01*
X394936Y324516D01*
X397925D01*
Y327505D01*
D02*
G37*
G36*
X401915Y323516D02*
X398925D01*
Y320526D01*
X399776Y320754D01*
X400574Y321215D01*
X401226Y321867D01*
X401687Y322665D01*
X401915Y323516D01*
D02*
G37*
G36*
X397925D02*
X394936D01*
X395164Y322665D01*
X395624Y321867D01*
X396276Y321215D01*
X397074Y320754D01*
X397925Y320526D01*
Y323516D01*
D02*
G37*
G36*
X310259Y320732D02*
X308906D01*
X307579Y320468D01*
X306329Y319950D01*
X305203Y319198D01*
X304246Y318242D01*
X303495Y317116D01*
X302977Y315866D01*
X302713Y314539D01*
Y313186D01*
X302977Y311858D01*
X303495Y310608D01*
X304246Y309483D01*
X305203Y308526D01*
X306329Y307774D01*
X307579Y307256D01*
X308906Y306992D01*
X310259D01*
X311587Y307256D01*
X312837Y307774D01*
X313962Y308526D01*
X314919Y309483D01*
X315671Y310608D01*
X316189Y311858D01*
X316453Y313186D01*
Y314539D01*
X316189Y315866D01*
X315671Y317116D01*
X314919Y318242D01*
X313962Y319198D01*
X312837Y319950D01*
X311587Y320468D01*
X310259Y320732D01*
D02*
G37*
G36*
X270259D02*
X268906D01*
X267579Y320468D01*
X266329Y319950D01*
X265203Y319198D01*
X264246Y318242D01*
X263494Y317116D01*
X262977Y315866D01*
X262713Y314539D01*
Y313186D01*
X262977Y311858D01*
X263494Y310608D01*
X264246Y309483D01*
X265203Y308526D01*
X266329Y307774D01*
X267579Y307256D01*
X268906Y306992D01*
X270259D01*
X271587Y307256D01*
X272837Y307774D01*
X273962Y308526D01*
X274919Y309483D01*
X275671Y310608D01*
X276189Y311858D01*
X276453Y313186D01*
Y314539D01*
X276189Y315866D01*
X275671Y317116D01*
X274919Y318242D01*
X273962Y319198D01*
X272837Y319950D01*
X271587Y320468D01*
X270259Y320732D01*
D02*
G37*
G36*
X236244D02*
X234890D01*
X233563Y320468D01*
X232313Y319950D01*
X231188Y319198D01*
X230231Y318242D01*
X229479Y317116D01*
X228961Y315866D01*
X228697Y314539D01*
Y313186D01*
X228961Y311858D01*
X229479Y310608D01*
X230231Y309483D01*
X231188Y308526D01*
X232313Y307774D01*
X233563Y307256D01*
X234890Y306992D01*
X236244D01*
X237571Y307256D01*
X238821Y307774D01*
X239946Y308526D01*
X240903Y309483D01*
X241655Y310608D01*
X242173Y311858D01*
X242437Y313186D01*
Y314539D01*
X242173Y315866D01*
X241655Y317116D01*
X240903Y318242D01*
X239946Y319198D01*
X238821Y319950D01*
X237571Y320468D01*
X236244Y320732D01*
D02*
G37*
G36*
X196244D02*
X194890D01*
X193563Y320468D01*
X192313Y319950D01*
X191188Y319198D01*
X190231Y318242D01*
X189479Y317116D01*
X188961Y315866D01*
X188697Y314539D01*
Y313186D01*
X188961Y311858D01*
X189479Y310608D01*
X190231Y309483D01*
X191188Y308526D01*
X192313Y307774D01*
X193563Y307256D01*
X194890Y306992D01*
X196244D01*
X197571Y307256D01*
X198821Y307774D01*
X199946Y308526D01*
X200903Y309483D01*
X201655Y310608D01*
X202173Y311858D01*
X202437Y313186D01*
Y314539D01*
X202173Y315866D01*
X201655Y317116D01*
X200903Y318242D01*
X199946Y319198D01*
X198821Y319950D01*
X197571Y320468D01*
X196244Y320732D01*
D02*
G37*
G36*
X161440D02*
X160087D01*
X158760Y320468D01*
X157510Y319950D01*
X156384Y319198D01*
X155427Y318242D01*
X154676Y317116D01*
X154158Y315866D01*
X153894Y314539D01*
Y313186D01*
X154158Y311858D01*
X154676Y310608D01*
X155427Y309483D01*
X156384Y308526D01*
X157510Y307774D01*
X158760Y307256D01*
X160087Y306992D01*
X161440D01*
X162768Y307256D01*
X164018Y307774D01*
X165143Y308526D01*
X166100Y309483D01*
X166852Y310608D01*
X167370Y311858D01*
X167634Y313186D01*
Y314539D01*
X167370Y315866D01*
X166852Y317116D01*
X166100Y318242D01*
X165143Y319198D01*
X164018Y319950D01*
X162768Y320468D01*
X161440Y320732D01*
D02*
G37*
G36*
X121440D02*
X120087D01*
X118760Y320468D01*
X117510Y319950D01*
X116384Y319198D01*
X115427Y318242D01*
X114676Y317116D01*
X114158Y315866D01*
X113894Y314539D01*
Y313186D01*
X114158Y311858D01*
X114676Y310608D01*
X115427Y309483D01*
X116384Y308526D01*
X117510Y307774D01*
X118760Y307256D01*
X120087Y306992D01*
X121440D01*
X122768Y307256D01*
X124018Y307774D01*
X125143Y308526D01*
X126100Y309483D01*
X126852Y310608D01*
X127370Y311858D01*
X127634Y313186D01*
Y314539D01*
X127370Y315866D01*
X126852Y317116D01*
X126100Y318242D01*
X125143Y319198D01*
X124018Y319950D01*
X122768Y320468D01*
X121440Y320732D01*
D02*
G37*
G36*
X290077Y297620D02*
X289088D01*
X288132Y297364D01*
X287275Y296869D01*
X286576Y296170D01*
X286081Y295313D01*
X285825Y294357D01*
Y293368D01*
X286081Y292412D01*
X286576Y291555D01*
X287275Y290855D01*
X288132Y290360D01*
X289088Y290104D01*
X290077D01*
X291033Y290360D01*
X291890Y290855D01*
X292590Y291555D01*
X293085Y292412D01*
X293340Y293368D01*
Y294357D01*
X293085Y295313D01*
X292590Y296170D01*
X291890Y296869D01*
X291033Y297364D01*
X290077Y297620D01*
D02*
G37*
G36*
X280077D02*
X279088D01*
X278132Y297364D01*
X277275Y296869D01*
X276576Y296170D01*
X276081Y295313D01*
X275825Y294357D01*
Y293368D01*
X276081Y292412D01*
X276576Y291555D01*
X277275Y290855D01*
X278132Y290360D01*
X279088Y290104D01*
X280077D01*
X281033Y290360D01*
X281890Y290855D01*
X282590Y291555D01*
X283085Y292412D01*
X283341Y293368D01*
Y294357D01*
X283085Y295313D01*
X282590Y296170D01*
X281890Y296869D01*
X281033Y297364D01*
X280077Y297620D01*
D02*
G37*
G36*
X216062D02*
X215072D01*
X214116Y297364D01*
X213260Y296869D01*
X212560Y296170D01*
X212065Y295313D01*
X211809Y294357D01*
Y293368D01*
X212065Y292412D01*
X212560Y291555D01*
X213260Y290855D01*
X214116Y290360D01*
X215072Y290104D01*
X216062D01*
X217017Y290360D01*
X217874Y290855D01*
X218574Y291555D01*
X219069Y292412D01*
X219325Y293368D01*
Y294357D01*
X219069Y295313D01*
X218574Y296170D01*
X217874Y296869D01*
X217017Y297364D01*
X216062Y297620D01*
D02*
G37*
G36*
X206062D02*
X205072D01*
X204116Y297364D01*
X203259Y296869D01*
X202560Y296170D01*
X202065Y295313D01*
X201809Y294357D01*
Y293368D01*
X202065Y292412D01*
X202560Y291555D01*
X203259Y290855D01*
X204116Y290360D01*
X205072Y290104D01*
X206062D01*
X207017Y290360D01*
X207874Y290855D01*
X208574Y291555D01*
X209069Y292412D01*
X209325Y293368D01*
Y294357D01*
X209069Y295313D01*
X208574Y296170D01*
X207874Y296869D01*
X207017Y297364D01*
X206062Y297620D01*
D02*
G37*
G36*
X141259D02*
X140269D01*
X139313Y297364D01*
X138456Y296869D01*
X137757Y296170D01*
X137262Y295313D01*
X137006Y294357D01*
Y293368D01*
X137262Y292412D01*
X137757Y291555D01*
X138456Y290855D01*
X139313Y290360D01*
X140269Y290104D01*
X141259D01*
X142214Y290360D01*
X143071Y290855D01*
X143771Y291555D01*
X144266Y292412D01*
X144522Y293368D01*
Y294357D01*
X144266Y295313D01*
X143771Y296170D01*
X143071Y296869D01*
X142214Y297364D01*
X141259Y297620D01*
D02*
G37*
G36*
X131258D02*
X130269D01*
X129313Y297364D01*
X128456Y296869D01*
X127757Y296170D01*
X127262Y295313D01*
X127006Y294357D01*
Y293368D01*
X127262Y292412D01*
X127757Y291555D01*
X128456Y290855D01*
X129313Y290360D01*
X130269Y290104D01*
X131258D01*
X132214Y290360D01*
X133071Y290855D01*
X133771Y291555D01*
X134266Y292412D01*
X134522Y293368D01*
Y294357D01*
X134266Y295313D01*
X133771Y296170D01*
X133071Y296869D01*
X132214Y297364D01*
X131258Y297620D01*
D02*
G37*
G36*
X56799Y266482D02*
Y263492D01*
X59789D01*
X59561Y264343D01*
X59100Y265141D01*
X58448Y265793D01*
X57650Y266254D01*
X56799Y266482D01*
D02*
G37*
G36*
X55799D02*
X54948Y266254D01*
X54150Y265793D01*
X53499Y265141D01*
X53038Y264343D01*
X52810Y263492D01*
X55799D01*
Y266482D01*
D02*
G37*
G36*
X59789Y262492D02*
X56799D01*
Y259503D01*
X57650Y259731D01*
X58448Y260191D01*
X59100Y260843D01*
X59561Y261641D01*
X59789Y262492D01*
D02*
G37*
G36*
X55799D02*
X52810D01*
X53038Y261641D01*
X53499Y260843D01*
X54150Y260191D01*
X54948Y259731D01*
X55799Y259503D01*
Y262492D01*
D02*
G37*
G36*
X40777Y243776D02*
X39325D01*
X37924Y243400D01*
X36667Y242674D01*
X35641Y241648D01*
X34915Y240391D01*
X34539Y238989D01*
Y237538D01*
X34915Y236136D01*
X35641Y234879D01*
X36667Y233853D01*
X37924Y233128D01*
X39325Y232752D01*
X40777D01*
X42179Y233128D01*
X43435Y233853D01*
X44462Y234879D01*
X45187Y236136D01*
X45563Y237538D01*
Y238989D01*
X45187Y240391D01*
X44462Y241648D01*
X43435Y242674D01*
X42179Y243400D01*
X40777Y243776D01*
D02*
G37*
G36*
X27280Y238661D02*
X25823D01*
X24393Y238377D01*
X23047Y237820D01*
X21836Y237010D01*
X20805Y235980D01*
X19996Y234768D01*
X19438Y233422D01*
X19153Y231992D01*
Y230535D01*
X19438Y229106D01*
X19996Y227760D01*
X20805Y226548D01*
X21836Y225518D01*
X23047Y224708D01*
X24393Y224150D01*
X25823Y223866D01*
X27280D01*
X28709Y224150D01*
X30055Y224708D01*
X31267Y225518D01*
X32297Y226548D01*
X33107Y227760D01*
X33665Y229106D01*
X33949Y230535D01*
Y231992D01*
X33665Y233422D01*
X33107Y234768D01*
X32297Y235980D01*
X31267Y237010D01*
X30055Y237820D01*
X28709Y238377D01*
X27280Y238661D01*
D02*
G37*
G36*
X44018Y223807D02*
X43085D01*
X42184Y223566D01*
X41375Y223099D01*
X40716Y222439D01*
X40249Y221631D01*
X40008Y220730D01*
Y219797D01*
X40249Y218896D01*
X40716Y218088D01*
X41375Y217428D01*
X42184Y216962D01*
X43085Y216721D01*
X44018D01*
X44919Y216962D01*
X45727Y217428D01*
X46387Y218088D01*
X46853Y218896D01*
X47095Y219797D01*
Y220730D01*
X46853Y221631D01*
X46387Y222439D01*
X45727Y223099D01*
X44919Y223566D01*
X44018Y223807D01*
D02*
G37*
G36*
X403712Y230201D02*
X402359D01*
X401031Y229937D01*
X399781Y229419D01*
X398656Y228667D01*
X397699Y227710D01*
X396947Y226585D01*
X396429Y225335D01*
X396165Y224007D01*
Y222654D01*
X396429Y221327D01*
X396947Y220076D01*
X397699Y218951D01*
X398656Y217994D01*
X399781Y217243D01*
X401031Y216725D01*
X402359Y216461D01*
X403712D01*
X405039Y216725D01*
X406290Y217243D01*
X407415Y217994D01*
X408372Y218951D01*
X409124Y220076D01*
X409642Y221327D01*
X409905Y222654D01*
Y224007D01*
X409642Y225335D01*
X409124Y226585D01*
X408372Y227710D01*
X407415Y228667D01*
X406290Y229419D01*
X405039Y229937D01*
X403712Y230201D01*
D02*
G37*
G36*
X195234Y214764D02*
X194529D01*
X193878Y214494D01*
X193581Y214196D01*
X95789D01*
X95492Y214494D01*
X94841Y214764D01*
X94136D01*
X93485Y214494D01*
X92986Y213996D01*
X92716Y213345D01*
Y212640D01*
X92986Y211989D01*
X93485Y211490D01*
X94136Y211221D01*
X94841D01*
X95492Y211490D01*
X95789Y211788D01*
X193581D01*
X193878Y211490D01*
X194529Y211221D01*
X195234D01*
X195885Y211490D01*
X196384Y211989D01*
X196653Y212640D01*
Y213345D01*
X196384Y213996D01*
X195885Y214494D01*
X195234Y214764D01*
D02*
G37*
G36*
X37018Y219807D02*
X36085D01*
X35184Y219566D01*
X34376Y219099D01*
X33716Y218439D01*
X33249Y217631D01*
X33008Y216730D01*
Y215797D01*
X33249Y214896D01*
X33716Y214088D01*
X34376Y213428D01*
X35184Y212962D01*
X36085Y212720D01*
X37018D01*
X37919Y212962D01*
X38727Y213428D01*
X39386Y214088D01*
X39853Y214896D01*
X40095Y215797D01*
Y216730D01*
X39853Y217631D01*
X39386Y218439D01*
X38727Y219099D01*
X37919Y219566D01*
X37018Y219807D01*
D02*
G37*
G36*
X383530Y217089D02*
X382541D01*
X381585Y216832D01*
X380728Y216338D01*
X380028Y215638D01*
X379534Y214781D01*
X379278Y213825D01*
Y212836D01*
X379534Y211880D01*
X380028Y211023D01*
X380728Y210324D01*
X381585Y209829D01*
X382541Y209573D01*
X383530D01*
X384486Y209829D01*
X385343Y210324D01*
X386042Y211023D01*
X386537Y211880D01*
X386793Y212836D01*
Y213825D01*
X386537Y214781D01*
X386042Y215638D01*
X385343Y216338D01*
X384486Y216832D01*
X383530Y217089D01*
D02*
G37*
G36*
X44018Y215807D02*
X43085D01*
X42184Y215566D01*
X41375Y215099D01*
X40716Y214439D01*
X40249Y213631D01*
X40008Y212730D01*
Y211797D01*
X40249Y210896D01*
X40716Y210088D01*
X41375Y209428D01*
X42184Y208962D01*
X43085Y208720D01*
X44018D01*
X44919Y208962D01*
X45727Y209428D01*
X46387Y210088D01*
X46853Y210896D01*
X47095Y211797D01*
Y212730D01*
X46853Y213631D01*
X46387Y214439D01*
X45727Y215099D01*
X44919Y215566D01*
X44018Y215807D01*
D02*
G37*
G36*
X37018Y211807D02*
X36085D01*
X35184Y211566D01*
X34376Y211099D01*
X33716Y210439D01*
X33249Y209631D01*
X33008Y208730D01*
Y207797D01*
X33249Y206896D01*
X33716Y206088D01*
X34376Y205428D01*
X35184Y204962D01*
X36085Y204720D01*
X37018D01*
X37919Y204962D01*
X38727Y205428D01*
X39386Y206088D01*
X39853Y206896D01*
X40095Y207797D01*
Y208730D01*
X39853Y209631D01*
X39386Y210439D01*
X38727Y211099D01*
X37919Y211566D01*
X37018Y211807D01*
D02*
G37*
G36*
X44018Y207807D02*
X43085D01*
X42184Y207566D01*
X41375Y207099D01*
X40716Y206439D01*
X40249Y205631D01*
X40008Y204730D01*
Y203797D01*
X40249Y202896D01*
X40716Y202088D01*
X41375Y201428D01*
X42184Y200962D01*
X43085Y200721D01*
X44018D01*
X44919Y200962D01*
X45727Y201428D01*
X46387Y202088D01*
X46853Y202896D01*
X47095Y203797D01*
Y204730D01*
X46853Y205631D01*
X46387Y206439D01*
X45727Y207099D01*
X44919Y207566D01*
X44018Y207807D01*
D02*
G37*
G36*
X383530Y207089D02*
X382541D01*
X381585Y206833D01*
X380728Y206338D01*
X380028Y205638D01*
X379534Y204781D01*
X379278Y203825D01*
Y202836D01*
X379534Y201880D01*
X380028Y201023D01*
X380728Y200324D01*
X381585Y199829D01*
X382541Y199573D01*
X383530D01*
X384486Y199829D01*
X385343Y200324D01*
X386042Y201023D01*
X386537Y201880D01*
X386793Y202836D01*
Y203825D01*
X386537Y204781D01*
X386042Y205638D01*
X385343Y206338D01*
X384486Y206833D01*
X383530Y207089D01*
D02*
G37*
G36*
X37018Y203807D02*
X36085D01*
X35184Y203566D01*
X34376Y203099D01*
X33716Y202439D01*
X33249Y201631D01*
X33008Y200730D01*
Y199797D01*
X33249Y198896D01*
X33716Y198088D01*
X34376Y197428D01*
X35184Y196962D01*
X36085Y196721D01*
X37018D01*
X37919Y196962D01*
X38727Y197428D01*
X39386Y198088D01*
X39853Y198896D01*
X40095Y199797D01*
Y200730D01*
X39853Y201631D01*
X39386Y202439D01*
X38727Y203099D01*
X37919Y203566D01*
X37018Y203807D01*
D02*
G37*
G36*
X44018Y199807D02*
X43085D01*
X42184Y199566D01*
X41375Y199099D01*
X40716Y198439D01*
X40249Y197631D01*
X40008Y196730D01*
Y195938D01*
X40008Y195807D01*
X39770Y195807D01*
X33008D01*
Y188721D01*
X40095D01*
Y194164D01*
X40595Y194298D01*
X40716Y194088D01*
X41375Y193428D01*
X42184Y192962D01*
X43085Y192720D01*
X44018D01*
X44919Y192962D01*
X45727Y193428D01*
X46387Y194088D01*
X46853Y194896D01*
X47095Y195797D01*
Y196730D01*
X46853Y197631D01*
X46387Y198439D01*
X45727Y199099D01*
X44919Y199566D01*
X44018Y199807D01*
D02*
G37*
G36*
X146169Y183017D02*
Y180028D01*
X149159D01*
X148931Y180878D01*
X148470Y181677D01*
X147818Y182328D01*
X147020Y182789D01*
X146169Y183017D01*
D02*
G37*
G36*
X145169D02*
X144318Y182789D01*
X143520Y182328D01*
X142869Y181677D01*
X142408Y180878D01*
X142180Y180028D01*
X145169D01*
Y183017D01*
D02*
G37*
G36*
X403712Y190201D02*
X402359D01*
X401031Y189937D01*
X399781Y189419D01*
X398656Y188667D01*
X397699Y187710D01*
X396947Y186585D01*
X396429Y185335D01*
X396165Y184007D01*
Y182654D01*
X396429Y181327D01*
X396947Y180077D01*
X397699Y178951D01*
X398656Y177994D01*
X399781Y177243D01*
X401031Y176725D01*
X402359Y176461D01*
X403712D01*
X405039Y176725D01*
X406290Y177243D01*
X407415Y177994D01*
X408372Y178951D01*
X409124Y180077D01*
X409642Y181327D01*
X409905Y182654D01*
Y184007D01*
X409642Y185335D01*
X409124Y186585D01*
X408372Y187710D01*
X407415Y188667D01*
X406290Y189419D01*
X405039Y189937D01*
X403712Y190201D01*
D02*
G37*
G36*
X149159Y179028D02*
X146169D01*
Y176038D01*
X147020Y176266D01*
X147818Y176727D01*
X148470Y177378D01*
X148931Y178177D01*
X149159Y179028D01*
D02*
G37*
G36*
X145169D02*
X142180D01*
X142408Y178177D01*
X142869Y177378D01*
X143520Y176727D01*
X144318Y176266D01*
X145169Y176038D01*
Y179028D01*
D02*
G37*
G36*
X44018Y161807D02*
X43085D01*
X42184Y161566D01*
X41375Y161099D01*
X40716Y160439D01*
X40249Y159631D01*
X40008Y158730D01*
Y157797D01*
X40249Y156896D01*
X40716Y156088D01*
X41375Y155428D01*
X42184Y154962D01*
X43085Y154720D01*
X44018D01*
X44919Y154962D01*
X45727Y155428D01*
X46387Y156088D01*
X46853Y156896D01*
X47095Y157797D01*
Y158730D01*
X46853Y159631D01*
X46387Y160439D01*
X45727Y161099D01*
X44919Y161566D01*
X44018Y161807D01*
D02*
G37*
G36*
X37018Y157807D02*
X36085D01*
X35184Y157566D01*
X34376Y157099D01*
X33716Y156439D01*
X33249Y155631D01*
X33008Y154730D01*
Y153797D01*
X33249Y152896D01*
X33716Y152088D01*
X34376Y151428D01*
X35184Y150962D01*
X36085Y150721D01*
X37018D01*
X37919Y150962D01*
X38727Y151428D01*
X39386Y152088D01*
X39853Y152896D01*
X40095Y153797D01*
Y154730D01*
X39853Y155631D01*
X39386Y156439D01*
X38727Y157099D01*
X37919Y157566D01*
X37018Y157807D01*
D02*
G37*
G36*
X44018Y153807D02*
X43085D01*
X42184Y153566D01*
X41375Y153099D01*
X40716Y152439D01*
X40249Y151631D01*
X40008Y150730D01*
Y149797D01*
X40249Y148896D01*
X40716Y148088D01*
X41375Y147428D01*
X42184Y146962D01*
X43085Y146721D01*
X44018D01*
X44919Y146962D01*
X45727Y147428D01*
X46387Y148088D01*
X46853Y148896D01*
X47095Y149797D01*
Y150730D01*
X46853Y151631D01*
X46387Y152439D01*
X45727Y153099D01*
X44919Y153566D01*
X44018Y153807D01*
D02*
G37*
G36*
X403712Y158153D02*
X402359D01*
X401031Y157889D01*
X399781Y157372D01*
X398656Y156620D01*
X397699Y155663D01*
X396947Y154538D01*
X396429Y153287D01*
X396165Y151960D01*
Y150607D01*
X396429Y149279D01*
X396947Y148029D01*
X397699Y146904D01*
X398656Y145947D01*
X399781Y145195D01*
X401031Y144677D01*
X402359Y144413D01*
X403712D01*
X405039Y144677D01*
X406290Y145195D01*
X407415Y145947D01*
X408372Y146904D01*
X409124Y148029D01*
X409642Y149279D01*
X409905Y150607D01*
Y151960D01*
X409642Y153287D01*
X409124Y154538D01*
X408372Y155663D01*
X407415Y156620D01*
X406290Y157372D01*
X405039Y157889D01*
X403712Y158153D01*
D02*
G37*
G36*
X37018Y149807D02*
X36085D01*
X35184Y149566D01*
X34376Y149099D01*
X33716Y148439D01*
X33249Y147631D01*
X33008Y146730D01*
Y145797D01*
X33249Y144896D01*
X33716Y144088D01*
X34376Y143428D01*
X35184Y142962D01*
X36085Y142720D01*
X37018D01*
X37919Y142962D01*
X38727Y143428D01*
X39386Y144088D01*
X39853Y144896D01*
X40095Y145797D01*
Y146730D01*
X39853Y147631D01*
X39386Y148439D01*
X38727Y149099D01*
X37919Y149566D01*
X37018Y149807D01*
D02*
G37*
G36*
X44018Y145807D02*
X43085D01*
X42184Y145566D01*
X41375Y145099D01*
X40716Y144439D01*
X40249Y143631D01*
X40008Y142730D01*
Y141797D01*
X40249Y140896D01*
X40716Y140088D01*
X41375Y139428D01*
X42184Y138962D01*
X43085Y138721D01*
X44018D01*
X44919Y138962D01*
X45727Y139428D01*
X46387Y140088D01*
X46853Y140896D01*
X47095Y141797D01*
Y142730D01*
X46853Y143631D01*
X46387Y144439D01*
X45727Y145099D01*
X44919Y145566D01*
X44018Y145807D01*
D02*
G37*
G36*
X225155Y152953D02*
X224451D01*
X223800Y152683D01*
X223301Y152185D01*
X223031Y151533D01*
Y150829D01*
X223301Y150178D01*
X223599Y149880D01*
Y140671D01*
X223301Y140374D01*
X223031Y139723D01*
Y139018D01*
X223301Y138366D01*
X223800Y137868D01*
X224451Y137598D01*
X225155D01*
X225807Y137868D01*
X226305Y138366D01*
X226575Y139018D01*
Y139723D01*
X226305Y140374D01*
X226007Y140671D01*
Y149880D01*
X226305Y150178D01*
X226575Y150829D01*
Y151533D01*
X226305Y152185D01*
X225807Y152683D01*
X225155Y152953D01*
D02*
G37*
G36*
X383530Y145041D02*
X382541D01*
X381585Y144785D01*
X380728Y144290D01*
X380028Y143591D01*
X379534Y142734D01*
X379278Y141778D01*
Y140789D01*
X379534Y139833D01*
X380028Y138976D01*
X380728Y138276D01*
X381585Y137782D01*
X382541Y137526D01*
X383530D01*
X384486Y137782D01*
X385343Y138276D01*
X386042Y138976D01*
X386537Y139833D01*
X386793Y140789D01*
Y141778D01*
X386537Y142734D01*
X386042Y143591D01*
X385343Y144290D01*
X384486Y144785D01*
X383530Y145041D01*
D02*
G37*
G36*
X37018Y141807D02*
X36085D01*
X35184Y141566D01*
X34376Y141099D01*
X33716Y140439D01*
X33249Y139631D01*
X33008Y138730D01*
Y137797D01*
X33249Y136896D01*
X33716Y136088D01*
X34376Y135428D01*
X35184Y134962D01*
X36085Y134721D01*
X37018D01*
X37919Y134962D01*
X38727Y135428D01*
X39386Y136088D01*
X39853Y136896D01*
X40095Y137797D01*
Y138730D01*
X39853Y139631D01*
X39386Y140439D01*
X38727Y141099D01*
X37919Y141566D01*
X37018Y141807D01*
D02*
G37*
G36*
X44018Y137807D02*
X43085D01*
X42184Y137566D01*
X41375Y137099D01*
X40716Y136439D01*
X40249Y135631D01*
X40008Y134730D01*
Y133938D01*
X40008Y133807D01*
X39770Y133807D01*
X33008D01*
Y126720D01*
X40095D01*
Y132164D01*
X40595Y132298D01*
X40716Y132088D01*
X41375Y131428D01*
X42184Y130962D01*
X43085Y130720D01*
X44018D01*
X44919Y130962D01*
X45727Y131428D01*
X46387Y132088D01*
X46853Y132896D01*
X47095Y133797D01*
Y134730D01*
X46853Y135631D01*
X46387Y136439D01*
X45727Y137099D01*
X44919Y137566D01*
X44018Y137807D01*
D02*
G37*
G36*
X383530Y135041D02*
X382541D01*
X381585Y134785D01*
X380728Y134291D01*
X380028Y133591D01*
X379534Y132734D01*
X379278Y131778D01*
Y130789D01*
X379534Y129833D01*
X380028Y128976D01*
X380728Y128276D01*
X381585Y127782D01*
X382541Y127526D01*
X383530D01*
X384486Y127782D01*
X385343Y128276D01*
X386042Y128976D01*
X386537Y129833D01*
X386793Y130789D01*
Y131778D01*
X386537Y132734D01*
X386042Y133591D01*
X385343Y134291D01*
X384486Y134785D01*
X383530Y135041D01*
D02*
G37*
G36*
X27280Y126661D02*
X25823D01*
X24393Y126377D01*
X23047Y125820D01*
X21836Y125010D01*
X20805Y123979D01*
X19996Y122768D01*
X19438Y121422D01*
X19153Y119992D01*
Y118535D01*
X19438Y117106D01*
X19996Y115760D01*
X20805Y114548D01*
X21836Y113518D01*
X23047Y112708D01*
X24393Y112150D01*
X25823Y111866D01*
X27280D01*
X28709Y112150D01*
X30055Y112708D01*
X31267Y113518D01*
X32297Y114548D01*
X33107Y115760D01*
X33665Y117106D01*
X33949Y118535D01*
Y119992D01*
X33665Y121422D01*
X33107Y122768D01*
X32297Y123979D01*
X31267Y125010D01*
X30055Y125820D01*
X28709Y126377D01*
X27280Y126661D01*
D02*
G37*
G36*
X40777Y117776D02*
X39325D01*
X37924Y117400D01*
X36667Y116674D01*
X35641Y115648D01*
X34915Y114391D01*
X34539Y112989D01*
Y111538D01*
X34915Y110136D01*
X35641Y108879D01*
X36667Y107853D01*
X37924Y107128D01*
X39325Y106752D01*
X40777D01*
X42179Y107128D01*
X43435Y107853D01*
X44462Y108879D01*
X45187Y110136D01*
X45563Y111538D01*
Y112989D01*
X45187Y114391D01*
X44462Y115648D01*
X43435Y116674D01*
X42179Y117400D01*
X40777Y117776D01*
D02*
G37*
G36*
X403712Y118154D02*
X402359D01*
X401031Y117889D01*
X399781Y117372D01*
X398656Y116620D01*
X397699Y115663D01*
X396947Y114538D01*
X396429Y113287D01*
X396165Y111960D01*
Y110607D01*
X396429Y109280D01*
X396947Y108029D01*
X397699Y106904D01*
X398656Y105947D01*
X399781Y105195D01*
X401031Y104677D01*
X402359Y104413D01*
X403712D01*
X405039Y104677D01*
X406290Y105195D01*
X407415Y105947D01*
X408372Y106904D01*
X409124Y108029D01*
X409642Y109280D01*
X409905Y110607D01*
Y111960D01*
X409642Y113287D01*
X409124Y114538D01*
X408372Y115663D01*
X407415Y116620D01*
X406290Y117372D01*
X405039Y117889D01*
X403712Y118154D01*
D02*
G37*
G36*
X298471Y54777D02*
X297482D01*
X296526Y54522D01*
X295669Y54027D01*
X294969Y53327D01*
X294475Y52470D01*
X294218Y51514D01*
Y50525D01*
X294475Y49569D01*
X294969Y48712D01*
X295669Y48013D01*
X296526Y47518D01*
X297482Y47262D01*
X298471D01*
X299427Y47518D01*
X300284Y48013D01*
X300983Y48712D01*
X301478Y49569D01*
X301734Y50525D01*
Y51514D01*
X301478Y52470D01*
X300983Y53327D01*
X300284Y54027D01*
X299427Y54522D01*
X298471Y54777D01*
D02*
G37*
G36*
X288471D02*
X287482D01*
X286526Y54522D01*
X285669Y54027D01*
X284969Y53327D01*
X284475Y52470D01*
X284219Y51514D01*
Y50525D01*
X284475Y49569D01*
X284969Y48712D01*
X285669Y48013D01*
X286526Y47518D01*
X287482Y47262D01*
X288471D01*
X289427Y47518D01*
X290284Y48013D01*
X290983Y48712D01*
X291478Y49569D01*
X291734Y50525D01*
Y51514D01*
X291478Y52470D01*
X290983Y53327D01*
X290284Y54027D01*
X289427Y54522D01*
X288471Y54777D01*
D02*
G37*
G36*
X225243D02*
X224253D01*
X223298Y54522D01*
X222441Y54027D01*
X221741Y53327D01*
X221246Y52470D01*
X220990Y51514D01*
Y50525D01*
X221246Y49569D01*
X221741Y48712D01*
X222441Y48013D01*
X223298Y47518D01*
X224253Y47262D01*
X225243D01*
X226199Y47518D01*
X227055Y48013D01*
X227755Y48712D01*
X228250Y49569D01*
X228506Y50525D01*
Y51514D01*
X228250Y52470D01*
X227755Y53327D01*
X227055Y54027D01*
X226199Y54522D01*
X225243Y54777D01*
D02*
G37*
G36*
X215243D02*
X214253D01*
X213298Y54522D01*
X212441Y54027D01*
X211741Y53327D01*
X211246Y52470D01*
X210990Y51514D01*
Y50525D01*
X211246Y49569D01*
X211741Y48712D01*
X212441Y48013D01*
X213298Y47518D01*
X214253Y47262D01*
X215243D01*
X216198Y47518D01*
X217055Y48013D01*
X217755Y48712D01*
X218250Y49569D01*
X218506Y50525D01*
Y51514D01*
X218250Y52470D01*
X217755Y53327D01*
X217055Y54027D01*
X216198Y54522D01*
X215243Y54777D01*
D02*
G37*
G36*
X152014D02*
X151025D01*
X150069Y54522D01*
X149212Y54027D01*
X148513Y53327D01*
X148018Y52470D01*
X147762Y51514D01*
Y50525D01*
X148018Y49569D01*
X148513Y48712D01*
X149212Y48013D01*
X150069Y47518D01*
X151025Y47262D01*
X152014D01*
X152970Y47518D01*
X153827Y48013D01*
X154527Y48712D01*
X155022Y49569D01*
X155278Y50525D01*
Y51514D01*
X155022Y52470D01*
X154527Y53327D01*
X153827Y54027D01*
X152970Y54522D01*
X152014Y54777D01*
D02*
G37*
G36*
X142014D02*
X141025D01*
X140069Y54522D01*
X139212Y54027D01*
X138513Y53327D01*
X138018Y52470D01*
X137762Y51514D01*
Y50525D01*
X138018Y49569D01*
X138513Y48712D01*
X139212Y48013D01*
X140069Y47518D01*
X141025Y47262D01*
X142014D01*
X142970Y47518D01*
X143827Y48013D01*
X144527Y48712D01*
X145021Y49569D01*
X145278Y50525D01*
Y51514D01*
X145021Y52470D01*
X144527Y53327D01*
X143827Y54027D01*
X142970Y54522D01*
X142014Y54777D01*
D02*
G37*
G36*
X38689Y34198D02*
Y31209D01*
X41679D01*
X41451Y32060D01*
X40990Y32858D01*
X40338Y33509D01*
X39540Y33970D01*
X38689Y34198D01*
D02*
G37*
G36*
X37689D02*
X36838Y33970D01*
X36040Y33509D01*
X35388Y32858D01*
X34927Y32060D01*
X34699Y31209D01*
X37689D01*
Y34198D01*
D02*
G37*
G36*
X402075Y31049D02*
Y28059D01*
X405064D01*
X404836Y28910D01*
X404376Y29708D01*
X403724Y30360D01*
X402926Y30821D01*
X402075Y31049D01*
D02*
G37*
G36*
X401075D02*
X400224Y30821D01*
X399426Y30360D01*
X398774Y29708D01*
X398313Y28910D01*
X398085Y28059D01*
X401075D01*
Y31049D01*
D02*
G37*
G36*
X41679Y30209D02*
X38689D01*
Y27219D01*
X39540Y27447D01*
X40338Y27908D01*
X40990Y28560D01*
X41451Y29358D01*
X41679Y30209D01*
D02*
G37*
G36*
X37689D02*
X34699D01*
X34927Y29358D01*
X35388Y28560D01*
X36040Y27908D01*
X36838Y27447D01*
X37689Y27219D01*
Y30209D01*
D02*
G37*
G36*
X308653Y37890D02*
X307300D01*
X305972Y37626D01*
X304722Y37108D01*
X303597Y36356D01*
X302640Y35399D01*
X301888Y34274D01*
X301370Y33024D01*
X301106Y31696D01*
Y30343D01*
X301370Y29016D01*
X301888Y27766D01*
X302640Y26640D01*
X303597Y25683D01*
X304722Y24931D01*
X305972Y24414D01*
X307300Y24150D01*
X308653D01*
X309980Y24414D01*
X311231Y24931D01*
X312356Y25683D01*
X313313Y26640D01*
X314065Y27766D01*
X314582Y29016D01*
X314846Y30343D01*
Y31696D01*
X314582Y33024D01*
X314065Y34274D01*
X313313Y35399D01*
X312356Y36356D01*
X311231Y37108D01*
X309980Y37626D01*
X308653Y37890D01*
D02*
G37*
G36*
X268653D02*
X267300D01*
X265972Y37626D01*
X264722Y37108D01*
X263597Y36356D01*
X262640Y35399D01*
X261888Y34274D01*
X261370Y33024D01*
X261106Y31696D01*
Y30343D01*
X261370Y29016D01*
X261888Y27766D01*
X262640Y26640D01*
X263597Y25683D01*
X264722Y24931D01*
X265972Y24414D01*
X267300Y24150D01*
X268653D01*
X269980Y24414D01*
X271231Y24931D01*
X272356Y25683D01*
X273313Y26640D01*
X274065Y27766D01*
X274582Y29016D01*
X274847Y30343D01*
Y31696D01*
X274582Y33024D01*
X274065Y34274D01*
X273313Y35399D01*
X272356Y36356D01*
X271231Y37108D01*
X269980Y37626D01*
X268653Y37890D01*
D02*
G37*
G36*
X235425D02*
X234071D01*
X232744Y37626D01*
X231494Y37108D01*
X230369Y36356D01*
X229412Y35399D01*
X228660Y34274D01*
X228142Y33024D01*
X227878Y31696D01*
Y30343D01*
X228142Y29016D01*
X228660Y27766D01*
X229412Y26640D01*
X230369Y25683D01*
X231494Y24931D01*
X232744Y24414D01*
X234071Y24150D01*
X235425D01*
X236752Y24414D01*
X238002Y24931D01*
X239127Y25683D01*
X240084Y26640D01*
X240836Y27766D01*
X241354Y29016D01*
X241618Y30343D01*
Y31696D01*
X241354Y33024D01*
X240836Y34274D01*
X240084Y35399D01*
X239127Y36356D01*
X238002Y37108D01*
X236752Y37626D01*
X235425Y37890D01*
D02*
G37*
G36*
X195425D02*
X194071D01*
X192744Y37626D01*
X191494Y37108D01*
X190369Y36356D01*
X189412Y35399D01*
X188660Y34274D01*
X188142Y33024D01*
X187878Y31696D01*
Y30343D01*
X188142Y29016D01*
X188660Y27766D01*
X189412Y26640D01*
X190369Y25683D01*
X191494Y24931D01*
X192744Y24414D01*
X194071Y24150D01*
X195425D01*
X196752Y24414D01*
X198002Y24931D01*
X199127Y25683D01*
X200084Y26640D01*
X200836Y27766D01*
X201354Y29016D01*
X201618Y30343D01*
Y31696D01*
X201354Y33024D01*
X200836Y34274D01*
X200084Y35399D01*
X199127Y36356D01*
X198002Y37108D01*
X196752Y37626D01*
X195425Y37890D01*
D02*
G37*
G36*
X162196D02*
X160843D01*
X159516Y37626D01*
X158265Y37108D01*
X157140Y36356D01*
X156183Y35399D01*
X155431Y34274D01*
X154914Y33024D01*
X154650Y31696D01*
Y30343D01*
X154914Y29016D01*
X155431Y27766D01*
X156183Y26640D01*
X157140Y25683D01*
X158265Y24931D01*
X159516Y24414D01*
X160843Y24150D01*
X162196D01*
X163524Y24414D01*
X164774Y24931D01*
X165899Y25683D01*
X166856Y26640D01*
X167608Y27766D01*
X168126Y29016D01*
X168390Y30343D01*
Y31696D01*
X168126Y33024D01*
X167608Y34274D01*
X166856Y35399D01*
X165899Y36356D01*
X164774Y37108D01*
X163524Y37626D01*
X162196Y37890D01*
D02*
G37*
G36*
X122196D02*
X120843D01*
X119516Y37626D01*
X118265Y37108D01*
X117140Y36356D01*
X116183Y35399D01*
X115431Y34274D01*
X114914Y33024D01*
X114650Y31696D01*
Y30343D01*
X114914Y29016D01*
X115431Y27766D01*
X116183Y26640D01*
X117140Y25683D01*
X118265Y24931D01*
X119516Y24414D01*
X120843Y24150D01*
X122196D01*
X123524Y24414D01*
X124774Y24931D01*
X125899Y25683D01*
X126856Y26640D01*
X127608Y27766D01*
X128126Y29016D01*
X128390Y30343D01*
Y31696D01*
X128126Y33024D01*
X127608Y34274D01*
X126856Y35399D01*
X125899Y36356D01*
X124774Y37108D01*
X123524Y37626D01*
X122196Y37890D01*
D02*
G37*
G36*
X405064Y27059D02*
X402075D01*
Y24070D01*
X402926Y24298D01*
X403724Y24758D01*
X404376Y25410D01*
X404836Y26208D01*
X405064Y27059D01*
D02*
G37*
G36*
X401075D02*
X398085D01*
X398313Y26208D01*
X398774Y25410D01*
X399426Y24758D01*
X400224Y24298D01*
X401075Y24070D01*
Y27059D01*
D02*
G37*
G36*
X12549Y19307D02*
X11073D01*
X9624Y19019D01*
X8260Y18454D01*
X7033Y17634D01*
X5988Y16590D01*
X5168Y15362D01*
X4603Y13997D01*
X4315Y12549D01*
Y11073D01*
X4603Y9624D01*
X5168Y8260D01*
X5988Y7033D01*
X7033Y5988D01*
X8260Y5168D01*
X9624Y4603D01*
X11073Y4315D01*
X12549D01*
X13997Y4603D01*
X15362Y5168D01*
X16590Y5988D01*
X17634Y7033D01*
X18454Y8260D01*
X19019Y9624D01*
X19307Y11073D01*
Y12549D01*
X19019Y13997D01*
X18454Y15362D01*
X17634Y16590D01*
X16590Y17634D01*
X15362Y18454D01*
X13997Y19019D01*
X12549Y19307D01*
D02*
G37*
%LPD*%
D12*
X224803Y139370D02*
Y151181D01*
X94488Y212992D02*
X194882D01*
D36*
X215567Y293862D02*
D03*
X205567D02*
D03*
X383035Y141284D02*
D03*
Y131283D02*
D03*
X140764Y293862D02*
D03*
X130764D02*
D03*
X383035Y203331D02*
D03*
Y213331D02*
D03*
X151520Y51020D02*
D03*
X141520D02*
D03*
X224748D02*
D03*
X214748D02*
D03*
X297976D02*
D03*
X287976D02*
D03*
X279583Y293862D02*
D03*
X289583D02*
D03*
D37*
X195567Y313862D02*
D03*
X235567D02*
D03*
X403035Y111284D02*
D03*
Y151284D02*
D03*
X120764Y313862D02*
D03*
X160764D02*
D03*
X403035Y223331D02*
D03*
Y183331D02*
D03*
X121520Y31020D02*
D03*
X161520D02*
D03*
X194748D02*
D03*
X234748D02*
D03*
X267976D02*
D03*
X307976D02*
D03*
X309583Y313862D02*
D03*
X269583D02*
D03*
D38*
X36551Y192264D02*
D03*
Y130264D02*
D03*
D39*
X43551Y196264D02*
D03*
X36551Y200264D02*
D03*
X43551Y204264D02*
D03*
X36551Y208264D02*
D03*
X43551Y212264D02*
D03*
X36551Y216264D02*
D03*
X43551Y220264D02*
D03*
Y158264D02*
D03*
X36551Y154264D02*
D03*
X43551Y150264D02*
D03*
X36551Y146264D02*
D03*
X43551Y142264D02*
D03*
X36551Y138264D02*
D03*
X43551Y134264D02*
D03*
D40*
X26551Y231264D02*
D03*
Y119264D02*
D03*
D41*
X40051Y238264D02*
D03*
Y112264D02*
D03*
D42*
X421260Y334646D02*
D03*
Y11811D02*
D03*
X11811D02*
D03*
Y334646D02*
D03*
D43*
X145669Y179528D02*
D03*
X56299Y262992D02*
D03*
X398425Y324016D02*
D03*
X401575Y27559D02*
D03*
X38189Y30709D02*
D03*
D44*
X224803Y151181D02*
D03*
Y139370D02*
D03*
X194882Y212992D02*
D03*
X94488D02*
D03*
M02*
