G04*
G04 #@! TF.GenerationSoftware,Altium Limited,Altium Designer,22.1.2 (22)*
G04*
G04 Layer_Color=16711935*
%FSLAX25Y25*%
%MOIN*%
G70*
G04*
G04 #@! TF.SameCoordinates,EB6349A5-E9A1-4A8E-B869-313063707995*
G04*
G04*
G04 #@! TF.FilePolarity,Positive*
G04*
G01*
G75*
%ADD47C,0.00394*%
%ADD48C,0.00400*%
D47*
X362090Y149114D02*
X367406D01*
Y140453D02*
Y149114D01*
X362090Y140453D02*
Y149114D01*
Y140453D02*
X367406D01*
X354626Y138681D02*
Y143996D01*
X345965Y138681D02*
X354626D01*
X345965D02*
Y143996D01*
X354626D01*
X330020Y127854D02*
Y134350D01*
X342815Y127854D02*
Y134350D01*
X330020D02*
X342815D01*
X330020Y127854D02*
X342815D01*
X369193Y128445D02*
Y133760D01*
X360531Y128445D02*
X369193D01*
X360531D02*
Y133760D01*
X369193D01*
X432748Y100284D02*
Y162284D01*
X373248D02*
X432748D01*
X373248Y100284D02*
X432748D01*
X373248D02*
Y162284D01*
X354232Y122835D02*
Y131496D01*
X348524Y122835D02*
X354232D01*
X348524Y131496D02*
X354232D01*
X348524Y122835D02*
Y131496D01*
X128051Y256642D02*
X133366D01*
X128051Y265303D02*
X133366D01*
Y256642D02*
Y265303D01*
X128051Y256642D02*
Y265303D01*
X82035Y96965D02*
X88532D01*
X82035Y109760D02*
X88532D01*
X82035Y96965D02*
Y109760D01*
X88532Y96965D02*
Y109760D01*
X138091Y103642D02*
X144587D01*
X138091Y90847D02*
X144587D01*
Y103642D01*
X138091Y90847D02*
Y103642D01*
X211319Y103248D02*
X217815D01*
X211319Y90453D02*
X217815D01*
Y103248D01*
X211319Y90453D02*
Y103248D01*
X284547Y103642D02*
X291043D01*
X284547Y90847D02*
X291043D01*
Y103642D01*
X284547Y90847D02*
Y103642D01*
X330807Y199902D02*
Y206398D01*
X343602Y199902D02*
Y206398D01*
X330807D02*
X343602D01*
X330807Y199902D02*
X343602D01*
X286516Y241240D02*
X293012D01*
X286516Y254035D02*
X293012D01*
X286516Y241240D02*
Y254035D01*
X293012Y241240D02*
Y254035D01*
X212500Y241634D02*
X218996D01*
X212500Y254429D02*
X218996D01*
X212500Y241634D02*
Y254429D01*
X218996Y241634D02*
Y254429D01*
X137697Y240697D02*
X144193D01*
X137697Y253492D02*
X144193D01*
X137697Y240697D02*
Y253492D01*
X144193Y240697D02*
Y253492D01*
X433535Y172331D02*
Y234331D01*
X374035Y172331D02*
X433535D01*
X374035D02*
Y234331D01*
X433535D01*
X110520Y913D02*
X172520D01*
X110520D02*
Y60413D01*
X172520D01*
Y913D02*
Y60413D01*
X183748Y520D02*
X245748D01*
X183748D02*
Y60020D01*
X245748D01*
Y520D02*
Y60020D01*
X256976Y913D02*
X318976D01*
X256976D02*
Y60413D01*
X318976D01*
Y913D02*
Y60413D01*
X184567Y344362D02*
X246567D01*
Y284862D02*
Y344362D01*
X184567Y284862D02*
X246567D01*
X184567D02*
Y344362D01*
X258583Y343969D02*
X320583D01*
Y284469D02*
Y343969D01*
X258583Y284469D02*
X320583D01*
X258583D02*
Y343969D01*
X109764Y343425D02*
X171764D01*
Y283925D02*
Y343425D01*
X109764Y283925D02*
X171764D01*
X109764D02*
Y343425D01*
X101201Y108465D02*
Y121063D01*
X94902D02*
X101201D01*
X94902Y108465D02*
Y121063D01*
Y108465D02*
X101201D01*
X94902Y119095D02*
X101201D01*
X94902Y110433D02*
X101201D01*
X5051Y111264D02*
X67051D01*
Y239264D01*
X5051D02*
X67051D01*
X5051Y111264D02*
Y239264D01*
X133071Y79429D02*
X141732D01*
X133071Y85138D02*
X141732D01*
Y79429D02*
Y85138D01*
X133071Y79429D02*
Y85138D01*
X138681Y73130D02*
X143996D01*
X138681Y64468D02*
X143996D01*
X138681D02*
Y73130D01*
X143996Y64468D02*
Y73130D01*
X159350Y66256D02*
Y71571D01*
X150689Y66256D02*
Y71571D01*
X159350D01*
X150689Y66256D02*
X159350D01*
X206299Y79035D02*
X214961D01*
X206299Y84744D02*
X214961D01*
Y79035D02*
Y84744D01*
X206299Y79035D02*
Y84744D01*
X211910Y72736D02*
X217224D01*
X211910Y64075D02*
X217224D01*
X211910D02*
Y72736D01*
X217224Y64075D02*
Y72736D01*
X232579Y65862D02*
Y71177D01*
X223917Y65862D02*
Y71177D01*
X232579D01*
X223917Y65862D02*
X232579D01*
X279528Y79429D02*
X288189D01*
X279528Y85138D02*
X288189D01*
Y79429D02*
Y85138D01*
X279528Y79429D02*
Y85138D01*
X285138Y73130D02*
X290453D01*
X285138Y64468D02*
X290453D01*
X285138D02*
Y73130D01*
X290453Y64468D02*
Y73130D01*
X305807Y66256D02*
Y71571D01*
X297146Y66256D02*
Y71571D01*
X305807D01*
X297146Y66256D02*
X305807D01*
X355020Y194882D02*
Y203543D01*
X349311Y194882D02*
Y203543D01*
X355020D01*
X349311Y194882D02*
X355020D01*
X361319Y200492D02*
Y205807D01*
X369980Y200492D02*
Y205807D01*
X361319Y200492D02*
X369980D01*
X361319Y205807D02*
X369980D01*
X362878Y221161D02*
X368193D01*
X362878Y212500D02*
X368193D01*
X362878D02*
Y221161D01*
X368193Y212500D02*
Y221161D01*
X289370Y265453D02*
X298031D01*
X289370Y259744D02*
X298031D01*
X289370D02*
Y265453D01*
X298031Y259744D02*
Y265453D01*
X287106Y271752D02*
X292421D01*
X287106Y280413D02*
X292421D01*
Y271752D02*
Y280413D01*
X287106Y271752D02*
Y280413D01*
X271752Y273311D02*
Y278626D01*
X280413Y273311D02*
Y278626D01*
X271752Y273311D02*
X280413D01*
X271752Y278626D02*
X280413D01*
X215354Y265846D02*
X224016D01*
X215354Y260138D02*
X224016D01*
X215354D02*
Y265846D01*
X224016Y260138D02*
Y265846D01*
X213091Y272146D02*
X218406D01*
X213091Y280807D02*
X218406D01*
Y272146D02*
Y280807D01*
X213091Y272146D02*
Y280807D01*
X197736Y273705D02*
Y279020D01*
X206398Y273705D02*
Y279020D01*
X197736Y273705D02*
X206398D01*
X197736Y279020D02*
X206398D01*
X122933Y272768D02*
Y278083D01*
X131595Y272768D02*
Y278083D01*
X122933Y272768D02*
X131595D01*
X122933Y278083D02*
X131595D01*
X138287Y271209D02*
X143602D01*
X138287Y279870D02*
X143602D01*
Y271209D02*
Y279870D01*
X138287Y271209D02*
Y279870D01*
X140551Y264909D02*
X149213D01*
X140551Y259201D02*
X149213D01*
X140551D02*
Y264909D01*
X149213Y259201D02*
Y264909D01*
X346752Y210728D02*
Y216043D01*
X355413Y210728D02*
Y216043D01*
X346752Y210728D02*
X355413D01*
X346752Y216043D02*
X355413D01*
X276870Y257185D02*
X282185D01*
X276870Y265846D02*
X282185D01*
Y257185D02*
Y265846D01*
X276870Y257185D02*
Y265846D01*
X202854Y257579D02*
X208169D01*
X202854Y266240D02*
X208169D01*
Y257579D02*
Y266240D01*
X202854Y257579D02*
Y266240D01*
X148917Y87697D02*
X154232D01*
X148917Y79035D02*
X154232D01*
X148917D02*
Y87697D01*
X154232Y79035D02*
Y87697D01*
X222146Y87303D02*
X227461D01*
X222146Y78642D02*
X227461D01*
X222146D02*
Y87303D01*
X227461Y78642D02*
Y87303D01*
X295374Y87697D02*
X300689D01*
X295374Y79035D02*
X300689D01*
X295374D02*
Y87697D01*
X300689Y79035D02*
Y87697D01*
D48*
X31170Y161136D02*
Y162469D01*
Y161803D01*
X27838D01*
X27171Y162469D01*
Y163136D01*
X27838Y163802D01*
X27171Y157138D02*
Y159804D01*
X29837Y157138D01*
X30503D01*
X31170Y157804D01*
Y159137D01*
X30503Y159804D01*
M02*
