G04*
G04 #@! TF.GenerationSoftware,Altium Limited,Altium Designer,22.1.2 (22)*
G04*
G04 Layer_Color=65535*
%FSLAX25Y25*%
%MOIN*%
G70*
G04*
G04 #@! TF.SameCoordinates,EB6349A5-E9A1-4A8E-B869-313063707995*
G04*
G04*
G04 #@! TF.FilePolarity,Positive*
G04*
G01*
G75*
%ADD10C,0.00591*%
%ADD11C,0.00787*%
%ADD12C,0.01000*%
%ADD13C,0.00800*%
D10*
X367504Y151476D02*
X368291D01*
Y138091D02*
Y151476D01*
X367504Y138091D02*
X368291D01*
X361205Y144783D02*
X368291D01*
X361205Y151476D02*
X361992D01*
X361205Y138091D02*
X361992D01*
X361205D02*
Y151476D01*
X356988Y144095D02*
Y144882D01*
Y137795D02*
Y138583D01*
X350295Y137795D02*
Y144882D01*
X343602D02*
X356988D01*
X343602Y144095D02*
Y144882D01*
Y137795D02*
X356988D01*
X343602D02*
Y138583D01*
X371555Y133858D02*
Y134646D01*
Y127559D02*
Y128347D01*
X364862Y127559D02*
Y134646D01*
X358169D02*
X371555D01*
X358169Y133858D02*
Y134646D01*
Y127559D02*
X371555D01*
X358169D02*
Y128347D01*
X127165Y254279D02*
X127953D01*
X127165D02*
Y267665D01*
X127953D01*
X133465Y254279D02*
X134252D01*
Y267665D01*
X133465D02*
X134252D01*
X127165Y260972D02*
X134252D01*
X144095Y75492D02*
X144882D01*
Y62106D02*
Y75492D01*
X144095Y62106D02*
X144882D01*
X137795Y75492D02*
X138583D01*
X137795Y62106D02*
Y75492D01*
Y62106D02*
X138583D01*
X137795Y68799D02*
X144882D01*
X161713Y65370D02*
Y66158D01*
X148327Y65370D02*
X161713D01*
X148327D02*
Y66158D01*
X161713Y71669D02*
Y72457D01*
X148327D02*
X161713D01*
X148327Y71669D02*
Y72457D01*
X155020Y65370D02*
Y72457D01*
X217323Y75098D02*
X218110D01*
Y61713D02*
Y75098D01*
X217323Y61713D02*
X218110D01*
X211024Y75098D02*
X211811D01*
X211024Y61713D02*
Y75098D01*
Y61713D02*
X211811D01*
X211024Y68405D02*
X218110D01*
X234941Y64976D02*
Y65764D01*
X221555Y64976D02*
X234941D01*
X221555D02*
Y65764D01*
X234941Y71276D02*
Y72063D01*
X221555D02*
X234941D01*
X221555Y71276D02*
Y72063D01*
X228248Y64976D02*
Y72063D01*
X290551Y75492D02*
X291339D01*
Y62106D02*
Y75492D01*
X290551Y62106D02*
X291339D01*
X284252Y75492D02*
X285039D01*
X284252Y62106D02*
Y75492D01*
Y62106D02*
X285039D01*
X284252Y68799D02*
X291339D01*
X308169Y65370D02*
Y66158D01*
X294783Y65370D02*
X308169D01*
X294783D02*
Y66158D01*
X308169Y71669D02*
Y72457D01*
X294783D02*
X308169D01*
X294783Y71669D02*
Y72457D01*
X301476Y65370D02*
Y72457D01*
X358957Y205906D02*
Y206693D01*
X372342D01*
Y205906D02*
Y206693D01*
X358957Y199606D02*
Y200394D01*
Y199606D02*
X372342D01*
Y200394D01*
X365650Y199606D02*
Y206693D01*
X368291Y223524D02*
X369079D01*
Y210138D02*
Y223524D01*
X368291Y210138D02*
X369079D01*
X361992Y223524D02*
X362779D01*
X361992Y210138D02*
Y223524D01*
Y210138D02*
X362779D01*
X361992Y216831D02*
X369079D01*
X286221Y269390D02*
X287008D01*
X286221D02*
Y282776D01*
X287008D01*
X292520Y269390D02*
X293307D01*
Y282776D01*
X292520D02*
X293307D01*
X286221Y276083D02*
X293307D01*
X269390Y278724D02*
Y279512D01*
X282776D01*
Y278724D02*
Y279512D01*
X269390Y272425D02*
Y273213D01*
Y272425D02*
X282776D01*
Y273213D01*
X276083Y272425D02*
Y279512D01*
X212205Y269783D02*
X212992D01*
X212205D02*
Y283169D01*
X212992D01*
X218504Y269783D02*
X219291D01*
Y283169D01*
X218504D02*
X219291D01*
X212205Y276476D02*
X219291D01*
X195374Y279118D02*
Y279906D01*
X208760D01*
Y279118D02*
Y279906D01*
X195374Y272819D02*
Y273606D01*
Y272819D02*
X208760D01*
Y273606D01*
X202067Y272819D02*
Y279906D01*
X120571Y278181D02*
Y278969D01*
X133957D01*
Y278181D02*
Y278969D01*
X120571Y271882D02*
Y272669D01*
Y271882D02*
X133957D01*
Y272669D01*
X127264Y271882D02*
Y278969D01*
X137402Y268847D02*
X138189D01*
X137402D02*
Y282232D01*
X138189D01*
X143701Y268847D02*
X144488D01*
Y282232D01*
X143701D02*
X144488D01*
X137402Y275539D02*
X144488D01*
X344390Y216142D02*
Y216929D01*
X357776D01*
Y216142D02*
Y216929D01*
X344390Y209842D02*
Y210630D01*
Y209842D02*
X357776D01*
Y210630D01*
X351083Y209842D02*
Y216929D01*
X275984Y254823D02*
X276772D01*
X275984D02*
Y268209D01*
X276772D01*
X282283Y254823D02*
X283071D01*
Y268209D01*
X282283D02*
X283071D01*
X275984Y261516D02*
X283071D01*
X201969Y255217D02*
X202756D01*
X201969D02*
Y268602D01*
X202756D01*
X208268Y255217D02*
X209055D01*
Y268602D01*
X208268D02*
X209055D01*
X201969Y261910D02*
X209055D01*
X154331Y90059D02*
X155118D01*
Y76673D02*
Y90059D01*
X154331Y76673D02*
X155118D01*
X148031Y90059D02*
X148819D01*
X148031Y76673D02*
Y90059D01*
Y76673D02*
X148819D01*
X148031Y83366D02*
X155118D01*
X227559Y89665D02*
X228346D01*
Y76279D02*
Y89665D01*
X227559Y76279D02*
X228346D01*
X221260Y89665D02*
X222047D01*
X221260Y76279D02*
Y89665D01*
Y76279D02*
X222047D01*
X221260Y82972D02*
X228346D01*
X300787Y90059D02*
X301575D01*
Y76673D02*
Y90059D01*
X300787Y76673D02*
X301575D01*
X294488Y90059D02*
X295276D01*
X294488Y76673D02*
Y90059D01*
Y76673D02*
X295276D01*
X294488Y83366D02*
X301575D01*
X73754Y94882D02*
Y98031D01*
X75328D01*
X75853Y97506D01*
Y96457D01*
X75328Y95932D01*
X73754D01*
X74804D02*
X75853Y94882D01*
X79002Y98031D02*
X77952Y97506D01*
X76903Y96457D01*
Y95407D01*
X77428Y94882D01*
X78477D01*
X79002Y95407D01*
Y95932D01*
X78477Y96457D01*
X76903D01*
X180118Y70210D02*
Y67061D01*
X178544D01*
X178019Y67586D01*
Y68635D01*
X178544Y69160D01*
X180118D01*
X179069D02*
X178019Y70210D01*
X175395D02*
Y67061D01*
X176970Y68635D01*
X174871D01*
X173821Y70734D02*
X171722D01*
X170672Y70210D02*
Y67061D01*
X169098D01*
X168573Y67586D01*
Y68635D01*
X169098Y69160D01*
X170672D01*
X169623D02*
X168573Y70210D01*
X165425Y67061D02*
X166474D01*
X165949D01*
Y69685D01*
X166474Y70210D01*
X166999D01*
X167524Y69685D01*
X164375Y67586D02*
X163850Y67061D01*
X162801D01*
X162276Y67586D01*
Y68111D01*
X162801Y68635D01*
X162276Y69160D01*
Y69685D01*
X162801Y70210D01*
X163850D01*
X164375Y69685D01*
Y69160D01*
X163850Y68635D01*
X164375Y68111D01*
Y67586D01*
X163850Y68635D02*
X162801D01*
X253346Y69816D02*
Y66667D01*
X251772D01*
X251247Y67192D01*
Y68242D01*
X251772Y68766D01*
X253346D01*
X252297D02*
X251247Y69816D01*
X248624D02*
Y66667D01*
X250198Y68242D01*
X248099D01*
X247049Y70341D02*
X244950D01*
X243901Y69816D02*
Y66667D01*
X242326D01*
X241802Y67192D01*
Y68242D01*
X242326Y68766D01*
X243901D01*
X242851D02*
X241802Y69816D01*
X238653Y66667D02*
X239703D01*
X239178D01*
Y69291D01*
X239703Y69816D01*
X240227D01*
X240752Y69291D01*
X237603Y66667D02*
X235505D01*
Y67192D01*
X237603Y69291D01*
Y69816D01*
X326575Y70210D02*
Y67061D01*
X325001D01*
X324476Y67586D01*
Y68635D01*
X325001Y69160D01*
X326575D01*
X325525D02*
X324476Y70210D01*
X321852D02*
Y67061D01*
X323426Y68635D01*
X321327D01*
X320278Y70734D02*
X318179D01*
X317129Y70210D02*
Y67061D01*
X315555D01*
X315030Y67586D01*
Y68635D01*
X315555Y69160D01*
X317129D01*
X316079D02*
X315030Y70210D01*
X311881Y67061D02*
X312931D01*
X312406D01*
Y69685D01*
X312931Y70210D01*
X313456D01*
X313981Y69685D01*
X308733Y67061D02*
X309782Y67586D01*
X310832Y68635D01*
Y69685D01*
X310307Y70210D01*
X309258D01*
X308733Y69685D01*
Y69160D01*
X309258Y68635D01*
X310832D01*
X363452Y169882D02*
X366600D01*
Y168308D01*
X366076Y167783D01*
X365026D01*
X364501Y168308D01*
Y169882D01*
Y168832D02*
X363452Y167783D01*
Y165159D02*
X366600D01*
X365026Y166733D01*
Y164634D01*
X362927Y163585D02*
Y161486D01*
X363452Y160436D02*
X366600D01*
Y158862D01*
X366076Y158337D01*
X365026D01*
X364501Y158862D01*
Y160436D01*
Y159387D02*
X363452Y158337D01*
X366600Y155189D02*
Y156238D01*
Y155713D01*
X363977D01*
X363452Y156238D01*
Y156763D01*
X363977Y157288D01*
X366600Y152040D02*
Y154139D01*
X365026D01*
X365551Y153089D01*
Y152565D01*
X365026Y152040D01*
X363977D01*
X363452Y152565D01*
Y153614D01*
X363977Y154139D01*
X364239Y241929D02*
X367388D01*
Y240355D01*
X366863Y239830D01*
X365814D01*
X365289Y240355D01*
Y241929D01*
Y240880D02*
X364239Y239830D01*
Y237206D02*
X367388D01*
X365814Y238781D01*
Y236682D01*
X363715Y235632D02*
Y233533D01*
X364239Y232483D02*
X367388D01*
Y230909D01*
X366863Y230384D01*
X365814D01*
X365289Y230909D01*
Y232483D01*
Y231434D02*
X364239Y230384D01*
X367388Y227236D02*
Y228285D01*
Y227761D01*
X364764D01*
X364239Y228285D01*
Y228810D01*
X364764Y229335D01*
X364239Y224612D02*
X367388D01*
X365814Y226186D01*
Y224087D01*
X250984Y274672D02*
Y277821D01*
X252558D01*
X253083Y277296D01*
Y276247D01*
X252558Y275722D01*
X250984D01*
X252034D02*
X253083Y274672D01*
X255707D02*
Y277821D01*
X254133Y276247D01*
X256232D01*
X257281Y274148D02*
X259381D01*
X260430Y274672D02*
Y277821D01*
X262004D01*
X262529Y277296D01*
Y276247D01*
X262004Y275722D01*
X260430D01*
X261479D02*
X262529Y274672D01*
X265678Y277821D02*
X264628D01*
X265153D01*
Y275197D01*
X264628Y274672D01*
X264103D01*
X263579Y275197D01*
X266727Y277296D02*
X267252Y277821D01*
X268302D01*
X268826Y277296D01*
Y276771D01*
X268302Y276247D01*
X267777D01*
X268302D01*
X268826Y275722D01*
Y275197D01*
X268302Y274672D01*
X267252D01*
X266727Y275197D01*
X176969Y275066D02*
Y278215D01*
X178543D01*
X179068Y277690D01*
Y276640D01*
X178543Y276116D01*
X176969D01*
X178018D02*
X179068Y275066D01*
X181691D02*
Y278215D01*
X180117Y276640D01*
X182216D01*
X183266Y274541D02*
X185365D01*
X186414Y275066D02*
Y278215D01*
X187989D01*
X188513Y277690D01*
Y276640D01*
X187989Y276116D01*
X186414D01*
X187464D02*
X188513Y275066D01*
X191662Y278215D02*
X190612D01*
X191137D01*
Y275591D01*
X190612Y275066D01*
X190088D01*
X189563Y275591D01*
X194810Y275066D02*
X192711D01*
X194810Y277165D01*
Y277690D01*
X194286Y278215D01*
X193236D01*
X192711Y277690D01*
X102165Y274129D02*
Y277278D01*
X103740D01*
X104264Y276753D01*
Y275703D01*
X103740Y275179D01*
X102165D01*
X103215D02*
X104264Y274129D01*
X106888D02*
Y277278D01*
X105314Y275703D01*
X107413D01*
X108463Y273604D02*
X110562D01*
X111611Y274129D02*
Y277278D01*
X113185D01*
X113710Y276753D01*
Y275703D01*
X113185Y275179D01*
X111611D01*
X112661D02*
X113710Y274129D01*
X116859Y277278D02*
X115809D01*
X116334D01*
Y274654D01*
X115809Y274129D01*
X115285D01*
X114760Y274654D01*
X117908Y274129D02*
X118958D01*
X118433D01*
Y277278D01*
X117908Y276753D01*
X177362Y84777D02*
Y81628D01*
X175788D01*
X175263Y82153D01*
Y83202D01*
X175788Y83727D01*
X177362D01*
X176313D02*
X175263Y84777D01*
X174214Y82153D02*
X173689Y81628D01*
X172639D01*
X172115Y82153D01*
Y82677D01*
X172639Y83202D01*
X173164D01*
X172639D01*
X172115Y83727D01*
Y84252D01*
X172639Y84777D01*
X173689D01*
X174214Y84252D01*
X171065Y85301D02*
X168966D01*
X167916Y84777D02*
Y81628D01*
X166342D01*
X165817Y82153D01*
Y83202D01*
X166342Y83727D01*
X167916D01*
X166867D02*
X165817Y84777D01*
X162669Y81628D02*
X163718D01*
X163194D01*
Y84252D01*
X163718Y84777D01*
X164243D01*
X164768Y84252D01*
X161619Y82153D02*
X161094Y81628D01*
X160045D01*
X159520Y82153D01*
Y82677D01*
X160045Y83202D01*
X159520Y83727D01*
Y84252D01*
X160045Y84777D01*
X161094D01*
X161619Y84252D01*
Y83727D01*
X161094Y83202D01*
X161619Y82677D01*
Y82153D01*
X161094Y83202D02*
X160045D01*
X250591Y84383D02*
Y81234D01*
X249016D01*
X248492Y81759D01*
Y82809D01*
X249016Y83333D01*
X250591D01*
X249541D02*
X248492Y84383D01*
X247442Y81759D02*
X246917Y81234D01*
X245868D01*
X245343Y81759D01*
Y82284D01*
X245868Y82809D01*
X246392D01*
X245868D01*
X245343Y83333D01*
Y83858D01*
X245868Y84383D01*
X246917D01*
X247442Y83858D01*
X244293Y84908D02*
X242194D01*
X241145Y84383D02*
Y81234D01*
X239570D01*
X239046Y81759D01*
Y82809D01*
X239570Y83333D01*
X241145D01*
X240095D02*
X239046Y84383D01*
X235897Y81234D02*
X236947D01*
X236422D01*
Y83858D01*
X236947Y84383D01*
X237471D01*
X237996Y83858D01*
X234848Y81234D02*
X232749D01*
Y81759D01*
X234848Y83858D01*
Y84383D01*
X323819Y84777D02*
Y81628D01*
X322245D01*
X321720Y82153D01*
Y83202D01*
X322245Y83727D01*
X323819D01*
X322769D02*
X321720Y84777D01*
X320670Y82153D02*
X320146Y81628D01*
X319096D01*
X318571Y82153D01*
Y82677D01*
X319096Y83202D01*
X319621D01*
X319096D01*
X318571Y83727D01*
Y84252D01*
X319096Y84777D01*
X320146D01*
X320670Y84252D01*
X317522Y85301D02*
X315423D01*
X314373Y84777D02*
Y81628D01*
X312799D01*
X312274Y82153D01*
Y83202D01*
X312799Y83727D01*
X314373D01*
X313324D02*
X312274Y84777D01*
X309125Y81628D02*
X310175D01*
X309650D01*
Y84252D01*
X310175Y84777D01*
X310700D01*
X311225Y84252D01*
X305977Y81628D02*
X307026Y82153D01*
X308076Y83202D01*
Y84252D01*
X307551Y84777D01*
X306502D01*
X305977Y84252D01*
Y83727D01*
X306502Y83202D01*
X308076D01*
X348885Y167126D02*
X352033D01*
Y165552D01*
X351509Y165027D01*
X350459D01*
X349935Y165552D01*
Y167126D01*
Y166076D02*
X348885Y165027D01*
X351509Y163977D02*
X352033Y163453D01*
Y162403D01*
X351509Y161878D01*
X350984D01*
X350459Y162403D01*
Y162928D01*
Y162403D01*
X349935Y161878D01*
X349410D01*
X348885Y162403D01*
Y163453D01*
X349410Y163977D01*
X348360Y160829D02*
Y158730D01*
X348885Y157680D02*
X352033D01*
Y156106D01*
X351509Y155581D01*
X350459D01*
X349935Y156106D01*
Y157680D01*
Y156631D02*
X348885Y155581D01*
X352033Y152433D02*
Y153482D01*
Y152957D01*
X349410D01*
X348885Y153482D01*
Y154007D01*
X349410Y154532D01*
X352033Y149284D02*
Y151383D01*
X350459D01*
X350984Y150333D01*
Y149809D01*
X350459Y149284D01*
X349410D01*
X348885Y149809D01*
Y150858D01*
X349410Y151383D01*
X349672Y239173D02*
X352821D01*
Y237599D01*
X352296Y237074D01*
X351247D01*
X350722Y237599D01*
Y239173D01*
Y238124D02*
X349672Y237074D01*
X352296Y236025D02*
X352821Y235500D01*
Y234450D01*
X352296Y233926D01*
X351771D01*
X351247Y234450D01*
Y234975D01*
Y234450D01*
X350722Y233926D01*
X350197D01*
X349672Y234450D01*
Y235500D01*
X350197Y236025D01*
X349148Y232876D02*
Y230777D01*
X349672Y229728D02*
X352821D01*
Y228153D01*
X352296Y227628D01*
X351247D01*
X350722Y228153D01*
Y229728D01*
Y228678D02*
X349672Y227628D01*
X352821Y224480D02*
Y225529D01*
Y225005D01*
X350197D01*
X349672Y225529D01*
Y226054D01*
X350197Y226579D01*
X349672Y221856D02*
X352821D01*
X351247Y223430D01*
Y221331D01*
X253740Y260105D02*
Y263254D01*
X255314D01*
X255839Y262729D01*
Y261680D01*
X255314Y261155D01*
X253740D01*
X254790D02*
X255839Y260105D01*
X256889Y262729D02*
X257414Y263254D01*
X258463D01*
X258988Y262729D01*
Y262205D01*
X258463Y261680D01*
X257938D01*
X258463D01*
X258988Y261155D01*
Y260630D01*
X258463Y260105D01*
X257414D01*
X256889Y260630D01*
X260037Y259581D02*
X262136D01*
X263186Y260105D02*
Y263254D01*
X264760D01*
X265285Y262729D01*
Y261680D01*
X264760Y261155D01*
X263186D01*
X264235D02*
X265285Y260105D01*
X268434Y263254D02*
X267384D01*
X267909D01*
Y260630D01*
X267384Y260105D01*
X266859D01*
X266335Y260630D01*
X269483Y262729D02*
X270008Y263254D01*
X271057D01*
X271582Y262729D01*
Y262205D01*
X271057Y261680D01*
X270533D01*
X271057D01*
X271582Y261155D01*
Y260630D01*
X271057Y260105D01*
X270008D01*
X269483Y260630D01*
X179724Y260499D02*
Y263648D01*
X181299D01*
X181824Y263123D01*
Y262073D01*
X181299Y261549D01*
X179724D01*
X180774D02*
X181824Y260499D01*
X182873Y263123D02*
X183398Y263648D01*
X184447D01*
X184972Y263123D01*
Y262598D01*
X184447Y262073D01*
X183923D01*
X184447D01*
X184972Y261549D01*
Y261024D01*
X184447Y260499D01*
X183398D01*
X182873Y261024D01*
X186022Y259974D02*
X188121D01*
X189170Y260499D02*
Y263648D01*
X190744D01*
X191269Y263123D01*
Y262073D01*
X190744Y261549D01*
X189170D01*
X190220D02*
X191269Y260499D01*
X194418Y263648D02*
X193368D01*
X193893D01*
Y261024D01*
X193368Y260499D01*
X192843D01*
X192319Y261024D01*
X197566Y260499D02*
X195467D01*
X197566Y262598D01*
Y263123D01*
X197042Y263648D01*
X195992D01*
X195467Y263123D01*
X104921Y259562D02*
Y262711D01*
X106496D01*
X107020Y262186D01*
Y261136D01*
X106496Y260612D01*
X104921D01*
X105971D02*
X107020Y259562D01*
X108070Y262186D02*
X108595Y262711D01*
X109644D01*
X110169Y262186D01*
Y261661D01*
X109644Y261136D01*
X109119D01*
X109644D01*
X110169Y260612D01*
Y260087D01*
X109644Y259562D01*
X108595D01*
X108070Y260087D01*
X111218Y259037D02*
X113318D01*
X114367Y259562D02*
Y262711D01*
X115941D01*
X116466Y262186D01*
Y261136D01*
X115941Y260612D01*
X114367D01*
X115417D02*
X116466Y259562D01*
X119615Y262711D02*
X118565D01*
X119090D01*
Y260087D01*
X118565Y259562D01*
X118040D01*
X117516Y260087D01*
X120664Y259562D02*
X121714D01*
X121189D01*
Y262711D01*
X120664Y262186D01*
X134843Y104068D02*
Y100919D01*
X133268D01*
X132744Y101444D01*
Y102494D01*
X133268Y103018D01*
X134843D01*
X133793D02*
X132744Y104068D01*
X129595D02*
X131694D01*
X129595Y101969D01*
Y101444D01*
X130120Y100919D01*
X131169D01*
X131694Y101444D01*
X128545Y104593D02*
X126446D01*
X125397Y104068D02*
Y100919D01*
X123822D01*
X123298Y101444D01*
Y102494D01*
X123822Y103018D01*
X125397D01*
X124347D02*
X123298Y104068D01*
X120149Y100919D02*
X121199D01*
X120674D01*
Y103543D01*
X121199Y104068D01*
X121723D01*
X122248Y103543D01*
X119100Y101444D02*
X118575Y100919D01*
X117525D01*
X117000Y101444D01*
Y101969D01*
X117525Y102494D01*
X117000Y103018D01*
Y103543D01*
X117525Y104068D01*
X118575D01*
X119100Y103543D01*
Y103018D01*
X118575Y102494D01*
X119100Y101969D01*
Y101444D01*
X118575Y102494D02*
X117525D01*
X208071Y103674D02*
Y100525D01*
X206497D01*
X205972Y101050D01*
Y102100D01*
X206497Y102625D01*
X208071D01*
X207021D02*
X205972Y103674D01*
X202823D02*
X204922D01*
X202823Y101575D01*
Y101050D01*
X203348Y100525D01*
X204398D01*
X204922Y101050D01*
X201774Y104199D02*
X199675D01*
X198625Y103674D02*
Y100525D01*
X197051D01*
X196526Y101050D01*
Y102100D01*
X197051Y102625D01*
X198625D01*
X197576D02*
X196526Y103674D01*
X193377Y100525D02*
X194427D01*
X193902D01*
Y103149D01*
X194427Y103674D01*
X194952D01*
X195476Y103149D01*
X192328Y100525D02*
X190229D01*
Y101050D01*
X192328Y103149D01*
Y103674D01*
X281299Y104068D02*
Y100919D01*
X279725D01*
X279200Y101444D01*
Y102494D01*
X279725Y103018D01*
X281299D01*
X280250D02*
X279200Y104068D01*
X276052D02*
X278151D01*
X276052Y101969D01*
Y101444D01*
X276576Y100919D01*
X277626D01*
X278151Y101444D01*
X275002Y104593D02*
X272903D01*
X271853Y104068D02*
Y100919D01*
X270279D01*
X269754Y101444D01*
Y102494D01*
X270279Y103018D01*
X271853D01*
X270804D02*
X269754Y104068D01*
X266606Y100919D02*
X267655D01*
X267131D01*
Y103543D01*
X267655Y104068D01*
X268180D01*
X268705Y103543D01*
X263457Y100919D02*
X264507Y101444D01*
X265556Y102494D01*
Y103543D01*
X265032Y104068D01*
X263982D01*
X263457Y103543D01*
Y103018D01*
X263982Y102494D01*
X265556D01*
X329594Y124606D02*
X332742D01*
Y123032D01*
X332217Y122507D01*
X331168D01*
X330643Y123032D01*
Y124606D01*
Y123557D02*
X329594Y122507D01*
Y119359D02*
Y121458D01*
X331693Y119359D01*
X332217D01*
X332742Y119883D01*
Y120933D01*
X332217Y121458D01*
X329069Y118309D02*
Y116210D01*
X329594Y115161D02*
X332742D01*
Y113586D01*
X332217Y113061D01*
X331168D01*
X330643Y113586D01*
Y115161D01*
Y114111D02*
X329594Y113061D01*
X332742Y109913D02*
Y110962D01*
Y110438D01*
X330118D01*
X329594Y110962D01*
Y111487D01*
X330118Y112012D01*
X332742Y106764D02*
Y108863D01*
X331168D01*
X331693Y107814D01*
Y107289D01*
X331168Y106764D01*
X330118D01*
X329594Y107289D01*
Y108339D01*
X330118Y108863D01*
X330381Y196654D02*
X333530D01*
Y195079D01*
X333005Y194554D01*
X331955D01*
X331431Y195079D01*
Y196654D01*
Y195604D02*
X330381Y194554D01*
Y191406D02*
Y193505D01*
X332480Y191406D01*
X333005D01*
X333530Y191931D01*
Y192980D01*
X333005Y193505D01*
X329856Y190356D02*
Y188257D01*
X330381Y187208D02*
X333530D01*
Y185634D01*
X333005Y185109D01*
X331955D01*
X331431Y185634D01*
Y187208D01*
Y186158D02*
X330381Y185109D01*
X333530Y181960D02*
Y183010D01*
Y182485D01*
X330906D01*
X330381Y183010D01*
Y183534D01*
X330906Y184059D01*
X330381Y179336D02*
X333530D01*
X331955Y180911D01*
Y178812D01*
X296260Y240814D02*
Y243963D01*
X297834D01*
X298359Y243438D01*
Y242388D01*
X297834Y241864D01*
X296260D01*
X297309D02*
X298359Y240814D01*
X301507D02*
X299408D01*
X301507Y242913D01*
Y243438D01*
X300983Y243963D01*
X299933D01*
X299408Y243438D01*
X302557Y240289D02*
X304656D01*
X305706Y240814D02*
Y243963D01*
X307280D01*
X307805Y243438D01*
Y242388D01*
X307280Y241864D01*
X305706D01*
X306755D02*
X307805Y240814D01*
X310953Y243963D02*
X309904D01*
X310429D01*
Y241339D01*
X309904Y240814D01*
X309379D01*
X308854Y241339D01*
X312003Y243438D02*
X312528Y243963D01*
X313577D01*
X314102Y243438D01*
Y242913D01*
X313577Y242388D01*
X313052D01*
X313577D01*
X314102Y241864D01*
Y241339D01*
X313577Y240814D01*
X312528D01*
X312003Y241339D01*
X222244Y241208D02*
Y244356D01*
X223818D01*
X224343Y243832D01*
Y242782D01*
X223818Y242257D01*
X222244D01*
X223294D02*
X224343Y241208D01*
X227492D02*
X225393D01*
X227492Y243307D01*
Y243832D01*
X226967Y244356D01*
X225918D01*
X225393Y243832D01*
X228541Y240683D02*
X230640D01*
X231690Y241208D02*
Y244356D01*
X233264D01*
X233789Y243832D01*
Y242782D01*
X233264Y242257D01*
X231690D01*
X232739D02*
X233789Y241208D01*
X236937Y244356D02*
X235888D01*
X236413D01*
Y241733D01*
X235888Y241208D01*
X235363D01*
X234839Y241733D01*
X240086Y241208D02*
X237987D01*
X240086Y243307D01*
Y243832D01*
X239561Y244356D01*
X238512D01*
X237987Y243832D01*
X147441Y240271D02*
Y243419D01*
X149015D01*
X149540Y242895D01*
Y241845D01*
X149015Y241320D01*
X147441D01*
X148491D02*
X149540Y240271D01*
X152689D02*
X150590D01*
X152689Y242370D01*
Y242895D01*
X152164Y243419D01*
X151114D01*
X150590Y242895D01*
X153738Y239746D02*
X155837D01*
X156887Y240271D02*
Y243419D01*
X158461D01*
X158986Y242895D01*
Y241845D01*
X158461Y241320D01*
X156887D01*
X157936D02*
X158986Y240271D01*
X162134Y243419D02*
X161085D01*
X161610D01*
Y240795D01*
X161085Y240271D01*
X160560D01*
X160035Y240795D01*
X163184Y240271D02*
X164233D01*
X163709D01*
Y243419D01*
X163184Y242895D01*
X134843Y69816D02*
Y66667D01*
X133268D01*
X132744Y67192D01*
Y68242D01*
X133268Y68766D01*
X134843D01*
X133793D02*
X132744Y69816D01*
X131694D02*
X130644D01*
X131169D01*
Y66667D01*
X131694Y67192D01*
X129070Y70341D02*
X126971D01*
X125921Y69816D02*
Y66667D01*
X124347D01*
X123822Y67192D01*
Y68242D01*
X124347Y68766D01*
X125921D01*
X124872D02*
X123822Y69816D01*
X120674Y66667D02*
X121723D01*
X121199D01*
Y69291D01*
X121723Y69816D01*
X122248D01*
X122773Y69291D01*
X119624Y67192D02*
X119100Y66667D01*
X118050D01*
X117525Y67192D01*
Y67717D01*
X118050Y68242D01*
X117525Y68766D01*
Y69291D01*
X118050Y69816D01*
X119100D01*
X119624Y69291D01*
Y68766D01*
X119100Y68242D01*
X119624Y67717D01*
Y67192D01*
X119100Y68242D02*
X118050D01*
X208071Y69422D02*
Y66273D01*
X206497D01*
X205972Y66798D01*
Y67848D01*
X206497Y68373D01*
X208071D01*
X207021D02*
X205972Y69422D01*
X204922D02*
X203873D01*
X204398D01*
Y66273D01*
X204922Y66798D01*
X202298Y69947D02*
X200199D01*
X199150Y69422D02*
Y66273D01*
X197576D01*
X197051Y66798D01*
Y67848D01*
X197576Y68373D01*
X199150D01*
X198100D02*
X197051Y69422D01*
X193902Y66273D02*
X194952D01*
X194427D01*
Y68897D01*
X194952Y69422D01*
X195476D01*
X196001Y68897D01*
X192853Y66273D02*
X190754D01*
Y66798D01*
X192853Y68897D01*
Y69422D01*
X281299Y69816D02*
Y66667D01*
X279725D01*
X279200Y67192D01*
Y68242D01*
X279725Y68766D01*
X281299D01*
X280250D02*
X279200Y69816D01*
X278151D02*
X277101D01*
X277626D01*
Y66667D01*
X278151Y67192D01*
X275527Y70341D02*
X273428D01*
X272378Y69816D02*
Y66667D01*
X270804D01*
X270279Y67192D01*
Y68242D01*
X270804Y68766D01*
X272378D01*
X271329D02*
X270279Y69816D01*
X267131Y66667D02*
X268180D01*
X267655D01*
Y69291D01*
X268180Y69816D01*
X268705D01*
X269230Y69291D01*
X263982Y66667D02*
X265032Y67192D01*
X266081Y68242D01*
Y69291D01*
X265556Y69816D01*
X264507D01*
X263982Y69291D01*
Y68766D01*
X264507Y68242D01*
X266081D01*
X363846Y124606D02*
X366994D01*
Y123032D01*
X366469Y122507D01*
X365420D01*
X364895Y123032D01*
Y124606D01*
Y123557D02*
X363846Y122507D01*
Y121458D02*
Y120408D01*
Y120933D01*
X366994D01*
X366469Y121458D01*
X363321Y118834D02*
Y116735D01*
X363846Y115685D02*
X366994D01*
Y114111D01*
X366469Y113586D01*
X365420D01*
X364895Y114111D01*
Y115685D01*
Y114636D02*
X363846Y113586D01*
X366994Y110438D02*
Y111487D01*
Y110962D01*
X364370D01*
X363846Y111487D01*
Y112012D01*
X364370Y112537D01*
X366994Y107289D02*
Y109388D01*
X365420D01*
X365945Y108339D01*
Y107814D01*
X365420Y107289D01*
X364370D01*
X363846Y107814D01*
Y108863D01*
X364370Y109388D01*
X364633Y196654D02*
X367782D01*
Y195079D01*
X367257Y194554D01*
X366207D01*
X365683Y195079D01*
Y196654D01*
Y195604D02*
X364633Y194554D01*
Y193505D02*
Y192455D01*
Y192980D01*
X367782D01*
X367257Y193505D01*
X364108Y190881D02*
Y188782D01*
X364633Y187733D02*
X367782D01*
Y186158D01*
X367257Y185634D01*
X366207D01*
X365683Y186158D01*
Y187733D01*
Y186683D02*
X364633Y185634D01*
X367782Y182485D02*
Y183534D01*
Y183010D01*
X365158D01*
X364633Y183534D01*
Y184059D01*
X365158Y184584D01*
X364633Y179861D02*
X367782D01*
X366207Y181435D01*
Y179336D01*
X296260Y275066D02*
Y278215D01*
X297834D01*
X298359Y277690D01*
Y276640D01*
X297834Y276116D01*
X296260D01*
X297309D02*
X298359Y275066D01*
X299408D02*
X300458D01*
X299933D01*
Y278215D01*
X299408Y277690D01*
X302032Y274541D02*
X304131D01*
X305181Y275066D02*
Y278215D01*
X306755D01*
X307280Y277690D01*
Y276640D01*
X306755Y276116D01*
X305181D01*
X306230D02*
X307280Y275066D01*
X310429Y278215D02*
X309379D01*
X309904D01*
Y275591D01*
X309379Y275066D01*
X308854D01*
X308329Y275591D01*
X311478Y277690D02*
X312003Y278215D01*
X313052D01*
X313577Y277690D01*
Y277165D01*
X313052Y276640D01*
X312528D01*
X313052D01*
X313577Y276116D01*
Y275591D01*
X313052Y275066D01*
X312003D01*
X311478Y275591D01*
X222244Y275460D02*
Y278608D01*
X223818D01*
X224343Y278084D01*
Y277034D01*
X223818Y276509D01*
X222244D01*
X223294D02*
X224343Y275460D01*
X225393D02*
X226442D01*
X225918D01*
Y278608D01*
X225393Y278084D01*
X228016Y274935D02*
X230116D01*
X231165Y275460D02*
Y278608D01*
X232739D01*
X233264Y278084D01*
Y277034D01*
X232739Y276509D01*
X231165D01*
X232215D02*
X233264Y275460D01*
X236413Y278608D02*
X235363D01*
X235888D01*
Y275985D01*
X235363Y275460D01*
X234839D01*
X234314Y275985D01*
X239561Y275460D02*
X237462D01*
X239561Y277559D01*
Y278084D01*
X239037Y278608D01*
X237987D01*
X237462Y278084D01*
X147441Y274523D02*
Y277671D01*
X149015D01*
X149540Y277147D01*
Y276097D01*
X149015Y275572D01*
X147441D01*
X148491D02*
X149540Y274523D01*
X150590D02*
X151639D01*
X151114D01*
Y277671D01*
X150590Y277147D01*
X153213Y273998D02*
X155312D01*
X156362Y274523D02*
Y277671D01*
X157936D01*
X158461Y277147D01*
Y276097D01*
X157936Y275572D01*
X156362D01*
X157412D02*
X158461Y274523D01*
X161610Y277671D02*
X160560D01*
X161085D01*
Y275047D01*
X160560Y274523D01*
X160035D01*
X159511Y275047D01*
X162659Y274523D02*
X163709D01*
X163184D01*
Y277671D01*
X162659Y277147D01*
X6599Y252149D02*
X5550D01*
X6074D01*
Y249525D01*
X5550Y249000D01*
X5025D01*
X4500Y249525D01*
X9748Y249000D02*
X7649D01*
X9748Y251099D01*
Y251624D01*
X9223Y252149D01*
X8173D01*
X7649Y251624D01*
X172901Y109581D02*
X173951D01*
X173426D01*
Y112205D01*
X173951Y112729D01*
X174475D01*
X175000Y112205D01*
X171851Y112729D02*
X170802D01*
X171327D01*
Y109581D01*
X171851Y110105D01*
X169228Y113254D02*
X167129D01*
X166079Y112729D02*
Y109581D01*
X164505D01*
X163980Y110105D01*
Y111155D01*
X164505Y111680D01*
X166079D01*
X165030D02*
X163980Y112729D01*
X160831Y109581D02*
X161881D01*
X161356D01*
Y112205D01*
X161881Y112729D01*
X162406D01*
X162930Y112205D01*
X159782Y110105D02*
X159257Y109581D01*
X158207D01*
X157683Y110105D01*
Y110630D01*
X158207Y111155D01*
X157683Y111680D01*
Y112205D01*
X158207Y112729D01*
X159257D01*
X159782Y112205D01*
Y111680D01*
X159257Y111155D01*
X159782Y110630D01*
Y110105D01*
X159257Y111155D02*
X158207D01*
X242980Y108793D02*
X244029D01*
X243504D01*
Y111417D01*
X244029Y111942D01*
X244554D01*
X245079Y111417D01*
X241930Y111942D02*
X240881D01*
X241405D01*
Y108793D01*
X241930Y109318D01*
X239306Y112467D02*
X237207D01*
X236158Y111942D02*
Y108793D01*
X234583D01*
X234059Y109318D01*
Y110368D01*
X234583Y110892D01*
X236158D01*
X235108D02*
X234059Y111942D01*
X230910Y108793D02*
X231960D01*
X231435D01*
Y111417D01*
X231960Y111942D01*
X232484D01*
X233009Y111417D01*
X229861Y108793D02*
X227762D01*
Y109318D01*
X229861Y111417D01*
Y111942D01*
X316602Y110368D02*
X317651D01*
X317126D01*
Y112992D01*
X317651Y113517D01*
X318176D01*
X318701Y112992D01*
X315552Y113517D02*
X314503D01*
X315027D01*
Y110368D01*
X315552Y110893D01*
X312928Y114041D02*
X310829D01*
X309780Y113517D02*
Y110368D01*
X308206D01*
X307681Y110893D01*
Y111942D01*
X308206Y112467D01*
X309780D01*
X308730D02*
X307681Y113517D01*
X304532Y110368D02*
X305582D01*
X305057D01*
Y112992D01*
X305582Y113517D01*
X306106D01*
X306631Y112992D01*
X301384Y110368D02*
X302433Y110893D01*
X303483Y111942D01*
Y112992D01*
X302958Y113517D01*
X301908D01*
X301384Y112992D01*
Y112467D01*
X301908Y111942D01*
X303483D01*
X406364Y93767D02*
Y94817D01*
Y94292D01*
X403740D01*
X403216Y94817D01*
Y95341D01*
X403740Y95866D01*
X403216Y92718D02*
Y91668D01*
Y92193D01*
X406364D01*
X405839Y92718D01*
X402691Y90094D02*
Y87995D01*
X403216Y86945D02*
X406364D01*
Y85371D01*
X405839Y84846D01*
X404790D01*
X404265Y85371D01*
Y86945D01*
Y85896D02*
X403216Y84846D01*
X406364Y81697D02*
Y82747D01*
Y82222D01*
X403740D01*
X403216Y82747D01*
Y83272D01*
X403740Y83797D01*
X406364Y78549D02*
Y80648D01*
X404790D01*
X405315Y79598D01*
Y79074D01*
X404790Y78549D01*
X403740D01*
X403216Y79074D01*
Y80123D01*
X403740Y80648D01*
X416207Y256759D02*
Y257809D01*
Y257284D01*
X413583D01*
X413058Y257809D01*
Y258333D01*
X413583Y258858D01*
X413058Y255710D02*
Y254660D01*
Y255185D01*
X416207D01*
X415682Y255710D01*
X412533Y253086D02*
Y250987D01*
X413058Y249937D02*
X416207D01*
Y248363D01*
X415682Y247838D01*
X414633D01*
X414108Y248363D01*
Y249937D01*
Y248888D02*
X413058Y247838D01*
X416207Y244690D02*
Y245739D01*
Y245214D01*
X413583D01*
X413058Y245739D01*
Y246264D01*
X413583Y246789D01*
X413058Y242066D02*
X416207D01*
X414633Y243640D01*
Y241541D01*
X306627Y236876D02*
X305577D01*
X306102D01*
Y234252D01*
X305577Y233728D01*
X305052D01*
X304528Y234252D01*
X307676Y233728D02*
X308726D01*
X308201D01*
Y236876D01*
X307676Y236351D01*
X310300Y233203D02*
X312399D01*
X313449Y233728D02*
Y236876D01*
X315023D01*
X315548Y236351D01*
Y235302D01*
X315023Y234777D01*
X313449D01*
X314498D02*
X315548Y233728D01*
X318696Y236876D02*
X317647D01*
X318172D01*
Y234252D01*
X317647Y233728D01*
X317122D01*
X316597Y234252D01*
X319746Y236351D02*
X320270Y236876D01*
X321320D01*
X321845Y236351D01*
Y235826D01*
X321320Y235302D01*
X320795D01*
X321320D01*
X321845Y234777D01*
Y234252D01*
X321320Y233728D01*
X320270D01*
X319746Y234252D01*
X230642Y236089D02*
X229593D01*
X230118D01*
Y233465D01*
X229593Y232940D01*
X229068D01*
X228543Y233465D01*
X231692Y232940D02*
X232741D01*
X232217D01*
Y236089D01*
X231692Y235564D01*
X234316Y232415D02*
X236415D01*
X237464Y232940D02*
Y236089D01*
X239039D01*
X239563Y235564D01*
Y234514D01*
X239039Y233990D01*
X237464D01*
X238514D02*
X239563Y232940D01*
X242712Y236089D02*
X241662D01*
X242187D01*
Y233465D01*
X241662Y232940D01*
X241138D01*
X240613Y233465D01*
X245861Y232940D02*
X243761D01*
X245861Y235039D01*
Y235564D01*
X245336Y236089D01*
X244286D01*
X243761Y235564D01*
X160170Y235695D02*
X159120D01*
X159645D01*
Y233071D01*
X159120Y232546D01*
X158596D01*
X158071Y233071D01*
X161219Y232546D02*
X162269D01*
X161744D01*
Y235695D01*
X161219Y235170D01*
X163843Y232022D02*
X165942D01*
X166992Y232546D02*
Y235695D01*
X168566D01*
X169091Y235170D01*
Y234121D01*
X168566Y233596D01*
X166992D01*
X168041D02*
X169091Y232546D01*
X172239Y235695D02*
X171190D01*
X171715D01*
Y233071D01*
X171190Y232546D01*
X170665D01*
X170141Y233071D01*
X173289Y232546D02*
X174339D01*
X173814D01*
Y235695D01*
X173289Y235170D01*
X97422Y103231D02*
X96897Y103755D01*
X95848D01*
X95323Y103231D01*
Y101132D01*
X95848Y100607D01*
X96897D01*
X97422Y101132D01*
X100570Y100607D02*
X98471D01*
X100570Y102706D01*
Y103231D01*
X100046Y103755D01*
X98996D01*
X98471Y103231D01*
X123688Y81759D02*
X124213Y81234D01*
X125263D01*
X125787Y81759D01*
Y83858D01*
X125263Y84383D01*
X124213D01*
X123688Y83858D01*
X122639Y84383D02*
X121589D01*
X122114D01*
Y81234D01*
X122639Y81759D01*
X120015Y84908D02*
X117916D01*
X116866Y84383D02*
Y81234D01*
X115292D01*
X114767Y81759D01*
Y82809D01*
X115292Y83333D01*
X116866D01*
X115817D02*
X114767Y84383D01*
X111619Y81234D02*
X112668D01*
X112144D01*
Y83858D01*
X112668Y84383D01*
X113193D01*
X113718Y83858D01*
X110569Y81759D02*
X110045Y81234D01*
X108995D01*
X108470Y81759D01*
Y82284D01*
X108995Y82809D01*
X108470Y83333D01*
Y83858D01*
X108995Y84383D01*
X110045D01*
X110569Y83858D01*
Y83333D01*
X110045Y82809D01*
X110569Y82284D01*
Y81759D01*
X110045Y82809D02*
X108995D01*
X196917Y81365D02*
X197441Y80840D01*
X198491D01*
X199016Y81365D01*
Y83464D01*
X198491Y83989D01*
X197441D01*
X196917Y83464D01*
X195867Y83989D02*
X194818D01*
X195342D01*
Y80840D01*
X195867Y81365D01*
X193243Y84514D02*
X191144D01*
X190095Y83989D02*
Y80840D01*
X188521D01*
X187996Y81365D01*
Y82415D01*
X188521Y82939D01*
X190095D01*
X189045D02*
X187996Y83989D01*
X184847Y80840D02*
X185897D01*
X185372D01*
Y83464D01*
X185897Y83989D01*
X186421D01*
X186946Y83464D01*
X183798Y80840D02*
X181699D01*
Y81365D01*
X183798Y83464D01*
Y83989D01*
X270145Y81759D02*
X270670Y81234D01*
X271719D01*
X272244Y81759D01*
Y83858D01*
X271719Y84383D01*
X270670D01*
X270145Y83858D01*
X269095Y84383D02*
X268046D01*
X268571D01*
Y81234D01*
X269095Y81759D01*
X266472Y84908D02*
X264373D01*
X263323Y84383D02*
Y81234D01*
X261749D01*
X261224Y81759D01*
Y82809D01*
X261749Y83333D01*
X263323D01*
X262274D02*
X261224Y84383D01*
X258075Y81234D02*
X259125D01*
X258600D01*
Y83858D01*
X259125Y84383D01*
X259650D01*
X260174Y83858D01*
X254927Y81234D02*
X255976Y81759D01*
X257026Y82809D01*
Y83858D01*
X256501Y84383D01*
X255452D01*
X254927Y83858D01*
Y83333D01*
X255452Y82809D01*
X257026D01*
X351903Y113452D02*
X352427Y113977D01*
Y115026D01*
X351903Y115551D01*
X349803D01*
X349279Y115026D01*
Y113977D01*
X349803Y113452D01*
X349279Y112403D02*
Y111353D01*
Y111878D01*
X352427D01*
X351903Y112403D01*
X348754Y109779D02*
Y107680D01*
X349279Y106630D02*
X352427D01*
Y105056D01*
X351903Y104531D01*
X350853D01*
X350328Y105056D01*
Y106630D01*
Y105581D02*
X349279Y104531D01*
X352427Y101383D02*
Y102432D01*
Y101907D01*
X349803D01*
X349279Y102432D01*
Y102957D01*
X349803Y103482D01*
X352427Y98234D02*
Y100333D01*
X350853D01*
X351378Y99283D01*
Y98759D01*
X350853Y98234D01*
X349803D01*
X349279Y98759D01*
Y99808D01*
X349803Y100333D01*
X352690Y185499D02*
X353215Y186024D01*
Y187074D01*
X352690Y187598D01*
X350591D01*
X350066Y187074D01*
Y186024D01*
X350591Y185499D01*
X350066Y184450D02*
Y183400D01*
Y183925D01*
X353215D01*
X352690Y184450D01*
X349541Y181826D02*
Y179727D01*
X350066Y178677D02*
X353215D01*
Y177103D01*
X352690Y176578D01*
X351640D01*
X351116Y177103D01*
Y178677D01*
Y177628D02*
X350066Y176578D01*
X353215Y173430D02*
Y174479D01*
Y173954D01*
X350591D01*
X350066Y174479D01*
Y175004D01*
X350591Y175529D01*
X350066Y170806D02*
X353215D01*
X351640Y172380D01*
Y170281D01*
X307414Y263123D02*
X306889Y263648D01*
X305840D01*
X305315Y263123D01*
Y261024D01*
X305840Y260499D01*
X306889D01*
X307414Y261024D01*
X308464Y260499D02*
X309513D01*
X308988D01*
Y263648D01*
X308464Y263123D01*
X311087Y259974D02*
X313186D01*
X314236Y260499D02*
Y263648D01*
X315810D01*
X316335Y263123D01*
Y262073D01*
X315810Y261549D01*
X314236D01*
X315285D02*
X316335Y260499D01*
X319484Y263648D02*
X318434D01*
X318959D01*
Y261024D01*
X318434Y260499D01*
X317909D01*
X317385Y261024D01*
X320533Y263123D02*
X321058Y263648D01*
X322107D01*
X322632Y263123D01*
Y262598D01*
X322107Y262073D01*
X321583D01*
X322107D01*
X322632Y261549D01*
Y261024D01*
X322107Y260499D01*
X321058D01*
X320533Y261024D01*
X233398Y263517D02*
X232874Y264041D01*
X231824D01*
X231299Y263517D01*
Y261418D01*
X231824Y260893D01*
X232874D01*
X233398Y261418D01*
X234448Y260893D02*
X235497D01*
X234973D01*
Y264041D01*
X234448Y263517D01*
X237072Y260368D02*
X239171D01*
X240220Y260893D02*
Y264041D01*
X241794D01*
X242319Y263517D01*
Y262467D01*
X241794Y261942D01*
X240220D01*
X241270D02*
X242319Y260893D01*
X245468Y264041D02*
X244418D01*
X244943D01*
Y261418D01*
X244418Y260893D01*
X243894D01*
X243369Y261418D01*
X248617Y260893D02*
X246517D01*
X248617Y262992D01*
Y263517D01*
X248092Y264041D01*
X247042D01*
X246517Y263517D01*
X158595Y262580D02*
X158070Y263104D01*
X157021D01*
X156496Y262580D01*
Y260481D01*
X157021Y259956D01*
X158070D01*
X158595Y260481D01*
X159645Y259956D02*
X160694D01*
X160169D01*
Y263104D01*
X159645Y262580D01*
X162268Y259431D02*
X164367D01*
X165417Y259956D02*
Y263104D01*
X166991D01*
X167516Y262580D01*
Y261530D01*
X166991Y261005D01*
X165417D01*
X166467D02*
X167516Y259956D01*
X170665Y263104D02*
X169615D01*
X170140D01*
Y260481D01*
X169615Y259956D01*
X169090D01*
X168566Y260481D01*
X171714Y259956D02*
X172764D01*
X172239D01*
Y263104D01*
X171714Y262580D01*
D11*
X327362Y134252D02*
Y135433D01*
X345472D01*
Y134252D02*
Y135433D01*
Y126772D02*
Y127953D01*
X327362Y126772D02*
X345472D01*
X327362D02*
Y127953D01*
X336417Y126772D02*
Y135433D01*
X354035Y126969D02*
Y127362D01*
X348721Y126969D02*
Y127362D01*
X80953Y94307D02*
X82134D01*
X80953D02*
Y112417D01*
X82134D01*
X88433D02*
X89614D01*
Y94307D02*
Y112417D01*
X88433Y94307D02*
X89614D01*
X80953Y103362D02*
X89614D01*
X144488Y106299D02*
X145669D01*
Y88189D02*
Y106299D01*
X144488Y88189D02*
X145669D01*
X137008D02*
X138189D01*
X137008D02*
Y106299D01*
X138189D01*
X137008Y97244D02*
X145669D01*
X217717Y105905D02*
X218898D01*
Y87795D02*
Y105905D01*
X217717Y87795D02*
X218898D01*
X210236D02*
X211417D01*
X210236D02*
Y105905D01*
X211417D01*
X210236Y96850D02*
X218898D01*
X290945Y106299D02*
X292126D01*
Y88189D02*
Y106299D01*
X290945Y88189D02*
X292126D01*
X283465D02*
X284646D01*
X283465D02*
Y106299D01*
X284646D01*
X283465Y97244D02*
X292126D01*
X328150Y206299D02*
Y207480D01*
X346260D01*
Y206299D02*
Y207480D01*
Y198819D02*
Y200000D01*
X328150Y198819D02*
X346260D01*
X328150D02*
Y200000D01*
X337205Y198819D02*
Y207480D01*
X285433Y238583D02*
X286614D01*
X285433D02*
Y256693D01*
X286614D01*
X292913D02*
X294094D01*
Y238583D02*
Y256693D01*
X292913Y238583D02*
X294094D01*
X285433Y247638D02*
X294094D01*
X211417Y238976D02*
X212598D01*
X211417D02*
Y257087D01*
X212598D01*
X218898D02*
X220079D01*
Y238976D02*
Y257087D01*
X218898Y238976D02*
X220079D01*
X211417Y248031D02*
X220079D01*
X136614Y238039D02*
X137795D01*
X136614D02*
Y256150D01*
X137795D01*
X144095D02*
X145276D01*
Y238039D02*
Y256150D01*
X144095Y238039D02*
X145276D01*
X136614Y247094D02*
X145276D01*
X101594Y112795D02*
Y116732D01*
X94508Y112795D02*
Y116732D01*
X137205Y79626D02*
X137598D01*
X137205Y84941D02*
X137598D01*
X210433Y79232D02*
X210827D01*
X210433Y84547D02*
X210827D01*
X283661Y79626D02*
X284055D01*
X283661Y84941D02*
X284055D01*
X354823Y199016D02*
Y199409D01*
X349508Y199016D02*
Y199409D01*
X293504Y265256D02*
X293898D01*
X293504Y259941D02*
X293898D01*
X219488Y265650D02*
X219882D01*
X219488Y260335D02*
X219882D01*
X144685Y264713D02*
X145079D01*
X144685Y259398D02*
X145079D01*
D12*
X431248Y102183D02*
Y160383D01*
X374748Y102183D02*
X431248D01*
X374748Y160383D02*
X431248D01*
X374748Y102183D02*
Y160383D01*
X432035Y174231D02*
Y232431D01*
X375535Y174231D02*
X432035D01*
X375535D02*
Y232431D01*
X432035D01*
X112420Y2413D02*
X170620D01*
X112420D02*
Y58913D01*
X170620D01*
Y2413D02*
Y58913D01*
X185648Y2020D02*
X243848D01*
X185648D02*
Y58520D01*
X243848D01*
Y2020D02*
Y58520D01*
X258876Y2413D02*
X317076D01*
X258876D02*
Y58913D01*
X317076D01*
Y2413D02*
Y58913D01*
X186467Y342862D02*
X244667D01*
Y286362D02*
Y342862D01*
X186467Y286362D02*
X244667D01*
X186467D02*
Y342862D01*
X260483Y342469D02*
X318683D01*
Y285968D02*
Y342469D01*
X260483Y285968D02*
X318683D01*
X260483D02*
Y342469D01*
X111664Y341925D02*
X169864D01*
Y285425D02*
Y341925D01*
X111664Y285425D02*
X169864D01*
X111664D02*
Y341925D01*
X163205Y182013D02*
Y178015D01*
X165204Y176015D01*
X167203Y178015D01*
Y182013D01*
X172202Y176015D02*
X170203D01*
X169203Y177015D01*
Y179015D01*
X170203Y180014D01*
X172202D01*
X173202Y179015D01*
Y178015D01*
X169203D01*
X175201Y180014D02*
Y176015D01*
Y178015D01*
X176200Y179015D01*
X177200Y180014D01*
X178200D01*
X181199Y176015D02*
X184198D01*
X185198Y177015D01*
X184198Y178015D01*
X182199D01*
X181199Y179015D01*
X182199Y180014D01*
X185198D01*
X187197Y176015D02*
X189196D01*
X188197D01*
Y180014D01*
X187197D01*
X193195Y176015D02*
X195194D01*
X196194Y177015D01*
Y179015D01*
X195194Y180014D01*
X193195D01*
X192195Y179015D01*
Y177015D01*
X193195Y176015D01*
X198193D02*
Y180014D01*
X201192D01*
X202192Y179015D01*
Y176015D01*
X210190D02*
X212189D01*
X211189D01*
Y182013D01*
X210190Y181014D01*
X215188Y176015D02*
Y177015D01*
X216188D01*
Y176015D01*
X215188D01*
X220186Y181014D02*
X221186Y182013D01*
X223185D01*
X224185Y181014D01*
Y177015D01*
X223185Y176015D01*
X221186D01*
X220186Y177015D01*
Y181014D01*
X232182Y182013D02*
Y176015D01*
X235181D01*
X236181Y177015D01*
Y178015D01*
X235181Y179015D01*
X232182D01*
X235181D01*
X236181Y180014D01*
Y181014D01*
X235181Y182013D01*
X232182D01*
X238180Y176015D02*
Y182013D01*
X242179Y176015D01*
Y182013D01*
X248177Y181014D02*
X247178Y182013D01*
X245178D01*
X244179Y181014D01*
Y177015D01*
X245178Y176015D01*
X247178D01*
X248177Y177015D01*
X250177Y175016D02*
X254175D01*
X256175Y176015D02*
Y182013D01*
X259174D01*
X260173Y181014D01*
Y179015D01*
X259174Y178015D01*
X256175D01*
X258174D02*
X260173Y176015D01*
X266171Y182013D02*
X264172D01*
X265172D01*
Y177015D01*
X264172Y176015D01*
X263172D01*
X262173Y177015D01*
X271170Y176015D02*
Y182013D01*
X268171Y179015D01*
X272169D01*
X278168Y182013D02*
X274169D01*
Y179015D01*
X276168Y180014D01*
X277168D01*
X278168Y179015D01*
Y177015D01*
X277168Y176015D01*
X275168D01*
X274169Y177015D01*
D13*
X45551Y111264D02*
X67051D01*
X5051D02*
X34551D01*
X5051Y239264D02*
X34551D01*
X45551D02*
X67051D01*
Y111264D02*
Y239264D01*
X5051Y111264D02*
Y239264D01*
M02*
