G04*
G04 #@! TF.GenerationSoftware,Altium Limited,Altium Designer,22.1.2 (22)*
G04*
G04 Layer_Color=16711935*
%FSLAX25Y25*%
%MOIN*%
G70*
G04*
G04 #@! TF.SameCoordinates,EB6349A5-E9A1-4A8E-B869-313063707995*
G04*
G04*
G04 #@! TF.FilePolarity,Negative*
G04*
G01*
G75*
%ADD21C,0.06800*%
%ADD22C,0.12300*%
%ADD23C,0.07800*%
%ADD24R,0.06312X0.06312*%
%ADD25C,0.06312*%
%ADD26C,0.10249*%
%ADD27C,0.13595*%
%ADD28C,0.05800*%
%ADD29C,0.02375*%
D21*
X421260Y334646D02*
D03*
Y11811D02*
D03*
X11811D02*
D03*
Y334646D02*
D03*
D22*
X402248Y151284D02*
D03*
Y111284D02*
D03*
X403035Y183331D02*
D03*
Y223331D02*
D03*
X121520Y31413D02*
D03*
X161520D02*
D03*
X194748Y31020D02*
D03*
X234748D02*
D03*
X267976Y31413D02*
D03*
X307976D02*
D03*
X235567Y313862D02*
D03*
X195567D02*
D03*
X309583Y313469D02*
D03*
X269583D02*
D03*
X160764Y312925D02*
D03*
X120764D02*
D03*
D23*
X382248Y141284D02*
D03*
Y131283D02*
D03*
X383035Y213331D02*
D03*
Y203331D02*
D03*
X151520Y51413D02*
D03*
X141520D02*
D03*
X224748Y51020D02*
D03*
X214748D02*
D03*
X297976Y51413D02*
D03*
X287976D02*
D03*
X205567Y293862D02*
D03*
X215567D02*
D03*
X279583Y293468D02*
D03*
X289583D02*
D03*
X130764Y292925D02*
D03*
X140764D02*
D03*
D24*
X36551Y130264D02*
D03*
Y192264D02*
D03*
D25*
X43551Y134264D02*
D03*
X36551Y138264D02*
D03*
X43551Y142264D02*
D03*
X36551Y146264D02*
D03*
X43551Y150264D02*
D03*
X36551Y154264D02*
D03*
X43551Y158264D02*
D03*
Y220264D02*
D03*
X36551Y216264D02*
D03*
X43551Y212264D02*
D03*
X36551Y208264D02*
D03*
X43551Y204264D02*
D03*
X36551Y200264D02*
D03*
X43551Y196264D02*
D03*
D26*
X40051Y112264D02*
D03*
Y238264D02*
D03*
D27*
X26551Y119264D02*
D03*
Y231264D02*
D03*
D28*
X145669Y179528D02*
D03*
X39370Y311417D02*
D03*
X398425Y324016D02*
D03*
X401575Y27559D02*
D03*
X38189Y30709D02*
D03*
D29*
X224803Y151181D02*
D03*
Y139370D02*
D03*
X194882Y212992D02*
D03*
X94488D02*
D03*
M02*
