G04*
G04 #@! TF.GenerationSoftware,Altium Limited,Altium Designer,22.1.2 (22)*
G04*
G04 Layer_Color=32768*
%FSLAX25Y25*%
%MOIN*%
G70*
G04*
G04 #@! TF.SameCoordinates,EB6349A5-E9A1-4A8E-B869-313063707995*
G04*
G04*
G04 #@! TF.FilePolarity,Positive*
G04*
G01*
G75*
%ADD47C,0.00394*%
%ADD49C,0.00197*%
D47*
X432248Y163784D02*
X434248D01*
Y99283D02*
Y163784D01*
X372248D02*
X432248D01*
X372248Y99283D02*
X434248D01*
X372248D02*
Y163784D01*
X433035Y235831D02*
X435035D01*
Y171331D02*
Y235831D01*
X373035Y171331D02*
X435035D01*
X373035D02*
Y235831D01*
X433035D01*
X174020Y-587D02*
Y1413D01*
X109520Y-587D02*
X174020D01*
X109520D02*
Y61413D01*
X174020D01*
Y1413D02*
Y61413D01*
X247248Y-980D02*
Y1020D01*
X182748Y-980D02*
X247248D01*
X182748D02*
Y61020D01*
X247248D01*
Y1020D02*
Y61020D01*
X320476Y-587D02*
Y1413D01*
X255976Y-587D02*
X320476D01*
X255976D02*
Y61413D01*
X320476D01*
Y1413D02*
Y61413D01*
X183067Y343862D02*
Y345862D01*
X247567D01*
Y283862D02*
Y345862D01*
X183067Y283862D02*
X247567D01*
X183067D02*
Y343862D01*
X257083Y343468D02*
Y345468D01*
X321583D01*
Y283469D02*
Y345468D01*
X257083Y283469D02*
X321583D01*
X257083D02*
Y343468D01*
X108264Y342925D02*
Y344925D01*
X172764D01*
Y282925D02*
Y344925D01*
X108264Y282925D02*
X172764D01*
X108264D02*
Y342925D01*
D49*
X368488Y138091D02*
Y151476D01*
X361008D02*
X368488D01*
X361008Y138091D02*
X368488D01*
X361008D02*
Y151476D01*
X356988Y137598D02*
Y145079D01*
X343602D02*
X356988D01*
X343602Y137598D02*
X356988D01*
X343602D02*
Y145079D01*
X327559Y126772D02*
Y135433D01*
X345276Y126772D02*
Y135433D01*
X327559D02*
X345276D01*
X327559Y126772D02*
X345276D01*
X371555Y127362D02*
Y134843D01*
X358169D02*
X371555D01*
X358169Y127362D02*
X371555D01*
X358169D02*
Y134843D01*
X356496Y118504D02*
Y135827D01*
X346260D02*
X356496D01*
X346260Y118504D02*
X356496D01*
X346260D02*
Y135827D01*
X126969Y254279D02*
X134449D01*
X126969Y267665D02*
X134449D01*
Y254279D02*
Y267665D01*
X126969Y254279D02*
Y267665D01*
X80953Y94504D02*
X89614D01*
X80953Y112221D02*
X89614D01*
X80953Y94504D02*
Y112221D01*
X89614Y94504D02*
Y112221D01*
X137008Y106102D02*
X145669D01*
X137008Y88386D02*
X145669D01*
Y106102D01*
X137008Y88386D02*
Y106102D01*
X210236Y105709D02*
X218898D01*
X210236Y87992D02*
X218898D01*
Y105709D01*
X210236Y87992D02*
Y105709D01*
X283465Y106102D02*
X292126D01*
X283465Y88386D02*
X292126D01*
Y106102D01*
X283465Y88386D02*
Y106102D01*
X328346Y198819D02*
Y207480D01*
X346063Y198819D02*
Y207480D01*
X328346D02*
X346063D01*
X328346Y198819D02*
X346063D01*
X285433Y238779D02*
X294094D01*
X285433Y256496D02*
X294094D01*
X285433Y238779D02*
Y256496D01*
X294094Y238779D02*
Y256496D01*
X211417Y239173D02*
X220079D01*
X211417Y256890D02*
X220079D01*
X211417Y239173D02*
Y256890D01*
X220079Y239173D02*
Y256890D01*
X136614Y238236D02*
X145276D01*
X136614Y255953D02*
X145276D01*
X136614Y238236D02*
Y255953D01*
X145276Y238236D02*
Y255953D01*
X102618Y105669D02*
Y123858D01*
X93484Y105669D02*
Y123858D01*
Y105669D02*
X102618D01*
X93484Y123858D02*
X102618D01*
X128740Y77165D02*
Y87402D01*
X146063Y77165D02*
Y87402D01*
X128740Y77165D02*
X146063D01*
X128740Y87402D02*
X146063D01*
X137598Y75492D02*
X145079D01*
X137598Y62106D02*
X145079D01*
X137598D02*
Y75492D01*
X145079Y62106D02*
Y75492D01*
X161713Y65173D02*
Y72654D01*
X148327Y65173D02*
Y72654D01*
X161713D01*
X148327Y65173D02*
X161713D01*
X201969Y76772D02*
Y87008D01*
X219291Y76772D02*
Y87008D01*
X201969Y76772D02*
X219291D01*
X201969Y87008D02*
X219291D01*
X210827Y75098D02*
X218307D01*
X210827Y61713D02*
X218307D01*
X210827D02*
Y75098D01*
X218307Y61713D02*
Y75098D01*
X234941Y64780D02*
Y72260D01*
X221555Y64780D02*
Y72260D01*
X234941D01*
X221555Y64780D02*
X234941D01*
X275197Y77165D02*
Y87402D01*
X292520Y77165D02*
Y87402D01*
X275197Y77165D02*
X292520D01*
X275197Y87402D02*
X292520D01*
X284055Y75492D02*
X291535D01*
X284055Y62106D02*
X291535D01*
X284055D02*
Y75492D01*
X291535Y62106D02*
Y75492D01*
X308169Y65173D02*
Y72654D01*
X294783Y65173D02*
Y72654D01*
X308169D01*
X294783Y65173D02*
X308169D01*
X347047Y190551D02*
X357283D01*
X347047Y207874D02*
X357283D01*
Y190551D02*
Y207874D01*
X347047Y190551D02*
Y207874D01*
X358957Y199409D02*
Y206890D01*
X372342Y199409D02*
Y206890D01*
X358957Y199409D02*
X372342D01*
X358957Y206890D02*
X372342D01*
X361795Y223524D02*
X369276D01*
X361795Y210138D02*
X369276D01*
X361795D02*
Y223524D01*
X369276Y210138D02*
Y223524D01*
X302362Y257480D02*
Y267717D01*
X285039Y257480D02*
Y267717D01*
X302362D01*
X285039Y257480D02*
X302362D01*
X286024Y269390D02*
X293504D01*
X286024Y282776D02*
X293504D01*
Y269390D02*
Y282776D01*
X286024Y269390D02*
Y282776D01*
X269390Y272228D02*
Y279709D01*
X282776Y272228D02*
Y279709D01*
X269390Y272228D02*
X282776D01*
X269390Y279709D02*
X282776D01*
X228346Y257874D02*
Y268110D01*
X211024Y257874D02*
Y268110D01*
X228346D01*
X211024Y257874D02*
X228346D01*
X212008Y269783D02*
X219488D01*
X212008Y283169D02*
X219488D01*
Y269783D02*
Y283169D01*
X212008Y269783D02*
Y283169D01*
X195374Y272622D02*
Y280102D01*
X208760Y272622D02*
Y280102D01*
X195374Y272622D02*
X208760D01*
X195374Y280102D02*
X208760D01*
X120571Y271685D02*
Y279165D01*
X133957Y271685D02*
Y279165D01*
X120571Y271685D02*
X133957D01*
X120571Y279165D02*
X133957D01*
X137205Y268847D02*
X144685D01*
X137205Y282232D02*
X144685D01*
Y268847D02*
Y282232D01*
X137205Y268847D02*
Y282232D01*
X153543Y256937D02*
Y267173D01*
X136221Y256937D02*
Y267173D01*
X153543D01*
X136221Y256937D02*
X153543D01*
X344390Y209646D02*
Y217126D01*
X357776Y209646D02*
Y217126D01*
X344390Y209646D02*
X357776D01*
X344390Y217126D02*
X357776D01*
X275787Y254823D02*
X283268D01*
X275787Y268209D02*
X283268D01*
Y254823D02*
Y268209D01*
X275787Y254823D02*
Y268209D01*
X201772Y255217D02*
X209252D01*
X201772Y268602D02*
X209252D01*
Y255217D02*
Y268602D01*
X201772Y255217D02*
Y268602D01*
X147835Y90059D02*
X155315D01*
X147835Y76673D02*
X155315D01*
X147835D02*
Y90059D01*
X155315Y76673D02*
Y90059D01*
X221063Y89665D02*
X228543D01*
X221063Y76279D02*
X228543D01*
X221063D02*
Y89665D01*
X228543Y76279D02*
Y89665D01*
X294291Y90059D02*
X301772D01*
X294291Y76673D02*
X301772D01*
X294291D02*
Y90059D01*
X301772Y76673D02*
Y90059D01*
M02*
