G04*
G04 #@! TF.GenerationSoftware,Altium Limited,Altium Designer,22.1.2 (22)*
G04*
G04 Layer_Physical_Order=1*
G04 Layer_Color=255*
%FSLAX25Y25*%
%MOIN*%
G70*
G04*
G04 #@! TF.SameCoordinates,EB6349A5-E9A1-4A8E-B869-313063707995*
G04*
G04*
G04 #@! TF.FilePolarity,Positive*
G04*
G01*
G75*
%ADD11C,0.00787*%
%ADD30R,0.05315X0.04528*%
%ADD31R,0.04528X0.05315*%
%ADD32R,0.04724X0.06496*%
%ADD33R,0.06102X0.05315*%
%ADD34R,0.06496X0.04724*%
G04:AMPARAMS|DCode=35|XSize=47.64mil|YSize=71.65mil|CornerRadius=7.86mil|HoleSize=0mil|Usage=FLASHONLY|Rotation=90.000|XOffset=0mil|YOffset=0mil|HoleType=Round|Shape=RoundedRectangle|*
%AMROUNDEDRECTD35*
21,1,0.04764,0.05593,0,0,90.0*
21,1,0.03192,0.07165,0,0,90.0*
1,1,0.01572,0.02797,0.01596*
1,1,0.01572,0.02797,-0.01596*
1,1,0.01572,-0.02797,-0.01596*
1,1,0.01572,-0.02797,0.01596*
%
%ADD35ROUNDEDRECTD35*%
%ADD36R,0.05315X0.06102*%
%ADD37C,0.06000*%
%ADD38C,0.11500*%
%ADD39C,0.07000*%
%ADD40R,0.05512X0.05512*%
%ADD41C,0.05512*%
%ADD42C,0.09449*%
%ADD43C,0.12795*%
%ADD44C,0.05000*%
%ADD45C,0.01575*%
G36*
X431496Y337795D02*
Y11417D01*
X423622Y3543D01*
X8268D01*
X1575Y9449D01*
Y336614D01*
X11024Y345276D01*
X424016D01*
X431496Y337795D01*
D02*
G37*
%LPC*%
G36*
X421902Y341167D02*
X420617D01*
X419358Y340916D01*
X418171Y340425D01*
X417103Y339711D01*
X416194Y338803D01*
X415481Y337735D01*
X414989Y336548D01*
X414738Y335288D01*
Y334003D01*
X414989Y332743D01*
X415481Y331557D01*
X416194Y330488D01*
X417103Y329580D01*
X418171Y328866D01*
X419358Y328375D01*
X420617Y328124D01*
X421902D01*
X423162Y328375D01*
X424349Y328866D01*
X425417Y329580D01*
X426325Y330488D01*
X427039Y331557D01*
X427531Y332743D01*
X427781Y334003D01*
Y335288D01*
X427531Y336548D01*
X427039Y337735D01*
X426325Y338803D01*
X425417Y339711D01*
X424349Y340425D01*
X423162Y340916D01*
X421902Y341167D01*
D02*
G37*
G36*
X12453D02*
X11169D01*
X9909Y340916D01*
X8722Y340425D01*
X7654Y339711D01*
X6746Y338803D01*
X6032Y337735D01*
X5540Y336548D01*
X5290Y335288D01*
Y334003D01*
X5540Y332743D01*
X6032Y331557D01*
X6746Y330488D01*
X7654Y329580D01*
X8722Y328866D01*
X9909Y328375D01*
X11169Y328124D01*
X12453D01*
X13713Y328375D01*
X14900Y328866D01*
X15968Y329580D01*
X16877Y330488D01*
X17590Y331557D01*
X18082Y332743D01*
X18332Y334003D01*
Y335288D01*
X18082Y336548D01*
X17590Y337735D01*
X16877Y338803D01*
X15968Y339711D01*
X14900Y340425D01*
X13713Y340916D01*
X12453Y341167D01*
D02*
G37*
G36*
X398926Y326536D02*
X397924D01*
X396998Y326152D01*
X396289Y325443D01*
X395905Y324517D01*
Y323515D01*
X396289Y322588D01*
X396998Y321879D01*
X397924Y321496D01*
X398926D01*
X399853Y321879D01*
X400562Y322588D01*
X400945Y323515D01*
Y324517D01*
X400562Y325443D01*
X399853Y326152D01*
X398926Y326536D01*
D02*
G37*
G36*
X236327Y319632D02*
X234807D01*
X233340Y319239D01*
X232024Y318479D01*
X230950Y317405D01*
X230190Y316089D01*
X229797Y314622D01*
Y314310D01*
X201337D01*
Y314622D01*
X200944Y316089D01*
X200184Y317405D01*
X199110Y318479D01*
X197794Y319239D01*
X196327Y319632D01*
X194807D01*
X193340Y319239D01*
X192024Y318479D01*
X190950Y317405D01*
X190190Y316089D01*
X189797Y314622D01*
Y313103D01*
X190190Y311635D01*
X190950Y310319D01*
X192024Y309245D01*
X193340Y308485D01*
X194807Y308092D01*
X195119D01*
Y303862D01*
X195119Y303862D01*
X195250Y303546D01*
X202761Y296035D01*
X202750Y296024D01*
X202287Y295221D01*
X202047Y294326D01*
Y293399D01*
X202287Y292503D01*
X202750Y291701D01*
X203406Y291045D01*
X204208Y290582D01*
X205103Y290342D01*
X205119D01*
Y279040D01*
X203228D01*
Y273685D01*
X205064D01*
Y267638D01*
X202834D01*
Y263071D01*
X208189D01*
Y267638D01*
X205960D01*
Y273685D01*
X207796D01*
Y279040D01*
X206015D01*
Y290342D01*
X206030D01*
X206926Y290582D01*
X207728Y291045D01*
X208384Y291701D01*
X208847Y292503D01*
X209087Y293399D01*
Y294326D01*
X208847Y295221D01*
X208384Y296024D01*
X207728Y296679D01*
X206926Y297142D01*
X206030Y297382D01*
X205103D01*
X204208Y297142D01*
X203406Y296679D01*
X203395Y296668D01*
X196015Y304048D01*
Y308092D01*
X196327D01*
X197794Y308485D01*
X199110Y309245D01*
X200184Y310319D01*
X200944Y311635D01*
X201337Y313103D01*
Y313414D01*
X229797D01*
Y313103D01*
X230190Y311635D01*
X230950Y310319D01*
X232024Y309245D01*
X233340Y308485D01*
X234807Y308092D01*
X236327D01*
X237794Y308485D01*
X239110Y309245D01*
X240184Y310319D01*
X240944Y311635D01*
X241337Y313103D01*
Y314622D01*
X240944Y316089D01*
X240184Y317405D01*
X239110Y318479D01*
X237794Y319239D01*
X236327Y319632D01*
D02*
G37*
G36*
X310342Y319238D02*
X308823D01*
X307355Y318845D01*
X306040Y318086D01*
X304965Y317011D01*
X304206Y315696D01*
X303813Y314228D01*
Y313916D01*
X275353D01*
Y314228D01*
X274959Y315696D01*
X274200Y317011D01*
X273126Y318086D01*
X271810Y318845D01*
X270342Y319238D01*
X268823D01*
X267355Y318845D01*
X266040Y318086D01*
X264966Y317011D01*
X264206Y315696D01*
X263813Y314228D01*
Y312709D01*
X264206Y311241D01*
X264966Y309926D01*
X266040Y308851D01*
X267355Y308092D01*
X268823Y307698D01*
X269135D01*
Y303468D01*
X269135Y303468D01*
X269266Y303152D01*
X276777Y295641D01*
X276766Y295630D01*
X276303Y294827D01*
X276063Y293932D01*
Y293005D01*
X276303Y292110D01*
X276766Y291307D01*
X277421Y290652D01*
X278224Y290188D01*
X279119Y289949D01*
X279135D01*
Y278646D01*
X277244D01*
Y273291D01*
X279080D01*
Y267244D01*
X276850D01*
Y262677D01*
X282205D01*
Y267244D01*
X279975D01*
Y273291D01*
X281811D01*
Y278646D01*
X280030D01*
Y289949D01*
X280046D01*
X280941Y290188D01*
X281744Y290652D01*
X282399Y291307D01*
X282863Y292110D01*
X283103Y293005D01*
Y293932D01*
X282863Y294827D01*
X282399Y295630D01*
X281744Y296285D01*
X280941Y296749D01*
X280046Y296989D01*
X279119D01*
X278224Y296749D01*
X277421Y296285D01*
X277410Y296274D01*
X270030Y303654D01*
Y307698D01*
X270342D01*
X271810Y308092D01*
X273126Y308851D01*
X274200Y309926D01*
X274959Y311241D01*
X275353Y312709D01*
Y313021D01*
X303813D01*
Y312709D01*
X304206Y311241D01*
X304965Y309926D01*
X306040Y308851D01*
X307355Y308092D01*
X308823Y307698D01*
X310342D01*
X311810Y308092D01*
X313125Y308851D01*
X314200Y309926D01*
X314960Y311241D01*
X315353Y312709D01*
Y314228D01*
X314960Y315696D01*
X314200Y317011D01*
X313125Y318086D01*
X311810Y318845D01*
X310342Y319238D01*
D02*
G37*
G36*
X161523Y318695D02*
X160004D01*
X158537Y318302D01*
X157221Y317542D01*
X156147Y316468D01*
X155387Y315152D01*
X154994Y313685D01*
Y313373D01*
X126534D01*
Y313685D01*
X126141Y315152D01*
X125381Y316468D01*
X124307Y317542D01*
X122991Y318302D01*
X121523Y318695D01*
X120004D01*
X118537Y318302D01*
X117221Y317542D01*
X116147Y316468D01*
X115387Y315152D01*
X114994Y313685D01*
Y312165D01*
X115387Y310698D01*
X116147Y309382D01*
X117221Y308308D01*
X118537Y307548D01*
X120004Y307155D01*
X120316D01*
Y302925D01*
X120316Y302925D01*
X120447Y302609D01*
X127958Y295098D01*
X127947Y295087D01*
X127484Y294284D01*
X127244Y293389D01*
Y292462D01*
X127484Y291566D01*
X127947Y290764D01*
X128602Y290108D01*
X129405Y289645D01*
X130300Y289405D01*
X130316D01*
Y278103D01*
X128425D01*
Y272748D01*
X130261D01*
Y266701D01*
X128031D01*
Y262134D01*
X133386D01*
Y266701D01*
X131156D01*
Y272748D01*
X132992D01*
Y278103D01*
X131212D01*
Y289405D01*
X131227D01*
X132123Y289645D01*
X132925Y290108D01*
X133581Y290764D01*
X134044Y291566D01*
X134284Y292462D01*
Y293389D01*
X134044Y294284D01*
X133581Y295087D01*
X132925Y295742D01*
X132123Y296205D01*
X131227Y296445D01*
X130300D01*
X129405Y296205D01*
X128602Y295742D01*
X128591Y295731D01*
X121212Y303111D01*
Y307155D01*
X121523D01*
X122991Y307548D01*
X124307Y308308D01*
X125381Y309382D01*
X126141Y310698D01*
X126534Y312165D01*
Y312477D01*
X154994D01*
Y312165D01*
X155387Y310698D01*
X156147Y309382D01*
X157221Y308308D01*
X158537Y307548D01*
X160004Y307155D01*
X161523D01*
X162991Y307548D01*
X164307Y308308D01*
X165381Y309382D01*
X166141Y310698D01*
X166534Y312165D01*
Y313685D01*
X166141Y315152D01*
X165381Y316468D01*
X164307Y317542D01*
X162991Y318302D01*
X161523Y318695D01*
D02*
G37*
G36*
X39871Y313937D02*
X38869D01*
X37943Y313554D01*
X37234Y312845D01*
X36850Y311919D01*
Y310916D01*
X37234Y309990D01*
X37943Y309281D01*
X38869Y308897D01*
X39871D01*
X40798Y309281D01*
X41506Y309990D01*
X41890Y310916D01*
Y311919D01*
X41506Y312845D01*
X40798Y313554D01*
X39871Y313937D01*
D02*
G37*
G36*
X216030Y297382D02*
X215104D01*
X214208Y297142D01*
X213406Y296679D01*
X212750Y296024D01*
X212287Y295221D01*
X212047Y294326D01*
Y293399D01*
X212287Y292503D01*
X212750Y291701D01*
X213406Y291045D01*
X214208Y290582D01*
X215104Y290342D01*
X215119D01*
Y282205D01*
X213071D01*
Y277638D01*
X218425D01*
Y282205D01*
X216015D01*
Y290342D01*
X216030D01*
X216926Y290582D01*
X217728Y291045D01*
X218384Y291701D01*
X218847Y292503D01*
X219087Y293399D01*
Y294326D01*
X218847Y295221D01*
X218384Y296024D01*
X217728Y296679D01*
X216926Y297142D01*
X216030Y297382D01*
D02*
G37*
G36*
X290046Y296989D02*
X289119D01*
X288224Y296749D01*
X287421Y296285D01*
X286766Y295630D01*
X286303Y294827D01*
X286063Y293932D01*
Y293005D01*
X286303Y292110D01*
X286766Y291307D01*
X287421Y290652D01*
X288224Y290188D01*
X289119Y289949D01*
X289135D01*
Y281811D01*
X287086D01*
Y277244D01*
X292441D01*
Y281811D01*
X290031D01*
Y289949D01*
X290046D01*
X290941Y290188D01*
X291744Y290652D01*
X292399Y291307D01*
X292863Y292110D01*
X293103Y293005D01*
Y293932D01*
X292863Y294827D01*
X292399Y295630D01*
X291744Y296285D01*
X290941Y296749D01*
X290046Y296989D01*
D02*
G37*
G36*
X201886Y280020D02*
X199122D01*
Y276862D01*
X201886D01*
Y280020D01*
D02*
G37*
G36*
X198122D02*
X195358D01*
Y276862D01*
X198122D01*
Y280020D01*
D02*
G37*
G36*
X141227Y296445D02*
X140300D01*
X139405Y296205D01*
X138602Y295742D01*
X137947Y295087D01*
X137484Y294284D01*
X137244Y293389D01*
Y292462D01*
X137484Y291566D01*
X137947Y290764D01*
X138602Y290108D01*
X139405Y289645D01*
X140300Y289405D01*
X140316D01*
Y281268D01*
X138267D01*
Y276700D01*
X143622D01*
Y281268D01*
X141212D01*
Y289405D01*
X141227D01*
X142122Y289645D01*
X142925Y290108D01*
X143580Y290764D01*
X144044Y291566D01*
X144284Y292462D01*
Y293389D01*
X144044Y294284D01*
X143580Y295087D01*
X142925Y295742D01*
X142122Y296205D01*
X141227Y296445D01*
D02*
G37*
G36*
X275902Y279626D02*
X273138D01*
Y276468D01*
X275902D01*
Y279626D01*
D02*
G37*
G36*
X272138D02*
X269374D01*
Y276468D01*
X272138D01*
Y279626D01*
D02*
G37*
G36*
X127083Y279083D02*
X124319D01*
Y275925D01*
X127083D01*
Y279083D01*
D02*
G37*
G36*
X123319D02*
X120555D01*
Y275925D01*
X123319D01*
Y279083D01*
D02*
G37*
G36*
X201886Y275862D02*
X199122D01*
Y272705D01*
X201886D01*
Y275862D01*
D02*
G37*
G36*
X198122D02*
X195358D01*
Y272705D01*
X198122D01*
Y275862D01*
D02*
G37*
G36*
X275902Y275468D02*
X273138D01*
Y272311D01*
X275902D01*
Y275468D01*
D02*
G37*
G36*
X272138D02*
X269374D01*
Y272311D01*
X272138D01*
Y275468D01*
D02*
G37*
G36*
X127083Y274925D02*
X124319D01*
Y271768D01*
X127083D01*
Y274925D01*
D02*
G37*
G36*
X123319D02*
X120555D01*
Y271768D01*
X123319D01*
Y274925D01*
D02*
G37*
G36*
X227279Y267043D02*
X224122D01*
Y263492D01*
X227279D01*
Y267043D01*
D02*
G37*
G36*
X223122D02*
X219965D01*
Y263492D01*
X223122D01*
Y267043D01*
D02*
G37*
G36*
X301295Y266650D02*
X298138D01*
Y263098D01*
X301295D01*
Y266650D01*
D02*
G37*
G36*
X297138D02*
X293980D01*
Y263098D01*
X297138D01*
Y266650D01*
D02*
G37*
G36*
X152476Y266106D02*
X149319D01*
Y262555D01*
X152476D01*
Y266106D01*
D02*
G37*
G36*
X148319D02*
X145161D01*
Y262555D01*
X148319D01*
Y266106D01*
D02*
G37*
G36*
X227279Y262492D02*
X224122D01*
Y258941D01*
X227279D01*
Y262492D01*
D02*
G37*
G36*
X223122D02*
X219965D01*
Y258941D01*
X223122D01*
Y262492D01*
D02*
G37*
G36*
X301295Y262098D02*
X298138D01*
Y258547D01*
X301295D01*
Y262098D01*
D02*
G37*
G36*
X297138D02*
X293980D01*
Y258547D01*
X297138D01*
Y262098D01*
D02*
G37*
G36*
X152476Y261555D02*
X149319D01*
Y258004D01*
X152476D01*
Y261555D01*
D02*
G37*
G36*
X148319D02*
X145161D01*
Y258004D01*
X148319D01*
Y261555D01*
D02*
G37*
G36*
X218425Y275315D02*
X213071D01*
Y270748D01*
X215300D01*
Y266063D01*
X213071D01*
Y259921D01*
X215300D01*
Y255925D01*
X212480D01*
Y251161D01*
X219016D01*
Y255925D01*
X216196D01*
Y259921D01*
X218425D01*
Y266063D01*
X216196D01*
Y270748D01*
X218425D01*
Y275315D01*
D02*
G37*
G36*
X292441Y274922D02*
X287086D01*
Y270354D01*
X289316D01*
Y265670D01*
X287086D01*
Y259527D01*
X289316D01*
Y255532D01*
X286496D01*
Y250767D01*
X293032D01*
Y255532D01*
X290212D01*
Y259527D01*
X292441D01*
Y265670D01*
X290212D01*
Y270354D01*
X292441D01*
Y274922D01*
D02*
G37*
G36*
X143622Y274378D02*
X138267D01*
Y269811D01*
X140497D01*
Y265126D01*
X138267D01*
Y258984D01*
X140497D01*
Y254989D01*
X137677D01*
Y250224D01*
X144213D01*
Y254989D01*
X141393D01*
Y258984D01*
X143622D01*
Y265126D01*
X141393D01*
Y269811D01*
X143622D01*
Y274378D01*
D02*
G37*
G36*
X293032Y244508D02*
X286496D01*
Y239744D01*
X286496Y239744D01*
X286496D01*
X286316Y239312D01*
X247716Y200712D01*
X39305D01*
X39138Y201335D01*
X38772Y201968D01*
X38256Y202485D01*
X37623Y202851D01*
X36917Y203040D01*
X36186D01*
X35480Y202851D01*
X34847Y202485D01*
X34330Y201968D01*
X33964Y201335D01*
X33775Y200629D01*
Y199898D01*
X33964Y199192D01*
X34330Y198559D01*
X34847Y198043D01*
X35480Y197677D01*
X36186Y197488D01*
X36917D01*
X37623Y197677D01*
X38256Y198043D01*
X38772Y198559D01*
X39138Y199192D01*
X39305Y199816D01*
X247902D01*
X247902Y199816D01*
X248218Y199947D01*
X288015Y239744D01*
X293032D01*
Y244508D01*
D02*
G37*
G36*
X40676Y243008D02*
X39427D01*
X38220Y242685D01*
X37138Y242060D01*
X36255Y241177D01*
X35630Y240095D01*
X35307Y238888D01*
Y238712D01*
X23911D01*
X23911Y238712D01*
X23594Y238580D01*
X19418Y234404D01*
X19287Y234087D01*
X19287Y234087D01*
Y116440D01*
X19287Y116440D01*
X19418Y116124D01*
X23594Y111947D01*
X23911Y111816D01*
X23911Y111816D01*
X35307D01*
Y111639D01*
X35630Y110433D01*
X36255Y109351D01*
X37138Y108467D01*
X38220Y107843D01*
X39427Y107519D01*
X40676D01*
X41883Y107843D01*
X42964Y108467D01*
X43848Y109351D01*
X44472Y110433D01*
X44796Y111639D01*
Y111816D01*
X63476D01*
X63476Y111816D01*
X63793Y111947D01*
X71296Y119450D01*
X84836D01*
Y111256D01*
X82015D01*
Y106492D01*
X88551D01*
Y111256D01*
X85731D01*
Y119318D01*
X85863Y119450D01*
X94433D01*
Y118877D01*
X94495Y118562D01*
X94673Y118296D01*
X94940Y118117D01*
X95254Y118055D01*
X100848D01*
X101162Y118117D01*
X101429Y118296D01*
X101607Y118562D01*
X101670Y118877D01*
Y122068D01*
X101607Y122383D01*
X101429Y122649D01*
X101162Y122828D01*
X100848Y122890D01*
X95254D01*
X94940Y122828D01*
X94673Y122649D01*
X94495Y122383D01*
X94433Y122068D01*
Y120345D01*
X85677D01*
X85677Y120345D01*
X85677Y120345D01*
X71110D01*
X71110Y120345D01*
X70794Y120214D01*
X70794Y120214D01*
X63291Y112712D01*
X44796D01*
Y112888D01*
X44472Y114095D01*
X43848Y115177D01*
X42964Y116060D01*
X41883Y116685D01*
X40676Y117008D01*
X39427D01*
X38220Y116685D01*
X37138Y116060D01*
X36255Y115177D01*
X35630Y114095D01*
X35307Y112888D01*
Y112712D01*
X28824D01*
X28724Y113212D01*
X29594Y113572D01*
X30646Y114275D01*
X31540Y115169D01*
X32243Y116221D01*
X32727Y117390D01*
X32974Y118631D01*
Y119896D01*
X32727Y121137D01*
X32243Y122306D01*
X31540Y123358D01*
X30646Y124253D01*
X29594Y124956D01*
X28425Y125440D01*
X27184Y125687D01*
X25919D01*
X24678Y125440D01*
X23509Y124956D01*
X22457Y124253D01*
X21562Y123358D01*
X20859Y122306D01*
X20682Y121879D01*
X20182Y121979D01*
Y228549D01*
X20682Y228648D01*
X20859Y228221D01*
X21562Y227169D01*
X22457Y226275D01*
X23509Y225572D01*
X24678Y225088D01*
X25919Y224841D01*
X27184D01*
X28425Y225088D01*
X29594Y225572D01*
X30646Y226275D01*
X31540Y227169D01*
X32243Y228221D01*
X32727Y229390D01*
X32974Y230631D01*
Y231896D01*
X32727Y233137D01*
X32243Y234306D01*
X31540Y235358D01*
X30646Y236253D01*
X29594Y236956D01*
X28724Y237316D01*
X28824Y237816D01*
X35307D01*
Y237639D01*
X35630Y236433D01*
X36255Y235351D01*
X37138Y234467D01*
X38220Y233843D01*
X39427Y233519D01*
X40676D01*
X41883Y233843D01*
X42964Y234467D01*
X43848Y235351D01*
X44472Y236433D01*
X44796Y237639D01*
Y238888D01*
X44472Y240095D01*
X43848Y241177D01*
X42964Y242060D01*
X41883Y242685D01*
X40676Y243008D01*
D02*
G37*
G36*
X403795Y229101D02*
X402276D01*
X400808Y228708D01*
X399493Y227948D01*
X398418Y226874D01*
X397659Y225558D01*
X397265Y224090D01*
Y223779D01*
X393036D01*
X393035Y223779D01*
X392719Y223647D01*
X392719Y223647D01*
X385208Y216136D01*
X385197Y216147D01*
X384394Y216611D01*
X383499Y216851D01*
X382572D01*
X381677Y216611D01*
X380874Y216147D01*
X380219Y215492D01*
X379755Y214689D01*
X379515Y213794D01*
Y213778D01*
X368213D01*
Y215670D01*
X362858D01*
Y213834D01*
X356811D01*
Y216063D01*
X352244D01*
Y210708D01*
X356811D01*
Y212938D01*
X362858D01*
Y211102D01*
X368213D01*
Y212883D01*
X379515D01*
Y212867D01*
X379755Y211972D01*
X380219Y211169D01*
X380874Y210514D01*
X381677Y210051D01*
X382572Y209811D01*
X383499D01*
X384394Y210051D01*
X385197Y210514D01*
X385852Y211169D01*
X386315Y211972D01*
X386555Y212867D01*
Y213794D01*
X386315Y214689D01*
X385852Y215492D01*
X385841Y215503D01*
X393221Y222883D01*
X397265D01*
Y222571D01*
X397659Y221104D01*
X398418Y219788D01*
X399493Y218714D01*
X400808Y217954D01*
X402276Y217561D01*
X402588D01*
Y189101D01*
X402276D01*
X400808Y188707D01*
X399493Y187948D01*
X398418Y186874D01*
X397659Y185558D01*
X397265Y184090D01*
Y182571D01*
X397659Y181104D01*
X398418Y179788D01*
X399493Y178714D01*
X400808Y177954D01*
X402276Y177561D01*
X403795D01*
X405263Y177954D01*
X406578Y178714D01*
X407653Y179788D01*
X408412Y181104D01*
X408805Y182571D01*
Y184090D01*
X408412Y185558D01*
X407653Y186874D01*
X406578Y187948D01*
X405263Y188707D01*
X403795Y189101D01*
X403483D01*
Y217561D01*
X403795D01*
X405263Y217954D01*
X406578Y218714D01*
X407653Y219788D01*
X408412Y221104D01*
X408805Y222571D01*
Y224090D01*
X408412Y225558D01*
X407653Y226874D01*
X406578Y227948D01*
X405263Y228708D01*
X403795Y229101D01*
D02*
G37*
G36*
X369193Y223539D02*
X366035D01*
Y220776D01*
X369193D01*
Y223539D01*
D02*
G37*
G36*
X365035D02*
X361878D01*
Y220776D01*
X365035D01*
Y223539D01*
D02*
G37*
G36*
X133386Y259811D02*
X128031D01*
Y255244D01*
X130261D01*
Y234437D01*
X116535Y220712D01*
X46305D01*
X46138Y221335D01*
X45772Y221968D01*
X45256Y222485D01*
X44623Y222850D01*
X43917Y223040D01*
X43186D01*
X42480Y222850D01*
X41847Y222485D01*
X41330Y221968D01*
X40964Y221335D01*
X40775Y220629D01*
Y219898D01*
X40964Y219192D01*
X41330Y218559D01*
X41847Y218042D01*
X42480Y217677D01*
X43186Y217488D01*
X43917D01*
X44623Y217677D01*
X45256Y218042D01*
X45772Y218559D01*
X46138Y219192D01*
X46305Y219816D01*
X116720D01*
X116720Y219816D01*
X117037Y219947D01*
X131025Y233935D01*
X131025Y233935D01*
X131157Y234252D01*
X131157Y234252D01*
Y255244D01*
X133386D01*
Y259811D01*
D02*
G37*
G36*
X369193Y219776D02*
X366035D01*
Y217012D01*
X369193D01*
Y219776D01*
D02*
G37*
G36*
X365035D02*
X361878D01*
Y217012D01*
X365035D01*
Y219776D01*
D02*
G37*
G36*
X144213Y243965D02*
X137677D01*
Y239834D01*
X114555Y216712D01*
X39305D01*
X39138Y217335D01*
X38772Y217968D01*
X38256Y218485D01*
X37623Y218850D01*
X36917Y219040D01*
X36186D01*
X35480Y218850D01*
X34847Y218485D01*
X34330Y217968D01*
X33964Y217335D01*
X33775Y216629D01*
Y215898D01*
X33964Y215192D01*
X34330Y214559D01*
X34847Y214042D01*
X35480Y213677D01*
X36186Y213488D01*
X36917D01*
X37623Y213677D01*
X38256Y214042D01*
X38772Y214559D01*
X39138Y215192D01*
X39305Y215816D01*
X114740D01*
X114740Y215816D01*
X115057Y215947D01*
X138310Y239200D01*
X144213D01*
Y243965D01*
D02*
G37*
G36*
X349922Y216063D02*
X345354D01*
Y213834D01*
X279528D01*
X279528Y213834D01*
X279211Y213703D01*
X279211Y213702D01*
X262220Y196712D01*
X46305D01*
X46138Y197335D01*
X45772Y197968D01*
X45256Y198485D01*
X44623Y198851D01*
X43917Y199040D01*
X43186D01*
X42480Y198851D01*
X41847Y198485D01*
X41330Y197968D01*
X40964Y197335D01*
X40775Y196629D01*
Y195898D01*
X40964Y195192D01*
X41330Y194559D01*
X41847Y194043D01*
X42480Y193677D01*
X43186Y193488D01*
X43917D01*
X44623Y193677D01*
X45256Y194043D01*
X45772Y194559D01*
X46138Y195192D01*
X46305Y195816D01*
X262405D01*
X262405Y195816D01*
X262722Y195947D01*
X279713Y212938D01*
X345354D01*
Y210708D01*
X349922D01*
Y216063D01*
D02*
G37*
G36*
X282205Y260355D02*
X276850D01*
Y256420D01*
X233870Y213440D01*
X195570D01*
X195566Y213450D01*
X195339Y213677D01*
X195043Y213800D01*
X194721D01*
X194424Y213677D01*
X194197Y213450D01*
X194074Y213153D01*
Y212831D01*
X194197Y212535D01*
X194424Y212308D01*
X194721Y212185D01*
X195043D01*
X195339Y212308D01*
X195566Y212535D01*
X195570Y212544D01*
X234055D01*
X234055Y212544D01*
X234372Y212675D01*
X277483Y255787D01*
X282205D01*
Y260355D01*
D02*
G37*
G36*
X43917Y215040D02*
X43186D01*
X42480Y214850D01*
X41847Y214485D01*
X41330Y213968D01*
X40964Y213335D01*
X40775Y212629D01*
Y211898D01*
X40964Y211192D01*
X41330Y210559D01*
X41847Y210043D01*
X42480Y209677D01*
X43186Y209488D01*
X43917D01*
X44623Y209677D01*
X45256Y210043D01*
X45772Y210559D01*
X46138Y211192D01*
X46327Y211898D01*
Y212544D01*
X93800D01*
X93804Y212535D01*
X94031Y212308D01*
X94328Y212185D01*
X94649D01*
X94946Y212308D01*
X95173Y212535D01*
X95296Y212831D01*
Y213153D01*
X95173Y213450D01*
X94946Y213677D01*
X94649Y213800D01*
X94328D01*
X94031Y213677D01*
X93804Y213450D01*
X93800Y213440D01*
X46077D01*
X45772Y213968D01*
X45256Y214485D01*
X44623Y214850D01*
X43917Y215040D01*
D02*
G37*
G36*
X208189Y260748D02*
X202834D01*
Y256814D01*
X154732Y208712D01*
X39305D01*
X39138Y209335D01*
X38772Y209968D01*
X38256Y210485D01*
X37623Y210851D01*
X36917Y211040D01*
X36186D01*
X35480Y210851D01*
X34847Y210485D01*
X34330Y209968D01*
X33964Y209335D01*
X33775Y208629D01*
Y207898D01*
X33964Y207192D01*
X34330Y206559D01*
X34847Y206043D01*
X35480Y205677D01*
X36186Y205488D01*
X36917D01*
X37623Y205677D01*
X38256Y206043D01*
X38772Y206559D01*
X39138Y207192D01*
X39305Y207816D01*
X154917D01*
X154917Y207816D01*
X155234Y207947D01*
X203468Y256181D01*
X208189D01*
Y260748D01*
D02*
G37*
G36*
X219016Y244902D02*
X212480D01*
Y240771D01*
X176421Y204712D01*
X46305D01*
X46138Y205335D01*
X45772Y205968D01*
X45256Y206485D01*
X44623Y206851D01*
X43917Y207040D01*
X43186D01*
X42480Y206851D01*
X41847Y206485D01*
X41330Y205968D01*
X40964Y205335D01*
X40775Y204629D01*
Y203898D01*
X40964Y203192D01*
X41330Y202559D01*
X41847Y202043D01*
X42480Y201677D01*
X43186Y201488D01*
X43917D01*
X44623Y201677D01*
X45256Y202043D01*
X45772Y202559D01*
X46138Y203192D01*
X46305Y203816D01*
X176606D01*
X176606Y203816D01*
X176923Y203947D01*
X213113Y240138D01*
X219016D01*
Y244902D01*
D02*
G37*
G36*
X383499Y206851D02*
X382572D01*
X381677Y206611D01*
X380874Y206147D01*
X380219Y205492D01*
X379755Y204689D01*
X379515Y203794D01*
Y203779D01*
X371378D01*
Y205827D01*
X366811D01*
Y200472D01*
X371378D01*
Y202883D01*
X379515D01*
Y202867D01*
X379755Y201972D01*
X380219Y201169D01*
X380874Y200514D01*
X381677Y200051D01*
X382572Y199811D01*
X383499D01*
X384394Y200051D01*
X385197Y200514D01*
X385852Y201169D01*
X386315Y201972D01*
X386555Y202867D01*
Y203794D01*
X386315Y204689D01*
X385852Y205492D01*
X385197Y206147D01*
X384394Y206611D01*
X383499Y206851D01*
D02*
G37*
G36*
X334075Y206418D02*
X329311D01*
Y203597D01*
X288583D01*
X288583Y203597D01*
X288266Y203466D01*
X288266Y203466D01*
X277511Y192712D01*
X39327D01*
Y195040D01*
X33775D01*
Y189488D01*
X39327D01*
Y191816D01*
X277697D01*
X277697Y191816D01*
X278013Y191947D01*
X288768Y202702D01*
X329311D01*
Y199882D01*
X334075D01*
Y206418D01*
D02*
G37*
G36*
X345099D02*
X340334D01*
Y199882D01*
X345099D01*
Y202702D01*
X349094D01*
Y200472D01*
X355237D01*
Y202702D01*
X359921D01*
Y200472D01*
X364489D01*
Y205827D01*
X359921D01*
Y203597D01*
X355237D01*
Y205827D01*
X349094D01*
Y203597D01*
X345099D01*
Y206418D01*
D02*
G37*
G36*
X356217Y198933D02*
X352665D01*
Y195776D01*
X356217D01*
Y198933D01*
D02*
G37*
G36*
X351665D02*
X348114D01*
Y195776D01*
X351665D01*
Y198933D01*
D02*
G37*
G36*
X356217Y194776D02*
X352665D01*
Y191618D01*
X356217D01*
Y194776D01*
D02*
G37*
G36*
X351665D02*
X348114D01*
Y191618D01*
X351665D01*
Y194776D01*
D02*
G37*
G36*
X146171Y182048D02*
X145168D01*
X144242Y181664D01*
X143533Y180955D01*
X143149Y180029D01*
Y179026D01*
X143533Y178100D01*
X144242Y177391D01*
X145168Y177008D01*
X146171D01*
X147097Y177391D01*
X147806Y178100D01*
X148189Y179026D01*
Y180029D01*
X147806Y180955D01*
X147097Y181664D01*
X146171Y182048D01*
D02*
G37*
G36*
X403008Y157053D02*
X401488D01*
X400021Y156660D01*
X398705Y155901D01*
X397631Y154826D01*
X396871Y153511D01*
X396478Y152043D01*
Y151731D01*
X392248D01*
X392248Y151731D01*
X391931Y151600D01*
X391931Y151600D01*
X384420Y144089D01*
X384409Y144100D01*
X383607Y144564D01*
X382711Y144804D01*
X381785D01*
X380889Y144564D01*
X380087Y144100D01*
X379431Y143445D01*
X378968Y142642D01*
X378728Y141747D01*
Y141731D01*
X367425D01*
Y143622D01*
X362070D01*
Y141786D01*
X356024D01*
Y144016D01*
X351456D01*
Y138661D01*
X356024D01*
Y140891D01*
X362070D01*
Y139055D01*
X367425D01*
Y140836D01*
X378728D01*
Y140820D01*
X378968Y139925D01*
X379431Y139122D01*
X380087Y138467D01*
X380889Y138003D01*
X381785Y137764D01*
X382711D01*
X383607Y138003D01*
X384409Y138467D01*
X385065Y139122D01*
X385528Y139925D01*
X385768Y140820D01*
Y141747D01*
X385528Y142642D01*
X385065Y143445D01*
X385054Y143456D01*
X392434Y150836D01*
X396478D01*
Y150524D01*
X396871Y149056D01*
X397631Y147741D01*
X398705Y146666D01*
X400021Y145907D01*
X401488Y145513D01*
X401800D01*
Y117053D01*
X401488D01*
X400021Y116660D01*
X398705Y115901D01*
X397631Y114826D01*
X396871Y113511D01*
X396478Y112043D01*
Y110524D01*
X396871Y109056D01*
X397631Y107741D01*
X398705Y106666D01*
X400021Y105907D01*
X401488Y105514D01*
X403008D01*
X404475Y105907D01*
X405791Y106666D01*
X406865Y107741D01*
X407625Y109056D01*
X408018Y110524D01*
Y112043D01*
X407625Y113511D01*
X406865Y114826D01*
X405791Y115901D01*
X404475Y116660D01*
X403008Y117053D01*
X402696D01*
Y145513D01*
X403008D01*
X404475Y145907D01*
X405791Y146666D01*
X406865Y147741D01*
X407625Y149056D01*
X408018Y150524D01*
Y152043D01*
X407625Y153511D01*
X406865Y154826D01*
X405791Y155901D01*
X404475Y156660D01*
X403008Y157053D01*
D02*
G37*
G36*
X43917Y153040D02*
X43186D01*
X42480Y152850D01*
X41847Y152485D01*
X41330Y151968D01*
X40964Y151335D01*
X40775Y150629D01*
Y149898D01*
X40964Y149192D01*
X41330Y148559D01*
X41847Y148043D01*
X42480Y147677D01*
X43186Y147488D01*
X43917D01*
X44623Y147677D01*
X45256Y148043D01*
X45772Y148559D01*
X46138Y149192D01*
X46327Y149898D01*
Y150583D01*
X224260D01*
X224346Y150497D01*
X224642Y150374D01*
X224964D01*
X225260Y150497D01*
X225488Y150724D01*
X225611Y151021D01*
Y151342D01*
X225488Y151638D01*
X225260Y151866D01*
X224964Y151988D01*
X224642D01*
X224346Y151866D01*
X224119Y151638D01*
X224052Y151478D01*
X46055D01*
X45772Y151968D01*
X45256Y152485D01*
X44623Y152850D01*
X43917Y153040D01*
D02*
G37*
G36*
X368406Y151492D02*
X365248D01*
Y148728D01*
X368406D01*
Y151492D01*
D02*
G37*
G36*
X364248D02*
X361090D01*
Y148728D01*
X364248D01*
Y151492D01*
D02*
G37*
G36*
X368406Y147728D02*
X365248D01*
Y144965D01*
X368406D01*
Y147728D01*
D02*
G37*
G36*
X364248D02*
X361090D01*
Y144965D01*
X364248D01*
Y147728D01*
D02*
G37*
G36*
X53398Y168558D02*
X53081Y168427D01*
Y168427D01*
X45182Y160528D01*
X44623Y160851D01*
X43917Y161040D01*
X43186D01*
X42480Y160851D01*
X41847Y160485D01*
X41330Y159968D01*
X40964Y159335D01*
X40775Y158629D01*
Y157898D01*
X40964Y157192D01*
X41330Y156559D01*
X41847Y156043D01*
X42480Y155677D01*
X43186Y155488D01*
X43917D01*
X44623Y155677D01*
X45256Y156043D01*
X45772Y156559D01*
X46138Y157192D01*
X46327Y157898D01*
Y158629D01*
X46138Y159335D01*
X45815Y159894D01*
X53583Y167662D01*
X319893D01*
X344567Y142989D01*
Y138661D01*
X349134D01*
Y144016D01*
X344806D01*
X320395Y168427D01*
X320079Y168558D01*
X320079Y168558D01*
X53398D01*
X53398Y168558D01*
D02*
G37*
G36*
X382711Y134803D02*
X381785D01*
X380889Y134564D01*
X380087Y134100D01*
X379431Y133445D01*
X378968Y132642D01*
X378728Y131747D01*
Y131731D01*
X370591D01*
Y133780D01*
X366023D01*
Y128425D01*
X370591D01*
Y130836D01*
X378728D01*
Y130820D01*
X378968Y129925D01*
X379431Y129122D01*
X380087Y128467D01*
X380889Y128003D01*
X381785Y127763D01*
X382711D01*
X383607Y128003D01*
X384409Y128467D01*
X385065Y129122D01*
X385528Y129925D01*
X385768Y130820D01*
Y131747D01*
X385528Y132642D01*
X385065Y133445D01*
X384409Y134100D01*
X383607Y134564D01*
X382711Y134803D01*
D02*
G37*
G36*
X344311Y134370D02*
X339547D01*
Y127834D01*
X344311D01*
Y130655D01*
X348307D01*
Y128425D01*
X354449D01*
Y130655D01*
X359134D01*
Y128425D01*
X363701D01*
Y133780D01*
X359134D01*
Y131550D01*
X354449D01*
Y133780D01*
X348307D01*
Y131550D01*
X344311D01*
Y134370D01*
D02*
G37*
G36*
X36917Y157040D02*
X36186D01*
X35480Y156851D01*
X34847Y156485D01*
X34330Y155968D01*
X33964Y155335D01*
X33775Y154629D01*
Y153898D01*
X33964Y153192D01*
X34330Y152559D01*
X34847Y152042D01*
X35480Y151677D01*
X36186Y151488D01*
X36917D01*
X37623Y151677D01*
X38256Y152042D01*
X38772Y152559D01*
X39138Y153192D01*
X39305Y153816D01*
X307559D01*
X328523Y132851D01*
Y127834D01*
X333288D01*
Y134370D01*
X328523D01*
X328523Y134370D01*
Y134370D01*
X328091Y134550D01*
X308061Y154580D01*
X307744Y154712D01*
X307744Y154712D01*
X39305D01*
X39138Y155335D01*
X38772Y155968D01*
X38256Y156485D01*
X37623Y156851D01*
X36917Y157040D01*
D02*
G37*
G36*
X355429Y126886D02*
X351878D01*
Y123728D01*
X355429D01*
Y126886D01*
D02*
G37*
G36*
X350878D02*
X347327D01*
Y123728D01*
X350878D01*
Y126886D01*
D02*
G37*
G36*
X355429Y122728D02*
X351878D01*
Y119571D01*
X355429D01*
Y122728D01*
D02*
G37*
G36*
X350878D02*
X347327D01*
Y119571D01*
X350878D01*
Y122728D01*
D02*
G37*
G36*
X100848Y112472D02*
X98551D01*
Y109555D01*
X102669D01*
Y110651D01*
X102530Y111348D01*
X102136Y111939D01*
X101545Y112333D01*
X100848Y112472D01*
D02*
G37*
G36*
X97551D02*
X95254D01*
X94558Y112333D01*
X93967Y111939D01*
X93572Y111348D01*
X93433Y110651D01*
Y109555D01*
X97551D01*
Y112472D01*
D02*
G37*
G36*
X102669Y108555D02*
X98551D01*
Y105638D01*
X100848D01*
X101545Y105777D01*
X102136Y106172D01*
X102530Y106762D01*
X102669Y107459D01*
Y108555D01*
D02*
G37*
G36*
X97551D02*
X93433D01*
Y107459D01*
X93572Y106762D01*
X93967Y106172D01*
X94558Y105777D01*
X95254Y105638D01*
X97551D01*
Y108555D01*
D02*
G37*
G36*
X43917Y145040D02*
X43186D01*
X42480Y144851D01*
X41847Y144485D01*
X41330Y143968D01*
X40964Y143335D01*
X40775Y142629D01*
Y141898D01*
X40964Y141192D01*
X41330Y140559D01*
X41847Y140042D01*
X42480Y139677D01*
X43186Y139488D01*
X43917D01*
X44623Y139677D01*
X45256Y140042D01*
X45772Y140559D01*
X46138Y141192D01*
X46305Y141816D01*
X247216D01*
X284527Y104505D01*
Y100374D01*
X291063D01*
Y105138D01*
X285160D01*
X247718Y142580D01*
X247402Y142712D01*
X247401Y142712D01*
X46305D01*
X46138Y143335D01*
X45772Y143968D01*
X45256Y144485D01*
X44623Y144851D01*
X43917Y145040D01*
D02*
G37*
G36*
X39327Y133040D02*
X33775D01*
Y127488D01*
X39327D01*
Y129816D01*
X130574D01*
X140891Y119500D01*
Y105138D01*
X138071D01*
Y100374D01*
X144607D01*
Y105138D01*
X141786D01*
Y119685D01*
X141786Y119685D01*
X141655Y120002D01*
X141655Y120002D01*
X131077Y130580D01*
X130760Y130712D01*
X130760Y130712D01*
X39327D01*
Y133040D01*
D02*
G37*
G36*
X36917Y141040D02*
X36186D01*
X35480Y140850D01*
X34847Y140485D01*
X34330Y139968D01*
X33964Y139335D01*
X33775Y138629D01*
Y137898D01*
X33964Y137192D01*
X34330Y136559D01*
X34847Y136042D01*
X35480Y135677D01*
X36186Y135488D01*
X36917D01*
X37623Y135677D01*
X38256Y136042D01*
X38772Y136559D01*
X39138Y137192D01*
X39305Y137816D01*
X196590D01*
X214119Y120287D01*
Y104744D01*
X211299D01*
Y99980D01*
X217835D01*
Y104744D01*
X215015D01*
Y120472D01*
X215015Y120473D01*
X214884Y120789D01*
X197092Y138580D01*
X196776Y138712D01*
X196776Y138712D01*
X39305D01*
X39138Y139335D01*
X38772Y139968D01*
X38256Y140485D01*
X37623Y140850D01*
X36917Y141040D01*
D02*
G37*
G36*
X89531Y101213D02*
X85783D01*
Y98350D01*
X89531D01*
Y101213D01*
D02*
G37*
G36*
X84784D02*
X81035D01*
Y98350D01*
X84784D01*
Y101213D01*
D02*
G37*
G36*
X89531Y97350D02*
X85783D01*
Y94488D01*
X89531D01*
Y97350D01*
D02*
G37*
G36*
X84784D02*
X81035D01*
Y94488D01*
X84784D01*
Y97350D01*
D02*
G37*
G36*
X36917Y149040D02*
X36186D01*
X35480Y148851D01*
X34847Y148485D01*
X34330Y147968D01*
X33964Y147335D01*
X33775Y146629D01*
Y145898D01*
X33964Y145192D01*
X34330Y144559D01*
X34847Y144043D01*
X35480Y143677D01*
X36186Y143488D01*
X36917D01*
X37623Y143677D01*
X38256Y144043D01*
X38772Y144559D01*
X39138Y145192D01*
X39305Y145816D01*
X280322D01*
X297190Y128948D01*
Y89095D01*
X295354D01*
Y84527D01*
X300709D01*
Y89095D01*
X298086D01*
Y129134D01*
X298086Y129134D01*
X297954Y129451D01*
X297954Y129451D01*
X280824Y146580D01*
X280508Y146712D01*
X280508Y146712D01*
X39305D01*
X39138Y147335D01*
X38772Y147968D01*
X38256Y148485D01*
X37623Y148851D01*
X36917Y149040D01*
D02*
G37*
G36*
X43917Y137040D02*
X43186D01*
X42480Y136851D01*
X41847Y136485D01*
X41330Y135968D01*
X40964Y135335D01*
X40775Y134629D01*
Y133898D01*
X40964Y133192D01*
X41330Y132559D01*
X41847Y132043D01*
X42480Y131677D01*
X43186Y131488D01*
X43917D01*
X44623Y131677D01*
X45256Y132043D01*
X45772Y132559D01*
X46138Y133192D01*
X46305Y133816D01*
X137598D01*
X151127Y120287D01*
Y89095D01*
X148897D01*
Y84527D01*
X154252D01*
Y89095D01*
X152023D01*
Y120472D01*
X152023Y120473D01*
X151892Y120789D01*
X151891Y120789D01*
X138100Y134580D01*
X137784Y134712D01*
X137784Y134712D01*
X46305D01*
X46138Y135335D01*
X45772Y135968D01*
X45256Y136485D01*
X44623Y136851D01*
X43917Y137040D01*
D02*
G37*
G36*
X224964Y140178D02*
X224642D01*
X224346Y140055D01*
X224119Y139827D01*
X223996Y139531D01*
Y139209D01*
X224119Y138913D01*
X224346Y138686D01*
X224355Y138682D01*
Y88701D01*
X222126D01*
Y84133D01*
X227481D01*
Y88701D01*
X225251D01*
Y138682D01*
X225260Y138686D01*
X225488Y138913D01*
X225611Y139209D01*
Y139531D01*
X225488Y139827D01*
X225260Y140055D01*
X224964Y140178D01*
D02*
G37*
G36*
X283579Y86335D02*
X280421D01*
Y82784D01*
X283579D01*
Y86335D01*
D02*
G37*
G36*
X279421D02*
X276264D01*
Y82784D01*
X279421D01*
Y86335D01*
D02*
G37*
G36*
X137122D02*
X133965D01*
Y82784D01*
X137122D01*
Y86335D01*
D02*
G37*
G36*
X132965D02*
X129807D01*
Y82784D01*
X132965D01*
Y86335D01*
D02*
G37*
G36*
X210350Y85941D02*
X207193D01*
Y82390D01*
X210350D01*
Y85941D01*
D02*
G37*
G36*
X206193D02*
X203035D01*
Y82390D01*
X206193D01*
Y85941D01*
D02*
G37*
G36*
X283579Y81783D02*
X280421D01*
Y78232D01*
X283579D01*
Y81783D01*
D02*
G37*
G36*
X279421D02*
X276264D01*
Y78232D01*
X279421D01*
Y81783D01*
D02*
G37*
G36*
X137122Y81783D02*
X133965D01*
Y78232D01*
X137122D01*
Y81783D01*
D02*
G37*
G36*
X132965D02*
X129807D01*
Y78232D01*
X132965D01*
Y81783D01*
D02*
G37*
G36*
X210350Y81390D02*
X207193D01*
Y77839D01*
X210350D01*
Y81390D01*
D02*
G37*
G36*
X206193D02*
X203035D01*
Y77839D01*
X206193D01*
Y81390D01*
D02*
G37*
G36*
X291063Y94115D02*
X284527D01*
Y89350D01*
X287348D01*
Y85355D01*
X285118D01*
Y79212D01*
X287348D01*
Y74528D01*
X285118D01*
Y69960D01*
X290473D01*
Y74528D01*
X288243D01*
Y79212D01*
X290473D01*
Y85355D01*
X288243D01*
Y89350D01*
X291063D01*
Y94115D01*
D02*
G37*
G36*
X144607D02*
X138071D01*
Y89350D01*
X140891D01*
Y85355D01*
X138661D01*
Y79212D01*
X140891D01*
Y74528D01*
X138661D01*
Y69960D01*
X144016D01*
Y74528D01*
X141786D01*
Y79212D01*
X144016D01*
Y85355D01*
X141786D01*
Y89350D01*
X144607D01*
Y94115D01*
D02*
G37*
G36*
X217835Y93721D02*
X211299D01*
Y88956D01*
X214119D01*
Y84961D01*
X211889D01*
Y78819D01*
X214119D01*
Y74134D01*
X211889D01*
Y69567D01*
X217244D01*
Y74134D01*
X215015D01*
Y78819D01*
X217244D01*
Y84961D01*
X215015D01*
Y88956D01*
X217835D01*
Y93721D01*
D02*
G37*
G36*
X161728Y72571D02*
X158965D01*
Y69413D01*
X161728D01*
Y72571D01*
D02*
G37*
G36*
X308185D02*
X305421D01*
Y69413D01*
X308185D01*
Y72571D01*
D02*
G37*
G36*
X157965D02*
X155201D01*
Y69413D01*
X157965D01*
Y72571D01*
D02*
G37*
G36*
X304421D02*
X301658D01*
Y69413D01*
X304421D01*
Y72571D01*
D02*
G37*
G36*
X234957Y72177D02*
X232193D01*
Y69020D01*
X234957D01*
Y72177D01*
D02*
G37*
G36*
X231193D02*
X228429D01*
Y69020D01*
X231193D01*
Y72177D01*
D02*
G37*
G36*
X308185Y68413D02*
X305421D01*
Y65256D01*
X308185D01*
Y68413D01*
D02*
G37*
G36*
X304421D02*
X301658D01*
Y65256D01*
X304421D01*
Y68413D01*
D02*
G37*
G36*
X161728D02*
X158965D01*
Y65256D01*
X161728D01*
Y68413D01*
D02*
G37*
G36*
X157965D02*
X155201D01*
Y65256D01*
X157965D01*
Y68413D01*
D02*
G37*
G36*
X234957Y68020D02*
X232193D01*
Y64862D01*
X234957D01*
Y68020D01*
D02*
G37*
G36*
X231193D02*
X228429D01*
Y64862D01*
X231193D01*
Y68020D01*
D02*
G37*
G36*
X290473Y67638D02*
X285118D01*
Y63071D01*
X287529D01*
Y54933D01*
X287513D01*
X286618Y54694D01*
X285815Y54230D01*
X285160Y53575D01*
X284696Y52772D01*
X284456Y51877D01*
Y50950D01*
X284696Y50055D01*
X285160Y49252D01*
X285815Y48597D01*
X286618Y48133D01*
X287513Y47893D01*
X288440D01*
X289335Y48133D01*
X290138Y48597D01*
X290793Y49252D01*
X291256Y50055D01*
X291496Y50950D01*
Y51877D01*
X291256Y52772D01*
X290793Y53575D01*
X290138Y54230D01*
X289335Y54694D01*
X288440Y54933D01*
X288424D01*
Y63071D01*
X290473D01*
Y67638D01*
D02*
G37*
G36*
X144016D02*
X138661D01*
Y63071D01*
X141072D01*
Y54933D01*
X141056D01*
X140161Y54694D01*
X139358Y54230D01*
X138703Y53575D01*
X138240Y52772D01*
X138000Y51877D01*
Y50950D01*
X138240Y50055D01*
X138703Y49252D01*
X139358Y48597D01*
X140161Y48133D01*
X141056Y47893D01*
X141983D01*
X142878Y48133D01*
X143681Y48597D01*
X144336Y49252D01*
X144800Y50055D01*
X145040Y50950D01*
Y51877D01*
X144800Y52772D01*
X144336Y53575D01*
X143681Y54230D01*
X142878Y54694D01*
X141983Y54933D01*
X141967D01*
Y63071D01*
X144016D01*
Y67638D01*
D02*
G37*
G36*
X217244Y67244D02*
X211889D01*
Y62677D01*
X214300D01*
Y54540D01*
X214285D01*
X213389Y54300D01*
X212587Y53836D01*
X211931Y53181D01*
X211468Y52378D01*
X211228Y51483D01*
Y50556D01*
X211468Y49661D01*
X211931Y48858D01*
X212587Y48203D01*
X213389Y47740D01*
X214285Y47500D01*
X215212D01*
X216107Y47740D01*
X216909Y48203D01*
X217565Y48858D01*
X218028Y49661D01*
X218268Y50556D01*
Y51483D01*
X218028Y52378D01*
X217565Y53181D01*
X216909Y53836D01*
X216107Y54300D01*
X215212Y54540D01*
X215196D01*
Y62677D01*
X217244D01*
Y67244D01*
D02*
G37*
G36*
X300709Y82205D02*
X295354D01*
Y77637D01*
X297584D01*
Y71591D01*
X295748D01*
Y66236D01*
X297529D01*
Y54933D01*
X297513D01*
X296618Y54694D01*
X295815Y54230D01*
X295160Y53575D01*
X294696Y52772D01*
X294456Y51877D01*
Y50950D01*
X294696Y50055D01*
X295160Y49252D01*
X295815Y48597D01*
X296618Y48133D01*
X297513Y47893D01*
X298440D01*
X299335Y48133D01*
X300138Y48597D01*
X300149Y48608D01*
X307529Y41228D01*
Y37183D01*
X307217D01*
X305749Y36790D01*
X304433Y36031D01*
X303359Y34956D01*
X302600Y33641D01*
X302206Y32173D01*
Y31861D01*
X273746D01*
Y32173D01*
X273353Y33641D01*
X272593Y34956D01*
X271519Y36031D01*
X270203Y36790D01*
X268736Y37183D01*
X267217D01*
X265749Y36790D01*
X264434Y36031D01*
X263359Y34956D01*
X262600Y33641D01*
X262206Y32173D01*
Y30654D01*
X262600Y29186D01*
X263359Y27871D01*
X264434Y26796D01*
X265749Y26037D01*
X267217Y25643D01*
X268736D01*
X270203Y26037D01*
X271519Y26796D01*
X272593Y27871D01*
X273353Y29186D01*
X273746Y30654D01*
Y30966D01*
X302206D01*
Y30654D01*
X302600Y29186D01*
X303359Y27871D01*
X304433Y26796D01*
X305749Y26037D01*
X307217Y25643D01*
X308736D01*
X310204Y26037D01*
X311519Y26796D01*
X312594Y27871D01*
X313353Y29186D01*
X313746Y30654D01*
Y32173D01*
X313353Y33641D01*
X312594Y34956D01*
X311519Y36031D01*
X310204Y36790D01*
X308736Y37183D01*
X308424D01*
Y41413D01*
X308424Y41413D01*
X308293Y41730D01*
X308293Y41730D01*
X300782Y49241D01*
X300793Y49252D01*
X301256Y50055D01*
X301496Y50950D01*
Y51877D01*
X301256Y52772D01*
X300793Y53575D01*
X300138Y54230D01*
X299335Y54694D01*
X298440Y54933D01*
X298424D01*
Y66236D01*
X300315D01*
Y71591D01*
X298479D01*
Y77637D01*
X300709D01*
Y82205D01*
D02*
G37*
G36*
X154252D02*
X148897D01*
Y77637D01*
X151127D01*
Y71591D01*
X149291D01*
Y66236D01*
X151072D01*
Y54933D01*
X151056D01*
X150161Y54694D01*
X149358Y54230D01*
X148703Y53575D01*
X148240Y52772D01*
X148000Y51877D01*
Y50950D01*
X148240Y50055D01*
X148703Y49252D01*
X149358Y48597D01*
X150161Y48133D01*
X151056Y47893D01*
X151983D01*
X152878Y48133D01*
X153681Y48597D01*
X153692Y48608D01*
X161072Y41228D01*
Y37183D01*
X160760D01*
X159293Y36790D01*
X157977Y36031D01*
X156903Y34956D01*
X156143Y33641D01*
X155750Y32173D01*
Y31861D01*
X127290D01*
Y32173D01*
X126897Y33641D01*
X126137Y34956D01*
X125063Y36031D01*
X123747Y36790D01*
X122279Y37183D01*
X120760D01*
X119293Y36790D01*
X117977Y36031D01*
X116902Y34956D01*
X116143Y33641D01*
X115750Y32173D01*
Y30654D01*
X116143Y29186D01*
X116902Y27871D01*
X117977Y26796D01*
X119293Y26037D01*
X120760Y25643D01*
X122279D01*
X123747Y26037D01*
X125063Y26796D01*
X126137Y27871D01*
X126897Y29186D01*
X127290Y30654D01*
Y30966D01*
X155750D01*
Y30654D01*
X156143Y29186D01*
X156903Y27871D01*
X157977Y26796D01*
X159293Y26037D01*
X160760Y25643D01*
X162279D01*
X163747Y26037D01*
X165063Y26796D01*
X166137Y27871D01*
X166896Y29186D01*
X167290Y30654D01*
Y32173D01*
X166896Y33641D01*
X166137Y34956D01*
X165063Y36031D01*
X163747Y36790D01*
X162279Y37183D01*
X161968D01*
Y41413D01*
X161968Y41413D01*
X161836Y41730D01*
X161836Y41730D01*
X154325Y49241D01*
X154336Y49252D01*
X154800Y50055D01*
X155040Y50950D01*
Y51877D01*
X154800Y52772D01*
X154336Y53575D01*
X153681Y54230D01*
X152878Y54694D01*
X151983Y54933D01*
X151968D01*
Y66236D01*
X153859D01*
Y71591D01*
X152023D01*
Y77637D01*
X154252D01*
Y82205D01*
D02*
G37*
G36*
X227481Y81811D02*
X222126D01*
Y77244D01*
X224355D01*
Y71197D01*
X222519D01*
Y65842D01*
X224300D01*
Y54540D01*
X224285D01*
X223389Y54300D01*
X222587Y53836D01*
X221931Y53181D01*
X221468Y52378D01*
X221228Y51483D01*
Y50556D01*
X221468Y49661D01*
X221931Y48858D01*
X222587Y48203D01*
X223389Y47740D01*
X224285Y47500D01*
X225212D01*
X226107Y47740D01*
X226909Y48203D01*
X226920Y48214D01*
X234300Y40834D01*
Y36790D01*
X233988D01*
X232521Y36397D01*
X231205Y35637D01*
X230131Y34563D01*
X229371Y33247D01*
X228978Y31779D01*
Y31468D01*
X200518D01*
Y31779D01*
X200125Y33247D01*
X199365Y34563D01*
X198291Y35637D01*
X196975Y36397D01*
X195508Y36790D01*
X193988D01*
X192521Y36397D01*
X191205Y35637D01*
X190131Y34563D01*
X189371Y33247D01*
X188978Y31779D01*
Y30260D01*
X189371Y28793D01*
X190131Y27477D01*
X191205Y26403D01*
X192521Y25643D01*
X193988Y25250D01*
X195508D01*
X196975Y25643D01*
X198291Y26403D01*
X199365Y27477D01*
X200125Y28793D01*
X200518Y30260D01*
Y30572D01*
X228978D01*
Y30260D01*
X229371Y28793D01*
X230131Y27477D01*
X231205Y26403D01*
X232521Y25643D01*
X233988Y25250D01*
X235508D01*
X236975Y25643D01*
X238291Y26403D01*
X239365Y27477D01*
X240125Y28793D01*
X240518Y30260D01*
Y31779D01*
X240125Y33247D01*
X239365Y34563D01*
X238291Y35637D01*
X236975Y36397D01*
X235508Y36790D01*
X235196D01*
Y41020D01*
X235196Y41020D01*
X235065Y41336D01*
X235065Y41336D01*
X227554Y48847D01*
X227565Y48858D01*
X228028Y49661D01*
X228268Y50556D01*
Y51483D01*
X228028Y52378D01*
X227565Y53181D01*
X226909Y53836D01*
X226107Y54300D01*
X225212Y54540D01*
X225196D01*
Y65842D01*
X227087D01*
Y71197D01*
X225251D01*
Y77244D01*
X227481D01*
Y81811D01*
D02*
G37*
G36*
X38690Y33229D02*
X37688D01*
X36762Y32845D01*
X36053Y32136D01*
X35669Y31210D01*
Y30207D01*
X36053Y29281D01*
X36762Y28572D01*
X37688Y28189D01*
X38690D01*
X39616Y28572D01*
X40325Y29281D01*
X40709Y30207D01*
Y31210D01*
X40325Y32136D01*
X39616Y32845D01*
X38690Y33229D01*
D02*
G37*
G36*
X402076Y30079D02*
X401074D01*
X400147Y29695D01*
X399439Y28986D01*
X399055Y28060D01*
Y27058D01*
X399439Y26132D01*
X400147Y25423D01*
X401074Y25039D01*
X402076D01*
X403002Y25423D01*
X403711Y26132D01*
X404095Y27058D01*
Y28060D01*
X403711Y28986D01*
X403002Y29695D01*
X402076Y30079D01*
D02*
G37*
G36*
X421902Y18332D02*
X420617D01*
X419358Y18082D01*
X418171Y17590D01*
X417103Y16877D01*
X416194Y15968D01*
X415481Y14900D01*
X414989Y13713D01*
X414738Y12453D01*
Y11169D01*
X414989Y9909D01*
X415481Y8722D01*
X416194Y7654D01*
X417103Y6746D01*
X418171Y6032D01*
X419358Y5540D01*
X420617Y5290D01*
X421902D01*
X423162Y5540D01*
X424349Y6032D01*
X425417Y6746D01*
X426325Y7654D01*
X427039Y8722D01*
X427531Y9909D01*
X427781Y11169D01*
Y12453D01*
X427531Y13713D01*
X427039Y14900D01*
X426325Y15968D01*
X425417Y16877D01*
X424349Y17590D01*
X423162Y18082D01*
X421902Y18332D01*
D02*
G37*
G36*
X12453D02*
X11169D01*
X9909Y18082D01*
X8722Y17590D01*
X7654Y16877D01*
X6746Y15968D01*
X6032Y14900D01*
X5540Y13713D01*
X5290Y12453D01*
Y11169D01*
X5540Y9909D01*
X6032Y8722D01*
X6746Y7654D01*
X7654Y6746D01*
X8722Y6032D01*
X9909Y5540D01*
X11169Y5290D01*
X12453D01*
X13713Y5540D01*
X14900Y6032D01*
X15968Y6746D01*
X16877Y7654D01*
X17590Y8722D01*
X18082Y9909D01*
X18332Y11169D01*
Y12453D01*
X18082Y13713D01*
X17590Y14900D01*
X16877Y15968D01*
X15968Y16877D01*
X14900Y17590D01*
X13713Y18082D01*
X12453Y18332D01*
D02*
G37*
%LPD*%
D11*
X215748Y253543D02*
Y262992D01*
Y273031D01*
X215567Y280102D02*
Y293862D01*
Y280102D02*
X215748Y279921D01*
X205512Y276362D02*
X205512Y276362D01*
Y265354D02*
Y276362D01*
X205567Y276417D02*
Y293862D01*
X205512Y276362D02*
X205567Y276417D01*
X195567Y303862D02*
Y313862D01*
Y303862D02*
X205567Y293862D01*
X195567Y313862D02*
X235567D01*
X402248Y111284D02*
Y151284D01*
X130760Y130264D02*
X141339Y119685D01*
Y102756D02*
Y119685D01*
X36551Y130264D02*
X130760D01*
X151575Y86811D02*
Y120473D01*
X43551Y134264D02*
X137784D01*
X151575Y120473D01*
X36551Y138264D02*
X196776D01*
X214567Y102362D02*
Y120473D01*
X196776Y138264D02*
X214567Y120473D01*
X44318Y151030D02*
X224653D01*
X224803Y151181D01*
Y86417D02*
Y139370D01*
X43551Y150264D02*
X44318Y151030D01*
X247402Y142264D02*
X286910Y102756D01*
X43551Y142264D02*
X247402D01*
X286910Y102756D02*
X287795D01*
X280508Y146264D02*
X297638Y129134D01*
X36551Y146264D02*
X280508D01*
X297638Y87205D02*
Y129134D01*
Y87205D02*
X298031Y86811D01*
X36551Y154264D02*
X307744D01*
X330906Y131102D01*
X43551Y158264D02*
X53398Y168110D01*
X320079D02*
X346850Y141339D01*
X53398Y168110D02*
X320079D01*
X194882Y212992D02*
X234055D01*
X279134Y258071D01*
X43551Y212264D02*
X44280Y212992D01*
X94488D01*
X43551Y196264D02*
X262405D01*
X279528Y213386D01*
X347638D01*
X36551Y192264D02*
X277697D01*
X288583Y203150D02*
X331693D01*
X277697Y192264D02*
X288583Y203150D01*
X36551Y200264D02*
X247902D01*
X289764Y242126D01*
X43551Y204264D02*
X176606D01*
X214862Y242520D01*
X154917Y208264D02*
X205118Y258465D01*
X36551Y208264D02*
X154917D01*
X279134Y258071D02*
X279528D01*
X214862Y242520D02*
X215748D01*
X205118Y258465D02*
X205512D01*
X114740Y216264D02*
X140059Y241583D01*
X36551Y216264D02*
X114740D01*
X140059Y241583D02*
X140945D01*
X43551Y220264D02*
X116720D01*
X130709Y234252D02*
Y257528D01*
X116720Y220264D02*
X130709Y234252D01*
X369276Y203331D02*
X383035D01*
X369094Y203150D02*
X369276Y203331D01*
X352165Y203150D02*
X362205D01*
X342717D02*
X352165D01*
X354528Y213386D02*
X365535D01*
X354528Y213386D02*
X354528Y213386D01*
X365591Y213331D02*
X383035D01*
X365535Y213386D02*
X365591Y213331D01*
X383035D02*
X393035Y223331D01*
X351378Y131102D02*
X361417D01*
X364748Y141339D02*
X364803Y141284D01*
X353740Y141339D02*
X353740Y141339D01*
X364748D01*
X368307Y131102D02*
X368488Y131283D01*
X382248Y141284D02*
X392248Y151284D01*
X364803Y141284D02*
X382248D01*
X392248Y151284D02*
X402248D01*
X341929Y131102D02*
X351378D01*
X368488Y131283D02*
X382248D01*
X121520Y31413D02*
X161520D01*
Y41413D01*
X151520Y51413D02*
X161520Y41413D01*
X141520Y51413D02*
Y65173D01*
X141339Y65354D02*
X141520Y65173D01*
X141339Y72244D02*
Y82284D01*
Y91732D01*
X151520Y68858D02*
X151575Y68913D01*
X151520Y51413D02*
Y68858D01*
X151575Y79921D02*
X151575Y79921D01*
Y68913D02*
Y79921D01*
X194748Y31020D02*
X234748D01*
Y41020D01*
X224748Y51020D02*
X234748Y41020D01*
X214748Y51020D02*
Y64780D01*
X214567Y64961D02*
X214748Y64780D01*
X214567Y71850D02*
Y81890D01*
Y91339D01*
X224748Y68465D02*
X224803Y68520D01*
X224748Y51020D02*
Y68465D01*
X224803Y79527D02*
X224803Y79527D01*
Y68520D02*
Y79527D01*
X267976Y31413D02*
X307976D01*
Y41413D01*
X297976Y51413D02*
X307976Y41413D01*
X287976Y51413D02*
Y65173D01*
X287795Y65354D02*
X287976Y65173D01*
X287795Y72244D02*
Y82284D01*
Y91732D01*
X297976Y68858D02*
X298031Y68913D01*
X297976Y51413D02*
Y68858D01*
X298031Y79921D02*
X298031Y79921D01*
Y68913D02*
Y79921D01*
X403035Y183331D02*
Y223331D01*
X393035D02*
X403035D01*
X269583Y313469D02*
X309583D01*
X269583Y303468D02*
Y313469D01*
Y303468D02*
X279583Y293468D01*
X289583Y279709D02*
Y293468D01*
Y279709D02*
X289764Y279528D01*
Y262598D02*
Y272638D01*
Y253150D02*
Y262598D01*
X279528Y275969D02*
X279583Y276024D01*
Y293468D01*
X279528Y264961D02*
X279528Y264961D01*
X279528Y264961D02*
Y275969D01*
X19734Y234087D02*
X23911Y238264D01*
X40051D01*
X63476Y112264D02*
X71110Y119898D01*
X85677D01*
X85283Y108874D02*
Y119504D01*
X85677Y119898D01*
X96276D01*
X96850Y120472D01*
X98051D01*
X40051Y112264D02*
X63476D01*
X23911D02*
X40051D01*
X19734Y116440D02*
Y234087D01*
Y116440D02*
X23911Y112264D01*
X140764Y279165D02*
Y292925D01*
X130764Y275480D02*
Y292925D01*
X130709Y264417D02*
Y275425D01*
X140945Y262055D02*
Y272094D01*
X140764Y279165D02*
X140945Y278984D01*
X130709Y275425D02*
X130764Y275480D01*
X140945Y252606D02*
Y262055D01*
X130709Y264417D02*
X130709Y264417D01*
X120764Y302925D02*
X130764Y292925D01*
X120764Y302925D02*
Y312925D01*
X160764D01*
D30*
X364748Y148228D02*
D03*
Y141339D02*
D03*
X130709Y257528D02*
D03*
Y264417D02*
D03*
X141339Y72244D02*
D03*
Y65354D02*
D03*
X214567Y71850D02*
D03*
Y64961D02*
D03*
X287795Y72244D02*
D03*
Y65354D02*
D03*
X365535Y220276D02*
D03*
Y213386D02*
D03*
X289764Y272638D02*
D03*
Y279528D02*
D03*
X215748Y273031D02*
D03*
Y279921D02*
D03*
X140945Y272094D02*
D03*
Y278984D02*
D03*
X279528Y258071D02*
D03*
Y264961D02*
D03*
X205512Y258465D02*
D03*
Y265354D02*
D03*
X151575Y86811D02*
D03*
Y79921D02*
D03*
X224803Y86417D02*
D03*
Y79527D02*
D03*
X298031Y86811D02*
D03*
Y79921D02*
D03*
D31*
X353740Y141339D02*
D03*
X346850D02*
D03*
X368307Y131102D02*
D03*
X361417D02*
D03*
X158465Y68913D02*
D03*
X151575D02*
D03*
X231693Y68520D02*
D03*
X224803D02*
D03*
X304921Y68913D02*
D03*
X298031D02*
D03*
X362205Y203150D02*
D03*
X369094D02*
D03*
X272638Y275969D02*
D03*
X279528D02*
D03*
X198622Y276362D02*
D03*
X205512D02*
D03*
X123819Y275425D02*
D03*
X130709D02*
D03*
X347638Y213386D02*
D03*
X354528D02*
D03*
D32*
X330906Y131102D02*
D03*
X341929D02*
D03*
X331693Y203150D02*
D03*
X342717D02*
D03*
D33*
X351378Y131102D02*
D03*
Y123228D02*
D03*
X352165Y203150D02*
D03*
Y195276D02*
D03*
D34*
X85283Y97850D02*
D03*
Y108874D02*
D03*
X141339Y102756D02*
D03*
Y91732D02*
D03*
X214567Y102362D02*
D03*
Y91339D02*
D03*
X287795Y102756D02*
D03*
Y91732D02*
D03*
X289764Y242126D02*
D03*
Y253150D02*
D03*
X215748Y242520D02*
D03*
Y253543D02*
D03*
X140945Y241583D02*
D03*
Y252606D02*
D03*
D35*
X98051Y120472D02*
D03*
Y109055D02*
D03*
D36*
X141339Y82284D02*
D03*
X133465D02*
D03*
X214567Y81890D02*
D03*
X206693D02*
D03*
X287795Y82284D02*
D03*
X279921D02*
D03*
X289764Y262598D02*
D03*
X297638D02*
D03*
X215748Y262992D02*
D03*
X223622D02*
D03*
X140945Y262055D02*
D03*
X148819D02*
D03*
D37*
X421260Y334646D02*
D03*
Y11811D02*
D03*
X11811D02*
D03*
Y334646D02*
D03*
D38*
X402248Y151284D02*
D03*
Y111284D02*
D03*
X403035Y183331D02*
D03*
Y223331D02*
D03*
X121520Y31413D02*
D03*
X161520D02*
D03*
X194748Y31020D02*
D03*
X234748D02*
D03*
X267976Y31413D02*
D03*
X307976D02*
D03*
X235567Y313862D02*
D03*
X195567D02*
D03*
X309583Y313469D02*
D03*
X269583D02*
D03*
X160764Y312925D02*
D03*
X120764D02*
D03*
D39*
X382248Y141284D02*
D03*
Y131283D02*
D03*
X383035Y213331D02*
D03*
Y203331D02*
D03*
X151520Y51413D02*
D03*
X141520D02*
D03*
X224748Y51020D02*
D03*
X214748D02*
D03*
X297976Y51413D02*
D03*
X287976D02*
D03*
X205567Y293862D02*
D03*
X215567D02*
D03*
X279583Y293468D02*
D03*
X289583D02*
D03*
X130764Y292925D02*
D03*
X140764D02*
D03*
D40*
X36551Y130264D02*
D03*
Y192264D02*
D03*
D41*
X43551Y134264D02*
D03*
X36551Y138264D02*
D03*
X43551Y142264D02*
D03*
X36551Y146264D02*
D03*
X43551Y150264D02*
D03*
X36551Y154264D02*
D03*
X43551Y158264D02*
D03*
Y220264D02*
D03*
X36551Y216264D02*
D03*
X43551Y212264D02*
D03*
X36551Y208264D02*
D03*
X43551Y204264D02*
D03*
X36551Y200264D02*
D03*
X43551Y196264D02*
D03*
D42*
X40051Y112264D02*
D03*
Y238264D02*
D03*
D43*
X26551Y119264D02*
D03*
Y231264D02*
D03*
D44*
X145669Y179528D02*
D03*
X39370Y311417D02*
D03*
X398425Y324016D02*
D03*
X401575Y27559D02*
D03*
X38189Y30709D02*
D03*
D45*
X224803Y151181D02*
D03*
Y139370D02*
D03*
X194882Y212992D02*
D03*
X94488D02*
D03*
M02*
