G04*
G04 #@! TF.GenerationSoftware,Altium Limited,Altium Designer,22.1.2 (22)*
G04*
G04 Layer_Color=8388736*
%FSLAX25Y25*%
%MOIN*%
G70*
G04*
G04 #@! TF.SameCoordinates,EB6349A5-E9A1-4A8E-B869-313063707995*
G04*
G04*
G04 #@! TF.FilePolarity,Negative*
G04*
G01*
G75*
%ADD14R,0.06115X0.05328*%
%ADD15R,0.05328X0.06115*%
%ADD16R,0.05524X0.07296*%
%ADD17R,0.06902X0.06115*%
%ADD18R,0.07296X0.05524*%
G04:AMPARAMS|DCode=19|XSize=55.64mil|YSize=79.65mil|CornerRadius=11.86mil|HoleSize=0mil|Usage=FLASHONLY|Rotation=90.000|XOffset=0mil|YOffset=0mil|HoleType=Round|Shape=RoundedRectangle|*
%AMROUNDEDRECTD19*
21,1,0.05564,0.05593,0,0,90.0*
21,1,0.03192,0.07965,0,0,90.0*
1,1,0.02372,0.02797,0.01596*
1,1,0.02372,0.02797,-0.01596*
1,1,0.02372,-0.02797,-0.01596*
1,1,0.02372,-0.02797,0.01596*
%
%ADD19ROUNDEDRECTD19*%
%ADD20R,0.06115X0.06902*%
%ADD21C,0.06800*%
%ADD22C,0.12300*%
%ADD23C,0.07800*%
%ADD24R,0.06312X0.06312*%
%ADD25C,0.06312*%
%ADD26C,0.10249*%
%ADD27C,0.13595*%
%ADD28C,0.05800*%
%ADD29C,0.02375*%
D14*
X364748Y148228D02*
D03*
Y141339D02*
D03*
X130709Y257528D02*
D03*
Y264417D02*
D03*
X141339Y72244D02*
D03*
Y65354D02*
D03*
X214567Y71850D02*
D03*
Y64961D02*
D03*
X287795Y72244D02*
D03*
Y65354D02*
D03*
X365535Y220276D02*
D03*
Y213386D02*
D03*
X289764Y272638D02*
D03*
Y279528D02*
D03*
X215748Y273031D02*
D03*
Y279921D02*
D03*
X140945Y272094D02*
D03*
Y278984D02*
D03*
X279528Y258071D02*
D03*
Y264961D02*
D03*
X205512Y258465D02*
D03*
Y265354D02*
D03*
X151575Y86811D02*
D03*
Y79921D02*
D03*
X224803Y86417D02*
D03*
Y79527D02*
D03*
X298031Y86811D02*
D03*
Y79921D02*
D03*
D15*
X353740Y141339D02*
D03*
X346850D02*
D03*
X368307Y131102D02*
D03*
X361417D02*
D03*
X158465Y68913D02*
D03*
X151575D02*
D03*
X231693Y68520D02*
D03*
X224803D02*
D03*
X304921Y68913D02*
D03*
X298031D02*
D03*
X362205Y203150D02*
D03*
X369094D02*
D03*
X272638Y275969D02*
D03*
X279528D02*
D03*
X198622Y276362D02*
D03*
X205512D02*
D03*
X123819Y275425D02*
D03*
X130709D02*
D03*
X347638Y213386D02*
D03*
X354528D02*
D03*
D16*
X330906Y131102D02*
D03*
X341929D02*
D03*
X331693Y203150D02*
D03*
X342717D02*
D03*
D17*
X351378Y131102D02*
D03*
Y123228D02*
D03*
X352165Y203150D02*
D03*
Y195276D02*
D03*
D18*
X85283Y97850D02*
D03*
Y108874D02*
D03*
X141339Y102756D02*
D03*
Y91732D02*
D03*
X214567Y102362D02*
D03*
Y91339D02*
D03*
X287795Y102756D02*
D03*
Y91732D02*
D03*
X289764Y242126D02*
D03*
Y253150D02*
D03*
X215748Y242520D02*
D03*
Y253543D02*
D03*
X140945Y241583D02*
D03*
Y252606D02*
D03*
D19*
X98051Y120472D02*
D03*
Y109055D02*
D03*
D20*
X141339Y82284D02*
D03*
X133465D02*
D03*
X214567Y81890D02*
D03*
X206693D02*
D03*
X287795Y82284D02*
D03*
X279921D02*
D03*
X289764Y262598D02*
D03*
X297638D02*
D03*
X215748Y262992D02*
D03*
X223622D02*
D03*
X140945Y262055D02*
D03*
X148819D02*
D03*
D21*
X421260Y334646D02*
D03*
Y11811D02*
D03*
X11811D02*
D03*
Y334646D02*
D03*
D22*
X402248Y151284D02*
D03*
Y111284D02*
D03*
X403035Y183331D02*
D03*
Y223331D02*
D03*
X121520Y31413D02*
D03*
X161520D02*
D03*
X194748Y31020D02*
D03*
X234748D02*
D03*
X267976Y31413D02*
D03*
X307976D02*
D03*
X235567Y313862D02*
D03*
X195567D02*
D03*
X309583Y313469D02*
D03*
X269583D02*
D03*
X160764Y312925D02*
D03*
X120764D02*
D03*
D23*
X382248Y141284D02*
D03*
Y131283D02*
D03*
X383035Y213331D02*
D03*
Y203331D02*
D03*
X151520Y51413D02*
D03*
X141520D02*
D03*
X224748Y51020D02*
D03*
X214748D02*
D03*
X297976Y51413D02*
D03*
X287976D02*
D03*
X205567Y293862D02*
D03*
X215567D02*
D03*
X279583Y293468D02*
D03*
X289583D02*
D03*
X130764Y292925D02*
D03*
X140764D02*
D03*
D24*
X36551Y130264D02*
D03*
Y192264D02*
D03*
D25*
X43551Y134264D02*
D03*
X36551Y138264D02*
D03*
X43551Y142264D02*
D03*
X36551Y146264D02*
D03*
X43551Y150264D02*
D03*
X36551Y154264D02*
D03*
X43551Y158264D02*
D03*
Y220264D02*
D03*
X36551Y216264D02*
D03*
X43551Y212264D02*
D03*
X36551Y208264D02*
D03*
X43551Y204264D02*
D03*
X36551Y200264D02*
D03*
X43551Y196264D02*
D03*
D26*
X40051Y112264D02*
D03*
Y238264D02*
D03*
D27*
X26551Y119264D02*
D03*
Y231264D02*
D03*
D28*
X145669Y179528D02*
D03*
X39370Y311417D02*
D03*
X398425Y324016D02*
D03*
X401575Y27559D02*
D03*
X38189Y30709D02*
D03*
D29*
X224803Y151181D02*
D03*
Y139370D02*
D03*
X194882Y212992D02*
D03*
X94488D02*
D03*
M02*
