G04*
G04 #@! TF.GenerationSoftware,Altium Limited,Altium Designer,22.1.2 (22)*
G04*
G04 Layer_Color=32768*
%FSLAX25Y25*%
%MOIN*%
G70*
G04*
G04 #@! TF.SameCoordinates,EB6349A5-E9A1-4A8E-B869-313063707995*
G04*
G04*
G04 #@! TF.FilePolarity,Positive*
G04*
G01*
G75*
%ADD47C,0.00394*%
%ADD49C,0.00197*%
D47*
X364748Y142815D02*
Y146752D01*
X362779Y144783D02*
X366717D01*
X350295Y139370D02*
Y143307D01*
X348327Y141339D02*
X352264D01*
X334449Y131102D02*
X338386D01*
X336417Y129134D02*
Y133071D01*
X364862Y129134D02*
Y133071D01*
X362894Y131102D02*
X366831D01*
X349409Y127165D02*
X353346D01*
X351378Y125197D02*
Y129134D01*
X130709Y259004D02*
Y262941D01*
X128740Y260972D02*
X132677D01*
X85283Y101394D02*
Y105331D01*
X83315Y103362D02*
X87252D01*
X141339Y95276D02*
Y99213D01*
X139370Y97244D02*
X143307D01*
X214567Y94882D02*
Y98819D01*
X212598Y96850D02*
X216535D01*
X287795Y95276D02*
Y99213D01*
X285827Y97244D02*
X289764D01*
X335236Y203150D02*
X339173D01*
X337205Y201181D02*
Y205118D01*
X289764Y245669D02*
Y249606D01*
X287795Y247638D02*
X291732D01*
X215748Y246063D02*
Y250000D01*
X213779Y248031D02*
X217717D01*
X140945Y245126D02*
Y249063D01*
X138976Y247094D02*
X142913D01*
X137402Y80315D02*
Y84252D01*
X135433Y82284D02*
X139370D01*
X141339Y66831D02*
Y70768D01*
X139370Y68799D02*
X143307D01*
X153051Y68913D02*
X156988D01*
X155020Y66945D02*
Y70882D01*
X210630Y79921D02*
Y83858D01*
X208661Y81890D02*
X212598D01*
X214567Y66437D02*
Y70374D01*
X212598Y68405D02*
X216535D01*
X226279Y68520D02*
X230217D01*
X228248Y66551D02*
Y70488D01*
X283858Y80315D02*
Y84252D01*
X281890Y82284D02*
X285827D01*
X287795Y66831D02*
Y70768D01*
X285827Y68799D02*
X289764D01*
X299508Y68913D02*
X303445D01*
X301476Y66945D02*
Y70882D01*
X350197Y199213D02*
X354134D01*
X352165Y197244D02*
Y201181D01*
X363681Y203150D02*
X367618D01*
X365650Y201181D02*
Y205118D01*
X365535Y214862D02*
Y218799D01*
X363567Y216831D02*
X367504D01*
X293701Y260630D02*
Y264567D01*
X291732Y262598D02*
X295669D01*
X289764Y274114D02*
Y278051D01*
X287795Y276083D02*
X291732D01*
X274114Y275969D02*
X278051D01*
X276083Y274000D02*
Y277937D01*
X219685Y261024D02*
Y264961D01*
X217717Y262992D02*
X221654D01*
X215748Y274508D02*
Y278445D01*
X213779Y276476D02*
X217717D01*
X200098Y276362D02*
X204035D01*
X202067Y274394D02*
Y278331D01*
X125295Y275425D02*
X129232D01*
X127264Y273457D02*
Y277394D01*
X140945Y273571D02*
Y277508D01*
X138976Y275539D02*
X142913D01*
X144882Y260087D02*
Y264024D01*
X142913Y262055D02*
X146850D01*
X349114Y213386D02*
X353051D01*
X351083Y211417D02*
Y215354D01*
X279528Y259547D02*
Y263484D01*
X277559Y261516D02*
X281496D01*
X205512Y259941D02*
Y263878D01*
X203543Y261910D02*
X207480D01*
X151575Y81398D02*
Y85335D01*
X149606Y83366D02*
X153543D01*
X224803Y81004D02*
Y84941D01*
X222835Y82972D02*
X226772D01*
X298031Y81398D02*
Y85335D01*
X296063Y83366D02*
X300000D01*
D49*
X96673Y114764D02*
X99429D01*
X98051Y113386D02*
Y116142D01*
M02*
