G04*
G04 #@! TF.GenerationSoftware,Altium Limited,Altium Designer,22.1.2 (22)*
G04*
G04 Layer_Color=32768*
%FSLAX25Y25*%
%MOIN*%
G70*
G04*
G04 #@! TF.SameCoordinates,62C8EEDB-9160-40B9-A3AB-3B42679387D0*
G04*
G04*
G04 #@! TF.FilePolarity,Positive*
G04*
G01*
G75*
%ADD48C,0.00394*%
%ADD50C,0.00197*%
D48*
X203543Y261910D02*
X207480D01*
X205512Y259941D02*
Y263878D01*
X364748Y142815D02*
Y146752D01*
X362779Y144783D02*
X366717D01*
X350295Y139370D02*
Y143307D01*
X348327Y141339D02*
X352264D01*
X361024Y131102D02*
X364961D01*
X362992Y129134D02*
Y133071D01*
X336319Y128740D02*
Y132677D01*
X334350Y130709D02*
X338287D01*
X346063Y126772D02*
X350000D01*
X348031Y124803D02*
Y128740D01*
X130709Y259004D02*
Y262941D01*
X128740Y260972D02*
X132677D01*
X85283Y101394D02*
Y105331D01*
X83315Y103362D02*
X87252D01*
X141732Y68898D02*
Y72835D01*
X139764Y70866D02*
X143701D01*
X214567Y68898D02*
Y72835D01*
X212598Y70866D02*
X216535D01*
X287795Y70079D02*
Y74016D01*
X285827Y72047D02*
X289764D01*
X361417Y203543D02*
X365354D01*
X363386Y201575D02*
Y205512D01*
X289764Y271654D02*
Y275590D01*
X287795Y273622D02*
X291732D01*
X215748Y272047D02*
Y275984D01*
X213779Y274016D02*
X217717D01*
X140945Y271260D02*
Y275197D01*
X138976Y273228D02*
X142913D01*
X137795Y83465D02*
Y87402D01*
X135827Y85433D02*
X139764D01*
X141732Y96457D02*
Y100394D01*
X139764Y98425D02*
X143701D01*
X153051Y68913D02*
X156988D01*
X155020Y66945D02*
Y70882D01*
X210236Y83465D02*
Y87402D01*
X208268Y85433D02*
X212205D01*
X214567Y96358D02*
Y100295D01*
X212598Y98327D02*
X216535D01*
X226279Y68520D02*
X230217D01*
X228248Y66551D02*
Y70488D01*
X283465Y84252D02*
Y88189D01*
X281496Y86221D02*
X285433D01*
X287402Y97146D02*
Y101083D01*
X285433Y99114D02*
X289370D01*
X299508Y68913D02*
X303445D01*
X301476Y66945D02*
Y70882D01*
X346850Y199606D02*
X350787D01*
X348819Y197638D02*
Y201575D01*
X334744Y203150D02*
X338681D01*
X336713Y201181D02*
Y205118D01*
X365535Y214862D02*
Y218799D01*
X363567Y216831D02*
X367504D01*
X294094Y257087D02*
Y261024D01*
X292126Y259055D02*
X296063D01*
X290158Y245276D02*
Y249213D01*
X288189Y247244D02*
X292126D01*
X274114Y275969D02*
X278051D01*
X276083Y274000D02*
Y277937D01*
X220079Y256693D02*
Y260630D01*
X218110Y258661D02*
X222047D01*
X216142Y244882D02*
Y248819D01*
X214173Y246850D02*
X218110D01*
X200098Y276362D02*
X204035D01*
X202067Y274394D02*
Y278331D01*
X125295Y275425D02*
X129232D01*
X127264Y273457D02*
Y277394D01*
X140945Y242520D02*
Y246457D01*
X138976Y244488D02*
X142913D01*
X144882Y255906D02*
Y259842D01*
X142913Y257874D02*
X146850D01*
X349114Y213386D02*
X353051D01*
X351083Y211417D02*
Y215354D01*
X279528Y259547D02*
Y263484D01*
X277559Y261516D02*
X281496D01*
X151575Y81398D02*
Y85335D01*
X149606Y83366D02*
X153543D01*
X224803Y81004D02*
Y84941D01*
X222835Y82972D02*
X226772D01*
X298031Y81398D02*
Y85335D01*
X296063Y83366D02*
X300000D01*
D50*
X96673Y114764D02*
X99429D01*
X98051Y113386D02*
Y116142D01*
M02*
