G04*
G04 #@! TF.GenerationSoftware,Altium Limited,Altium Designer,22.1.2 (22)*
G04*
G04 Layer_Color=32768*
%FSLAX25Y25*%
%MOIN*%
G70*
G04*
G04 #@! TF.SameCoordinates,62C8EEDB-9160-40B9-A3AB-3B42679387D0*
G04*
G04*
G04 #@! TF.FilePolarity,Positive*
G04*
G01*
G75*
%ADD48C,0.00394*%
%ADD50C,0.00197*%
D48*
X432248Y163784D02*
X434248D01*
Y99283D02*
Y163784D01*
X372248D02*
X432248D01*
X372248Y99283D02*
X434248D01*
X372248D02*
Y163784D01*
X433035Y235831D02*
X435035D01*
Y171331D02*
Y235831D01*
X373035Y171331D02*
X435035D01*
X373035D02*
Y235831D01*
X433035D01*
X174020Y-587D02*
Y1413D01*
X109520Y-587D02*
X174020D01*
X109520D02*
Y61413D01*
X174020D01*
Y1413D02*
Y61413D01*
X247248Y-980D02*
Y1020D01*
X182748Y-980D02*
X247248D01*
X182748D02*
Y61020D01*
X247248D01*
Y1020D02*
Y61020D01*
X320476Y-587D02*
Y1413D01*
X255976Y-587D02*
X320476D01*
X255976D02*
Y61413D01*
X320476D01*
Y1413D02*
Y61413D01*
X183067Y343862D02*
Y345862D01*
X247567D01*
Y283862D02*
Y345862D01*
X183067Y283862D02*
X247567D01*
X183067D02*
Y343862D01*
X257083Y343468D02*
Y345468D01*
X321583D01*
Y283469D02*
Y345468D01*
X257083Y283469D02*
X321583D01*
X257083D02*
Y343468D01*
X108264Y342925D02*
Y344925D01*
X172764D01*
Y282925D02*
Y344925D01*
X108264Y282925D02*
X172764D01*
X108264D02*
Y342925D01*
D50*
X201772Y255217D02*
Y268602D01*
X209252Y255217D02*
Y268602D01*
X201772D02*
X209252D01*
X201772Y255217D02*
X209252D01*
X368488Y138091D02*
Y151476D01*
X361008D02*
X368488D01*
X361008Y138091D02*
X368488D01*
X361008D02*
Y151476D01*
X356988Y137598D02*
Y145079D01*
X343602D02*
X356988D01*
X343602Y137598D02*
X356988D01*
X343602D02*
Y145079D01*
X354134Y126772D02*
Y135433D01*
X371850Y126772D02*
Y135433D01*
X354134D02*
X371850D01*
X354134Y126772D02*
X371850D01*
X343012Y126969D02*
Y134449D01*
X329626D02*
X343012D01*
X329626Y126969D02*
X343012D01*
X329626D02*
Y134449D01*
X353150Y118110D02*
Y135433D01*
X342913D02*
X353150D01*
X342913Y118110D02*
X353150D01*
X342913D02*
Y135433D01*
X126969Y254279D02*
X134449D01*
X126969Y267665D02*
X134449D01*
Y254279D02*
Y267665D01*
X126969Y254279D02*
Y267665D01*
X80953Y94504D02*
X89614D01*
X80953Y112221D02*
X89614D01*
X80953Y94504D02*
Y112221D01*
X89614Y94504D02*
Y112221D01*
X137402Y79724D02*
X146063D01*
X137402Y62008D02*
X146063D01*
Y79724D01*
X137402Y62008D02*
Y79724D01*
X210236D02*
X218898D01*
X210236Y62008D02*
X218898D01*
Y79724D01*
X210236Y62008D02*
Y79724D01*
X283465Y80905D02*
X292126D01*
X283465Y63189D02*
X292126D01*
Y80905D01*
X283465Y63189D02*
Y80905D01*
X354528Y199213D02*
Y207874D01*
X372244Y199213D02*
Y207874D01*
X354528D02*
X372244D01*
X354528Y199213D02*
X372244D01*
X285433Y264764D02*
X294094D01*
X285433Y282480D02*
X294094D01*
X285433Y264764D02*
Y282480D01*
X294094Y264764D02*
Y282480D01*
X211417Y265158D02*
X220079D01*
X211417Y282874D02*
X220079D01*
X211417Y265158D02*
Y282874D01*
X220079Y265158D02*
Y282874D01*
X136614Y264370D02*
X145276D01*
X136614Y282087D02*
X145276D01*
X136614Y264370D02*
Y282087D01*
X145276Y264370D02*
Y282087D01*
X102618Y105669D02*
Y123858D01*
X93484Y105669D02*
Y123858D01*
Y105669D02*
X102618D01*
X93484Y123858D02*
X102618D01*
X129134Y80315D02*
Y90551D01*
X146457Y80315D02*
Y90551D01*
X129134Y80315D02*
X146457D01*
X129134Y90551D02*
X146457D01*
X137992Y105118D02*
X145472D01*
X137992Y91732D02*
X145472D01*
X137992D02*
Y105118D01*
X145472Y91732D02*
Y105118D01*
X161713Y65173D02*
Y72654D01*
X148327Y65173D02*
Y72654D01*
X161713D01*
X148327Y65173D02*
X161713D01*
X201575Y80315D02*
Y90551D01*
X218898Y80315D02*
Y90551D01*
X201575Y80315D02*
X218898D01*
X201575Y90551D02*
X218898D01*
X210827Y105020D02*
X218307D01*
X210827Y91634D02*
X218307D01*
X210827D02*
Y105020D01*
X218307Y91634D02*
Y105020D01*
X234941Y64780D02*
Y72260D01*
X221555Y64780D02*
Y72260D01*
X234941D01*
X221555Y64780D02*
X234941D01*
X274803Y81102D02*
Y91339D01*
X292126Y81102D02*
Y91339D01*
X274803Y81102D02*
X292126D01*
X274803Y91339D02*
X292126D01*
X283661Y105807D02*
X291142D01*
X283661Y92421D02*
X291142D01*
X283661D02*
Y105807D01*
X291142Y92421D02*
Y105807D01*
X308169Y65173D02*
Y72654D01*
X294783Y65173D02*
Y72654D01*
X308169D01*
X294783Y65173D02*
X308169D01*
X343701Y190945D02*
X353937D01*
X343701Y208268D02*
X353937D01*
Y190945D02*
Y208268D01*
X343701Y190945D02*
Y208268D01*
X330020Y199409D02*
Y206890D01*
X343406Y199409D02*
Y206890D01*
X330020Y199409D02*
X343406D01*
X330020Y206890D02*
X343406D01*
X361795Y223524D02*
X369276D01*
X361795Y210138D02*
X369276D01*
X361795D02*
Y223524D01*
X369276Y210138D02*
Y223524D01*
X302756Y253937D02*
Y264173D01*
X285433Y253937D02*
Y264173D01*
X302756D01*
X285433Y253937D02*
X302756D01*
X286417Y240551D02*
X293898D01*
X286417Y253937D02*
X293898D01*
Y240551D02*
Y253937D01*
X286417Y240551D02*
Y253937D01*
X269390Y272228D02*
Y279709D01*
X282776Y272228D02*
Y279709D01*
X269390Y272228D02*
X282776D01*
X269390Y279709D02*
X282776D01*
X228740Y253543D02*
Y263779D01*
X211417Y253543D02*
Y263779D01*
X228740D01*
X211417Y253543D02*
X228740D01*
X212402Y240158D02*
X219882D01*
X212402Y253543D02*
X219882D01*
Y240158D02*
Y253543D01*
X212402Y240158D02*
Y253543D01*
X195374Y272622D02*
Y280102D01*
X208760Y272622D02*
Y280102D01*
X195374Y272622D02*
X208760D01*
X195374Y280102D02*
X208760D01*
X120571Y271685D02*
Y279165D01*
X133957Y271685D02*
Y279165D01*
X120571Y271685D02*
X133957D01*
X120571Y279165D02*
X133957D01*
X137205Y237795D02*
X144685D01*
X137205Y251181D02*
X144685D01*
Y237795D02*
Y251181D01*
X137205Y237795D02*
Y251181D01*
X153543Y252756D02*
Y262992D01*
X136221Y252756D02*
Y262992D01*
X153543D01*
X136221Y252756D02*
X153543D01*
X344390Y209646D02*
Y217126D01*
X357776Y209646D02*
Y217126D01*
X344390Y209646D02*
X357776D01*
X344390Y217126D02*
X357776D01*
X275787Y254823D02*
X283268D01*
X275787Y268209D02*
X283268D01*
Y254823D02*
Y268209D01*
X275787Y254823D02*
Y268209D01*
X147835Y90059D02*
X155315D01*
X147835Y76673D02*
X155315D01*
X147835D02*
Y90059D01*
X155315Y76673D02*
Y90059D01*
X221063Y89665D02*
X228543D01*
X221063Y76279D02*
X228543D01*
X221063D02*
Y89665D01*
X228543Y76279D02*
Y89665D01*
X294291Y90059D02*
X301772D01*
X294291Y76673D02*
X301772D01*
X294291D02*
Y90059D01*
X301772Y76673D02*
Y90059D01*
M02*
