G04*
G04 #@! TF.GenerationSoftware,Altium Limited,Altium Designer,22.1.2 (22)*
G04*
G04 Layer_Color=8388736*
%FSLAX25Y25*%
%MOIN*%
G70*
G04*
G04 #@! TF.SameCoordinates,128D403D-CC11-44AD-A6EF-83A273EAECEB*
G04*
G04*
G04 #@! TF.FilePolarity,Positive*
G04*
G01*
G75*
%ADD12C,0.01000*%
%ADD46C,0.00600*%
D12*
X530677Y6000D02*
X532677Y0D01*
X534677Y6000D01*
X532677Y346457D02*
X534677Y340457D01*
X530677D02*
X532677Y346457D01*
Y0D02*
Y156033D01*
Y187224D02*
Y346457D01*
X434177Y0D02*
X533677D01*
X434177Y346457D02*
X533677D01*
X0Y438976D02*
X6000Y440976D01*
X0Y438976D02*
X6000Y436976D01*
X426677D02*
X432677Y438976D01*
X426677Y440976D02*
X432677Y438976D01*
X0D02*
X196644D01*
X232833D02*
X432677D01*
X0Y347957D02*
Y439976D01*
X432677Y347957D02*
Y439976D01*
D46*
X532277Y157633D02*
X531278Y158633D01*
Y160632D01*
X532277Y161632D01*
X533277D01*
X534277Y160632D01*
X535277Y161632D01*
X536276D01*
X537276Y160632D01*
Y158633D01*
X536276Y157633D01*
X535277D01*
X534277Y158633D01*
X533277Y157633D01*
X532277D01*
X534277Y158633D02*
Y160632D01*
X532277Y163631D02*
X531278Y164631D01*
Y166630D01*
X532277Y167630D01*
X533277D01*
X534277Y166630D01*
X535277Y167630D01*
X536276D01*
X537276Y166630D01*
Y164631D01*
X536276Y163631D01*
X535277D01*
X534277Y164631D01*
X533277Y163631D01*
X532277D01*
X534277Y164631D02*
Y166630D01*
X538276Y170629D02*
X537276Y171628D01*
X536276D01*
Y170629D01*
X537276D01*
Y171628D01*
X538276Y170629D01*
X539275Y169629D01*
X532277Y175627D02*
X531278Y176627D01*
Y178626D01*
X532277Y179626D01*
X536276D01*
X537276Y178626D01*
Y176627D01*
X536276Y175627D01*
X532277D01*
Y181625D02*
X531278Y182625D01*
Y184624D01*
X532277Y185624D01*
X536276D01*
X537276Y184624D01*
Y182625D01*
X536276Y181625D01*
X532277D01*
X198244Y434378D02*
X200243D01*
X199244D01*
Y440376D01*
X198244Y439376D01*
X203242D02*
X204242Y440376D01*
X206241D01*
X207241Y439376D01*
Y435377D01*
X206241Y434378D01*
X204242D01*
X203242Y435377D01*
Y439376D01*
X209240Y435377D02*
X210240Y434378D01*
X212239D01*
X213239Y435377D01*
Y439376D01*
X212239Y440376D01*
X210240D01*
X209240Y439376D01*
Y438376D01*
X210240Y437377D01*
X213239D01*
X216238Y433378D02*
X217238Y434378D01*
Y435377D01*
X216238D01*
Y434378D01*
X217238D01*
X216238Y433378D01*
X215238Y432378D01*
X221236Y435377D02*
X222236Y434378D01*
X224236D01*
X225235Y435377D01*
Y439376D01*
X224236Y440376D01*
X222236D01*
X221236Y439376D01*
Y438376D01*
X222236Y437377D01*
X225235D01*
X227235Y439376D02*
X228234Y440376D01*
X230234D01*
X231233Y439376D01*
Y435377D01*
X230234Y434378D01*
X228234D01*
X227235Y435377D01*
Y439376D01*
M02*
