G04*
G04 #@! TF.GenerationSoftware,Altium Limited,Altium Designer,22.1.2 (22)*
G04*
G04 Layer_Physical_Order=2*
G04 Layer_Color=16711680*
%FSLAX25Y25*%
%MOIN*%
G70*
G04*
G04 #@! TF.SameCoordinates,62C8EEDB-9160-40B9-A3AB-3B42679387D0*
G04*
G04*
G04 #@! TF.FilePolarity,Positive*
G04*
G01*
G75*
%ADD13C,0.00787*%
%ADD38R,0.05512X0.05512*%
%ADD39C,0.05512*%
%ADD40C,0.12795*%
%ADD41C,0.09449*%
%ADD42C,0.06000*%
%ADD43C,0.11500*%
%ADD44C,0.07000*%
%ADD45C,0.05000*%
%ADD46C,0.01575*%
G36*
X431496Y337402D02*
Y11024D01*
X428044Y7571D01*
X427655Y7890D01*
X427903Y8260D01*
X428468Y9624D01*
X428756Y11073D01*
Y12549D01*
X428468Y13997D01*
X427903Y15362D01*
X427082Y16590D01*
X426038Y17634D01*
X424811Y18454D01*
X423446Y19019D01*
X421998Y19307D01*
X420521D01*
X419073Y19019D01*
X417709Y18454D01*
X416481Y17634D01*
X415437Y16590D01*
X414617Y15362D01*
X414052Y13997D01*
X413764Y12549D01*
Y11073D01*
X414052Y9624D01*
X414617Y8260D01*
X415437Y7033D01*
X416481Y5988D01*
X417709Y5168D01*
X419073Y4603D01*
X420521Y4315D01*
X421998D01*
X423446Y4603D01*
X424811Y5168D01*
X425181Y5415D01*
X425500Y5027D01*
X423622Y3150D01*
X9843D01*
X8661Y1969D01*
X1575Y9055D01*
Y336221D01*
X11024Y344882D01*
X424016D01*
X431496Y337402D01*
D02*
G37*
%LPC*%
G36*
X421998Y342142D02*
X420521D01*
X419073Y341854D01*
X417709Y341289D01*
X416481Y340468D01*
X415437Y339424D01*
X414617Y338196D01*
X414052Y336832D01*
X413764Y335384D01*
Y333907D01*
X414052Y332459D01*
X414617Y331095D01*
X415437Y329867D01*
X416481Y328823D01*
X417709Y328003D01*
X419073Y327438D01*
X420521Y327150D01*
X421998D01*
X423446Y327438D01*
X424811Y328003D01*
X426038Y328823D01*
X427082Y329867D01*
X427903Y331095D01*
X428468Y332459D01*
X428756Y333907D01*
Y335384D01*
X428468Y336832D01*
X427903Y338196D01*
X427082Y339424D01*
X426038Y340468D01*
X424811Y341289D01*
X423446Y341854D01*
X421998Y342142D01*
D02*
G37*
G36*
X12549D02*
X11073D01*
X9624Y341854D01*
X8260Y341289D01*
X7033Y340468D01*
X5988Y339424D01*
X5168Y338196D01*
X4603Y336832D01*
X4315Y335384D01*
Y333907D01*
X4603Y332459D01*
X5168Y331095D01*
X5988Y329867D01*
X7033Y328823D01*
X8260Y328003D01*
X9624Y327438D01*
X11073Y327150D01*
X12549D01*
X13997Y327438D01*
X15362Y328003D01*
X16590Y328823D01*
X17634Y329867D01*
X18454Y331095D01*
X19019Y332459D01*
X19307Y333907D01*
Y335384D01*
X19019Y336832D01*
X18454Y338196D01*
X17634Y339424D01*
X16590Y340468D01*
X15362Y341289D01*
X13997Y341854D01*
X12549Y342142D01*
D02*
G37*
G36*
X398925Y327505D02*
Y324516D01*
X401915D01*
X401687Y325367D01*
X401226Y326165D01*
X400574Y326816D01*
X399776Y327277D01*
X398925Y327505D01*
D02*
G37*
G36*
X397925D02*
X397074Y327277D01*
X396276Y326816D01*
X395624Y326165D01*
X395164Y325367D01*
X394936Y324516D01*
X397925D01*
Y327505D01*
D02*
G37*
G36*
X401915Y323516D02*
X398925D01*
Y320526D01*
X399776Y320754D01*
X400574Y321215D01*
X401226Y321867D01*
X401687Y322665D01*
X401915Y323516D01*
D02*
G37*
G36*
X397925D02*
X394936D01*
X395164Y322665D01*
X395624Y321867D01*
X396276Y321215D01*
X397074Y320754D01*
X397925Y320526D01*
Y323516D01*
D02*
G37*
G36*
X236211Y320400D02*
X234923D01*
X233660Y320148D01*
X232470Y319656D01*
X231400Y318940D01*
X230489Y318030D01*
X229774Y316959D01*
X229281Y315769D01*
X229029Y314506D01*
Y313218D01*
X229281Y311955D01*
X229774Y310766D01*
X230489Y309695D01*
X231400Y308784D01*
X232470Y308069D01*
X233660Y307576D01*
X234923Y307325D01*
X236211D01*
X237474Y307576D01*
X238664Y308069D01*
X239734Y308784D01*
X240645Y309695D01*
X241360Y310766D01*
X241853Y311955D01*
X242104Y313218D01*
Y314506D01*
X241853Y315769D01*
X241360Y316959D01*
X240645Y318030D01*
X239734Y318940D01*
X238664Y319656D01*
X237474Y320148D01*
X236211Y320400D01*
D02*
G37*
G36*
X196211D02*
X194923D01*
X193660Y320148D01*
X192470Y319656D01*
X191400Y318940D01*
X190489Y318030D01*
X189774Y316959D01*
X189281Y315769D01*
X189030Y314506D01*
Y313218D01*
X189281Y311955D01*
X189774Y310766D01*
X190489Y309695D01*
X191400Y308784D01*
X192470Y308069D01*
X193660Y307576D01*
X194923Y307325D01*
X196211D01*
X197474Y307576D01*
X198664Y308069D01*
X199734Y308784D01*
X200645Y309695D01*
X201360Y310766D01*
X201853Y311955D01*
X202104Y313218D01*
Y314506D01*
X201853Y315769D01*
X201360Y316959D01*
X200645Y318030D01*
X199734Y318940D01*
X198664Y319656D01*
X197474Y320148D01*
X196211Y320400D01*
D02*
G37*
G36*
X310226Y320006D02*
X308939D01*
X307676Y319755D01*
X306486Y319262D01*
X305415Y318546D01*
X304505Y317636D01*
X303789Y316565D01*
X303296Y315375D01*
X303045Y314112D01*
Y312825D01*
X303296Y311562D01*
X303789Y310372D01*
X304505Y309301D01*
X305415Y308391D01*
X306486Y307675D01*
X307676Y307182D01*
X308939Y306931D01*
X310226D01*
X311490Y307182D01*
X312679Y307675D01*
X313750Y308391D01*
X314661Y309301D01*
X315376Y310372D01*
X315869Y311562D01*
X316120Y312825D01*
Y314112D01*
X315869Y315375D01*
X315376Y316565D01*
X314661Y317636D01*
X313750Y318546D01*
X312679Y319262D01*
X311490Y319755D01*
X310226Y320006D01*
D02*
G37*
G36*
X270227D02*
X268939D01*
X267676Y319755D01*
X266486Y319262D01*
X265415Y318546D01*
X264505Y317636D01*
X263789Y316565D01*
X263297Y315375D01*
X263045Y314112D01*
Y312825D01*
X263297Y311562D01*
X263789Y310372D01*
X264505Y309301D01*
X265415Y308391D01*
X266486Y307675D01*
X267676Y307182D01*
X268939Y306931D01*
X270227D01*
X271490Y307182D01*
X272679Y307675D01*
X273750Y308391D01*
X274661Y309301D01*
X275376Y310372D01*
X275869Y311562D01*
X276120Y312825D01*
Y314112D01*
X275869Y315375D01*
X275376Y316565D01*
X274661Y317636D01*
X273750Y318546D01*
X272679Y319262D01*
X271490Y319755D01*
X270227Y320006D01*
D02*
G37*
G36*
X161408Y319463D02*
X160120D01*
X158857Y319211D01*
X157667Y318719D01*
X156596Y318003D01*
X155686Y317092D01*
X154970Y316022D01*
X154478Y314832D01*
X154226Y313569D01*
Y312281D01*
X154478Y311018D01*
X154970Y309829D01*
X155686Y308758D01*
X156596Y307847D01*
X157667Y307132D01*
X158857Y306639D01*
X160120Y306388D01*
X161408D01*
X162671Y306639D01*
X163860Y307132D01*
X164931Y307847D01*
X165842Y308758D01*
X166557Y309829D01*
X167050Y311018D01*
X167301Y312281D01*
Y313569D01*
X167050Y314832D01*
X166557Y316022D01*
X165842Y317092D01*
X164931Y318003D01*
X163860Y318719D01*
X162671Y319211D01*
X161408Y319463D01*
D02*
G37*
G36*
X121408D02*
X120120D01*
X118857Y319211D01*
X117667Y318719D01*
X116596Y318003D01*
X115686Y317092D01*
X114970Y316022D01*
X114478Y314832D01*
X114226Y313569D01*
Y312281D01*
X114478Y311018D01*
X114970Y309829D01*
X115686Y308758D01*
X116596Y307847D01*
X117667Y307132D01*
X118857Y306639D01*
X120120Y306388D01*
X121408D01*
X122671Y306639D01*
X123860Y307132D01*
X124931Y307847D01*
X125842Y308758D01*
X126557Y309829D01*
X127050Y311018D01*
X127301Y312281D01*
Y313569D01*
X127050Y314832D01*
X126557Y316022D01*
X125842Y317092D01*
X124931Y318003D01*
X123860Y318719D01*
X122671Y319211D01*
X121408Y319463D01*
D02*
G37*
G36*
X216131Y298150D02*
X215002D01*
X213912Y297857D01*
X212934Y297293D01*
X212136Y296495D01*
X211572Y295517D01*
X211280Y294427D01*
Y293298D01*
X211572Y292207D01*
X212136Y291230D01*
X212934Y290431D01*
X213912Y289867D01*
X215002Y289575D01*
X216131D01*
X217222Y289867D01*
X218199Y290431D01*
X218998Y291230D01*
X219562Y292207D01*
X219854Y293298D01*
Y294427D01*
X219562Y295517D01*
X218998Y296495D01*
X218199Y297293D01*
X217222Y297857D01*
X216131Y298150D01*
D02*
G37*
G36*
X206131D02*
X205002D01*
X203912Y297857D01*
X202934Y297293D01*
X202136Y296495D01*
X201572Y295517D01*
X201279Y294427D01*
Y293298D01*
X201572Y292207D01*
X202136Y291230D01*
X202934Y290431D01*
X203912Y289867D01*
X205002Y289575D01*
X206131D01*
X207222Y289867D01*
X208200Y290431D01*
X208998Y291230D01*
X209562Y292207D01*
X209854Y293298D01*
Y294427D01*
X209562Y295517D01*
X208998Y296495D01*
X208200Y297293D01*
X207222Y297857D01*
X206131Y298150D01*
D02*
G37*
G36*
X290147Y297756D02*
X289018D01*
X287928Y297464D01*
X286950Y296899D01*
X286152Y296101D01*
X285587Y295123D01*
X285295Y294033D01*
Y292904D01*
X285587Y291814D01*
X286152Y290836D01*
X286950Y290038D01*
X287928Y289473D01*
X289018Y289181D01*
X290147D01*
X291238Y289473D01*
X292215Y290038D01*
X293014Y290836D01*
X293578Y291814D01*
X293870Y292904D01*
Y294033D01*
X293578Y295123D01*
X293014Y296101D01*
X292215Y296899D01*
X291238Y297464D01*
X290147Y297756D01*
D02*
G37*
G36*
X280147D02*
X279018D01*
X277928Y297464D01*
X276950Y296899D01*
X276152Y296101D01*
X275587Y295123D01*
X275295Y294033D01*
Y292904D01*
X275587Y291814D01*
X276152Y290836D01*
X276950Y290038D01*
X277928Y289473D01*
X279018Y289181D01*
X280147D01*
X281238Y289473D01*
X282215Y290038D01*
X283014Y290836D01*
X283578Y291814D01*
X283870Y292904D01*
Y294033D01*
X283578Y295123D01*
X283014Y296101D01*
X282215Y296899D01*
X281238Y297464D01*
X280147Y297756D01*
D02*
G37*
G36*
X141328Y297213D02*
X140199D01*
X139109Y296920D01*
X138131Y296356D01*
X137333Y295558D01*
X136769Y294580D01*
X136476Y293490D01*
Y292361D01*
X136769Y291270D01*
X137333Y290293D01*
X138131Y289494D01*
X139109Y288930D01*
X140199Y288638D01*
X141328D01*
X142419Y288930D01*
X143396Y289494D01*
X144195Y290293D01*
X144759Y291270D01*
X145051Y292361D01*
Y293490D01*
X144759Y294580D01*
X144195Y295558D01*
X143396Y296356D01*
X142419Y296920D01*
X141328Y297213D01*
D02*
G37*
G36*
X131328D02*
X130199D01*
X129109Y296920D01*
X128131Y296356D01*
X127333Y295558D01*
X126769Y294580D01*
X126476Y293490D01*
Y292361D01*
X126769Y291270D01*
X127333Y290293D01*
X128131Y289494D01*
X129109Y288930D01*
X130199Y288638D01*
X131328D01*
X132419Y288930D01*
X133396Y289494D01*
X134195Y290293D01*
X134759Y291270D01*
X135051Y292361D01*
Y293490D01*
X134759Y294580D01*
X134195Y295558D01*
X133396Y296356D01*
X132419Y296920D01*
X131328Y297213D01*
D02*
G37*
G36*
X56799Y266482D02*
Y263492D01*
X59789D01*
X59561Y264343D01*
X59100Y265141D01*
X58448Y265793D01*
X57650Y266254D01*
X56799Y266482D01*
D02*
G37*
G36*
X55799D02*
X54948Y266254D01*
X54150Y265793D01*
X53499Y265141D01*
X53038Y264343D01*
X52810Y263492D01*
X55799D01*
Y266482D01*
D02*
G37*
G36*
X59789Y262492D02*
X56799D01*
Y259503D01*
X57650Y259731D01*
X58448Y260191D01*
X59100Y260843D01*
X59561Y261641D01*
X59789Y262492D01*
D02*
G37*
G36*
X55799D02*
X52810D01*
X53038Y261641D01*
X53499Y260843D01*
X54150Y260191D01*
X54948Y259731D01*
X55799Y259503D01*
Y262492D01*
D02*
G37*
G36*
X40777Y243776D02*
X39325D01*
X37924Y243400D01*
X36667Y242674D01*
X35641Y241648D01*
X34915Y240391D01*
X34539Y238989D01*
Y237538D01*
X34915Y236136D01*
X35641Y234879D01*
X36667Y233853D01*
X37924Y233128D01*
X39325Y232752D01*
X40777D01*
X42179Y233128D01*
X43435Y233853D01*
X44462Y234879D01*
X45187Y236136D01*
X45563Y237538D01*
Y238989D01*
X45187Y240391D01*
X44462Y241648D01*
X43435Y242674D01*
X42179Y243400D01*
X40777Y243776D01*
D02*
G37*
G36*
X27280Y238661D02*
X25823D01*
X24393Y238377D01*
X23047Y237820D01*
X21836Y237010D01*
X20805Y235980D01*
X19996Y234768D01*
X19438Y233422D01*
X19153Y231992D01*
Y230535D01*
X19438Y229106D01*
X19996Y227760D01*
X20805Y226548D01*
X21836Y225518D01*
X23047Y224708D01*
X24393Y224150D01*
X25823Y223866D01*
X27280D01*
X28709Y224150D01*
X30055Y224708D01*
X31267Y225518D01*
X32297Y226548D01*
X33107Y227760D01*
X33665Y229106D01*
X33949Y230535D01*
Y231992D01*
X33665Y233422D01*
X33107Y234768D01*
X32297Y235980D01*
X31267Y237010D01*
X30055Y237820D01*
X28709Y238377D01*
X27280Y238661D01*
D02*
G37*
G36*
X403679Y229868D02*
X402392D01*
X401128Y229617D01*
X399939Y229124D01*
X398868Y228409D01*
X397957Y227498D01*
X397242Y226427D01*
X396749Y225238D01*
X396498Y223975D01*
Y222687D01*
X396749Y221424D01*
X397242Y220234D01*
X397957Y219163D01*
X398868Y218253D01*
X399939Y217537D01*
X401128Y217044D01*
X402392Y216793D01*
X403679D01*
X404942Y217044D01*
X406132Y217537D01*
X407203Y218253D01*
X408113Y219163D01*
X408829Y220234D01*
X409322Y221424D01*
X409573Y222687D01*
Y223975D01*
X409322Y225238D01*
X408829Y226427D01*
X408113Y227498D01*
X407203Y228409D01*
X406132Y229124D01*
X404942Y229617D01*
X403679Y229868D01*
D02*
G37*
G36*
X44018Y223807D02*
X43085D01*
X42184Y223566D01*
X41375Y223099D01*
X40716Y222439D01*
X40249Y221631D01*
X40008Y220730D01*
Y219797D01*
X40249Y218896D01*
X40716Y218088D01*
X41375Y217428D01*
X42184Y216962D01*
X43085Y216721D01*
X44018D01*
X44919Y216962D01*
X45727Y217428D01*
X46387Y218088D01*
X46853Y218896D01*
X47095Y219797D01*
Y220730D01*
X46853Y221631D01*
X46387Y222439D01*
X45727Y223099D01*
X44919Y223566D01*
X44018Y223807D01*
D02*
G37*
G36*
X195195Y214567D02*
X194569D01*
X193990Y214327D01*
X193859Y214196D01*
X95511D01*
X95380Y214327D01*
X94801Y214567D01*
X94175D01*
X93596Y214327D01*
X93153Y213884D01*
X92913Y213305D01*
Y212679D01*
X93153Y212100D01*
X93596Y211657D01*
X94175Y211417D01*
X94801D01*
X95380Y211657D01*
X95511Y211788D01*
X193859D01*
X193990Y211657D01*
X194569Y211417D01*
X195195D01*
X195774Y211657D01*
X196217Y212100D01*
X196457Y212679D01*
Y213305D01*
X196217Y213884D01*
X195774Y214327D01*
X195195Y214567D01*
D02*
G37*
G36*
X37018Y219807D02*
X36085D01*
X35184Y219566D01*
X34376Y219099D01*
X33716Y218439D01*
X33249Y217631D01*
X33008Y216730D01*
Y215797D01*
X33249Y214896D01*
X33716Y214088D01*
X34376Y213428D01*
X35184Y212962D01*
X36085Y212720D01*
X37018D01*
X37919Y212962D01*
X38727Y213428D01*
X39386Y214088D01*
X39853Y214896D01*
X40095Y215797D01*
Y216730D01*
X39853Y217631D01*
X39386Y218439D01*
X38727Y219099D01*
X37919Y219566D01*
X37018Y219807D01*
D02*
G37*
G36*
X383600Y217618D02*
X382471D01*
X381381Y217326D01*
X380403Y216761D01*
X379605Y215963D01*
X379040Y214986D01*
X378748Y213895D01*
Y212766D01*
X379040Y211676D01*
X379605Y210698D01*
X380403Y209900D01*
X381381Y209335D01*
X382471Y209043D01*
X383600D01*
X384690Y209335D01*
X385668Y209900D01*
X386466Y210698D01*
X387031Y211676D01*
X387323Y212766D01*
Y213895D01*
X387031Y214986D01*
X386466Y215963D01*
X385668Y216761D01*
X384690Y217326D01*
X383600Y217618D01*
D02*
G37*
G36*
X44018Y215807D02*
X43085D01*
X42184Y215566D01*
X41375Y215099D01*
X40716Y214439D01*
X40249Y213631D01*
X40008Y212730D01*
Y211797D01*
X40249Y210896D01*
X40716Y210088D01*
X41375Y209428D01*
X42184Y208962D01*
X43085Y208720D01*
X44018D01*
X44919Y208962D01*
X45727Y209428D01*
X46387Y210088D01*
X46853Y210896D01*
X47095Y211797D01*
Y212730D01*
X46853Y213631D01*
X46387Y214439D01*
X45727Y215099D01*
X44919Y215566D01*
X44018Y215807D01*
D02*
G37*
G36*
X37018Y211807D02*
X36085D01*
X35184Y211566D01*
X34376Y211099D01*
X33716Y210439D01*
X33249Y209631D01*
X33008Y208730D01*
Y207797D01*
X33249Y206896D01*
X33716Y206088D01*
X34376Y205428D01*
X35184Y204962D01*
X36085Y204720D01*
X37018D01*
X37919Y204962D01*
X38727Y205428D01*
X39386Y206088D01*
X39853Y206896D01*
X40095Y207797D01*
Y208730D01*
X39853Y209631D01*
X39386Y210439D01*
X38727Y211099D01*
X37919Y211566D01*
X37018Y211807D01*
D02*
G37*
G36*
X44018Y207807D02*
X43085D01*
X42184Y207566D01*
X41375Y207099D01*
X40716Y206439D01*
X40249Y205631D01*
X40008Y204730D01*
Y203797D01*
X40249Y202896D01*
X40716Y202088D01*
X41375Y201428D01*
X42184Y200962D01*
X43085Y200721D01*
X44018D01*
X44919Y200962D01*
X45727Y201428D01*
X46387Y202088D01*
X46853Y202896D01*
X47095Y203797D01*
Y204730D01*
X46853Y205631D01*
X46387Y206439D01*
X45727Y207099D01*
X44919Y207566D01*
X44018Y207807D01*
D02*
G37*
G36*
X383600Y207618D02*
X382471D01*
X381381Y207326D01*
X380403Y206762D01*
X379605Y205963D01*
X379040Y204986D01*
X378748Y203895D01*
Y202766D01*
X379040Y201676D01*
X379605Y200698D01*
X380403Y199900D01*
X381381Y199336D01*
X382471Y199043D01*
X383600D01*
X384690Y199336D01*
X385668Y199900D01*
X386466Y200698D01*
X387031Y201676D01*
X387323Y202766D01*
Y203895D01*
X387031Y204986D01*
X386466Y205963D01*
X385668Y206762D01*
X384690Y207326D01*
X383600Y207618D01*
D02*
G37*
G36*
X37018Y203807D02*
X36085D01*
X35184Y203566D01*
X34376Y203099D01*
X33716Y202439D01*
X33249Y201631D01*
X33008Y200730D01*
Y199797D01*
X33249Y198896D01*
X33716Y198088D01*
X34376Y197428D01*
X35184Y196962D01*
X36085Y196721D01*
X37018D01*
X37919Y196962D01*
X38727Y197428D01*
X39386Y198088D01*
X39853Y198896D01*
X40095Y199797D01*
Y200730D01*
X39853Y201631D01*
X39386Y202439D01*
X38727Y203099D01*
X37919Y203566D01*
X37018Y203807D01*
D02*
G37*
G36*
X44018Y199807D02*
X43085D01*
X42184Y199566D01*
X41375Y199099D01*
X40716Y198439D01*
X40249Y197631D01*
X40008Y196730D01*
Y195938D01*
X40008Y195807D01*
X39770Y195807D01*
X33008D01*
Y188721D01*
X40095D01*
Y194164D01*
X40595Y194298D01*
X40716Y194088D01*
X41375Y193428D01*
X42184Y192962D01*
X43085Y192720D01*
X44018D01*
X44919Y192962D01*
X45727Y193428D01*
X46387Y194088D01*
X46853Y194896D01*
X47095Y195797D01*
Y196730D01*
X46853Y197631D01*
X46387Y198439D01*
X45727Y199099D01*
X44919Y199566D01*
X44018Y199807D01*
D02*
G37*
G36*
X146169Y183017D02*
Y180028D01*
X149159D01*
X148931Y180878D01*
X148470Y181677D01*
X147818Y182328D01*
X147020Y182789D01*
X146169Y183017D01*
D02*
G37*
G36*
X145169D02*
X144318Y182789D01*
X143520Y182328D01*
X142869Y181677D01*
X142408Y180878D01*
X142180Y180028D01*
X145169D01*
Y183017D01*
D02*
G37*
G36*
X403679Y189868D02*
X402392D01*
X401128Y189617D01*
X399939Y189124D01*
X398868Y188409D01*
X397957Y187498D01*
X397242Y186427D01*
X396749Y185238D01*
X396498Y183975D01*
Y182687D01*
X396749Y181424D01*
X397242Y180234D01*
X397957Y179163D01*
X398868Y178253D01*
X399939Y177537D01*
X401128Y177045D01*
X402392Y176793D01*
X403679D01*
X404942Y177045D01*
X406132Y177537D01*
X407203Y178253D01*
X408113Y179163D01*
X408829Y180234D01*
X409322Y181424D01*
X409573Y182687D01*
Y183975D01*
X409322Y185238D01*
X408829Y186427D01*
X408113Y187498D01*
X407203Y188409D01*
X406132Y189124D01*
X404942Y189617D01*
X403679Y189868D01*
D02*
G37*
G36*
X149159Y179028D02*
X146169D01*
Y176038D01*
X147020Y176266D01*
X147818Y176727D01*
X148470Y177378D01*
X148931Y178177D01*
X149159Y179028D01*
D02*
G37*
G36*
X145169D02*
X142180D01*
X142408Y178177D01*
X142869Y177378D01*
X143520Y176727D01*
X144318Y176266D01*
X145169Y176038D01*
Y179028D01*
D02*
G37*
G36*
X44018Y161807D02*
X43085D01*
X42184Y161566D01*
X41375Y161099D01*
X40716Y160439D01*
X40249Y159631D01*
X40008Y158730D01*
Y157797D01*
X40249Y156896D01*
X40716Y156088D01*
X41375Y155428D01*
X42184Y154962D01*
X43085Y154720D01*
X44018D01*
X44919Y154962D01*
X45727Y155428D01*
X46387Y156088D01*
X46853Y156896D01*
X47095Y157797D01*
Y158730D01*
X46853Y159631D01*
X46387Y160439D01*
X45727Y161099D01*
X44919Y161566D01*
X44018Y161807D01*
D02*
G37*
G36*
X37018Y157807D02*
X36085D01*
X35184Y157566D01*
X34376Y157099D01*
X33716Y156439D01*
X33249Y155631D01*
X33008Y154730D01*
Y153797D01*
X33249Y152896D01*
X33716Y152088D01*
X34376Y151428D01*
X35184Y150962D01*
X36085Y150721D01*
X37018D01*
X37919Y150962D01*
X38727Y151428D01*
X39386Y152088D01*
X39853Y152896D01*
X40095Y153797D01*
Y154730D01*
X39853Y155631D01*
X39386Y156439D01*
X38727Y157099D01*
X37919Y157566D01*
X37018Y157807D01*
D02*
G37*
G36*
X44018Y153807D02*
X43085D01*
X42184Y153566D01*
X41375Y153099D01*
X40716Y152439D01*
X40249Y151631D01*
X40008Y150730D01*
Y149797D01*
X40249Y148896D01*
X40716Y148088D01*
X41375Y147428D01*
X42184Y146962D01*
X43085Y146721D01*
X44018D01*
X44919Y146962D01*
X45727Y147428D01*
X46387Y148088D01*
X46853Y148896D01*
X47095Y149797D01*
Y150730D01*
X46853Y151631D01*
X46387Y152439D01*
X45727Y153099D01*
X44919Y153566D01*
X44018Y153807D01*
D02*
G37*
G36*
X402892Y157821D02*
X401604D01*
X400341Y157570D01*
X399151Y157077D01*
X398081Y156361D01*
X397170Y155451D01*
X396455Y154380D01*
X395962Y153190D01*
X395711Y151927D01*
Y150640D01*
X395962Y149377D01*
X396455Y148187D01*
X397170Y147116D01*
X398081Y146205D01*
X399151Y145490D01*
X400341Y144997D01*
X401604Y144746D01*
X402892D01*
X404155Y144997D01*
X405345Y145490D01*
X406415Y146205D01*
X407326Y147116D01*
X408041Y148187D01*
X408534Y149377D01*
X408785Y150640D01*
Y151927D01*
X408534Y153190D01*
X408041Y154380D01*
X407326Y155451D01*
X406415Y156361D01*
X405345Y157077D01*
X404155Y157570D01*
X402892Y157821D01*
D02*
G37*
G36*
X37018Y149807D02*
X36085D01*
X35184Y149566D01*
X34376Y149099D01*
X33716Y148439D01*
X33249Y147631D01*
X33008Y146730D01*
Y145797D01*
X33249Y144896D01*
X33716Y144088D01*
X34376Y143428D01*
X35184Y142962D01*
X36085Y142720D01*
X37018D01*
X37919Y142962D01*
X38727Y143428D01*
X39386Y144088D01*
X39853Y144896D01*
X40095Y145797D01*
Y146730D01*
X39853Y147631D01*
X39386Y148439D01*
X38727Y149099D01*
X37919Y149566D01*
X37018Y149807D01*
D02*
G37*
G36*
X44018Y145807D02*
X43085D01*
X42184Y145566D01*
X41375Y145099D01*
X40716Y144439D01*
X40249Y143631D01*
X40008Y142730D01*
Y141797D01*
X40249Y140896D01*
X40716Y140088D01*
X41375Y139428D01*
X42184Y138962D01*
X43085Y138721D01*
X44018D01*
X44919Y138962D01*
X45727Y139428D01*
X46387Y140088D01*
X46853Y140896D01*
X47095Y141797D01*
Y142730D01*
X46853Y143631D01*
X46387Y144439D01*
X45727Y145099D01*
X44919Y145566D01*
X44018Y145807D01*
D02*
G37*
G36*
X225116Y152756D02*
X224490D01*
X223911Y152516D01*
X223468Y152073D01*
X223228Y151494D01*
Y150868D01*
X223468Y150289D01*
X223599Y150158D01*
Y140393D01*
X223468Y140262D01*
X223228Y139683D01*
Y139057D01*
X223468Y138478D01*
X223911Y138035D01*
X224490Y137795D01*
X225116D01*
X225695Y138035D01*
X226138Y138478D01*
X226378Y139057D01*
Y139683D01*
X226138Y140262D01*
X226007Y140393D01*
Y150158D01*
X226138Y150289D01*
X226378Y150868D01*
Y151494D01*
X226138Y152073D01*
X225695Y152516D01*
X225116Y152756D01*
D02*
G37*
G36*
X382812Y145571D02*
X381684D01*
X380593Y145279D01*
X379615Y144714D01*
X378817Y143916D01*
X378253Y142938D01*
X377961Y141848D01*
Y140719D01*
X378253Y139629D01*
X378817Y138651D01*
X379615Y137853D01*
X380593Y137288D01*
X381684Y136996D01*
X382812D01*
X383903Y137288D01*
X384880Y137853D01*
X385679Y138651D01*
X386243Y139629D01*
X386535Y140719D01*
Y141848D01*
X386243Y142938D01*
X385679Y143916D01*
X384880Y144714D01*
X383903Y145279D01*
X382812Y145571D01*
D02*
G37*
G36*
X37018Y141807D02*
X36085D01*
X35184Y141566D01*
X34376Y141099D01*
X33716Y140439D01*
X33249Y139631D01*
X33008Y138730D01*
Y137797D01*
X33249Y136896D01*
X33716Y136088D01*
X34376Y135428D01*
X35184Y134962D01*
X36085Y134721D01*
X37018D01*
X37919Y134962D01*
X38727Y135428D01*
X39386Y136088D01*
X39853Y136896D01*
X40095Y137797D01*
Y138730D01*
X39853Y139631D01*
X39386Y140439D01*
X38727Y141099D01*
X37919Y141566D01*
X37018Y141807D01*
D02*
G37*
G36*
X44018Y137807D02*
X43085D01*
X42184Y137566D01*
X41375Y137099D01*
X40716Y136439D01*
X40249Y135631D01*
X40008Y134730D01*
Y133938D01*
X40008Y133807D01*
X39770Y133807D01*
X33008D01*
Y126720D01*
X40095D01*
Y132164D01*
X40595Y132298D01*
X40716Y132088D01*
X41375Y131428D01*
X42184Y130962D01*
X43085Y130720D01*
X44018D01*
X44919Y130962D01*
X45727Y131428D01*
X46387Y132088D01*
X46853Y132896D01*
X47095Y133797D01*
Y134730D01*
X46853Y135631D01*
X46387Y136439D01*
X45727Y137099D01*
X44919Y137566D01*
X44018Y137807D01*
D02*
G37*
G36*
X382812Y135571D02*
X381684D01*
X380593Y135279D01*
X379615Y134714D01*
X378817Y133916D01*
X378253Y132938D01*
X377961Y131848D01*
Y130719D01*
X378253Y129629D01*
X378817Y128651D01*
X379615Y127853D01*
X380593Y127288D01*
X381684Y126996D01*
X382812D01*
X383903Y127288D01*
X384880Y127853D01*
X385679Y128651D01*
X386243Y129629D01*
X386535Y130719D01*
Y131848D01*
X386243Y132938D01*
X385679Y133916D01*
X384880Y134714D01*
X383903Y135279D01*
X382812Y135571D01*
D02*
G37*
G36*
X27280Y126661D02*
X25823D01*
X24393Y126377D01*
X23047Y125820D01*
X21836Y125010D01*
X20805Y123979D01*
X19996Y122768D01*
X19438Y121422D01*
X19153Y119992D01*
Y118535D01*
X19438Y117106D01*
X19996Y115760D01*
X20805Y114548D01*
X21836Y113518D01*
X23047Y112708D01*
X24393Y112150D01*
X25823Y111866D01*
X27280D01*
X28709Y112150D01*
X30055Y112708D01*
X31267Y113518D01*
X32297Y114548D01*
X33107Y115760D01*
X33665Y117106D01*
X33949Y118535D01*
Y119992D01*
X33665Y121422D01*
X33107Y122768D01*
X32297Y123979D01*
X31267Y125010D01*
X30055Y125820D01*
X28709Y126377D01*
X27280Y126661D01*
D02*
G37*
G36*
X40777Y117776D02*
X39325D01*
X37924Y117400D01*
X36667Y116674D01*
X35641Y115648D01*
X34915Y114391D01*
X34539Y112989D01*
Y111538D01*
X34915Y110136D01*
X35641Y108879D01*
X36667Y107853D01*
X37924Y107128D01*
X39325Y106752D01*
X40777D01*
X42179Y107128D01*
X43435Y107853D01*
X44462Y108879D01*
X45187Y110136D01*
X45563Y111538D01*
Y112989D01*
X45187Y114391D01*
X44462Y115648D01*
X43435Y116674D01*
X42179Y117400D01*
X40777Y117776D01*
D02*
G37*
G36*
X402892Y117821D02*
X401604D01*
X400341Y117570D01*
X399151Y117077D01*
X398081Y116361D01*
X397170Y115451D01*
X396455Y114380D01*
X395962Y113190D01*
X395711Y111927D01*
Y110640D01*
X395962Y109377D01*
X396455Y108187D01*
X397170Y107116D01*
X398081Y106205D01*
X399151Y105490D01*
X400341Y104997D01*
X401604Y104746D01*
X402892D01*
X404155Y104997D01*
X405345Y105490D01*
X406415Y106205D01*
X407326Y107116D01*
X408041Y108187D01*
X408534Y109377D01*
X408785Y110640D01*
Y111927D01*
X408534Y113190D01*
X408041Y114380D01*
X407326Y115451D01*
X406415Y116361D01*
X405345Y117077D01*
X404155Y117570D01*
X402892Y117821D01*
D02*
G37*
G36*
X298541Y55701D02*
X297412D01*
X296322Y55409D01*
X295344Y54844D01*
X294546Y54046D01*
X293981Y53068D01*
X293689Y51978D01*
Y50849D01*
X293981Y49758D01*
X294546Y48781D01*
X295344Y47983D01*
X296322Y47418D01*
X297412Y47126D01*
X298541D01*
X299631Y47418D01*
X300609Y47983D01*
X301407Y48781D01*
X301972Y49758D01*
X302264Y50849D01*
Y51978D01*
X301972Y53068D01*
X301407Y54046D01*
X300609Y54844D01*
X299631Y55409D01*
X298541Y55701D01*
D02*
G37*
G36*
X288541D02*
X287412D01*
X286321Y55409D01*
X285344Y54844D01*
X284546Y54046D01*
X283981Y53068D01*
X283689Y51978D01*
Y50849D01*
X283981Y49758D01*
X284546Y48781D01*
X285344Y47983D01*
X286321Y47418D01*
X287412Y47126D01*
X288541D01*
X289631Y47418D01*
X290609Y47983D01*
X291407Y48781D01*
X291972Y49758D01*
X292264Y50849D01*
Y51978D01*
X291972Y53068D01*
X291407Y54046D01*
X290609Y54844D01*
X289631Y55409D01*
X288541Y55701D01*
D02*
G37*
G36*
X152084D02*
X150955D01*
X149865Y55409D01*
X148887Y54844D01*
X148089Y54046D01*
X147524Y53068D01*
X147232Y51978D01*
Y50849D01*
X147524Y49758D01*
X148089Y48781D01*
X148887Y47983D01*
X149865Y47418D01*
X150955Y47126D01*
X152084D01*
X153175Y47418D01*
X154152Y47983D01*
X154950Y48781D01*
X155515Y49758D01*
X155807Y50849D01*
Y51978D01*
X155515Y53068D01*
X154950Y54046D01*
X154152Y54844D01*
X153175Y55409D01*
X152084Y55701D01*
D02*
G37*
G36*
X142084D02*
X140955D01*
X139865Y55409D01*
X138887Y54844D01*
X138089Y54046D01*
X137524Y53068D01*
X137232Y51978D01*
Y50849D01*
X137524Y49758D01*
X138089Y48781D01*
X138887Y47983D01*
X139865Y47418D01*
X140955Y47126D01*
X142084D01*
X143175Y47418D01*
X144152Y47983D01*
X144950Y48781D01*
X145515Y49758D01*
X145807Y50849D01*
Y51978D01*
X145515Y53068D01*
X144950Y54046D01*
X144152Y54844D01*
X143175Y55409D01*
X142084Y55701D01*
D02*
G37*
G36*
X225312Y55307D02*
X224184D01*
X223093Y55015D01*
X222115Y54451D01*
X221317Y53652D01*
X220753Y52675D01*
X220461Y51584D01*
Y50455D01*
X220753Y49365D01*
X221317Y48387D01*
X222115Y47589D01*
X223093Y47025D01*
X224184Y46732D01*
X225312D01*
X226403Y47025D01*
X227381Y47589D01*
X228179Y48387D01*
X228743Y49365D01*
X229035Y50455D01*
Y51584D01*
X228743Y52675D01*
X228179Y53652D01*
X227381Y54451D01*
X226403Y55015D01*
X225312Y55307D01*
D02*
G37*
G36*
X215313D02*
X214184D01*
X213093Y55015D01*
X212116Y54451D01*
X211317Y53652D01*
X210753Y52675D01*
X210461Y51584D01*
Y50455D01*
X210753Y49365D01*
X211317Y48387D01*
X212116Y47589D01*
X213093Y47025D01*
X214184Y46732D01*
X215313D01*
X216403Y47025D01*
X217381Y47589D01*
X218179Y48387D01*
X218743Y49365D01*
X219035Y50455D01*
Y51584D01*
X218743Y52675D01*
X218179Y53652D01*
X217381Y54451D01*
X216403Y55015D01*
X215313Y55307D01*
D02*
G37*
G36*
X38689Y34198D02*
Y31209D01*
X41679D01*
X41451Y32060D01*
X40990Y32858D01*
X40338Y33509D01*
X39540Y33970D01*
X38689Y34198D01*
D02*
G37*
G36*
X37689D02*
X36838Y33970D01*
X36040Y33509D01*
X35388Y32858D01*
X34927Y32060D01*
X34699Y31209D01*
X37689D01*
Y34198D01*
D02*
G37*
G36*
X402075Y31049D02*
Y28059D01*
X405064D01*
X404836Y28910D01*
X404376Y29708D01*
X403724Y30360D01*
X402926Y30821D01*
X402075Y31049D01*
D02*
G37*
G36*
X401075D02*
X400224Y30821D01*
X399426Y30360D01*
X398774Y29708D01*
X398313Y28910D01*
X398085Y28059D01*
X401075D01*
Y31049D01*
D02*
G37*
G36*
X41679Y30209D02*
X38689D01*
Y27219D01*
X39540Y27447D01*
X40338Y27908D01*
X40990Y28560D01*
X41451Y29358D01*
X41679Y30209D01*
D02*
G37*
G36*
X37689D02*
X34699D01*
X34927Y29358D01*
X35388Y28560D01*
X36040Y27908D01*
X36838Y27447D01*
X37689Y27219D01*
Y30209D01*
D02*
G37*
G36*
X308620Y37951D02*
X307332D01*
X306069Y37700D01*
X304880Y37207D01*
X303809Y36491D01*
X302899Y35581D01*
X302183Y34510D01*
X301690Y33320D01*
X301439Y32057D01*
Y30770D01*
X301690Y29506D01*
X302183Y28317D01*
X302899Y27246D01*
X303809Y26335D01*
X304880Y25620D01*
X306069Y25127D01*
X307332Y24876D01*
X308620D01*
X309883Y25127D01*
X311073Y25620D01*
X312144Y26335D01*
X313054Y27246D01*
X313770Y28317D01*
X314263Y29506D01*
X314514Y30770D01*
Y32057D01*
X314263Y33320D01*
X313770Y34510D01*
X313054Y35581D01*
X312144Y36491D01*
X311073Y37207D01*
X309883Y37700D01*
X308620Y37951D01*
D02*
G37*
G36*
X268620D02*
X267333D01*
X266070Y37700D01*
X264880Y37207D01*
X263809Y36491D01*
X262898Y35581D01*
X262183Y34510D01*
X261690Y33320D01*
X261439Y32057D01*
Y30770D01*
X261690Y29506D01*
X262183Y28317D01*
X262898Y27246D01*
X263809Y26335D01*
X264880Y25620D01*
X266070Y25127D01*
X267333Y24876D01*
X268620D01*
X269883Y25127D01*
X271073Y25620D01*
X272144Y26335D01*
X273054Y27246D01*
X273770Y28317D01*
X274263Y29506D01*
X274514Y30770D01*
Y32057D01*
X274263Y33320D01*
X273770Y34510D01*
X273054Y35581D01*
X272144Y36491D01*
X271073Y37207D01*
X269883Y37700D01*
X268620Y37951D01*
D02*
G37*
G36*
X162164D02*
X160876D01*
X159613Y37700D01*
X158423Y37207D01*
X157352Y36491D01*
X156442Y35581D01*
X155726Y34510D01*
X155234Y33320D01*
X154982Y32057D01*
Y30770D01*
X155234Y29506D01*
X155726Y28317D01*
X156442Y27246D01*
X157352Y26335D01*
X158423Y25620D01*
X159613Y25127D01*
X160876Y24876D01*
X162164D01*
X163427Y25127D01*
X164616Y25620D01*
X165687Y26335D01*
X166598Y27246D01*
X167313Y28317D01*
X167806Y29506D01*
X168057Y30770D01*
Y32057D01*
X167806Y33320D01*
X167313Y34510D01*
X166598Y35581D01*
X165687Y36491D01*
X164616Y37207D01*
X163427Y37700D01*
X162164Y37951D01*
D02*
G37*
G36*
X122164D02*
X120876D01*
X119613Y37700D01*
X118423Y37207D01*
X117352Y36491D01*
X116442Y35581D01*
X115726Y34510D01*
X115234Y33320D01*
X114982Y32057D01*
Y30770D01*
X115234Y29506D01*
X115726Y28317D01*
X116442Y27246D01*
X117352Y26335D01*
X118423Y25620D01*
X119613Y25127D01*
X120876Y24876D01*
X122164D01*
X123427Y25127D01*
X124616Y25620D01*
X125687Y26335D01*
X126598Y27246D01*
X127313Y28317D01*
X127806Y29506D01*
X128057Y30770D01*
Y32057D01*
X127806Y33320D01*
X127313Y34510D01*
X126598Y35581D01*
X125687Y36491D01*
X124616Y37207D01*
X123427Y37700D01*
X122164Y37951D01*
D02*
G37*
G36*
X235392Y37557D02*
X234104D01*
X232841Y37306D01*
X231651Y36813D01*
X230581Y36098D01*
X229670Y35187D01*
X228955Y34116D01*
X228462Y32927D01*
X228211Y31664D01*
Y30376D01*
X228462Y29113D01*
X228955Y27923D01*
X229670Y26852D01*
X230581Y25942D01*
X231651Y25226D01*
X232841Y24734D01*
X234104Y24482D01*
X235392D01*
X236655Y24734D01*
X237845Y25226D01*
X238915Y25942D01*
X239826Y26852D01*
X240541Y27923D01*
X241034Y29113D01*
X241285Y30376D01*
Y31664D01*
X241034Y32927D01*
X240541Y34116D01*
X239826Y35187D01*
X238915Y36098D01*
X237845Y36813D01*
X236655Y37306D01*
X235392Y37557D01*
D02*
G37*
G36*
X195392D02*
X194104D01*
X192841Y37306D01*
X191651Y36813D01*
X190581Y36098D01*
X189670Y35187D01*
X188955Y34116D01*
X188462Y32927D01*
X188211Y31664D01*
Y30376D01*
X188462Y29113D01*
X188955Y27923D01*
X189670Y26852D01*
X190581Y25942D01*
X191651Y25226D01*
X192841Y24734D01*
X194104Y24482D01*
X195392D01*
X196655Y24734D01*
X197845Y25226D01*
X198915Y25942D01*
X199826Y26852D01*
X200541Y27923D01*
X201034Y29113D01*
X201285Y30376D01*
Y31664D01*
X201034Y32927D01*
X200541Y34116D01*
X199826Y35187D01*
X198915Y36098D01*
X197845Y36813D01*
X196655Y37306D01*
X195392Y37557D01*
D02*
G37*
G36*
X405064Y27059D02*
X402075D01*
Y24070D01*
X402926Y24298D01*
X403724Y24758D01*
X404376Y25410D01*
X404836Y26208D01*
X405064Y27059D01*
D02*
G37*
G36*
X401075D02*
X398085D01*
X398313Y26208D01*
X398774Y25410D01*
X399426Y24758D01*
X400224Y24298D01*
X401075Y24070D01*
Y27059D01*
D02*
G37*
G36*
X12549Y19307D02*
X11073D01*
X9624Y19019D01*
X8260Y18454D01*
X7033Y17634D01*
X5988Y16590D01*
X5168Y15362D01*
X4603Y13997D01*
X4315Y12549D01*
Y11073D01*
X4603Y9624D01*
X5168Y8260D01*
X5988Y7033D01*
X7033Y5988D01*
X8260Y5168D01*
X9624Y4603D01*
X11073Y4315D01*
X12549D01*
X13997Y4603D01*
X15362Y5168D01*
X16590Y5988D01*
X17634Y7033D01*
X18454Y8260D01*
X19019Y9624D01*
X19307Y11073D01*
Y12549D01*
X19019Y13997D01*
X18454Y15362D01*
X17634Y16590D01*
X16590Y17634D01*
X15362Y18454D01*
X13997Y19019D01*
X12549Y19307D01*
D02*
G37*
%LPD*%
D13*
X224803Y139370D02*
Y151181D01*
X94488Y212992D02*
X194882D01*
D38*
X36551Y192264D02*
D03*
Y130264D02*
D03*
D39*
X43551Y196264D02*
D03*
X36551Y200264D02*
D03*
X43551Y204264D02*
D03*
X36551Y208264D02*
D03*
X43551Y212264D02*
D03*
X36551Y216264D02*
D03*
X43551Y220264D02*
D03*
Y158264D02*
D03*
X36551Y154264D02*
D03*
X43551Y150264D02*
D03*
X36551Y146264D02*
D03*
X43551Y142264D02*
D03*
X36551Y138264D02*
D03*
X43551Y134264D02*
D03*
D40*
X26551Y231264D02*
D03*
Y119264D02*
D03*
D41*
X40051Y238264D02*
D03*
Y112264D02*
D03*
D42*
X421260Y334646D02*
D03*
Y11811D02*
D03*
X11811D02*
D03*
Y334646D02*
D03*
D43*
X402248Y151284D02*
D03*
Y111284D02*
D03*
X403035Y183331D02*
D03*
Y223331D02*
D03*
X121520Y31413D02*
D03*
X161520D02*
D03*
X194748Y31020D02*
D03*
X234748D02*
D03*
X267976Y31413D02*
D03*
X307976D02*
D03*
X235567Y313862D02*
D03*
X195567D02*
D03*
X309583Y313469D02*
D03*
X269583D02*
D03*
X160764Y312925D02*
D03*
X120764D02*
D03*
D44*
X382248Y141284D02*
D03*
Y131283D02*
D03*
X383035Y213331D02*
D03*
Y203331D02*
D03*
X151520Y51413D02*
D03*
X141520D02*
D03*
X224748Y51020D02*
D03*
X214748D02*
D03*
X297976Y51413D02*
D03*
X287976D02*
D03*
X205567Y293862D02*
D03*
X215567D02*
D03*
X279583Y293468D02*
D03*
X289583D02*
D03*
X130764Y292925D02*
D03*
X140764D02*
D03*
D45*
X145669Y179528D02*
D03*
X56299Y262992D02*
D03*
X398425Y324016D02*
D03*
X401575Y27559D02*
D03*
X38189Y30709D02*
D03*
D46*
X224803Y151181D02*
D03*
Y139370D02*
D03*
X194882Y212992D02*
D03*
X94488D02*
D03*
M02*
