M48
;Layer_Color=9474304
;FILE_FORMAT=2:4
INCH,TZ
;TYPE=PLATED
T01F00S00C0.0118
T02F00S00C0.0354
T03F00S00C0.0400
T04F00S00C0.0630
T05F00S00C0.0850
T06F00S00C0.1299
;TYPE=NON_PLATED
T07F00S00C0.1280
%
T01
X1772Y12087
X2205Y12520
X2244Y23189
T02
X5450Y16459
Y17459
Y18459
Y19459
X6450Y18959
Y17959
Y16959
Y15959
T03
X15748Y5906
Y6906
X15748Y13780
Y14780
Y21654
Y22654
X15748Y29528
Y30528
T04
X1772Y14665
Y20758
T05
X17748Y3906
Y7906
X17748Y11780
Y15780
Y19654
Y23654
X17748Y27528
Y31528
T06
X1575Y1575
X19291
X1575Y33858
X19291
T07
X2950Y15457
Y19957
M30
