M48
;Layer_Color=9474304
;FILE_FORMAT=2:4
INCH,TZ
;TYPE=PLATED
T1F00S00C0.0118
T2F00S00C0.0280
T3F00S00C0.0354
T4F00S00C0.0382
T5F00S00C0.0630
T6F00S00C0.0811
T7F00S00C0.1299
;TYPE=NON_PLATED
T8F00S00C0.1280
%
T01
X22480Y13937
Y15118
X19488Y21299
X9449
T02
X3819Y3071
X40157Y2756
X14567Y17953
X5630Y26299
X39843Y32402
T03
X3655Y13026
Y13826
Y14626
Y15426
X4355Y15026
Y14226
Y13426
Y15826
Y19626
Y20426
Y21226
Y22026
X3655Y21626
Y20826
Y20026
Y19226
T04
X14152Y5102
X15152
X21475
X22475
X28798
X29798
X38304Y13128
Y14128
Y20333
Y21333
X28958Y29386
X27958
X21557
X20557
X14076
X13076
T05
X4005Y11226
Y23826
T06
X12152Y3102
X16152
X19475
X23475
X26798
X30798
X40304Y11128
Y15128
Y18333
Y22333
X12076Y31386
X16076
X19557
X23557
X26958
X30958
T07
X1181Y1181
X42126
X1181Y33465
X42126
T08
X2655Y11926
Y23126
M30
