G04*
G04 #@! TF.GenerationSoftware,Altium Limited,Altium Designer,25.8.1 (18)*
G04*
G04 Layer_Physical_Order=2*
G04 Layer_Color=16711680*
%FSLAX25Y25*%
%MOIN*%
G70*
G04*
G04 #@! TF.SameCoordinates,67A00628-0582-4EEE-B3C0-3C6F6708BFE6*
G04*
G04*
G04 #@! TF.FilePolarity,Positive*
G04*
G01*
G75*
%ADD26C,0.05512*%
%ADD27C,0.12795*%
%ADD28C,0.09055*%
%ADD29C,0.11500*%
%ADD30C,0.07000*%
%ADD31C,0.06000*%
%ADD32C,0.02362*%
G36*
X207642Y1020D02*
X1020D01*
Y353311D01*
X207642D01*
Y1020D01*
D02*
G37*
%LPC*%
G36*
X193652Y346079D02*
X192175D01*
X190727Y345791D01*
X189363Y345226D01*
X188135Y344405D01*
X187091Y343361D01*
X186270Y342133D01*
X185705Y340769D01*
X185417Y339321D01*
Y337844D01*
X185705Y336396D01*
X186270Y335032D01*
X187091Y333804D01*
X188135Y332760D01*
X189363Y331940D01*
X190727Y331375D01*
X192175Y331087D01*
X193652D01*
X195100Y331375D01*
X196464Y331940D01*
X197692Y332760D01*
X198736Y333804D01*
X199556Y335032D01*
X200121Y336396D01*
X200409Y337844D01*
Y339321D01*
X200121Y340769D01*
X199556Y342133D01*
X198736Y343361D01*
X197692Y344405D01*
X196464Y345226D01*
X195100Y345791D01*
X193652Y346079D01*
D02*
G37*
G36*
X16486D02*
X15010D01*
X13562Y345791D01*
X12197Y345226D01*
X10970Y344405D01*
X9926Y343361D01*
X9105Y342133D01*
X8540Y340769D01*
X8252Y339321D01*
Y337844D01*
X8540Y336396D01*
X9105Y335032D01*
X9926Y333804D01*
X10970Y332760D01*
X12197Y331940D01*
X13562Y331375D01*
X15010Y331087D01*
X16486D01*
X17934Y331375D01*
X19299Y331940D01*
X20527Y332760D01*
X21571Y333804D01*
X22391Y335032D01*
X22956Y336396D01*
X23244Y337844D01*
Y339321D01*
X22956Y340769D01*
X22391Y342133D01*
X21571Y343361D01*
X20527Y344405D01*
X19299Y345226D01*
X17934Y345791D01*
X16486Y346079D01*
D02*
G37*
G36*
X178145Y322026D02*
X177980D01*
Y315776D01*
X184230D01*
Y315940D01*
X183971Y317245D01*
X183462Y318473D01*
X182723Y319578D01*
X181783Y320519D01*
X180678Y321257D01*
X179449Y321766D01*
X178145Y322026D01*
D02*
G37*
G36*
X176980D02*
X176815D01*
X175511Y321766D01*
X174283Y321257D01*
X173177Y320519D01*
X172237Y319578D01*
X171499Y318473D01*
X170990Y317245D01*
X170730Y315940D01*
Y315776D01*
X176980D01*
Y322026D01*
D02*
G37*
G36*
X184230Y314776D02*
X177980D01*
Y308526D01*
X178145D01*
X179449Y308785D01*
X180678Y309294D01*
X181783Y310033D01*
X182723Y310973D01*
X183462Y312078D01*
X183971Y313307D01*
X184230Y314611D01*
Y314776D01*
D02*
G37*
G36*
X176980D02*
X170730D01*
Y314611D01*
X170990Y313307D01*
X171499Y312078D01*
X172237Y310973D01*
X173177Y310033D01*
X174283Y309294D01*
X175511Y308785D01*
X176815Y308526D01*
X176980D01*
Y314776D01*
D02*
G37*
G36*
X158073Y309776D02*
X157980D01*
Y305776D01*
X161980D01*
Y305868D01*
X161674Y307013D01*
X161081Y308039D01*
X160243Y308876D01*
X159217Y309469D01*
X158073Y309776D01*
D02*
G37*
G36*
X156980D02*
X156888D01*
X155743Y309469D01*
X154717Y308876D01*
X153879Y308039D01*
X153287Y307013D01*
X152980Y305868D01*
Y305776D01*
X156980D01*
Y309776D01*
D02*
G37*
G36*
X161980Y304776D02*
X157980D01*
Y300776D01*
X158073D01*
X159217Y301082D01*
X160243Y301675D01*
X161081Y302513D01*
X161674Y303539D01*
X161980Y304683D01*
Y304776D01*
D02*
G37*
G36*
X156980D02*
X152980D01*
Y304683D01*
X153287Y303539D01*
X153879Y302513D01*
X154717Y301675D01*
X155743Y301082D01*
X156888Y300776D01*
X156980D01*
Y304776D01*
D02*
G37*
G36*
X158045Y299563D02*
X156916D01*
X155825Y299271D01*
X154848Y298706D01*
X154050Y297908D01*
X153485Y296931D01*
X153193Y295840D01*
Y294711D01*
X153485Y293621D01*
X154050Y292643D01*
X154848Y291845D01*
X155825Y291280D01*
X156916Y290988D01*
X158045D01*
X159135Y291280D01*
X160113Y291845D01*
X160911Y292643D01*
X161476Y293621D01*
X161768Y294711D01*
Y295840D01*
X161476Y296931D01*
X160911Y297908D01*
X160113Y298706D01*
X159135Y299271D01*
X158045Y299563D01*
D02*
G37*
G36*
X178145Y282026D02*
X177980D01*
Y275776D01*
X184230D01*
Y275940D01*
X183971Y277244D01*
X183462Y278473D01*
X182723Y279578D01*
X181783Y280519D01*
X180678Y281257D01*
X179449Y281766D01*
X178145Y282026D01*
D02*
G37*
G36*
X176980D02*
X176815D01*
X175511Y281766D01*
X174283Y281257D01*
X173177Y280519D01*
X172237Y279578D01*
X171499Y278473D01*
X170990Y277244D01*
X170730Y275940D01*
Y275776D01*
X176980D01*
Y282026D01*
D02*
G37*
G36*
X184230Y274776D02*
X177980D01*
Y268526D01*
X178145D01*
X179449Y268785D01*
X180678Y269294D01*
X181783Y270033D01*
X182723Y270973D01*
X183462Y272078D01*
X183971Y273307D01*
X184230Y274611D01*
Y274776D01*
D02*
G37*
G36*
X176980D02*
X170730D01*
Y274611D01*
X170990Y273307D01*
X171499Y272078D01*
X172237Y270973D01*
X173177Y270033D01*
X174283Y269294D01*
X175511Y268785D01*
X176815Y268526D01*
X176980D01*
Y274776D01*
D02*
G37*
G36*
X178145Y243285D02*
X177980D01*
Y237035D01*
X184230D01*
Y237200D01*
X183971Y238504D01*
X183462Y239733D01*
X182723Y240838D01*
X181783Y241778D01*
X180678Y242517D01*
X179449Y243026D01*
X178145Y243285D01*
D02*
G37*
G36*
X176980D02*
X176815D01*
X175511Y243026D01*
X174283Y242517D01*
X173177Y241778D01*
X172237Y240838D01*
X171499Y239733D01*
X170990Y238504D01*
X170730Y237200D01*
Y237035D01*
X176980D01*
Y243285D01*
D02*
G37*
G36*
X22941Y234044D02*
Y232390D01*
X24595D01*
X24290Y233125D01*
X23676Y233739D01*
X22941Y234044D01*
D02*
G37*
G36*
X21941D02*
X21205Y233739D01*
X20592Y233125D01*
X20287Y232390D01*
X21941D01*
Y234044D01*
D02*
G37*
G36*
X184230Y236035D02*
X177980D01*
Y229785D01*
X178145D01*
X179449Y230045D01*
X180678Y230554D01*
X181783Y231292D01*
X182723Y232232D01*
X183462Y233338D01*
X183971Y234566D01*
X184230Y235871D01*
Y236035D01*
D02*
G37*
G36*
X176980D02*
X170730D01*
Y235871D01*
X170990Y234566D01*
X171499Y233338D01*
X172237Y232232D01*
X173177Y231292D01*
X174283Y230554D01*
X175511Y230045D01*
X176815Y229785D01*
X176980D01*
Y236035D01*
D02*
G37*
G36*
X24595Y231390D02*
X22941D01*
Y229736D01*
X23676Y230041D01*
X24290Y230654D01*
X24595Y231390D01*
D02*
G37*
G36*
X21941D02*
X20287D01*
X20592Y230654D01*
X21205Y230041D01*
X21941Y229736D01*
Y231390D01*
D02*
G37*
G36*
X158073Y231035D02*
X157980D01*
Y227035D01*
X161980D01*
Y227128D01*
X161674Y228272D01*
X161081Y229298D01*
X160243Y230136D01*
X159217Y230729D01*
X158073Y231035D01*
D02*
G37*
G36*
X156980D02*
X156888D01*
X155743Y230729D01*
X154717Y230136D01*
X153879Y229298D01*
X153287Y228272D01*
X152980Y227128D01*
Y227035D01*
X156980D01*
Y231035D01*
D02*
G37*
G36*
X161980Y226035D02*
X157980D01*
Y222035D01*
X158073D01*
X159217Y222342D01*
X160243Y222935D01*
X161081Y223772D01*
X161674Y224798D01*
X161980Y225943D01*
Y226035D01*
D02*
G37*
G36*
X156980D02*
X152980D01*
Y225943D01*
X153287Y224798D01*
X153879Y223772D01*
X154717Y222935D01*
X155743Y222342D01*
X156888Y222035D01*
X156980D01*
Y226035D01*
D02*
G37*
G36*
X158045Y220823D02*
X156916D01*
X155825Y220531D01*
X154848Y219966D01*
X154050Y219168D01*
X153485Y218190D01*
X153193Y217100D01*
Y215971D01*
X153485Y214880D01*
X154050Y213903D01*
X154848Y213105D01*
X155825Y212540D01*
X156916Y212248D01*
X158045D01*
X159135Y212540D01*
X160113Y213105D01*
X160911Y213903D01*
X161476Y214880D01*
X161768Y215971D01*
Y217100D01*
X161476Y218190D01*
X160911Y219168D01*
X160113Y219966D01*
X159135Y220531D01*
X158045Y220823D01*
D02*
G37*
G36*
X18416Y212894D02*
X17017D01*
X15665Y212531D01*
X14453Y211832D01*
X13464Y210842D01*
X12764Y209630D01*
X12402Y208278D01*
Y206879D01*
X12764Y205527D01*
X13464Y204315D01*
X14453Y203326D01*
X15665Y202626D01*
X17017Y202264D01*
X18416D01*
X19768Y202626D01*
X20980Y203326D01*
X21970Y204315D01*
X22669Y205527D01*
X23031Y206879D01*
Y208278D01*
X22669Y209630D01*
X21970Y210842D01*
X20980Y211832D01*
X19768Y212531D01*
X18416Y212894D01*
D02*
G37*
G36*
X178145Y203285D02*
X177980D01*
Y197035D01*
X184230D01*
Y197200D01*
X183971Y198504D01*
X183462Y199733D01*
X182723Y200838D01*
X181783Y201779D01*
X180678Y202517D01*
X179449Y203026D01*
X178145Y203285D01*
D02*
G37*
G36*
X176980D02*
X176815D01*
X175511Y203026D01*
X174283Y202517D01*
X173177Y201779D01*
X172237Y200838D01*
X171499Y199733D01*
X170990Y198504D01*
X170730Y197200D01*
Y197035D01*
X176980D01*
Y203285D01*
D02*
G37*
G36*
X30227Y206965D02*
X28769D01*
X27340Y206680D01*
X25994Y206123D01*
X24782Y205313D01*
X23752Y204283D01*
X22942Y203071D01*
X22385Y201725D01*
X22100Y200295D01*
Y198838D01*
X22385Y197409D01*
X22942Y196063D01*
X23752Y194851D01*
X24782Y193821D01*
X25994Y193011D01*
X27340Y192454D01*
X28769Y192169D01*
X30227D01*
X31656Y192454D01*
X33002Y193011D01*
X34214Y193821D01*
X35244Y194851D01*
X36054Y196063D01*
X36611Y197409D01*
X36896Y198838D01*
Y200295D01*
X36611Y201725D01*
X36054Y203071D01*
X35244Y204283D01*
X34214Y205313D01*
X33002Y206123D01*
X31656Y206680D01*
X30227Y206965D01*
D02*
G37*
G36*
X54965Y198130D02*
X54032D01*
X53130Y197888D01*
X52322Y197422D01*
X51663Y196762D01*
X51196Y195954D01*
X50955Y195053D01*
Y194120D01*
X51196Y193219D01*
X51663Y192411D01*
X52322Y191751D01*
X53130Y191285D01*
X54032Y191043D01*
X54965D01*
X55866Y191285D01*
X56674Y191751D01*
X57333Y192411D01*
X57800Y193219D01*
X58041Y194120D01*
Y195053D01*
X57800Y195954D01*
X57333Y196762D01*
X56674Y197422D01*
X55866Y197888D01*
X54965Y198130D01*
D02*
G37*
G36*
X64998Y193341D02*
Y190087D01*
X68252D01*
X67998Y191036D01*
X67503Y191893D01*
X66804Y192592D01*
X65948Y193087D01*
X64998Y193341D01*
D02*
G37*
G36*
X63998D02*
X63048Y193087D01*
X62192Y192592D01*
X61493Y191893D01*
X60998Y191036D01*
X60744Y190087D01*
X63998D01*
Y193341D01*
D02*
G37*
G36*
X184230Y196035D02*
X177980D01*
Y189785D01*
X178145D01*
X179449Y190045D01*
X180678Y190554D01*
X181783Y191292D01*
X182723Y192233D01*
X183462Y193338D01*
X183971Y194567D01*
X184230Y195871D01*
Y196035D01*
D02*
G37*
G36*
X176980D02*
X170730D01*
Y195871D01*
X170990Y194567D01*
X171499Y193338D01*
X172237Y192233D01*
X173177Y191292D01*
X174283Y190554D01*
X175511Y190045D01*
X176815Y189785D01*
X176980D01*
Y196035D01*
D02*
G37*
G36*
X68252Y189087D02*
X64998D01*
Y185832D01*
X65948Y186087D01*
X66804Y186581D01*
X67503Y187280D01*
X67998Y188137D01*
X68252Y189087D01*
D02*
G37*
G36*
X63998D02*
X60744D01*
X60998Y188137D01*
X61493Y187280D01*
X62192Y186581D01*
X63048Y186087D01*
X63998Y185832D01*
Y189087D01*
D02*
G37*
G36*
X54965Y188130D02*
X54032D01*
X53130Y187888D01*
X52322Y187422D01*
X51663Y186762D01*
X51196Y185954D01*
X50955Y185053D01*
Y184120D01*
X51196Y183219D01*
X51663Y182411D01*
X52322Y181751D01*
X53130Y181285D01*
X54032Y181043D01*
X54965D01*
X55866Y181285D01*
X56674Y181751D01*
X57333Y182411D01*
X57800Y183219D01*
X58041Y184120D01*
Y185053D01*
X57800Y185954D01*
X57333Y186762D01*
X56674Y187422D01*
X55866Y187888D01*
X54965Y188130D01*
D02*
G37*
G36*
X64964Y183130D02*
X64032D01*
X63130Y182888D01*
X62322Y182422D01*
X61663Y181762D01*
X61196Y180954D01*
X60955Y180053D01*
Y179120D01*
X61196Y178219D01*
X61663Y177411D01*
X62322Y176751D01*
X63130Y176285D01*
X64032Y176043D01*
X64964D01*
X65866Y176285D01*
X66674Y176751D01*
X67333Y177411D01*
X67800Y178219D01*
X68041Y179120D01*
Y180053D01*
X67800Y180954D01*
X67333Y181762D01*
X66674Y182422D01*
X65866Y182888D01*
X64964Y183130D01*
D02*
G37*
G36*
X54998Y178341D02*
Y175087D01*
X58252D01*
X57998Y176036D01*
X57503Y176893D01*
X56804Y177592D01*
X55948Y178087D01*
X54998Y178341D01*
D02*
G37*
G36*
X53998D02*
X53048Y178087D01*
X52192Y177592D01*
X51493Y176893D01*
X50998Y176036D01*
X50744Y175087D01*
X53998D01*
Y178341D01*
D02*
G37*
G36*
X58252Y174087D02*
X54998D01*
Y170832D01*
X55948Y171087D01*
X56804Y171581D01*
X57503Y172280D01*
X57998Y173137D01*
X58252Y174087D01*
D02*
G37*
G36*
X53998D02*
X50744D01*
X50998Y173137D01*
X51493Y172280D01*
X52192Y171581D01*
X53048Y171087D01*
X53998Y170832D01*
Y174087D01*
D02*
G37*
G36*
X64998Y173341D02*
Y170087D01*
X68252D01*
X67998Y171036D01*
X67503Y171893D01*
X66804Y172592D01*
X65948Y173087D01*
X64998Y173341D01*
D02*
G37*
G36*
X63998D02*
X63048Y173087D01*
X62192Y172592D01*
X61493Y171893D01*
X60998Y171036D01*
X60744Y170087D01*
X63998D01*
Y173341D01*
D02*
G37*
G36*
X68252Y169087D02*
X64998D01*
Y165832D01*
X65948Y166087D01*
X66804Y166581D01*
X67503Y167280D01*
X67998Y168137D01*
X68252Y169087D01*
D02*
G37*
G36*
X63998D02*
X60744D01*
X60998Y168137D01*
X61493Y167280D01*
X62192Y166581D01*
X63048Y166087D01*
X63998Y165832D01*
Y169087D01*
D02*
G37*
G36*
X54965Y168130D02*
X54032D01*
X53130Y167888D01*
X52322Y167422D01*
X51663Y166762D01*
X51196Y165954D01*
X50955Y165053D01*
Y164120D01*
X51196Y163219D01*
X51663Y162411D01*
X52322Y161751D01*
X53130Y161285D01*
X54032Y161043D01*
X54965D01*
X55866Y161285D01*
X56674Y161751D01*
X57333Y162411D01*
X57800Y163219D01*
X58041Y164120D01*
Y165053D01*
X57800Y165954D01*
X57333Y166762D01*
X56674Y167422D01*
X55866Y167888D01*
X54965Y168130D01*
D02*
G37*
G36*
X64998Y163341D02*
Y160087D01*
X68252D01*
X67998Y161036D01*
X67503Y161893D01*
X66804Y162592D01*
X65948Y163087D01*
X64998Y163341D01*
D02*
G37*
G36*
X63998D02*
X63048Y163087D01*
X62192Y162592D01*
X61493Y161893D01*
X60998Y161036D01*
X60744Y160087D01*
X63998D01*
Y163341D01*
D02*
G37*
G36*
X178145Y164545D02*
X177980D01*
Y158295D01*
X184230D01*
Y158460D01*
X183971Y159764D01*
X183462Y160993D01*
X182723Y162098D01*
X181783Y163038D01*
X180678Y163777D01*
X179449Y164286D01*
X178145Y164545D01*
D02*
G37*
G36*
X176980D02*
X176815D01*
X175511Y164286D01*
X174283Y163777D01*
X173177Y163038D01*
X172237Y162098D01*
X171499Y160993D01*
X170990Y159764D01*
X170730Y158460D01*
Y158295D01*
X176980D01*
Y164545D01*
D02*
G37*
G36*
X68252Y159087D02*
X64998D01*
Y155832D01*
X65948Y156087D01*
X66804Y156581D01*
X67503Y157280D01*
X67998Y158137D01*
X68252Y159087D01*
D02*
G37*
G36*
X63998D02*
X60744D01*
X60998Y158137D01*
X61493Y157280D01*
X62192Y156581D01*
X63048Y156087D01*
X63998Y155832D01*
Y159087D01*
D02*
G37*
G36*
X184230Y157295D02*
X177980D01*
Y151045D01*
X178145D01*
X179449Y151305D01*
X180678Y151813D01*
X181783Y152552D01*
X182723Y153492D01*
X183462Y154598D01*
X183971Y155826D01*
X184230Y157130D01*
Y157295D01*
D02*
G37*
G36*
X176980D02*
X170730D01*
Y157130D01*
X170990Y155826D01*
X171499Y154598D01*
X172237Y153492D01*
X173177Y152552D01*
X174283Y151813D01*
X175511Y151305D01*
X176815Y151045D01*
X176980D01*
Y157295D01*
D02*
G37*
G36*
X158073Y152295D02*
X157980D01*
Y148295D01*
X161980D01*
Y148388D01*
X161674Y149532D01*
X161081Y150558D01*
X160243Y151396D01*
X159217Y151989D01*
X158073Y152295D01*
D02*
G37*
G36*
X156980D02*
X156888D01*
X155743Y151989D01*
X154717Y151396D01*
X153879Y150558D01*
X153287Y149532D01*
X152980Y148388D01*
Y148295D01*
X156980D01*
Y152295D01*
D02*
G37*
G36*
X30227Y161965D02*
X28769D01*
X27340Y161680D01*
X25994Y161123D01*
X24782Y160313D01*
X23752Y159283D01*
X22942Y158071D01*
X22385Y156725D01*
X22100Y155296D01*
Y153838D01*
X22385Y152409D01*
X22942Y151063D01*
X23752Y149851D01*
X24782Y148821D01*
X25994Y148011D01*
X27340Y147454D01*
X28769Y147169D01*
X30227D01*
X31656Y147454D01*
X33002Y148011D01*
X34214Y148821D01*
X35244Y149851D01*
X36054Y151063D01*
X36611Y152409D01*
X36896Y153838D01*
Y155296D01*
X36611Y156725D01*
X36054Y158071D01*
X35244Y159283D01*
X34214Y160313D01*
X33002Y161123D01*
X31656Y161680D01*
X30227Y161965D01*
D02*
G37*
G36*
X161980Y147295D02*
X157980D01*
Y143295D01*
X158073D01*
X159217Y143602D01*
X160243Y144194D01*
X161081Y145032D01*
X161674Y146058D01*
X161980Y147203D01*
Y147295D01*
D02*
G37*
G36*
X156980D02*
X152980D01*
Y147203D01*
X153287Y146058D01*
X153879Y145032D01*
X154717Y144194D01*
X155743Y143602D01*
X156888Y143295D01*
X156980D01*
Y147295D01*
D02*
G37*
G36*
X18416Y151969D02*
X17017D01*
X15665Y151606D01*
X14453Y150907D01*
X13464Y149917D01*
X12764Y148705D01*
X12402Y147353D01*
Y145954D01*
X12764Y144602D01*
X13464Y143390D01*
X14453Y142401D01*
X15665Y141701D01*
X17017Y141339D01*
X18416D01*
X19768Y141701D01*
X20980Y142401D01*
X21970Y143390D01*
X22669Y144602D01*
X23031Y145954D01*
Y147353D01*
X22669Y148705D01*
X21970Y149917D01*
X20980Y150907D01*
X19768Y151606D01*
X18416Y151969D01*
D02*
G37*
G36*
X158045Y142083D02*
X156916D01*
X155825Y141790D01*
X154848Y141226D01*
X154050Y140428D01*
X153485Y139450D01*
X153193Y138360D01*
Y137231D01*
X153485Y136140D01*
X154050Y135163D01*
X154848Y134364D01*
X155825Y133800D01*
X156916Y133508D01*
X158045D01*
X159135Y133800D01*
X160113Y134364D01*
X160911Y135163D01*
X161476Y136140D01*
X161768Y137231D01*
Y138360D01*
X161476Y139450D01*
X160911Y140428D01*
X160113Y141226D01*
X159135Y141790D01*
X158045Y142083D01*
D02*
G37*
G36*
X22547Y127350D02*
Y125697D01*
X24201D01*
X23896Y126432D01*
X23283Y127046D01*
X22547Y127350D01*
D02*
G37*
G36*
X21547D02*
X20812Y127046D01*
X20198Y126432D01*
X19894Y125697D01*
X21547D01*
Y127350D01*
D02*
G37*
G36*
X24201Y124697D02*
X22547D01*
Y123043D01*
X23283Y123348D01*
X23896Y123961D01*
X24201Y124697D01*
D02*
G37*
G36*
X21547D02*
X19894D01*
X20198Y123961D01*
X20812Y123348D01*
X21547Y123043D01*
Y124697D01*
D02*
G37*
G36*
X18216Y123020D02*
Y121366D01*
X19870D01*
X19566Y122102D01*
X18952Y122715D01*
X18216Y123020D01*
D02*
G37*
G36*
X17217D02*
X16481Y122715D01*
X15868Y122102D01*
X15563Y121366D01*
X17217D01*
Y123020D01*
D02*
G37*
G36*
X19870Y120366D02*
X18216D01*
Y118712D01*
X18952Y119017D01*
X19566Y119631D01*
X19870Y120366D01*
D02*
G37*
G36*
X17217D02*
X15563D01*
X15868Y119631D01*
X16481Y119017D01*
X17217Y118712D01*
Y120366D01*
D02*
G37*
G36*
X178145Y124545D02*
X177980D01*
Y118295D01*
X184230D01*
Y118460D01*
X183971Y119764D01*
X183462Y120993D01*
X182723Y122098D01*
X181783Y123038D01*
X180678Y123777D01*
X179449Y124286D01*
X178145Y124545D01*
D02*
G37*
G36*
X176980D02*
X176815D01*
X175511Y124286D01*
X174283Y123777D01*
X173177Y123038D01*
X172237Y122098D01*
X171499Y120993D01*
X170990Y119764D01*
X170730Y118460D01*
Y118295D01*
X176980D01*
Y124545D01*
D02*
G37*
G36*
X184230Y117295D02*
X177980D01*
Y111045D01*
X178145D01*
X179449Y111305D01*
X180678Y111813D01*
X181783Y112552D01*
X182723Y113492D01*
X183462Y114598D01*
X183971Y115826D01*
X184230Y117130D01*
Y117295D01*
D02*
G37*
G36*
X176980D02*
X170730D01*
Y117130D01*
X170990Y115826D01*
X171499Y114598D01*
X172237Y113492D01*
X173177Y112552D01*
X174283Y111813D01*
X175511Y111305D01*
X176815Y111045D01*
X176980D01*
Y117295D01*
D02*
G37*
G36*
X178145Y85805D02*
X177980D01*
Y79555D01*
X184230D01*
Y79720D01*
X183971Y81024D01*
X183462Y82252D01*
X182723Y83358D01*
X181783Y84298D01*
X180678Y85037D01*
X179449Y85546D01*
X178145Y85805D01*
D02*
G37*
G36*
X176980D02*
X176815D01*
X175511Y85546D01*
X174283Y85037D01*
X173177Y84298D01*
X172237Y83358D01*
X171499Y82252D01*
X170990Y81024D01*
X170730Y79720D01*
Y79555D01*
X176980D01*
Y85805D01*
D02*
G37*
G36*
X184230Y78555D02*
X177980D01*
Y72305D01*
X178145D01*
X179449Y72565D01*
X180678Y73073D01*
X181783Y73812D01*
X182723Y74752D01*
X183462Y75858D01*
X183971Y77086D01*
X184230Y78390D01*
Y78555D01*
D02*
G37*
G36*
X176980D02*
X170730D01*
Y78390D01*
X170990Y77086D01*
X171499Y75858D01*
X172237Y74752D01*
X173177Y73812D01*
X174283Y73073D01*
X175511Y72565D01*
X176815Y72305D01*
X176980D01*
Y78555D01*
D02*
G37*
G36*
X158073Y73555D02*
X157980D01*
Y69555D01*
X161980D01*
Y69648D01*
X161674Y70792D01*
X161081Y71818D01*
X160243Y72656D01*
X159217Y73248D01*
X158073Y73555D01*
D02*
G37*
G36*
X156980D02*
X156888D01*
X155743Y73248D01*
X154717Y72656D01*
X153879Y71818D01*
X153287Y70792D01*
X152980Y69648D01*
Y69555D01*
X156980D01*
Y73555D01*
D02*
G37*
G36*
X161980Y68555D02*
X157980D01*
Y64555D01*
X158073D01*
X159217Y64862D01*
X160243Y65454D01*
X161081Y66292D01*
X161674Y67318D01*
X161980Y68463D01*
Y68555D01*
D02*
G37*
G36*
X156980D02*
X152980D01*
Y68463D01*
X153287Y67318D01*
X153879Y66292D01*
X154717Y65454D01*
X155743Y64862D01*
X156888Y64555D01*
X156980D01*
Y68555D01*
D02*
G37*
G36*
X158045Y63342D02*
X156916D01*
X155825Y63050D01*
X154848Y62486D01*
X154050Y61688D01*
X153485Y60710D01*
X153193Y59620D01*
Y58491D01*
X153485Y57400D01*
X154050Y56423D01*
X154848Y55624D01*
X155825Y55060D01*
X156916Y54768D01*
X158045D01*
X159135Y55060D01*
X160113Y55624D01*
X160911Y56423D01*
X161476Y57400D01*
X161768Y58491D01*
Y59620D01*
X161476Y60710D01*
X160911Y61688D01*
X160113Y62486D01*
X159135Y63050D01*
X158045Y63342D01*
D02*
G37*
G36*
X178145Y45805D02*
X177980D01*
Y39555D01*
X184230D01*
Y39720D01*
X183971Y41024D01*
X183462Y42252D01*
X182723Y43358D01*
X181783Y44298D01*
X180678Y45037D01*
X179449Y45546D01*
X178145Y45805D01*
D02*
G37*
G36*
X176980D02*
X176815D01*
X175511Y45546D01*
X174283Y45037D01*
X173177Y44298D01*
X172237Y43358D01*
X171499Y42252D01*
X170990Y41024D01*
X170730Y39720D01*
Y39555D01*
X176980D01*
Y45805D01*
D02*
G37*
G36*
X184230Y38555D02*
X177980D01*
Y32305D01*
X178145D01*
X179449Y32564D01*
X180678Y33073D01*
X181783Y33812D01*
X182723Y34752D01*
X183462Y35858D01*
X183971Y37086D01*
X184230Y38390D01*
Y38555D01*
D02*
G37*
G36*
X176980D02*
X170730D01*
Y38390D01*
X170990Y37086D01*
X171499Y35858D01*
X172237Y34752D01*
X173177Y33812D01*
X174283Y33073D01*
X175511Y32564D01*
X176815Y32305D01*
X176980D01*
Y38555D01*
D02*
G37*
G36*
X193652Y23244D02*
X192175D01*
X190727Y22956D01*
X189363Y22391D01*
X188135Y21571D01*
X187091Y20527D01*
X186270Y19299D01*
X185705Y17934D01*
X185417Y16486D01*
Y15010D01*
X185705Y13562D01*
X186270Y12197D01*
X187091Y10970D01*
X188135Y9926D01*
X189363Y9105D01*
X190727Y8540D01*
X192175Y8252D01*
X193652D01*
X195100Y8540D01*
X196464Y9105D01*
X197692Y9926D01*
X198736Y10970D01*
X199556Y12197D01*
X200121Y13562D01*
X200409Y15010D01*
Y16486D01*
X200121Y17934D01*
X199556Y19299D01*
X198736Y20527D01*
X197692Y21571D01*
X196464Y22391D01*
X195100Y22956D01*
X193652Y23244D01*
D02*
G37*
G36*
X16486D02*
X15010D01*
X13562Y22956D01*
X12197Y22391D01*
X10970Y21571D01*
X9926Y20527D01*
X9105Y19299D01*
X8540Y17934D01*
X8252Y16486D01*
Y15010D01*
X8540Y13562D01*
X9105Y12197D01*
X9926Y10970D01*
X10970Y9926D01*
X12197Y9105D01*
X13562Y8540D01*
X15010Y8252D01*
X16486D01*
X17934Y8540D01*
X19299Y9105D01*
X20527Y9926D01*
X21571Y10970D01*
X22391Y12197D01*
X22956Y13562D01*
X23244Y15010D01*
Y16486D01*
X22956Y17934D01*
X22391Y19299D01*
X21571Y20527D01*
X20527Y21571D01*
X19299Y22391D01*
X17934Y22956D01*
X16486Y23244D01*
D02*
G37*
%LPD*%
D26*
X54498Y194587D02*
D03*
X64498Y189587D02*
D03*
X54498Y184587D02*
D03*
X64498Y179587D02*
D03*
X54498Y174587D02*
D03*
X64498Y169587D02*
D03*
X54498Y164587D02*
D03*
X64498Y159587D02*
D03*
D27*
X29498Y199567D02*
D03*
Y154567D02*
D03*
D28*
X17717Y207579D02*
D03*
Y146653D02*
D03*
D29*
X177480Y157795D02*
D03*
Y117795D02*
D03*
X177480Y79055D02*
D03*
Y39055D02*
D03*
Y315276D02*
D03*
Y275276D02*
D03*
X177480Y236535D02*
D03*
Y196535D02*
D03*
D30*
X157480Y147795D02*
D03*
X157480Y69055D02*
D03*
Y305276D02*
D03*
X157480Y216535D02*
D03*
Y226535D02*
D03*
Y137795D02*
D03*
X157480Y295276D02*
D03*
Y59055D02*
D03*
D31*
X192913Y338583D02*
D03*
Y15748D02*
D03*
X15748D02*
D03*
Y338583D02*
D03*
D32*
X17717Y120866D02*
D03*
X22047Y125197D02*
D03*
X22441Y231890D02*
D03*
M02*
