G04*
G04 #@! TF.GenerationSoftware,Altium Limited,Altium Designer,25.8.1 (18)*
G04*
G04 Layer_Color=16711935*
%FSLAX25Y25*%
%MOIN*%
G70*
G04*
G04 #@! TF.SameCoordinates,67A00628-0582-4EEE-B3C0-3C6F6708BFE6*
G04*
G04*
G04 #@! TF.FilePolarity,Negative*
G04*
G01*
G75*
%ADD19C,0.06312*%
%ADD20C,0.13595*%
%ADD21C,0.09855*%
%ADD22C,0.12300*%
%ADD23C,0.07800*%
%ADD24C,0.06800*%
%ADD25C,0.03162*%
D19*
X54498Y194587D02*
D03*
X64498Y189587D02*
D03*
X54498Y184587D02*
D03*
X64498Y179587D02*
D03*
X54498Y174587D02*
D03*
X64498Y169587D02*
D03*
X54498Y164587D02*
D03*
X64498Y159587D02*
D03*
D20*
X29498Y199567D02*
D03*
Y154567D02*
D03*
D21*
X17717Y207579D02*
D03*
Y146653D02*
D03*
D22*
X177480Y157795D02*
D03*
Y117795D02*
D03*
X177480Y79055D02*
D03*
Y39055D02*
D03*
Y315276D02*
D03*
Y275276D02*
D03*
X177480Y236535D02*
D03*
Y196535D02*
D03*
D23*
X157480Y147795D02*
D03*
X157480Y69055D02*
D03*
Y305276D02*
D03*
X157480Y216535D02*
D03*
Y226535D02*
D03*
Y137795D02*
D03*
X157480Y295276D02*
D03*
Y59055D02*
D03*
D24*
X192913Y338583D02*
D03*
Y15748D02*
D03*
X15748D02*
D03*
Y338583D02*
D03*
D25*
X17717Y120866D02*
D03*
X22047Y125197D02*
D03*
X22441Y231890D02*
D03*
M02*
