G04*
G04 #@! TF.GenerationSoftware,Altium Limited,Altium Designer,25.8.1 (18)*
G04*
G04 Layer_Color=8388736*
%FSLAX25Y25*%
%MOIN*%
G70*
G04*
G04 #@! TF.SameCoordinates,67A00628-0582-4EEE-B3C0-3C6F6708BFE6*
G04*
G04*
G04 #@! TF.FilePolarity,Negative*
G04*
G01*
G75*
G04:AMPARAMS|DCode=16|XSize=27.69mil|YSize=43.43mil|CornerRadius=7.25mil|HoleSize=0mil|Usage=FLASHONLY|Rotation=270.000|XOffset=0mil|YOffset=0mil|HoleType=Round|Shape=RoundedRectangle|*
%AMROUNDEDRECTD16*
21,1,0.02769,0.02894,0,0,270.0*
21,1,0.01319,0.04343,0,0,270.0*
1,1,0.01450,-0.01447,-0.00659*
1,1,0.01450,-0.01447,0.00659*
1,1,0.01450,0.01447,0.00659*
1,1,0.01450,0.01447,-0.00659*
%
%ADD16ROUNDEDRECTD16*%
G04:AMPARAMS|DCode=17|XSize=27.69mil|YSize=43.43mil|CornerRadius=7.25mil|HoleSize=0mil|Usage=FLASHONLY|Rotation=180.000|XOffset=0mil|YOffset=0mil|HoleType=Round|Shape=RoundedRectangle|*
%AMROUNDEDRECTD17*
21,1,0.02769,0.02894,0,0,180.0*
21,1,0.01319,0.04343,0,0,180.0*
1,1,0.01450,-0.00659,0.01447*
1,1,0.01450,0.00659,0.01447*
1,1,0.01450,0.00659,-0.01447*
1,1,0.01450,-0.00659,-0.01447*
%
%ADD17ROUNDEDRECTD17*%
G04:AMPARAMS|DCode=18|XSize=35.95mil|YSize=42.65mil|CornerRadius=8.61mil|HoleSize=0mil|Usage=FLASHONLY|Rotation=270.000|XOffset=0mil|YOffset=0mil|HoleType=Round|Shape=RoundedRectangle|*
%AMROUNDEDRECTD18*
21,1,0.03595,0.02542,0,0,270.0*
21,1,0.01873,0.04265,0,0,270.0*
1,1,0.01722,-0.01271,-0.00936*
1,1,0.01722,-0.01271,0.00936*
1,1,0.01722,0.01271,0.00936*
1,1,0.01722,0.01271,-0.00936*
%
%ADD18ROUNDEDRECTD18*%
%ADD19C,0.06312*%
%ADD20C,0.13595*%
%ADD21C,0.09855*%
%ADD22C,0.12300*%
%ADD23C,0.07800*%
%ADD24C,0.06800*%
%ADD25C,0.03162*%
D16*
X17717Y231732D02*
D03*
Y225984D02*
D03*
Y125354D02*
D03*
Y131102D02*
D03*
X133071Y134016D02*
D03*
X133071Y64803D02*
D03*
X133307Y289443D02*
D03*
X133071Y212756D02*
D03*
Y218504D02*
D03*
X133307Y295191D02*
D03*
X133071Y139764D02*
D03*
X133071Y59055D02*
D03*
D17*
X118268Y139764D02*
D03*
X118268Y295276D02*
D03*
Y59055D02*
D03*
X124016Y218504D02*
D03*
X118268D02*
D03*
X124016Y295276D02*
D03*
X124016Y139764D02*
D03*
X124016Y59055D02*
D03*
D18*
X110236Y139764D02*
D03*
Y133701D02*
D03*
X109843Y295158D02*
D03*
X110236Y65118D02*
D03*
X109843Y289094D02*
D03*
X110236Y59055D02*
D03*
X110236Y218504D02*
D03*
Y212441D02*
D03*
D19*
X54498Y194587D02*
D03*
X64498Y189587D02*
D03*
X54498Y184587D02*
D03*
X64498Y179587D02*
D03*
X54498Y174587D02*
D03*
X64498Y169587D02*
D03*
X54498Y164587D02*
D03*
X64498Y159587D02*
D03*
D20*
X29498Y199567D02*
D03*
Y154567D02*
D03*
D21*
X17717Y207579D02*
D03*
Y146653D02*
D03*
D22*
X177480Y157795D02*
D03*
Y117795D02*
D03*
X177480Y79055D02*
D03*
Y39055D02*
D03*
Y315276D02*
D03*
Y275276D02*
D03*
X177480Y236535D02*
D03*
Y196535D02*
D03*
D23*
X157480Y147795D02*
D03*
X157480Y69055D02*
D03*
Y305276D02*
D03*
X157480Y216535D02*
D03*
Y226535D02*
D03*
Y137795D02*
D03*
X157480Y295276D02*
D03*
Y59055D02*
D03*
D24*
X192913Y338583D02*
D03*
Y15748D02*
D03*
X15748D02*
D03*
Y338583D02*
D03*
D25*
X17717Y120866D02*
D03*
X22047Y125197D02*
D03*
X22441Y231890D02*
D03*
M02*
