G04*
G04 #@! TF.GenerationSoftware,Altium Limited,Altium Designer,25.8.1 (18)*
G04*
G04 Layer_Color=8421504*
%FSLAX25Y25*%
%MOIN*%
G70*
G04*
G04 #@! TF.SameCoordinates,67A00628-0582-4EEE-B3C0-3C6F6708BFE6*
G04*
G04*
G04 #@! TF.FilePolarity,Positive*
G04*
G01*
G75*
G04:AMPARAMS|DCode=13|XSize=19.68mil|YSize=35.43mil|CornerRadius=3.25mil|HoleSize=0mil|Usage=FLASHONLY|Rotation=270.000|XOffset=0mil|YOffset=0mil|HoleType=Round|Shape=RoundedRectangle|*
%AMROUNDEDRECTD13*
21,1,0.01968,0.02894,0,0,270.0*
21,1,0.01319,0.03543,0,0,270.0*
1,1,0.00650,-0.01447,-0.00659*
1,1,0.00650,-0.01447,0.00659*
1,1,0.00650,0.01447,0.00659*
1,1,0.00650,0.01447,-0.00659*
%
%ADD13ROUNDEDRECTD13*%
G04:AMPARAMS|DCode=14|XSize=19.68mil|YSize=35.43mil|CornerRadius=3.25mil|HoleSize=0mil|Usage=FLASHONLY|Rotation=180.000|XOffset=0mil|YOffset=0mil|HoleType=Round|Shape=RoundedRectangle|*
%AMROUNDEDRECTD14*
21,1,0.01968,0.02894,0,0,180.0*
21,1,0.01319,0.03543,0,0,180.0*
1,1,0.00650,-0.00659,0.01447*
1,1,0.00650,0.00659,0.01447*
1,1,0.00650,0.00659,-0.01447*
1,1,0.00650,-0.00659,-0.01447*
%
%ADD14ROUNDEDRECTD14*%
G04:AMPARAMS|DCode=15|XSize=27.95mil|YSize=34.65mil|CornerRadius=4.61mil|HoleSize=0mil|Usage=FLASHONLY|Rotation=270.000|XOffset=0mil|YOffset=0mil|HoleType=Round|Shape=RoundedRectangle|*
%AMROUNDEDRECTD15*
21,1,0.02795,0.02542,0,0,270.0*
21,1,0.01873,0.03465,0,0,270.0*
1,1,0.00922,-0.01271,-0.00936*
1,1,0.00922,-0.01271,0.00936*
1,1,0.00922,0.01271,0.00936*
1,1,0.00922,0.01271,-0.00936*
%
%ADD15ROUNDEDRECTD15*%
D13*
X17717Y231732D02*
D03*
Y225984D02*
D03*
Y125354D02*
D03*
Y131102D02*
D03*
X133071Y134016D02*
D03*
X133071Y64803D02*
D03*
X133307Y289443D02*
D03*
X133071Y212756D02*
D03*
Y218504D02*
D03*
X133307Y295191D02*
D03*
X133071Y139764D02*
D03*
X133071Y59055D02*
D03*
D14*
X118268Y139764D02*
D03*
X118268Y295276D02*
D03*
Y59055D02*
D03*
X124016Y218504D02*
D03*
X118268D02*
D03*
X124016Y295276D02*
D03*
X124016Y139764D02*
D03*
X124016Y59055D02*
D03*
D15*
X110236Y139764D02*
D03*
Y133701D02*
D03*
X109843Y295158D02*
D03*
X110236Y65118D02*
D03*
X109843Y289094D02*
D03*
X110236Y59055D02*
D03*
X110236Y218504D02*
D03*
Y212441D02*
D03*
M02*
