G04*
G04 #@! TF.GenerationSoftware,Altium Limited,Altium Designer,22.1.2 (22)*
G04*
G04 Layer_Color=16711935*
%FSLAX25Y25*%
%MOIN*%
G70*
G04*
G04 #@! TF.SameCoordinates,CA9A308F-EC6D-4BF3-840D-A7C0D9005CE4*
G04*
G04*
G04 #@! TF.FilePolarity,Negative*
G04*
G01*
G75*
%ADD29C,0.06741*%
%ADD30C,0.12965*%
%ADD31R,0.06312X0.06312*%
%ADD32C,0.06312*%
%ADD33C,0.13595*%
%ADD34C,0.10249*%
%ADD35C,0.06800*%
D29*
X215567Y293862D02*
D03*
X205567D02*
D03*
X383035Y141284D02*
D03*
Y131283D02*
D03*
X140764Y293862D02*
D03*
X130764D02*
D03*
X383035Y203331D02*
D03*
Y213331D02*
D03*
X151520Y51020D02*
D03*
X141520D02*
D03*
X224748D02*
D03*
X214748D02*
D03*
X297976D02*
D03*
X287976D02*
D03*
X279583Y293862D02*
D03*
X289583D02*
D03*
D30*
X195567Y313862D02*
D03*
X235567D02*
D03*
X403035Y111284D02*
D03*
Y151284D02*
D03*
X120764Y313862D02*
D03*
X160764D02*
D03*
X403035Y223331D02*
D03*
Y183331D02*
D03*
X121520Y31020D02*
D03*
X161520D02*
D03*
X194748D02*
D03*
X234748D02*
D03*
X267976D02*
D03*
X307976D02*
D03*
X309583Y313862D02*
D03*
X269583D02*
D03*
D31*
X36551Y192264D02*
D03*
Y130264D02*
D03*
D32*
X43551Y196264D02*
D03*
X36551Y200264D02*
D03*
X43551Y204264D02*
D03*
X36551Y208264D02*
D03*
X43551Y212264D02*
D03*
X36551Y216264D02*
D03*
X43551Y220264D02*
D03*
Y158264D02*
D03*
X36551Y154264D02*
D03*
X43551Y150264D02*
D03*
X36551Y146264D02*
D03*
X43551Y142264D02*
D03*
X36551Y138264D02*
D03*
X43551Y134264D02*
D03*
D33*
X26551Y231264D02*
D03*
Y119264D02*
D03*
D34*
X40051Y238264D02*
D03*
Y112264D02*
D03*
D35*
X421260Y334646D02*
D03*
Y11811D02*
D03*
X11811D02*
D03*
Y334646D02*
D03*
M02*
