M48
;Layer_Color=9474304
;FILE_FORMAT=2:4
INCH,TZ
;TYPE=PLATED
T1F00S00C0.0079
T2F00S00C0.0280
T3F00S00C0.0354
T4F00S00C0.0400
T5F00S00C0.0630
T6F00S00C0.0850
T7F00S00C0.1299
;TYPE=NON_PLATED
T8F00S00C0.1280
%
T01
X22480Y13937
Y15118
X19488Y21299
X9449
T02
X3819Y3071
X40157Y2756
X14567Y17953
X5630Y26299
X39843Y32402
T03
X3655Y13026
Y13826
Y14626
Y15426
X4355Y15026
Y14226
Y13426
Y15826
Y19626
Y20426
Y21226
Y22026
X3655Y21626
Y20826
Y20026
Y19226
T04
X14152Y5141
X15152
X21475Y5102
X22475
X28798Y5141
X29798
X38225Y13128
Y14128
X38304Y20333
Y21333
X28958Y29347
X27958
X21557Y29386
X20557
X14076Y29293
X13076
T05
X4005Y11226
Y23826
T06
X12152Y3141
X16152
X19475Y3102
X23475
X26798Y3141
X30798
X40225Y11128
Y15128
X40304Y18333
Y22333
X12076Y31293
X16076
X19557Y31386
X23557
X26958Y31347
X30958
T07
X1181Y1181
X42126
X1181Y33465
X42126
T08
X2655Y11926
Y23126
M30
